<svg width="269" height="155" viewBox="0 0 269 155" fill="none" xmlns="http://www.w3.org/2000/svg">
<path d="M76.3053 122.199H3.63472C2.67132 122.199 1.74733 122.583 1.06579 123.266C0.384244 123.949 0.000902904 124.875 0 125.841L0 140.42C0 150.434 20.7183 154.998 39.9683 154.998C59.2184 154.998 79.94 150.434 79.94 140.42V125.841C79.9391 124.875 79.5558 123.949 78.8742 123.266C78.1927 122.583 77.2687 122.199 76.3053 122.199Z" fill="#FAE170"/>
<path d="M265.365 112.977H192.695C191.731 112.977 190.807 113.36 190.126 114.043C189.444 114.726 189.061 115.652 189.06 116.619V131.197C189.06 141.211 209.778 145.776 229.028 145.776C248.278 145.776 269 141.211 269 131.197V116.619C268.999 115.652 268.616 114.726 267.934 114.043C267.253 113.36 266.329 112.977 265.365 112.977Z" fill="#EFD35E"/>
<path d="M265.365 98.3984H192.695C191.731 98.3984 190.806 98.7825 190.125 99.4662C189.443 100.15 189.06 101.077 189.06 102.044V116.619C189.06 126.636 209.778 131.198 229.028 131.198C248.278 131.198 269 126.636 269 116.619V102.044C269 101.077 268.617 100.15 267.935 99.4662C267.254 98.7825 266.329 98.3984 265.365 98.3984Z" fill="#FAE170"/>
<path d="M265.365 83.8203H192.695C191.731 83.8203 190.806 84.2044 190.125 84.8881C189.443 85.5717 189.06 86.499 189.06 87.4658V102.044C189.06 112.058 209.778 116.619 229.028 116.619C248.278 116.619 269 112.065 269 102.044V87.4658C269 86.499 268.617 85.5717 267.935 84.8881C267.254 84.2044 266.329 83.8203 265.365 83.8203Z" fill="#EFD35E"/>
<path d="M134.556 25.5106C154.624 25.5106 170.893 20.6157 170.893 14.5776C170.893 8.53943 154.624 3.64453 134.556 3.64453C114.488 3.64453 98.2191 8.53943 98.2191 14.5776C98.2191 20.6157 114.488 25.5106 134.556 25.5106Z" stroke="black" stroke-linecap="round" stroke-linejoin="round"/>
<path d="M170.893 14.5781V29.1533C170.893 35.1904 154.62 40.0863 134.556 40.0863C114.492 40.0863 98.2191 35.1904 98.2191 29.1533V14.5781" stroke="black" stroke-linecap="round" stroke-linejoin="round"/>
<path d="M229.028 72.8867C209.778 72.8867 189.06 77.4513 189.06 87.4653C189.06 97.4793 209.778 102.044 229.028 102.044C248.278 102.044 269 97.4793 269 87.4653C269 77.4513 248.282 72.8867 229.028 72.8867Z" fill="#FAE170"/>
<path d="M170.893 98.3984H98.2193C97.7422 98.3984 97.2697 98.4928 96.8289 98.676C96.3881 98.8592 95.9876 99.1278 95.6504 99.4664C95.3131 99.8049 95.0457 100.207 94.8635 100.649C94.6812 101.091 94.5876 101.565 94.588 102.044V116.619C94.588 126.636 115.306 131.198 134.556 131.198C153.806 131.198 174.525 126.636 174.525 116.619V102.044C174.525 101.565 174.431 101.091 174.249 100.649C174.067 100.207 173.799 99.8049 173.462 99.4664C173.125 99.1278 172.725 98.8592 172.284 98.676C171.843 98.4928 171.37 98.3984 170.893 98.3984Z" fill="#EFD35E"/>
<path d="M170.893 83.8203H98.2193C97.2559 83.8212 96.3323 84.2057 95.6514 84.8893C94.9705 85.5728 94.588 86.4996 94.588 87.4658V102.044C94.588 112.058 115.306 116.619 134.556 116.619C153.806 116.619 174.525 112.065 174.525 102.044V87.4658C174.525 86.4996 174.142 85.5728 173.461 84.8893C172.78 84.2057 171.857 83.8212 170.893 83.8203Z" fill="#FAE170"/>
<path d="M170.893 69.2422H98.2193C97.2562 69.2422 96.3326 69.6259 95.6516 70.3089C94.9706 70.9919 94.588 71.9183 94.588 72.8843V87.4628C94.588 97.4768 115.306 102.041 134.556 102.041C153.806 102.041 174.525 97.4768 174.525 87.4628V72.8843C174.525 72.406 174.431 71.9324 174.248 71.4905C174.066 71.0486 173.798 70.6471 173.461 70.3089C173.124 69.9707 172.723 69.7025 172.283 69.5194C171.842 69.3364 171.37 69.2422 170.893 69.2422Z" fill="#EFD35E"/>
<path d="M170.893 54.6641H98.2193C97.2559 54.665 96.3323 55.0494 95.6514 55.733C94.9705 56.4166 94.588 57.3433 94.588 58.3096V72.8847C94.588 82.9021 115.306 87.4632 134.556 87.4632C153.806 87.4632 174.525 82.9021 174.525 72.8847V58.3096C174.525 57.3433 174.142 56.4166 173.461 55.733C172.78 55.0494 171.857 54.665 170.893 54.6641Z" fill="#FAE170"/>
<path d="M170.893 40.0859H98.2193C97.2559 40.0868 96.3323 40.4713 95.6514 41.1549C94.9705 41.8384 94.588 42.7652 94.588 43.7314V58.31C94.588 68.324 115.306 72.8851 134.556 72.8851C153.806 72.8851 174.525 68.3308 174.525 58.31V43.7314C174.525 42.7652 174.142 41.8384 173.461 41.1549C172.78 40.4713 171.857 40.0868 170.893 40.0859Z" fill="#EFD35E"/>
<path d="M170.893 25.5117H98.2193C97.2562 25.5117 96.3326 25.8954 95.6516 26.5785C94.9706 27.2615 94.588 28.1879 94.588 29.1538V43.7323C94.588 53.7463 115.306 58.3109 134.556 58.3109C153.806 58.3109 174.525 53.7463 174.525 43.7323V29.1538C174.525 28.1879 174.142 27.2615 173.461 26.5785C172.78 25.8954 171.856 25.5117 170.893 25.5117Z" fill="#FAE170"/>
<path d="M170.893 10.9336H98.2193C97.2559 10.9345 96.3323 11.319 95.6514 12.0025C94.9705 12.6861 94.588 13.6128 94.588 14.5791V29.1542C94.588 39.1682 115.306 43.7328 134.556 43.7328C153.806 43.7328 174.525 39.1682 174.525 29.1542V14.5791C174.525 13.6128 174.142 12.6861 173.461 12.0025C172.78 11.319 171.857 10.9345 170.893 10.9336Z" fill="#EFD35E"/>
<path d="M134.556 0C115.306 0 94.588 4.56113 94.588 14.5785C94.588 24.596 115.306 29.1537 134.556 29.1537C153.806 29.1537 174.525 24.5994 174.525 14.5785C174.525 4.55772 153.806 0 134.556 0Z" fill="#FAE170"/>
<path d="M76.3053 107.852H3.63472C2.67132 107.852 1.74733 108.235 1.06579 108.918C0.384244 109.601 0.000902904 110.527 0 111.494L0 126.072C0 136.086 20.7183 140.651 39.9683 140.651C59.2184 140.651 79.94 136.086 79.94 126.072V111.494C79.9391 110.527 79.5558 109.601 78.8742 108.918C78.1927 108.235 77.2687 107.852 76.3053 107.852Z" fill="#EFD35E"/>
<path d="M76.3053 93.2734H3.63472C2.67073 93.2734 1.74623 93.6575 1.06459 94.3412C0.382943 95.0248 0 95.9521 0 96.9189L0 111.494C0 121.511 20.7183 126.073 39.9683 126.073C59.2184 126.073 79.94 121.511 79.94 111.494V96.9189C79.94 95.9521 79.5571 95.0248 78.8754 94.3412C78.1938 93.6575 77.2693 93.2734 76.3053 93.2734Z" fill="#FAE170"/>
<path d="M76.3053 78.6953H3.63472C2.67073 78.6953 1.74623 79.0794 1.06459 79.7631C0.382943 80.4467 0 81.374 0 82.3408L0 96.9194C0 106.94 20.7183 111.494 39.9683 111.494C59.2184 111.494 79.94 106.94 79.94 96.9194V82.3408C79.94 81.374 79.5571 80.4467 78.8754 79.7631C78.1938 79.0794 77.2693 78.6953 76.3053 78.6953Z" fill="#EFD35E"/>
<path d="M39.9683 67.7617C20.7183 67.7617 0 72.3263 0 82.3403C0 92.3543 20.7183 96.9188 39.9683 96.9188C59.2184 96.9188 79.94 92.3543 79.94 82.3403C79.94 72.3263 59.2218 67.7617 39.9683 67.7617Z" fill="#FAE170"/>
</svg>
