<svg xmlns="http://www.w3.org/2000/svg" xmlns:xlink="http://www.w3.org/1999/xlink" width="520" height="410" viewBox="0 0 520 410">
  <defs>
    <path id="deployment-a" d="M270.6,200.733 L0.172,200.733 L0.172,9.896 C0.172,4.665 4.414,0.423 9.646,0.423 L261.126,0.423 C266.359,0.423 270.6,4.665 270.6,9.896 L270.6,59.205 L260.562,59.205 L260.562,10.235 L9.732,10.235 L9.732,164.323 L260.562,164.323 L260.562,148.26 L270.6,148.26 L270.6,200.733"/>
    <linearGradient id="deployment-b" x1="-3.016%" x2="108.078%" y1="50%" y2="50%">
      <stop offset="0%" stop-color="#40D4E6"/>
      <stop offset="100%" stop-color="#5477FF"/>
    </linearGradient>
    <path id="deployment-d" d="M251.562,154.323 L0.732,154.323 L0.732,0.235 L251.562,0.235 L251.562,49.205 L171.594,49.205 C169.377,49.205 167.58,51.002 167.58,53.219 L167.58,134.245 C167.58,136.462 169.377,138.26 171.594,138.26 L251.562,138.26 L251.562,154.323"/>
    <linearGradient id="deployment-e" x1="0%" x2="100%" y1="50%" y2="50%">
      <stop offset="0%" stop-color="#404A60"/>
      <stop offset="100%" stop-color="#2E3D5C"/>
    </linearGradient>
    <polyline id="deployment-g" points="300.589 .812 30.267 .812 .685 111.379 330.17 111.379 300.589 .812"/>
    <linearGradient id="deployment-h" x1="50%" x2="50%" y1="-9.667%" y2="140.989%">
      <stop offset="0%" stop-color="#40D4E6"/>
      <stop offset="100%" stop-color="#5477FF"/>
    </linearGradient>
    <path id="deployment-j" d="M321.562,8.987 L9.292,8.987 C4.539,8.987 0.685,5.133 0.685,0.379 L330.17,0.379 C330.17,5.133 326.316,8.987 321.562,8.987"/>
    <linearGradient id="deployment-k" x1="-46.348%" x2="53.652%" y1="50.012%" y2="50.012%">
      <stop offset="0%" stop-color="#40D4E6"/>
      <stop offset="100%" stop-color="#5477FF"/>
    </linearGradient>
    <path id="deployment-m" d="M27.478,89.26 L0.6,89.26 L0.6,0.205 L27.478,0.205 C29.695,0.205 31.493,2.002 31.493,4.219 L31.493,23.463 L9.263,23.463 L9.263,24.417 L31.493,24.417 L31.493,61.7 C29.198,62.129 27.24,64.242 27.628,68.118 C28.22,74.048 31.586,80.286 29.202,88.871 C28.68,89.12 28.095,89.26 27.478,89.26 L27.478,89.26 Z"/>
    <linearGradient id="deployment-o" x1="-2675.304%" x2="317.613%" y1="46.458%" y2="46.458%">
      <stop offset="0%" stop-color="#D1F5F8"/>
      <stop offset="100%" stop-color="#D5DEFF"/>
    </linearGradient>
    <path id="deployment-p" d="M84.562,89.26 L4.594,89.26 C2.377,89.26 0.58,87.462 0.58,85.245 L0.58,4.219 C0.58,2.002 2.377,0.205 4.594,0.205 L84.562,0.205 L84.562,89.26"/>
    <linearGradient id="deployment-q" x1="-198.671%" x2="100%" y1="31.524%" y2="31.524%">
      <stop offset="0%" stop-color="#D1D3D9"/>
      <stop offset="100%" stop-color="#CDD1D7"/>
    </linearGradient>
  </defs>
  <g fill="none" fill-rule="evenodd">
    <g transform="translate(123 119)">
      <mask id="deployment-c" fill="#fff">
        <use xlink:href="#deployment-a"/>
      </mask>
      <path fill="url(#deployment-b)" d="M270.6,200.733 L0.172,200.733 L0.172,9.896 C0.172,4.665 4.414,0.423 9.646,0.423 L261.126,0.423 C266.359,0.423 270.6,4.665 270.6,9.896 L270.6,59.205 L260.562,59.205 L260.562,10.235 L9.732,10.235 L9.732,164.323 L260.562,164.323 L260.562,148.26 L270.6,148.26 L270.6,200.733" mask="url(#deployment-c)"/>
    </g>
    <g transform="translate(132 129)">
      <mask id="deployment-f" fill="#fff">
        <use xlink:href="#deployment-d"/>
      </mask>
      <path fill="url(#deployment-e)" d="M251.562,154.323 L0.732,154.323 L0.732,0.235 L251.562,0.235 L251.562,49.205 L171.594,49.205 C169.377,49.205 167.58,51.002 167.58,53.219 L167.58,134.245 C167.58,136.462 169.377,138.26 171.594,138.26 L251.562,138.26 L251.562,154.323" mask="url(#deployment-f)"/>
    </g>
    <path fill="#6AAFE8" d="M43.1786464 129.027721L104.871509 129.027721C103.668788 122.907664 98.2590514 118.36119 92.0638851 118.36119 90.6565311 118.36119 89.2722485 118.587444 87.9491552 119.034855L87.6111094 119.147982 87.4074794 118.852426C83.9848908 113.917652 78.4036237 110.972279 72.4742798 110.972279 65.5307984 110.972279 59.2794583 114.889931 56.1618131 121.197513L55.9902824 121.543009 55.6201373 121.451284C54.8226701 121.25051 53.9991223 121.149613 53.171562 121.149613 48.4429328 121.149613 44.3312122 124.428251 43.1786464 129.027721zM106 130L42 130 42.1113445 129.421117C43.1385223 124.06543 47.7909156 120.177334 53.171562 120.177334 53.9489671 120.177334 54.7223598 120.258867 55.4786997 120.420913 58.8130153 113.982878 65.2910567 110 72.4742798 110 78.5962196 110 84.3670731 112.984101 87.9842638 118.002446 89.3023416 117.594782 90.6735839 117.388912 92.0638851 117.388912 99.0274286 117.388912 104.853453 122.457195 105.914736 129.439462L106 130 106 130zM322.055562 18.0489572C321.767666 21.1001031 320.811692 40.4394576 340.999503 50.9212307 361.189321 40.4394576 360.232344 21.1001031 359.944448 18.0489572 347.406438 17.9704647 342.303561 14.4674835 340.999503 13.3555058 339.696449 14.4674835 334.592569 17.9704647 322.055562 18.0489572zM340.999503 52L340.782829 51.8882991C318.070162 40.255302 321.120653 17.7269365 321.153756 17.5005157L321.213943 17.0909457 321.626226 17.0909457C336.067157 17.0909457 340.605277 12.4216458 340.649414 12.3753554L341.00151 12 341.351599 12.377368C341.394733 12.4216458 345.932853 17.0909457 360.372781 17.0909457L360.785064 17.0909457 360.846254 17.5005157C360.879357 17.7269365 363.929848 40.255302 341.216178 51.8882991L340.999503 52 340.999503 52z"/>
    <polygon fill="#1487E3" points="124 259 149 259 149 256 124 256"/>
    <polyline fill="#78C2FF" points="119 177 79 177 79 125 79.945 125 79.945 176.039 119 176.039 119 177"/>
    <polyline fill="#78C2FF" points="289.948 143 289 143 289 89.768 340.051 89.768 340.051 45 341 45 341 90.722 289.948 90.722 289.948 143"/>
    <polyline fill="#78C2FF" points="455 202 402 202 402 201.045 454.053 201.045 454.053 170 455 170 455 202"/>
    <path fill="#FF7E55" d="M56.4734059,245.048263 C56.4734059,245.048263 55.3336151,261.195333 58.4588157,263.127426 C60.4173013,264.33901 68.2263139,268.421564 67.9949653,269.188364 C67.7636167,269.954157 63.5853811,276 63.5853811,276 C63.5853811,276 48.585615,266.032611 48.1019768,262.891952 C47.6293076,259.822741 48.839899,239.248963 50.9020927,238.301029 C52.4467435,237.590582 53.2614496,238.178261 55.2089661,239.636388 C57.9392785,241.682193 56.4734059,245.048263 56.4734059,245.048263"/>
    <path fill="#424773" d="M55,362.38838 C55,362.38838 54.5431175,365.398923 54.4874715,365.850458 C54.4298731,366.30292 49.407094,365.584358 49.407094,365.584358 L49,362.00082 C49,362.00082 54.3732509,361.963733 55,362.38838"/>
    <path fill="#292C47" d="M54.3083727,366.206753 C54.3083727,366.206753 55.8933486,368.054313 57.4296459,368.859611 C58.9649696,369.663965 61.3755348,369.983063 62.2848515,370.817628 C62.9390921,371.419005 64.6710775,374.007666 58.2951517,373.955741 C51.919226,373.903817 48.8466315,374.322044 48.1641572,373.328874 C47.4807094,372.336648 49.1523332,366 49.1523332,366 C49.1523332,366 50.6613704,366.525851 54.3083727,366.206753"/>
    <path fill="#424773" d="M80,362.38838 C80,362.38838 79.5421412,365.398923 79.485519,365.850458 C79.4279206,366.30292 74.4061178,365.584358 74.4061178,365.584358 L74,362.00082 C74,362.00082 79.3732509,361.963733 80,362.38838"/>
    <path fill="#292C47" d="M80.328123 366.207511C80.328123 366.207511 81.9188972 368.061847 83.4588916 368.870099 84.9988861 369.677403 90.6647374 370.341628 91.5748673 371.178306 92.2320748 371.781889 93.3248166 374.213277 84.3280071 373.98492 77.9346377 373.82289 74.8507427 374.352565 74.1642392 373.355753 73.4796887 372.359889 75.1563979 366 75.1563979 366 75.1563979 366 76.5831144 366.563786 80.328123 366.207511M55.9668077 279C55.9668077 279 51.039174 286.675306 51.4061471 293.611258 51.7741396 300.549207 50.9678181 307.959744 50.2267363 315.205426 49.4020661 323.28438 47.1533363 340.096718 47.0310119 344.41695 46.9076682 348.739181 47.1920723 365 47.1920723 365L55.7394882 364.937055C55.7394882 364.937055 58.7741521 332.087703 60.2451027 328.675678 61.715034 325.263654 67.7507226 300.585176 67.9963908 297.855556 68.2410395 295.126936 55.9668077 279 55.9668077 279"/>
    <path fill="#292C47" d="M82.1675408,279.366035 C82.1675408,279.366035 84.0971012,298.262238 84.5830271,302.517012 C85.0679428,306.770785 84.7365838,325.204469 84.9780314,327.864454 C85.2225097,330.522436 83.3555843,358.644991 82.8959246,364 L73.5845329,363.941935 C73.5845329,363.941935 72.9420196,341.192408 72.9420196,330.140007 C72.9420196,319.086604 70.0800067,306.220167 66.8007643,298.926984 C63.5215218,291.6338 56.0154309,291.461607 54,277.931425 C54,277.931425 79.4388797,275.07522 82.1675408,279.366035"/>
    <path fill="#EEA886" d="M61.7888517,214.608757 C61.7888517,214.608757 67.5079939,210.815185 71.5243012,214.878882 C75.5406085,218.941593 77.5145069,228.495519 74.631106,230.40315 C71.7467123,232.309794 66.8536684,232.809623 64.5312598,230.221752 C62.2088512,227.635853 59.7295634,223.689473 59.1209116,220.808803 C58.5102741,217.926161 60.3382151,215.82136 61.7888517,214.608757"/>
    <path fill="#EEA886" d="M72.5986434,231.143683 C72.5986434,231.143683 72.5209364,235.234114 72.9830341,236.105944 C73.4461678,236.977775 64.273633,237 64.273633,237 C64.273633,237 63.5286818,232.25797 62.1164865,228.251388 C60.7042912,224.243797 72.5986434,231.143683 72.5986434,231.143683"/>
    <path fill="#754836" d="M62.6526965,227.649105 C62.6526965,227.649105 63.4765405,228.51027 65.8084378,227.53442 C68.1403351,226.55857 70.3345926,222.53639 71.2611677,221.930195 C72.1907349,221.321953 72.0590795,220.709615 72.0590795,220.709615 L72.9108504,221.506269 L74,221.314786 C74,221.314786 72.3413408,218.594079 73.5421981,217.030467 C74.7430554,215.465831 69.8109629,207.823893 62.684613,212.490154 C62.684613,212.490154 57.1082068,215.621475 58.1235495,219.050773 C59.1408871,222.481095 60.9192331,226.238065 62.6526965,227.649105"/>
    <path fill="#E2D2CA" d="M73,235.745048 C73,235.745048 72.9728452,233.879806 72.2205572,233.699846 C71.4692749,233.521018 63.9232626,232.703843 63,233.113562 L63,235.28666 C63,235.28666 64.7791411,236.518082 73,235.745048"/>
    <path fill="#EEA886" d="M71.2914578,220.028404 C71.0174051,219.43512 69.1538463,218.0174 69.0076848,220.082339 C68.8615233,222.148379 70.8397783,224.369619 71.5807358,223.948046 C72.3227083,223.525372 71.9877549,221.529778 71.2914578,220.028404"/>
    <path fill="#754836" d="M59.78823,215 C59.78823,215 52.2309672,217.131725 62,227 L59.78823,215"/>
    <path fill="#EEA886" d="M133.853119,258.63031 L125.340367,258.556836 C126.075536,258.160264 127.262961,257.446246 127.000328,257.120322 C126.625138,256.65687 124.214798,257.675146 123.235248,257.768402 C122.336821,257.85318 120.830992,257.745795 119.688184,258.132947 L117,259.19738 L119.464084,261.315885 C119.464084,261.315885 123.916674,261.90933 125.219698,261.994108 C127.339013,262.132578 133.823712,259.787999 133.930185,259.431932 C134.123864,258.791388 133.853119,258.63031 133.853119,258.63031"/>
    <path fill="#FF7E55" d="M84.0456037,237.684167 C78.6841756,236.748549 73.0405671,235.404969 73.0405671,235.404969 L63.0557986,235 C63.0557986,235 53.8924663,237.003898 50.2833686,238.623775 C49.9409361,238.777384 49.9409361,246.744102 49,248.832784 L51.9925184,255.102822 C51.9925184,255.102822 53.720748,267.523202 54.0792476,273.046142 C54.2439366,275.582684 50.515339,296.825604 50.515339,296.825604 C50.515339,296.825604 54.5100498,297.993631 61.3255606,298.739731 C68.1400672,299.485832 85.167296,298.470417 85.2737413,297.671451 C85.382195,296.871487 81.9769501,267.902237 81.8253157,266.402057 C81.5943496,264.099917 82.4951177,253.461002 82.4951177,253.461002 C83.7794905,255.172644 91.2025428,261.599283 94.8267035,263.641085 C97.4044869,265.093388 103.727939,264.205648 105.590732,264.018126 C109.621594,263.607172 120.758181,262.816185 120.976092,262.423186 C121.149819,262.187785 120.335412,258.154054 119.869463,257.999448 C119.461758,257.864791 105.085619,257.159586 101.479534,257.344116 C100.016413,257.420921 95.2434468,252.1264 95.2434468,252.1264 C95.2434468,252.1264 87.0039793,239.003807 84.0456037,237.684167"/>
    <polyline fill="#FFCB55" points="23 198 49 198 49 221 45.031 216.999 23 216.999 23 198"/>
    <path fill="#6AAFE8" d="M421.867515 136.132485L446.133503 136.132485 446.133503 111.866497 421.867515 111.866497 421.867515 136.132485zM421 137L447 137 447 111 421 111 421 137zM452.842536 120.181993L509.15548 120.181993 509.15548 115.818968 452.842536 115.818968 452.842536 120.181993zM452 121L510 121 510 115 452 115 452 121zM421.851158 149.181862L509.149841 149.181862 509.149841 144.818138 421.851158 144.818138 421.851158 149.181862zM421 150L510 150 510 144 421 144 421 150zM421.855844 161.181163L477.145161 161.181163 477.145161 156.818837 421.855844 156.818837 421.855844 161.181163zM421 162L478 162 478 156 421 156 421 162zM451.858052 132.181163L490.138916 132.181163 490.138916 127.818837 451.858052 127.818837 451.858052 132.181163zM451 133L491 133 491 127 451 127 451 133z"/>
    <path fill="#6AAFE8" d="M411.84809,175.143808 L519.150913,175.143808 L519.150913,98.856192 L411.84809,98.856192 L411.84809,175.143808 Z M411,176 L520,176 L520,98 L411,98 L411,176 Z"/>
    <polyline fill="#6AAFE8" points="372 63 364 63 364 62.067 371.068 62.067 371.068 55 372 55 372 63"/>
    <polyline fill="#6AAFE8" points="317 63 309 63 309 55 309.933 55 309.933 62.067 317 62.067 317 63"/>
    <polyline fill="#6AAFE8" points="309.933 8 309 8 309 0 317 0 317 .932 309.933 .932 309.933 8"/>
    <polyline fill="#6AAFE8" points="372 8 371.068 8 371.068 .933 364 .933 364 0 372 0 372 8"/>
    <polygon fill="#6AAFE8" points="371.024 43 371.976 43 371.976 21 371.024 21"/>
    <polygon fill="#6AAFE8" points="309.022 43 309.978 43 309.978 21 309.022 21"/>
    <path fill="#78C2FF" d="M79.5004996 119.953319C78.0955032 119.953319 76.9523198 121.095503 76.9523198 122.4995 76.9523198 123.904497 78.0955032 125.046681 79.5004996 125.046681 80.9044968 125.046681 82.0466809 123.904497 82.0466809 122.4995 82.0466809 121.095503 80.9044968 119.953319 79.5004996 119.953319zM79.5004996 126C77.5698787 126 76 124.430121 76 122.4995 76 120.569879 77.5698787 119 79.5004996 119 81.4301213 119 83 120.569879 83 122.4995 83 124.430121 81.4301213 126 79.5004996 126L79.5004996 126zM340.4995 39.9523198C339.095503 39.9523198 337.95232 41.0955032 337.95232 42.4995004 337.95232 43.9034975 339.095503 45.0466809 340.4995 45.0466809 341.904497 45.0466809 343.046681 43.9034975 343.046681 42.4995004 343.046681 41.0955032 341.904497 39.9523198 340.4995 39.9523198zM340.4995 46C338.569879 46 337 44.4291221 337 42.4995004 337 40.5698787 338.569879 39 340.4995 39 342.429122 39 344 40.5698787 344 42.4995004 344 44.4291221 342.429122 46 340.4995 46L340.4995 46zM455.5005 164.953183C454.096502 164.953183 452.95232 166.096203 452.95232 167.5 452.95232 168.903797 454.096502 170.046817 455.5005 170.046817 456.904497 170.046817 458.04768 168.903797 458.04768 167.5 458.04768 166.096203 456.904497 164.953183 455.5005 164.953183zM455.5005 171C453.570878 171 452 169.429346 452 167.5 452 165.570654 453.570878 164 455.5005 164 457.430121 164 459 165.570654 459 167.5 459 169.429346 457.430121 171 455.5005 171L455.5005 171z"/>
    <path fill="#A1D4FF" d="M78.9513352,28.0477062 L101.047667,28.0477062 L101.047667,5.95229381 L78.9513352,5.95229381 L78.9513352,28.0477062 Z M78,29 L102,29 L102,5 L78,5 L78,29 Z"/>
    <polygon fill="#A1D4FF" points="90.023 22 90.977 22 90.977 11 90.023 11"/>
    <polygon fill="#A1D4FF" points="85 16.977 96 16.977 96 16.023 85 16.023"/>
    <path fill="#A1D4FF" d="M435.944802,57.0278401 L468.056188,57.0278401 L468.056188,33.9711409 L435.944802,33.9711409 L435.944802,57.0278401 Z M435,58 L469,58 L469,33 L435,33 L435,58 Z"/>
    <polyline fill="#A1D4FF" points="452 48 435 33.747 435.607 33 452 46.744 468.394 33 469 33.747 452 48"/>
    <polyline fill="#A1D4FF" points="468.309 58 456 44.673 456.692 44 469 57.328 468.309 58"/>
    <polyline fill="#A1D4FF" points="435.691 58 435 57.328 447.309 44 448 44.673 435.691 58"/>
    <path fill="#A1D4FF" d="M163.003005 73.8864775C162.341903 73.8864775 161.689816 74.1959933 161.27813 74.7739566 160.950584 75.2337229 160.822371 75.7936561 160.915526 76.3505843 161.009683 76.9075125 161.315192 77.3953255 161.774958 77.7218698 162.234725 78.0494157 162.793656 78.1776294 163.351586 78.0844741 163.907513 77.9903172 164.395326 77.684808 164.72187 77.2250417 165.049416 76.7652755 165.178631 76.2053422 165.084474 75.648414 164.991319 75.0924875 164.68581 74.6046745 164.226043 74.2781302 163.854424 74.0136895 163.426711 73.8864775 163.003005 73.8864775zM162.99399 78.8307179C162.411018 78.8307179 161.843072 78.6504174 161.359265 78.3058431 160.087145 77.4013356 159.788648 75.630384 160.694157 74.3592654 161.598664 73.0871452 163.370618 72.7886477 164.640735 73.6941569 165.256761 74.1318865 165.666444 74.7839733 165.791653 75.530217 165.916861 76.2754591 165.744574 77.0247078 165.305843 77.6407346 164.868114 78.2567613 164.216027 78.6654424 163.469783 78.7906511 163.311519 78.8176962 163.152254 78.8307179 162.99399 78.8307179zM161.223038 80.0217028L161.432387 80.1018364C161.81202 80.2480801 162.210684 80.3392321 162.620367 80.3742905L162.842738 80.3933222 163.15025 81.1956594 164.560601 80.9582638 164.587646 80.0998331 164.792988 80.0076795C165.166611 79.8414023 165.513189 79.6240401 165.824708 79.3626043L165.996995 79.2173623 166.781302 79.5679466 167.609683 78.403005 167.021703 77.7769616 167.101836 77.566611C167.249082 77.18798 167.33823 76.7883139 167.375292 76.3796327L167.394324 76.1562604 168.195659 75.8497496 167.959265 74.439399 167.099833 74.4113523 167.007679 74.2070117C166.841402 73.8343907 166.625042 73.4868114 166.362604 73.1742905L166.217362 73.003005 166.567947 72.2196995 165.404007 71.3903172 164.776962 71.9772955 164.567613 71.8971619C164.186978 71.7519199 163.788314 71.6607679 163.380634 71.6257095L163.158264 71.6056761 162.84975 70.8033389 161.440401 71.0407346 161.412354 71.9001669 161.207012 71.9913189C160.833389 72.1585977 160.486811 72.3749583 160.17429 72.6373957L160.004007 72.7816361 159.219699 72.4320534 158.390317 73.596995 158.978297 74.2230384 158.897162 74.4323873C158.75192 74.8110184 158.659766 75.2106845 158.624708 75.6193656L158.605676 75.8427379 157.803339 76.1502504 158.041736 77.5595993 158.901169 77.5876461 158.991319 77.7919866C159.157596 78.1656093 159.37596 78.5131886 159.638397 78.8247078L159.782638 78.9959933 159.433055 79.7803005 160.596995 80.6096828 161.223038 80.0217028zM162.690484 82L162.331886 81.0634391C162.011352 81.0213689 161.696828 80.9492487 161.390317 80.8480801L160.659098 81.533222 158.538564 80.0237062 158.948247 79.109182C158.749917 78.8527546 158.578631 78.5782972 158.434391 78.2898164L157.43172 78.2577629 157 75.6904841 157.936561 75.3318865C157.977629 75.0103506 158.050751 74.6958264 158.152922 74.3903172L157.466778 73.6590985 158.976294 71.5385643 159.890818 71.9472454C160.147245 71.7509182 160.420701 71.5786311 160.710184 71.4343907L160.742237 70.4317195 163.308514 70 163.667112 70.9355593C163.987646 70.9776294 164.304174 71.0497496 164.609683 71.1519199L165.340902 70.4657763 167.462437 71.9752922 167.052755 72.890818C167.250083 73.1462437 167.420367 73.4207012 167.565609 73.7101836L168.56828 73.7412354 169 76.3085142 168.064441 76.6671119C168.021369 76.9886477 167.949249 77.3041736 167.847078 77.6096828L168.534224 78.3398998 167.023706 80.4614357 166.109182 80.0527546C165.853756 80.2490818 165.580301 80.4203673 165.290818 80.5656093L165.257763 81.5672788 162.690484 82 162.690484 82zM143.506535 66.257345C141.866729 66.257345 140.248036 67.0234593 139.227555 68.4591696 138.414187 69.6013033 138.095476 70.9907652 138.327723 72.372184 138.560976 73.7525973 139.317036 74.9610873 140.458164 75.77345 142.81482 77.4504562 146.096444 76.8974865 147.77345 74.5408304 148.584807 73.4007075 148.904524 72.0102402 148.672277 70.6288214 148.439024 69.2474027 147.682964 68.0399181 146.54083 67.2275554 145.619885 66.572035 144.558183 66.257345 143.506535 66.257345zM143.491454 77.701806C142.247775 77.701806 140.991026 77.3288028 139.902178 76.5546453 137.116217 74.5709924 136.462707 70.6901508 138.445355 67.9031838 140.429008 65.1162167 144.308844 64.4627071 147.096816 66.4463601 149.883783 68.4290076 150.538298 72.3108546 148.554645 75.0968162 147.346155 76.7959412 145.431875 77.701806 143.491454 77.701806zM139.46483 81.218693L139.745336 81.3252653C140.656228 81.6751443 141.613368 81.893316 142.588605 81.9777695L142.888214 82.0039099 143.624167 83.9242227 147.453733 83.2787563 147.519084 81.22372 147.792553 81.1010613C148.688363 80.7019177 149.520834 80.1811208 150.265835 79.5537516L150.496071 79.360715 152.373152 80.1982126 154.624241 77.0332154 153.218693 75.5351704 153.325265 75.2546639C153.674139 74.3447775 153.893316 73.3876373 153.97777 72.4113945L154.002904 72.1117855 155.924223 71.3758332 155.277751 67.546267 153.222715 67.480916 153.100056 67.2074474C152.700912 66.3116366 152.17911 65.4791659 151.552746 64.7351704L151.35971 64.5049339 152.197207 62.6278533 149.034221 60.3757587 147.534165 61.7823124 147.254664 61.6747347C146.343772 61.3258611 145.387637 61.106684 144.411395 61.0232359L144.11078 60.9970955 143.376839 59.0767827 139.546267 59.7212437 139.480916 61.7772854 139.206442 61.8999441C138.311637 62.2990877 137.479166 62.8198846 136.73316 63.4472538L136.503929 63.6402904 134.626848 62.8027928 132.375759 65.9667846 133.782312 67.465835 133.673729 67.7463415C133.324856 68.6562279 133.106684 69.6133681 133.02223 70.5896109L132.99609 70.8892199 131.075777 71.6241668 131.721244 75.4547384 133.777285 75.519084 133.898939 75.793558C134.298082 76.6883634 134.818879 77.5208341 135.447254 78.2668404L135.639285 78.4970769 134.801787 80.3731521 137.966785 82.6252467 139.46483 81.218693zM143.008862 85L142.205548 82.9027369C141.344926 82.8062186 140.499386 82.6131819 139.687023 82.3266431L138.051238 83.8618879 133.606368 80.6989015 134.521281 78.6498976C133.984398 77.9752746 133.523925 77.2403277 133.150922 76.4591324L130.905865 76.387749 130 71.0088624 132.097263 70.2065537C132.193781 69.3459319 132.387823 68.500391 132.674362 67.6870229L131.139117 66.0512381 134.300093 61.6073729 136.350102 62.5222864C137.024725 61.9843977 137.760678 61.5249302 138.541873 61.1509216L138.612251 58.9068702 143.991138 58 144.794452 60.0972631C145.654068 60.1947868 146.498604 60.3878235 147.313982 60.6753677L148.949767 59.1391175 153.392627 62.3021039 152.477714 64.3501024C153.015602 65.0257308 153.47507 65.7596723 153.850084 66.541873L156.09313 66.6132564 157 71.992143 154.902737 72.7944517C154.806219 73.6550735 154.612177 74.499609 154.324632 75.3139825L155.861888 76.9497673 152.697896 81.3936325 150.649898 80.478719C149.975275 81.0166077 149.240328 81.4760752 148.458127 81.8500838L148.387749 84.0941352 143.008862 85 143.008862 85z"/>
    <path fill="#78C2FF" d="M17.9994942,88.4982296 C9.45398342,88.4982296 2.50285233,81.5452706 2.50285233,73 C2.50285233,64.4547294 9.45398342,57.502782 17.9994942,57.502782 C26.5460166,57.502782 33.4981593,64.4547294 33.4981593,73 L32.5330336,73 C32.5330336,64.9868488 26.0128706,58.4678806 17.9994942,58.4678806 C9.98611775,58.4678806 3.46696642,64.9868488 3.46696642,73 C3.46696642,81.0131512 9.98611775,87.533131 17.9994942,87.533131 L17.9994942,88.4982296 Z M17.9994942,91 C8.07508782,91 0,82.9251391 0,73 L0.964114093,73 C0.964114093,82.3940314 8.60621048,90.0349014 17.9994942,90.0349014 C27.3937895,90.0349014 35.0358859,82.3940314 35.0358859,73 C35.0358859,63.6069803 27.3937895,55.9650986 17.9994942,55.9650986 L17.9994942,55 C27.9249122,55 36,63.0748609 36,73 C36,82.9251391 27.9249122,91 17.9994942,91 L17.9994942,91 Z"/>
    <polyline fill="#78C2FF" points="15.345 78 9 71.835 9.667 71.188 15.345 76.704 25.334 67 26 67.647 15.345 78"/>
    <g transform="translate(93 290)">
      <mask id="deployment-i" fill="#fff">
        <use xlink:href="#deployment-g"/>
      </mask>
      <polyline fill="url(#deployment-h)" points="300.589 .812 30.267 .812 .685 111.379 330.17 111.379 300.589 .812" mask="url(#deployment-i)"/>
    </g>
    <path fill="#FFF" d="M133.042189,310 L149.876987,310 C150.580464,310 151.11162,310.533246 150.979844,311.107966 L149.349885,318.242594 C149.24852,318.682028 148.785279,319 148.247028,319 L131.123338,319 C130.404656,319 129.870459,318.447005 130.027576,317.863397 L131.946426,310.729756 C132.059956,310.304147 132.515087,310 133.042189,310"/>
    <polyline fill="#FFF" points="157.849 310 170 310 168.384 319 156 319 157.849 310"/>
    <polyline fill="#FFF" points="176.542 310 189 310 187.697 318.987 175 319 176.542 310"/>
    <polyline fill="#FFF" points="195.216 310 208 310 207.028 319 194 319 195.216 310"/>
    <polyline fill="#FFF" points="214.812 310 227 310 226.42 319 214 319 214.812 310"/>
    <polyline fill="#FFF" points="233.476 310 246 310 245.763 318.987 233 319 233.476 310"/>
    <polyline fill="#FFF" points="383.638 310 365 310 367.008 319 386 319 383.638 310"/>
    <polyline fill="#FFF" points="358.152 310 346 310 347.618 319 360 319 358.152 310"/>
    <polyline fill="#FFF" points="339.459 310 327 310 328.303 318.987 341 319 339.459 310"/>
    <polyline fill="#FFF" points="320.785 310 308 310 308.972 319 322 319 320.785 310"/>
    <polyline fill="#FFF" points="302.189 310 290 310 290.58 319 303 319 302.189 310"/>
    <polyline fill="#FFF" points="283.523 310 271 310 271.239 318.987 284 319 283.523 310"/>
    <polyline fill="#FFF" points="252 310 264.789 310 265 319 252 319 252 310"/>
    <polyline fill="#FFF" points="127.976 326 154 326 152.516 335 126 335 127.976 326"/>
    <polyline fill="#FFF" points="387.53 326 355 326 356.854 335 390 335 387.53 326"/>
    <polyline fill="#FFF" points="349.24 326 336 326 337.509 335 351 335 349.24 326"/>
    <polyline fill="#FFF" points="329.677 326 317 326 318.084 335 331 335 329.677 326"/>
    <polyline fill="#FFF" points="310.013 326 297 326 297.74 335 311 335 310.013 326"/>
    <polyline fill="#FFF" points="290.366 326 277 326 277.38 335 291 335 290.366 326"/>
    <polyline fill="#FFF" points="124.424 343 151 343 149.061 352 122 352 124.424 343"/>
    <polyline fill="#FFF" points="157.805 343 171 343 169.436 352 156 352 157.805 343"/>
    <polyline fill="#FFF" points="177.462 343 277.628 343 278 352 176 352 177.462 343"/>
    <polyline fill="#FFF" points="285 343 298.273 343 299 352 285.483 352 285 343"/>
    <polyline fill="#FFF" points="305 343 318.862 343 320 352 305.884 352 305 343"/>
    <polyline fill="#FFF" points="325 343 338.519 343 340 352 326.233 352 325 343"/>
    <polyline fill="#FFF" points="345 343 358.195 343 360 352 346.564 352 345 343"/>
    <polyline fill="#FFF" points="366 343 392.576 343 395 352 367.939 352 366 343"/>
    <polyline fill="#FFF" points="270.755 326 258 326 258 335 271 335 270.755 326"/>
    <polyline fill="#FFF" points="251 326 238.361 326 238 335 250.879 335 251 326"/>
    <polyline fill="#FFF" points="232 326 218.756 326 218 335 231.498 335 232 326"/>
    <polyline fill="#FFF" points="213 326 200.104 326 199 335 212.143 335 213 326"/>
    <polyline fill="#FFF" points="193 326 180.433 326 179 335 191.806 335 193 326"/>
    <polyline fill="#FFF" points="174 326 160.87 326 159 335 172.38 335 174 326"/>
    <polyline fill="#FFF" points="134 304 136.072 296 142 296 140.066 304 134 304"/>
    <polyline fill="#FFF" points="148.904 296 161 296 159.307 304 147 304 148.904 296"/>
    <polyline fill="#FFF" points="166.623 296 179 296 177.594 304 165 304 166.623 296"/>
    <polyline fill="#FFF" points="185.234 296 197 296 195.971 304 184 304 185.234 296"/>
    <polyline fill="#FFF" points="202.948 296 215 296 214.263 304 202 304 202.948 296"/>
    <polyline fill="#FFF" points="221.647 296 234 296 233.568 304 221 304 221.647 296"/>
    <polyline fill="#FFF" points="239.331 296 252 296 251.889 304 239 304 239.331 296"/>
    <polyline fill="#FFF" points="258 296 269.794 296 270 304 258 304 258 296"/>
    <polyline fill="#FFF" points="276 296 288.456 296 289 304 276.327 304 276 296"/>
    <polyline fill="#FFF" points="295 296 307.15 296 308 304 295.638 304 295 296"/>
    <polyline fill="#FFF" points="313 296 324.86 296 326 304 313.933 304 313 296"/>
    <polyline fill="#FFF" points="331 296 343.474 296 345 304 332.308 304 331 296"/>
    <polyline fill="#FFF" points="350 296 362.188 296 364 304 351.598 304 350 296"/>
    <polyline fill="#FFF" points="368 296 379.916 296 382 304 369.875 304 368 296"/>
    <g transform="translate(93 401)">
      <mask id="deployment-l" fill="#fff">
        <use xlink:href="#deployment-j"/>
      </mask>
      <path fill="url(#deployment-k)" d="M321.562,8.987 L9.292,8.987 C4.539,8.987 0.685,5.133 0.685,0.379 L330.17,0.379 C330.17,5.133 326.316,8.987 321.562,8.987" mask="url(#deployment-l)"/>
    </g>
    <path fill="#4D78EB" d="M296.67112,365.372512 C296.350222,363.426371 294.672977,362 292.705729,362 L224.292504,362 C222.326252,362 220.650004,363.426371 220.329106,365.372512 L216.054774,391.314067 C215.650163,393.768984 217.538682,396 220.018173,396 L296.981057,396 C299.461544,396 301.349067,393.768984 300.945452,391.314067 L296.67112,365.372512"/>
    <polygon fill="#E0E0E0" points="150 145 178 145 178 142 150 142"/>
    <polygon fill="#E0E0E0" points="185 167 205 167 205 164 185 164"/>
    <polygon fill="#1487E3" points="209 167 222 167 222 164 209 164"/>
    <polygon fill="#1487E3" points="150 221 163 221 163 218 150 218"/>
    <polygon fill="#E0E0E0" points="225 167 257 167 257 164 225 164"/>
    <polygon fill="#E0E0E0" points="150 210 171 210 171 207 150 207"/>
    <polygon fill="#E0E0E0" points="179 232 192 232 192 229 179 229"/>
    <polygon fill="#1487E3" points="150 232 175 232 175 229 150 229"/>
    <polygon fill="#E0E0E0" points="150 242 164 242 164 239 150 239"/>
    <polygon fill="#78C2FF" points="183 145 203 145 203 142 183 142"/>
    <polygon fill="#1487E3" points="183 178 203 178 203 175 183 175"/>
    <polygon fill="#E0E0E0" points="173 188 181 188 181 185 173 185"/>
    <polygon fill="#78C2FF" points="165 199 184 199 184 196 165 196"/>
    <polygon fill="#1487E3" points="187 199 213 199 213 196 187 196"/>
    <polygon fill="#1487E3" points="150 188 170 188 170 185 150 185"/>
    <polygon fill="#1487E3" points="150 199 162 199 162 196 150 196"/>
    <polygon fill="#FF8761" points="186 188 197 188 197 185 186 185"/>
    <polygon fill="#FF8761" points="150 253 161 253 161 250 150 250"/>
    <polygon fill="#78C2FF" points="150 167 170 167 170 164 150 164"/>
    <polygon fill="#78C2FF" points="167 221 187 221 187 218 167 218"/>
    <polygon fill="#78C2FF" points="168 242 188 242 188 239 168 239"/>
    <polygon fill="#78C2FF" points="203 242 223 242 223 239 203 239"/>
    <polygon fill="#78C2FF" points="150 178 178 178 178 175 150 175"/>
    <polygon fill="#78C2FF" points="282 145 302 145 302 142 282 142"/>
    <polygon fill="#78C2FF" points="212 253 232 253 232 250 212 250"/>
    <polygon fill="#78C2FF" points="309 145 322 145 322 142 309 142"/>
    <polygon fill="#78C2FF" points="353 156 366 156 366 153 353 153"/>
    <polygon fill="#1487E3" points="208 145 233 145 233 142 208 142"/>
    <polygon fill="#1487E3" points="307 156 332 156 332 153 307 153"/>
    <polygon fill="#1487E3" points="276 167 301 167 301 164 276 164"/>
    <polygon fill="#1487E3" points="243 178 268 178 268 175 243 175"/>
    <polygon fill="#78C2FF" points="304 167 322 167 322 164 304 164"/>
    <polygon fill="#FF8761" points="252 145 277 145 277 142 252 142"/>
    <polygon fill="#FF8761" points="223 178 238 178 238 175 223 175"/>
    <polygon fill="#FF8761" points="212 221 227 221 227 218 212 218"/>
    <polygon fill="#E0E0E0" points="238 145 247 145 247 142 238 142"/>
    <polygon fill="#E0E0E0" points="208 178 217 178 217 175 208 175"/>
    <polygon fill="#E0E0E0" points="338 156 347 156 347 153 338 153"/>
    <polygon fill="#1487E3" points="150 156 164 156 164 153 150 153"/>
    <polygon fill="#1487E3" points="188 210 199 210 199 207 188 207"/>
    <polygon fill="#1487E3" points="167 156 172 156 172 153 167 153"/>
    <polygon fill="#E0E0E0" points="263 156 302 156 302 153 263 153"/>
    <polygon fill="#E0E0E0" points="226 242 265 242 265 239 226 239"/>
    <polygon fill="#FF8761" points="176 156 181 156 181 153 176 153"/>
    <polygon fill="#1487E3" points="247 156 260 156 260 153 247 153"/>
    <polygon fill="#FF8761" points="260 167 273 167 273 164 260 164"/>
    <polygon fill="#FF8761" points="195 253 208 253 208 250 195 250"/>
    <polygon fill="#1487E3" points="217 156 244 156 244 153 217 153"/>
    <polygon fill="#1487E3" points="192 221 208 221 208 218 192 218"/>
    <polygon fill="#1487E3" points="191 242 199 242 199 239 191 239"/>
    <polygon fill="#78C2FF" points="204 156 213 156 213 153 204 153"/>
    <polygon fill="#FF8761" points="173 167 182 167 182 164 173 164"/>
    <polygon fill="#FF8761" points="175 210 184 210 184 207 175 207"/>
    <polygon fill="#1487E3" points="184 156 200 156 200 153 184 153"/>
    <g transform="translate(393 178)">
      <mask id="deployment-n" fill="#fff">
        <use xlink:href="#deployment-m"/>
      </mask>
      <polygon fill="#FDFDFD" points=".6 89.26 31.586 89.26 31.586 .205 .6 .205" mask="url(#deployment-n)"/>
    </g>
    <polygon fill="url(#deployment-o)" points="384 267 394 267 394 178 384 178"/>
    <g transform="translate(299 178)">
      <mask id="deployment-r" fill="#fff">
        <use xlink:href="#deployment-p"/>
      </mask>
      <path fill="url(#deployment-q)" d="M84.562,89.26 L4.594,89.26 C2.377,89.26 0.58,87.462 0.58,85.245 L0.58,4.219 C0.58,2.002 2.377,0.205 4.594,0.205 L84.562,0.205 L84.562,89.26" mask="url(#deployment-r)"/>
    </g>
    <polygon fill="#DFF0FF" points="402 201.977 424 201.977 424 201.023 402 201.023"/>
    <path fill="#4AAFFF" d="M410.472745 230L390.527255 230C389.683845 230 389 229.330963 389 228.507757L389 225.493213C389 224.669037 389.683845 224 390.527255 224L410.472745 224C411.317146 224 412 224.669037 412 225.493213L412 228.507757C412 229.330963 411.317146 230 410.472745 230M410.472745 242L390.527255 242C389.683845 242 389 241.331933 389 240.506787L389 237.493213C389 236.669037 389.683845 236 390.527255 236L410.472745 236C411.317146 236 412 236.669037 412 237.493213L412 240.506787C412 241.331933 411.317146 242 410.472745 242M410.472745 253L390.527255 253C389.683845 253 389 252.331933 389 251.506787L389 248.494182C389 247.668067 389.683845 247 390.527255 247L410.472745 247C411.317146 247 412 247.668067 412 248.494182L412 251.506787C412 252.331933 411.317146 253 410.472745 253M354.208067 245.848421C343.791274 249.573749 332.563187 246.211551 325.796723 238.256716 324.183136 236.36104 322.823641 234.204271 321.789264 231.818421 321.560181 231.293234 321.347103 230.754042 321.151032 230.206847 319.182315 224.701885 319.193319 218.969842 320.81491 213.792997 323.154762 206.317332 328.848835 199.990077 336.791726 197.151066 339.413681 196.212731 342.086654 195.725558 344.725614 195.644529 355.629584 195.315411 365.976351 201.964781 369.848761 212.79064 374.658512 226.238432 367.654962 241.038707 354.208067 245.848421zM377.975719 209.884604C372.811839 195.445458 359.012816 186.578297 344.468521 187.015453 340.947239 187.121491 337.383942 187.771723 333.885668 189.022168 323.292812 192.812519 315.696046 201.250527 312.57491 211.219079 310.412123 218.128542 310.398117 225.771266 313.024073 233.113883 313.285169 233.845143 313.568272 234.561399 313.873383 235.263649 315.253885 238.443782 317.067546 241.320808 319.219329 243.849709 328.245615 254.460491 343.221067 258.944089 357.115125 253.977319 375.051655 247.560031 384.391055 227.820996 377.975719 209.884604L377.975719 209.884604z"/>
    <path fill="#1A598C" d="M321.201375,214 L313,211.4047 C316.106506,201.353332 323.667662,192.845226 334.210865,189.023386 C337.692741,187.762552 341.239335,187.106919 344.744112,187 L345,195.700762 C342.373409,195.782464 339.712966,196.273685 337.103301,197.219815 C329.197641,200.082412 323.530259,206.462231 321.201375,214"/>
    <path fill="#2273B5" d="M322,232.561158 L313.929505,236 C313.618435,235.299051 313.329802,234.584124 313.063608,233.854219 C310.386362,226.525212 310.40064,218.896655 312.605671,212 L321.006614,214.569146 C319.353351,219.736395 319.342132,225.457813 321.349302,230.952571 C321.549203,231.498752 321.766442,232.036945 322,232.561158"/>
    <path fill="#3788CC" d="M319.380317,244 C317.214699,241.477675 315.389378,238.608132 314,235.436268 L321.966776,232 C323.007803,234.379646 324.376038,236.530806 326,238.421552 L319.380317,244"/>
    <path fill="#EEA886" d="M357.508932 242.531237C357.508932 242.531237 355.873131 239.593478 358.466905 231.720926 360.975461 224.107677 369.661862 224.797141 372.421175 229.675651 375.182448 234.55215 374.249943 237.583379 370.185906 243.090044 366.121869 248.597715 359.19469 245.048885 357.508932 242.531237M378 377.388163C378 377.388163 378.456816 380.397338 378.514048 380.851147 378.570239 381.302149 383.593132 380.584476 383.593132 380.584476L384 377.000787C384 377.000787 378.628512 376.964296 378 377.388163"/>
    <path fill="#414773" d="M378.112621,380.207735 C378.112621,380.207735 376.630605,382.054476 375.198958,382.858733 C373.766342,383.664896 371.515227,383.983168 370.667669,384.816965 C370.056459,385.417299 368.44077,388.008264 374.391114,387.954901 C380.340488,387.904397 383.208625,388.321772 383.846958,387.328838 C384.484321,386.334952 382.924814,380 382.924814,380 C382.924814,380 381.468951,380.404034 378.112621,380.207735"/>
    <path fill="#EEA886" d="M344,377.388163 C344,377.388163 344.457856,380.397338 344.514048,380.851147 C344.57128,381.302149 349.593132,380.584476 349.593132,380.584476 L350,377.000787 C350,377.000787 344.628512,376.964296 344,377.388163"/>
    <path fill="#414773" d="M345.025281,380.208518 C345.025281,380.208518 343.521013,382.062219 342.066886,382.869507 C340.61276,383.678709 335.261301,384.341565 334.402,385.178505 C333.780629,385.783014 332.748288,388.213487 341.24593,387.984883 C347.28365,387.82419 350.196818,388.353136 350.844735,387.356461 C351.491669,386.358829 349.907763,380 349.907763,380 C349.907763,380 348.031851,380.324254 345.025281,380.208518"/>
    <path fill="#2D314F" d="M375.990829,297 C375.990829,297 378.489906,304.718012 378.160735,311.370017 C377.831564,318.022023 379.452177,325.301386 380.114559,332.250508 C380.85469,339.996626 383.877816,358.335563 383.985857,362.480142 C384.096927,366.622714 383.517343,379.85646 383.517343,379.85646 L377.465032,380 C377.465032,380 372.383071,347.939483 371.066385,344.668186 C369.75071,341.39689 363.221807,318.074219 363.002696,315.457382 C362.783585,312.839541 375.990829,297 375.990829,297"/>
    <path fill="#2D314F" d="M351.512195,296.629193 C351.512195,296.629193 347.92609,316.93241 347.496428,320.983666 C347.069722,325.033924 346.782951,340.583879 346.569106,343.115291 C346.35526,345.645703 345.142153,376.24033 344,380 L350.585859,380 C350.585859,380 357.348115,357.760528 357.348115,347.237447 C357.348115,336.714365 361.82508,324.360878 364.715447,317.41872 C367.6068,310.474565 374.223208,310.310797 376,297.429059 C376,297.429059 353.916728,292.543985 351.512195,296.629193"/>
    <path fill="#EEA886" d="M359.040383,244.376652 C359.040383,244.376652 359.817991,246.551414 359.040383,248.102976 C358.262775,249.653546 368.972938,248.723204 368.972938,248.723204 C368.972938,248.723204 368.489253,245.51704 369.888742,242.879583 C371.287199,240.242127 359.040383,244.376652 359.040383,244.376652"/>
    <path fill="#2B3B57" d="M377,298.465868 C377,298.465868 373.215382,302.285624 351,297.870556 L351.339359,296 L376.593782,296.935776 L377,298.465868"/>
    <path fill="#EEA886" d="M357.53439,248.998135 C357.53439,248.998135 353.703449,249.393378 352.608894,249.604647 C351.515338,249.814904 344.148067,248.27032 342.636064,248.112627 C341.124061,247.954934 334.679571,243.48595 334.470847,242.957273 C334.263121,242.430618 330.551023,232.916464 330.342299,230.859376 C330.133575,228.799257 326.726075,229.862675 327.017689,231.280902 C327.563968,233.933382 328.266041,240.370499 328.651532,242.236534 C329.066983,244.252177 330.180513,248.814159 330.805687,249.376194 C331.430861,249.938228 337.234198,254.405191 342.914696,256.303574 C348.597192,258.202968 352.872546,261 352.872546,261 L380.870573,261 C380.870573,261 391.761191,245.243824 391.994882,242.869329 C392.228574,240.495844 384.388927,224.71743 382.824992,222.738178 C381.261057,220.759938 379.000043,223.384114 379.000043,223.384114 C379.000043,223.384114 383.685855,237.299525 384.310031,239.277766 C384.936204,241.256006 378.861226,249.947326 377.19243,249.974619 C375.524632,250.000901 371.243286,249.445943 369.3398,249.367096 C367.437312,249.287239 365.429963,248.443176 365.429963,248.443176 L357.53439,248.998135"/>
    <path fill="#FFC655" d="M345.950056,258.469393 C345.950056,258.469393 349.38369,260.771993 349.696747,264.720315 C350.009805,268.670656 351.263036,274.910479 351.889152,277.042553 C352.516268,279.176645 351.341051,294.657137 351.184022,295.763031 C351.026993,296.869934 372.882026,299.496431 376.237645,296.869934 C376.237645,296.869934 377.177818,282.413604 377.568891,278.306864 C377.960963,274.200124 379.83931,264.248091 380.466425,262.905076 C381.092541,261.561052 388.686942,250.814914 389,249.39824 C389,249.39824 385.070275,243.078704 382.252755,243 C382.252755,243 377.775929,248.292347 376.31666,248.528459 C374.85639,248.76558 365.910739,247.111785 365.908739,247.097659 C365.908739,247.097659 364.932559,248.440674 359.741601,246.859528 C359.741601,246.859528 353.55946,247.56282 352.554275,247.691976 C351.33605,247.850393 342.871488,246.621398 342.871488,246.621398 C342.871488,246.621398 339.474861,252.407159 340.069971,255.327283 L345.950056,258.469393"/>
    <path fill="#EEA886" d="M330.531163 231.677973C330.531163 231.677973 329.777453 228.015915 330.685443 226.964134 331.202329 226.366576 332.44148 224.780829 332.554488 224.54867 332.668478 224.315501 334 223.529188 334 223.150668 334 222.772148 332.696975 222.30682 331.563953 223.383837 330.429948 224.460853 329.722423 224.694021 329.269411 224.576933 328.814433 224.460853 328.163903 220.589852 328.106908 219.629925 328.049913 218.668988 327.689272 216.136435 327.104582 216.312069 326.519891 216.485683 326.548389 217.591972 326.548389 217.591972 326.548389 217.591972 325.868379 215.670098 325.415366 216.049628 324.961371 216.427139 325.018366 217.359813 325.018366 217.359813 325.018366 217.359813 324.167371 216.281787 323.941356 217.0681 323.714359 217.854412 323.941356 218.551899 323.941356 218.551899 323.941356 218.551899 323.061864 218.057299 323.006834 219.279667 322.948856 220.502036 323.261346 224.082333 323.884361 225.363245 324.507376 226.644158 326.841225 229.993305 327.119322 231.301471 327.397418 232.610647 330.531163 231.677973 330.531163 231.677973M379.864851 225C379.864851 225 377.351865 220.695376 376.496216 220.311543 375.641531 219.926728 374.435143 219.708797 373.379072 218.940149 372.323001 218.172483 370.927754 217.532434 371.002912 217.276218 371.078071 217.020002 372.323001 217.122096 373.655616 217.711098 374.988231 218.3001 375.572154 218.015416 375.698381 217.708153 375.824609 217.40089 374.988231 215.230417 374.58546 214.717985 374.182688 214.205553 371.317035 211.268396 371.794965 210.832534 372.272895 210.397654 374.133546 212.012502 374.435143 212.344306 374.435143 212.344306 372.951248 209.168603 373.530352 209.014481 374.10753 208.860359 375.188654 209.987316 375.188654 209.987316 375.188654 209.987316 375.064353 207.272998 377.930006 211.678734 377.930006 211.678734 377.325848 210.218009 378.20655 210.705899 379.086288 211.191826 379.941937 213.933631 380.218481 215.316804 380.494061 216.698996 381.749591 221.105714 382.819152 222.167881 383.888713 223.23103 379.864851 225 379.864851 225"/>
    <path fill="#353A3D" d="M369.707862,242.995289 C369.707862,242.995289 368.371322,243.119533 365.528012,242.091969 C362.684701,241.063386 362.472645,235.860387 361.858848,236.4755 C360.604017,237.73424 359.419223,236.865546 358.9455,236.121097 C358.9455,236.121097 360.332623,234.208544 359.689644,233.285875 C359.046665,232.365242 358,231.693099 358,231.693099 C358,231.693099 359.998975,221.603822 369.098929,226.199856 C379.759154,231.586167 369.707862,242.995289 369.707862,242.995289"/>
    <path fill="#D4D8E8" d="M359,248.573764 L359.3333,247.015119 C359.3333,247.015119 365.362994,246.88351 368.65256,247.396895 L369,249.259003 C369,249.259003 364.786284,251.316893 359,248.573764"/>
    <path fill="#EEA886" d="M360.92374,234.806978 C361.521466,233.873164 363.732614,233.24232 363.992879,235.890203 C364.194694,237.944595 360.040384,240.186788 360.001785,238.273505 C359.964289,236.359186 360.525623,235.429521 360.92374,234.806978"/>
    <path fill="#E55353" d="M330.763122,231 C330.763122,231 328.907719,231.050314 328.007582,231.963716 C328.007582,231.963716 327.949009,232.544267 328.157462,233 C328.157462,233 329.765649,232.157233 331,231.999516 C331,231.999516 330.978466,231.241896 330.763122,231"/>
    <path fill="#353A3D" d="M328.078359,231.611106 C327.864639,232.119501 328.103185,232.706691 328.6105,232.92149 C329.118894,233.13521 329.706084,232.897744 329.920884,232.389349 C330.135683,231.879875 329.898217,231.293764 329.388743,231.078965 C328.880348,230.864165 328.293158,231.102711 328.078359,231.611106"/>
    <path fill="#6069A8" d="M274.893891,154.56527 C274.893891,154.56527 277.848736,159.780618 279.096316,160.632858 C280.791105,161.788826 279.728743,162.957784 278.924534,162.958783 C278.120325,162.959782 274.012907,163.265509 273.107932,162.196463 C272.201997,161.127416 271.754787,157.922275 270.912191,157.084023 C270.070554,156.24677 269.202047,152.914742 271.321973,152.105464 C273.198141,151.388104 274.893891,154.56527 274.893891,154.56527"/>
    <path fill="#202338" d="M273.613496,153.168381 C273.613496,153.168381 277.246474,159.33092 277.871713,160.242395 C278.496952,161.152861 276.692309,161.150845 275.573677,160.718297 C274.456075,160.28575 271.643015,155.8655 271.239236,155.060901 C270.757174,154.100021 271.152712,153 271.152712,153 L273.613496,153.168381"/>
    <polyline fill="#6069A8" points="271 156 271.653 161.982 272 162 271.892 157.696 271 156"/>
    <path fill="#6069A8" d="M244.899408,154.550301 C244.899408,154.550301 247.851831,159.774904 249.097025,160.628657 C250.789875,161.786677 249.729687,162.957709 248.926398,162.95871 C248.123109,162.959711 244.019433,163.26598 243.116452,162.195037 C242.211553,161.124093 241.763897,157.913264 240.923224,157.073524 C240.08255,156.234785 239.18532,152.810768 241.331578,152.086129 C243.215185,151.449568 244.899408,154.550301 244.899408,154.550301"/>
    <path fill="#202338" d="M243.803393,153.18048 C243.803393,153.18048 247.244524,159.33092 247.871776,160.242395 C248.496968,161.152861 246.69143,161.150845 245.573912,160.718297 C244.455364,160.28575 241.642515,155.8655 241.238767,155.060901 C240.75777,154.100021 241.152249,153 241.152249,153 L243.803393,153.18048"/>
    <polyline fill="#6069A8" points="240 156 240.653 161.982 241 162 240.892 157.696 240 156"/>
    <path fill="#202338" d="M231,107.347177 L258.950784,120.043795 C258.950784,120.043795 262.070471,121.055844 262.420558,124.509012 C263.511946,135.289537 271.600059,152.39137 271.600059,152.39137 C274.195116,153.655431 273.9965,152.558378 273.9965,152.558378 C272.361423,147.324123 270.370241,125.753073 269.660035,117.08065 C269.509568,115.243561 269.416279,113.9855 269.395213,113.58348 C269.382173,113.309467 269.082241,112.952449 268.564634,112.534429 C264.728724,109.433278 248.946723,103.013966 248.946723,103.013966 C237.097933,102.713951 231,107.347177 231,107.347177"/>
    <path fill="#202338" d="M226.112738,112.815528 C226.980648,120.411801 237.806363,119.54233 237.806363,119.54233 L250.925697,119.54233 C250.925697,119.54233 247.480235,127.224339 246.148165,133.704018 C244.736553,140.581111 241.407887,152.748664 241.407887,152.748664 C241.407887,152.748664 241.625368,153.161209 243.999534,152.929215 C243.999534,152.929215 254.297657,132.367534 258.240505,127.198114 C259.088278,126.085554 261.518828,120.046663 261.93768,116.444713 C262.079647,115.233303 261.992051,114.29726 261.539972,113.918001 C261.083867,113.535716 260.03875,112.815528 258.644255,111.933953 C254.533262,109.337643 247.397673,105.341304 243.420592,104.446616 C238.095331,103.247311 229.67298,101 229.67298,101 C229.67298,101 225.244828,105.219255 226.112738,112.815528"/>
    <path fill="#464240" d="M235.241292,55.2727591 C235.241292,55.2727591 233.321615,51.5414788 234.256842,47.5683657 C235.193054,43.5952525 238.79417,39.6362462 244.068851,41.4550312 C249.342547,43.2728086 253.605214,47.4655867 250.444146,52.3153441 C247.283079,57.1630864 253.305941,59.3526818 251.7702,61.6601708 C250.236427,63.9676599 250.817253,66.3769202 251.467974,66.9139908 C252.117711,67.4500538 254.213604,69.3635567 253.982258,71.6297325 C253.751897,73.8949008 243.750874,65.0266865 243.750874,65.0266865 C243.750874,65.0266865 238.30293,53.8237769 235.241292,55.2727591"/>
    <path fill="#EB4747" d="M251,102.654482 C251,102.654482 250.17972,106.235434 229,101.713569 C229,101.713569 236.099598,99.5969706 251,102.654482"/>
    <path fill="#325BB3" d="M229.296931,102.487625 C228.967882,103.103472 228.640865,103.719319 228.313847,104.335165 C236.039386,104.55611 243.76594,104.778055 251.490463,105 C250.269732,100.971003 250.66581,95.5163603 250.880098,91.3753909 C251.141103,86.3176496 253.977625,82.8015247 253.677013,77.6857979 C255.20445,77.9297372 255.468501,77.9757258 257,78.2056685 C254.658066,71.6403025 253.856771,68.3871122 246.585198,65.8597412 C244.216859,65.036946 242.662001,64.8739865 240.09867,65.0819348 C231.676442,65.7647648 229.136469,65.8627404 225,73.3758706 C231.475356,74.3916178 230.408994,76.6800482 232.373131,83.02147 C233.330826,86.1137004 234.331175,89.5648415 233.81729,92.8260298 C233.31153,96.0372306 229.296931,99.5593541 229.296931,102.487625"/>
    <path fill="#EEA886" d="M242.687309,66.872359 C239.354099,66.2410271 240.063167,64.3815036 240.063167,64.3815036 C240.063167,64.3815036 240.217355,63.3325669 240.278245,62.0058835 C240.293958,61.6670721 240.301815,61.3085622 240.299851,60.9451278 C240.298868,60.3945591 240.272352,59.8311866 240.209498,59.3013012 C239.935495,57.05766 246.259166,58.3961623 246.259166,58.3961623 C246.259166,58.3961623 245.894811,62.9366302 246.766906,64.2968007 C247.638019,65.6579562 246.021501,67.5036908 242.687309,66.872359"/>
    <path fill="#EEA886" d="M236 64.5965746C236 64.5965746 242.798764 72.2307615 245.3123 74 245.3123 74 248.200235 71.462997 246.4206 64.7626821 246.4206 64.7626821 243.137411 63.1634141 236 64.5965746M236.535598 45.2821196C236.535598 45.2821196 233.099908 52.176454 236.506613 58.7064988 239.914283 65.2355372 246.607888 55.8626235 247.039764 54.76271 247.473573 53.6627965 249.76822 47.4426999 245.204047 45.5518147 240.637942 43.6619359 237.508528 43.4113609 236.535598 45.2821196"/>
    <path fill="#464240" d="M237.841147,48.0953984 C237.841147,48.0953984 235.447041,51.2926615 235.163425,53.6545589 C235.163425,53.6545589 234.210868,49.1883353 236.905215,44.8981353 C239.598585,40.6069408 246.449366,44.6942663 247.367693,46.4077606 C248.284065,48.1222495 250.973522,49.6328693 246.456212,57 C246.456212,57 238.333073,51.2608381 237.841147,48.0953984"/>
    <path fill="#A77860" d="M243,60 C243,60 242.388705,61.5547445 240,63 C240.015852,62.6035344 240.023778,62.1840184 240.021797,61.7587399 C240.021797,61.7587399 241.639696,61.5316942 243,60"/>
    <path fill="#EEA886" d="M206.727106,96.2542203 C206.727106,96.2542203 205.115727,97.0452348 204.350084,96.6865434 C203.587301,96.3278519 202.404988,96.2584278 202.033131,96.2573759 C201.534462,96.256324 199.974571,95.6420255 200.000315,96.3152294 C200.027966,96.9873814 202.533707,97.4565203 203.046679,97.6668966 C203.55965,97.8762209 201.512532,99.1195443 201.32279,99.6717819 C201.132094,100.224019 203.443326,103.848802 204.746731,102.815854 C206.050136,101.782907 206.75571,99.7212203 207.020778,99.590787 C207.286798,99.4593019 208,98.8807673 208,98.8807673 L206.727106,96.2542203"/>
    <path fill="#EEA886" d="M201.869515,99 C201.869515,99 198.069788,102.223646 198.010342,102.659221 C197.950897,103.094796 198.151286,103.298849 198.519465,103.01239 C198.887645,102.725931 202.288511,100.007512 202.288511,100.007512 C202.288511,100.007512 198.480155,104.608517 198.352634,104.949913 C198.276889,105.150042 198.642192,105.565996 198.855046,105.431596 C199.067899,105.297196 203.116915,100.964992 203.116915,100.964992 C203.116915,100.964992 199.569352,105.268746 199.551135,105.590522 C199.533877,105.872076 199.960543,106.176194 200.247224,105.876 C200.533906,105.575807 204.06421,101.779242 204.06421,101.779242 C204.06421,101.779242 201.691178,105.083332 201.836916,105.373716 C201.927043,105.552262 202.227148,105.925051 202.811058,105.05194 C203.394967,104.178828 205,102.275641 205,102.275641 L201.869515,99"/>
    <path fill="#FF7E55" d="M249.57998,118.970844 L237.817815,118.970844 C237.817815,118.970844 226.980901,119.812494 226.113101,112.451721 C225.243285,105.088993 229.676019,101 229.676019,101 C229.676019,101 235.400877,102.478997 240.399041,103.649096 C242.900643,103.13394 245.916272,102.798648 249.437867,102.885648 C249.437867,102.885648 270.623873,109.674569 269.985874,113.249382 C269.985874,113.249382 261.123431,108.654031 249.57998,118.970844"/>
    <polyline fill="#5E5853" points="242 106.345 264 106 252.892 112 242 106.345"/>
    <path fill="#325BB3" d="M248.760092,104.088678 C248.760092,104.088678 243.609071,106.010738 237.295314,104.272156 L237,102 L250,102.697218 L248.760092,104.088678"/>
    <polyline fill="#91887F" points="253.121 112 242 108.031 242 107 254 110.987 253.121 112"/>
    <path fill="#EDDAD3" d="M247.958748 104.922675C247.899792 105.745596 248.744484 106.339261 249.515988 106.014898L250.828258 105.46328C251.22265 105.297094 251.452374 104.887636 251.38427 104.469168 250.837406 101.100398 249.664394 87.984721 251.380204 85.7332014 252.013468 84.9022716 252.407861 84.1724549 252.630469 83.5357424 253.762822 86.4099588 255.171657 90.1131028 255.731735 92.104331L266.416924 106.104998 270 107C265.528525 96.390127 261.937317 90.7688366 261.937317 90.7688366 261.237982 88.9197674 259.232476 83.3205015 257.456694 78.3349224 256.335522 75.1863991 255.305832 72.2831502 254.752869 70.7234048 254.472322 69.9325197 253.91936 69.2647725 253.188514 68.836293 251.533692 67.8612018 248.775994 66.3254833 246.274448 65.1301456L246.244971 65.11613 246.006099 65.0020022 246.001016 65.0010011 246 65C250.754055 72.0859295 248.900004 92.0973232 247.961797 104.894644L247.958748 104.922675M230.793349 65.2807383C229.299385 65.5140589 225.595869 69.1583047 223.630493 72.835882 221.386059 77.0336331 219.100762 81.8121605 217.388534 83.383792 214.240147 86.2755536 205.425858 96.4941885 205.007269 96.2467273 204.845813 96.151783 207.424122 99.2980761 207.752017 99.4445328 207.915466 99.5182661 222.238187 86.9401638 223.613551 85.0241066 224.91915 83.207034 228.406395 75.582197 229.449877 75.7498646L229.451871 75.7559249 229.453864 75.7589551C229.533595 75.9316729 230.801322 78.7193998 232.004267 82.7949352L232.064065 82.9979544C232.892274 85.8402238 232.815532 88.9259142 232.367044 92.393402 232.028186 95.010431 230.100684 99.2889857 228.938601 101.3717 228.798074 101.622192 228.833954 102.098934 228.985443 102.46154 229.076137 102.67769 229.206697 102.853438 229.367156 102.913031L233.570986 104.491732 234.559653 104.863429C235.271255 105.130081 236.017738 104.990695 236.57486 104.580616 237.032318 104.244271 237.362206 103.726118 237.442934 103.098879 238.377783 95.8103874 239.560795 88.3633186 240.503617 85.5584209 244.640672 73.2489908 238.887066 64 238.887066 64 238.887066 64 232.103931 64.7848057 230.793349 65.2807383"/>
    <polyline fill="#6E6760" points="253 112 259.63 94 281 94.347 274.682 110.934 253 112"/>
    <path fill="#807066" d="M266.382968,101.687988 C265.733702,102.994028 265.929481,104.415426 266.822472,104.863813 C267.715462,105.3122 268.966049,104.61705 269.616314,103.312012 C270.266579,102.006975 270.0708,100.584574 269.17681,100.136187 C268.285818,99.6877997 267.034232,100.38295 266.382968,101.687988"/>
    <path fill="#464240" d="M243.331989,53.1441001 C243.331989,53.1441001 244.698271,55.2497796 243.43701,57.0682309 C242.172749,58.8856917 243.755076,60.6714584 244.028133,62.5929157 C244.30319,64.514373 238.757043,69.6280244 244.925318,72.200202 C251.092593,74.7723795 253.055999,70.5204125 251.481674,68.1799984 C249.908349,65.8395842 248.791118,63.9409071 248.65809,60.6050988 C248.526063,57.2683001 247.416833,52.0674898 243.331989,53.1441001"/>
    <polyline fill="#78C2FF" points="199 27 225 27 225 50 221.032 45.999 199 45.999 199 27"/>
  </g>
</svg>
