<svg xmlns="http://www.w3.org/2000/svg" width="702" height="760" viewBox="0 0 702 760">
  <defs>
    <linearGradient id="hero-with-icons-a" x1="55.606%" x2="64.53%" y1="15.839%" y2="61.127%">
      <stop offset="0%" stop-color="#0F3060"/>
      <stop offset="27.115%" stop-color="#0575CE"/>
      <stop offset="73.275%" stop-color="#0575CE"/>
      <stop offset="100%" stop-color="#0F3060"/>
    </linearGradient>
    <linearGradient id="hero-with-icons-b" x1="64.756%" x2="40.744%" y1="20.629%" y2="103.847%">
      <stop offset="0%" stop-color="#092D61"/>
      <stop offset="100%" stop-color="#0575CE"/>
    </linearGradient>
    <linearGradient id="hero-with-icons-c" x1="46.252%" x2="68.529%" y1="74.449%" y2="-20.84%">
      <stop offset="0%" stop-color="#0F3060"/>
      <stop offset="45.698%" stop-color="#0575CE"/>
      <stop offset="73.828%" stop-color="#0575CE"/>
      <stop offset="100%" stop-color="#0F3060"/>
    </linearGradient>
    <linearGradient id="hero-with-icons-d" x1="30.113%" x2="22.618%" y1="100%" y2="16.852%">
      <stop offset="0%" stop-color="#FF8000"/>
      <stop offset="66.272%" stop-color="#FFF4E1"/>
      <stop offset="75%" stop-color="#FFF4E1"/>
      <stop offset="100%" stop-color="#FF8400"/>
    </linearGradient>
    <linearGradient id="hero-with-icons-e" x1="62.143%" x2="42.376%" y1="24.183%" y2="39.821%">
      <stop offset="0%" stop-color="#FFF"/>
      <stop offset="100%" stop-color="#FFF" stop-opacity="0"/>
    </linearGradient>
    <linearGradient id="hero-with-icons-f" x1="50%" x2="0%" y1="8.787%" y2="85.381%">
      <stop offset="0%" stop-color="#FFC768"/>
      <stop offset="37.842%" stop-color="#FF8400"/>
      <stop offset="77.42%" stop-color="#FF8400"/>
      <stop offset="100%" stop-color="#FFC768"/>
    </linearGradient>
    <linearGradient id="hero-with-icons-g" x1="34.135%" x2="44.037%" y1="31.392%" y2="64.449%">
      <stop offset="0%" stop-color="#FFF"/>
      <stop offset="100%" stop-color="#FFF" stop-opacity="0"/>
    </linearGradient>
    <linearGradient id="hero-with-icons-h" x1="39.519%" x2="55.921%" y1="47.189%" y2="57.717%">
      <stop offset="0%" stop-color="#FF8000"/>
      <stop offset="34.145%" stop-color="#FFC768"/>
      <stop offset="71.198%" stop-color="#FFC768"/>
      <stop offset="100%" stop-color="#FF8400"/>
    </linearGradient>
    <linearGradient id="hero-with-icons-i" x1="46.844%" x2="61.337%" y1="54.141%" y2="50%">
      <stop offset="0%" stop-color="#FF8000"/>
      <stop offset="50%" stop-color="#FFF4E1"/>
      <stop offset="75%" stop-color="#FFF4E1"/>
      <stop offset="100%" stop-color="#FF8400"/>
    </linearGradient>
    <linearGradient id="hero-with-icons-j" x1="69.702%" x2="23.334%" y1="81.024%" y2="18.199%">
      <stop offset="0%" stop-color="#FF8000"/>
      <stop offset="34.145%" stop-color="#FFC768"/>
      <stop offset="71.198%" stop-color="#FFC768"/>
      <stop offset="100%" stop-color="#FF8400"/>
    </linearGradient>
    <linearGradient id="hero-with-icons-k" x1="130.581%" x2="28.847%" y1="163.14%" y2="34.2%">
      <stop offset="0%" stop-color="#FFF"/>
      <stop offset="100%" stop-color="#FFF" stop-opacity="0"/>
    </linearGradient>
    <linearGradient id="hero-with-icons-l" x1="13.217%" x2="57.419%" y1="84.282%" y2="57.452%">
      <stop offset="0%" stop-color="#FFF"/>
      <stop offset="100%" stop-color="#FFF" stop-opacity="0"/>
    </linearGradient>
    <linearGradient id="hero-with-icons-m" x1="109.562%" x2="4.949%" y1="74.647%" y2="10.494%">
      <stop offset="0%" stop-color="#FFF"/>
      <stop offset="100%" stop-color="#FFF" stop-opacity="0"/>
    </linearGradient>
    <linearGradient id="hero-with-icons-n" x1="20.152%" x2="26.364%" y1="48.503%" y2="57.04%">
      <stop offset="0%" stop-color="#212A3A"/>
      <stop offset="100%" stop-color="#404E67" stop-opacity="0"/>
    </linearGradient>
    <linearGradient id="hero-with-icons-o" x1="0%" x2="100%" y1="100%" y2="0%">
      <stop offset="0%" stop-color="#212A3A"/>
      <stop offset="100%" stop-color="#404E67" stop-opacity="0"/>
    </linearGradient>
    <linearGradient id="hero-with-icons-p" x1="67.483%" x2="7.807%" y1="78.234%" y2="64.15%">
      <stop offset="0%" stop-color="#212A3A"/>
      <stop offset="100%" stop-color="#404E67" stop-opacity="0"/>
    </linearGradient>
    <linearGradient id="hero-with-icons-q" x1="20.199%" x2="105.361%" y1="46.953%" y2="39.656%">
      <stop offset="0%" stop-color="#212A3A"/>
      <stop offset="100%" stop-color="#404E67" stop-opacity="0"/>
    </linearGradient>
    <linearGradient id="hero-with-icons-r" x1="50.737%" x2="11.349%" y1="46.181%" y2="57.529%">
      <stop offset="0%" stop-color="#212A3A"/>
      <stop offset="100%" stop-color="#404E67" stop-opacity="0"/>
    </linearGradient>
  </defs>
  <g fill="none" fill-rule="evenodd">
    <g transform="translate(10 25)">
      <line x1="257.936" x2="255.486" y1="501.152" y2="502.892" stroke="#FFF" stroke-linecap="round"/>
      <path stroke="#FFF" stroke-dasharray="5.94" stroke-linecap="round" d="M250.646,506.344 L155.726,574.004 C155.726,574.004 154.226,575.504 154.226,580.504 L154.226,608.694"/>
      <line x1="154.226" x2="154.226" y1="611.664" y2="614.664" stroke="#FFF" stroke-linecap="round"/>
      <path stroke="#FFF" stroke-dasharray="6" stroke-linecap="round" d="M81.216 210.724L8.12595 167.324C8.12595 167.324 4.22595 164.504 9.22595 157.504L76.226 121.504C76.226 121.504 81.226 119.504 77.226 115.504 73.226 111.504 48.226 92.5039 48.226 92.5039M541.866 342.473L608.466 385.383C610.722 387.037 612.492 389.266 613.593 391.838 614.694 394.409 615.085 397.229 614.726 400.003 613.726 410.003 614.726 523.003 614.726 523.003"/>
      <polygon fill="#2899A6" points="200.546 385.383 200.546 415.513 226.446 415.513 233.726 397.003"/>
      <polygon fill="#3C5AAC" fill-rule="nonzero" points="231.735 234.383 231.735 210.723 201.275 222.553 219.795 234.383"/>
      <path fill="#D95020" fill-rule="nonzero" d="M608.236,224.324 L608.236,306.374 C607.766,308.724 599.796,313.374 599.796,313.374 L482.116,381.634 L432.876,353.734 C428.656,359.824 418.346,362.644 418.346,362.644 C418.346,362.644 390.216,368.264 380.346,353.734 C370.476,339.204 395.816,331.734 395.816,331.734 L348.486,304.004 L348.486,222.004 L395.836,249.674 C395.836,249.674 370.516,257.174 380.366,271.674 C390.216,286.174 418.366,280.584 418.366,280.584 C418.366,280.584 428.676,277.774 432.896,271.674 L482.136,299.574 L599.816,231.354 C599.816,231.354 607.726,226.664 608.236,224.324 Z"/>
      <path fill="#FF5A00" fill-rule="nonzero" d="M608.236,220.332 L608.236,224.332 C607.766,226.672 599.796,231.332 599.796,231.332 L482.116,299.572 L432.876,271.672 C428.656,277.772 418.346,280.582 418.346,280.582 C418.346,280.582 390.216,286.212 380.346,271.672 C370.476,257.132 395.816,249.672 395.816,249.672 L348.486,222.002 L391.616,196.682 C391.616,196.682 416.466,212.632 436.166,198.562 C437.126,197.896 437.986,197.229 438.746,196.562 C453.626,183.462 432.406,173.282 432.406,173.282 L482.116,145.152 C482.116,145.152 602.116,214.072 605.426,216.422 C606.805,217.343 607.804,218.732 608.236,220.332 Z"/>
      <path fill="#C3B566" fill-rule="nonzero" d="M441.786,73.3438 L441.786,124.454 L403.846,146.454 L403.846,115.454 C403.846,111.454 401.026,106.874 392.556,101.924 L441.786,73.3438 Z"/>
      <path fill="#FAE170" fill-rule="nonzero" d="M441.786,73.3433 L392.556,101.943 C401.026,106.943 403.826,111.523 403.846,115.473 C403.846,123.083 393.496,128.163 393.496,128.163 C370.496,137.073 351.296,125.353 351.296,125.353 L307.726,150.703 L258.496,121.633 C284.756,117.883 279.596,102.413 279.596,102.413 C279.596,102.413 275.846,90.6933 253.336,89.2833 C230.826,87.8733 222.866,101.473 222.866,101.473 L174.096,72.8733 C174.096,72.8733 272.526,16.6133 290.806,5.82334 C309.086,-4.96666 318.946,2.54334 318.946,2.54334 L441.786,73.3433 Z"/>
      <path fill="#2899A6" fill-rule="nonzero" d="M441.106,475.404 L441.106,495.504 L324.356,563.504 C324.356,563.504 307.476,572.884 295.286,565.844 C283.096,558.804 173.846,495.504 173.846,495.504 L173.846,475.404 L173.846,428.514 C173.846,428.514 283.096,491.814 295.286,498.854 C307.476,505.894 324.356,496.504 324.356,496.504 L441.106,428.504 L441.106,475.404 Z"/>
      <path fill="#09C1D1" fill-rule="nonzero" d="M441.086,428.514 L324.336,496.514 C324.336,496.514 307.456,505.894 295.266,498.864 C283.076,491.834 173.826,428.514 173.826,428.514 L223.996,399.004 C223.996,399.004 203.836,397.134 200.556,385.414 C197.276,373.694 216.496,367.594 216.496,367.594 C216.496,367.594 228.916,363.144 241.106,367.364 C253.296,371.584 257.516,380.484 257.516,380.484 L307.926,351.184 L355.276,378.844 C355.276,378.844 327.146,385.414 341.216,403.224 C341.626,403.744 342.056,404.224 342.496,404.714 C357.206,420.364 388.706,409.074 393.256,400.884 L441.086,428.514 Z"/>
      <path fill="#D95020" fill-rule="nonzero" d="M432.406,173.215 C432.406,173.215 453.626,183.395 438.746,196.495 C438.516,194.495 432.406,192.435 432.406,192.435 L432.406,173.215 Z"/>
      <path fill="#C3B566" fill-rule="nonzero" d="M403.846,146.493 L403.846,167.323 C403.246,174.543 393.526,179.323 393.526,179.323 C370.526,188.223 351.326,176.503 351.326,176.503 L351.326,125.403 C351.326,125.403 370.546,137.123 393.526,128.213 C393.526,128.213 403.876,123.133 403.876,115.523 L403.846,146.493 Z"/>
      <path fill="#2899A6" fill-rule="nonzero" d="M355.276,378.812 L355.276,398.573 C355.276,398.573 344.946,400.772 342.496,404.682 C342.056,404.212 341.626,403.683 341.216,403.193 C327.146,385.383 355.276,378.812 355.276,378.812 Z"/>
      <polygon fill="#C3B566" fill-rule="nonzero" points="351.296 125.395 351.296 176.495 307.686 201.815 307.686 150.705"/>
      <polygon fill="#C3B566" fill-rule="nonzero" points="307.686 150.703 307.686 201.813 258.456 172.743 258.456 140.933 258.456 121.633"/>
      <path fill="#C3B566" fill-rule="nonzero" d="M279.556,102.415 C279.556,102.415 284.716,117.885 258.456,121.635 L258.456,140.935 C256.856,140.695 255.146,140.505 253.296,140.395 C230.796,138.985 222.826,152.585 222.826,152.585 L222.826,101.475 C222.826,101.475 230.826,87.8848 253.296,89.2848 C275.766,90.6848 279.556,102.415 279.556,102.415 Z"/>
      <polygon fill="#3C5AAC" fill-rule="nonzero" points="259.866 251.043 259.866 313.403 210.636 342.483 210.636 280.113"/>
      <path fill="#416EDD" fill-rule="nonzero" d="M259.865,251.002 L210.635,280.072 C210.635,280.072 202.635,262.262 174.055,266.482 C145.475,270.702 155.775,290.002 155.775,290.002 C155.775,290.002 159.055,297.002 176.405,299.382 L126.235,328.922 L4.79547,258.552 C4.79547,258.552 0.795469,256.552 0.105469,253.142 L0.105469,251.002 C1.04547,246.322 3.38547,245.382 7.105469,243.002 C10.8255,240.622 126.205,174.082 126.205,174.082 L175.435,202.682 C175.435,202.682 182.935,187.212 209.665,190.022 C236.395,192.832 231.665,210.652 231.665,210.652 C229.606,214.184 226.664,217.121 223.128,219.176 C219.593,221.23 215.584,222.332 211.495,222.372 L259.865,251.002 Z"/>
      <polygon fill="#C3B566" fill-rule="nonzero" points="222.826 101.475 222.826 152.585 174.056 123.985 174.056 72.875"/>
      <path fill="#3C5AAC" fill-rule="nonzero" d="M210.636,280.112 L210.636,342.482 C210.636,342.482 203.096,325.642 176.406,328.582 L176.406,299.342 C159.056,297.002 155.776,290.002 155.776,290.002 C155.776,290.002 145.456,270.782 174.056,266.562 C202.656,262.342 210.636,280.112 210.636,280.112 Z"/>
      <polygon fill="#3C5AAC" fill-rule="nonzero" points="176.406 328.584 176.406 361.704 126.236 391.244 126.236 328.884 176.406 299.344"/>
      <path fill="#3C5AAC" fill-rule="nonzero" d="M126.236,328.885 L126.236,391.245 L4.79585,320.915 C4.79585,320.915 -0.834151,318.095 0.105849,313.405 L0.105849,253.145 C0.815849,256.565 4.79585,258.555 4.79585,258.555 L126.236,328.885 Z"/>
      <polygon fill="#D95020" fill-rule="nonzero" points="378.105 346.794 378.105 299.574 415.625 337.104"/>
    </g>
    <rect width="89" height="89" x="18" y="31" fill="#FFF" rx="8"/>
    <rect width="89" height="89" x="122" y="640" fill="#FFF" rx="8"/>
    <rect width="89" height="89" x="580" y="549" fill="#FFF" rx="8"/>
    <path fill="#FFF" fill-rule="nonzero" d="M559.404 658L563.744 648.2 562.694 648.2 558.914 656.712 555.162 648.2 554.042 648.2 558.382 658 559.404 658zM565.409978 649.026C565.615311 649.026 565.787978 648.956 565.927978 648.816 566.067978 648.676 566.137978 648.503333 566.137978 648.298 566.137978 648.111333 566.067978 647.950333 565.927978 647.815 565.787978 647.679667 565.615311 647.612 565.409978 647.612 565.204644 647.612 565.031978 647.682 564.891978 647.822 564.751978 647.962 564.681978 648.125333 564.681978 648.312 564.681978 648.508 564.751978 648.676 564.891978 648.816 565.031978 648.956 565.204644 649.026 565.409978 649.026zM565.899978 658L565.899978 650.636 564.905978 650.636 564.905978 658 565.899978 658zM571.597956 658.07C572.213956 658.07 572.766956 657.939333 573.256956 657.678 573.746956 657.416667 574.141289 657.038667 574.439956 656.544L574.439956 656.544 574.439956 658 575.391956 658 575.391956 647.612 574.397956 647.612 574.397956 652.036C574.089956 651.56 573.695622 651.198333 573.214956 650.951 572.734289 650.703667 572.195289 650.58 571.597956 650.58 570.907289 650.58 570.281956 650.736333 569.721956 651.049 569.161956 651.361667 568.723289 651.802667 568.405956 652.372 568.088622 652.941333 567.929956 653.59 567.929956 654.318 567.929956 655.046 568.088622 655.694667 568.405956 656.264 568.723289 656.833333 569.161956 657.276667 569.721956 657.594 570.281956 657.911333 570.907289 658.07 571.597956 658.07zM571.681956 657.188C571.159289 657.188 570.690289 657.069 570.274956 656.831 569.859622 656.593 569.532956 656.254667 569.294956 655.816 569.056956 655.377333 568.937956 654.878 568.937956 654.318 568.937956 653.758 569.056956 653.258667 569.294956 652.82 569.532956 652.381333 569.859622 652.043 570.274956 651.805 570.690289 651.567 571.159289 651.448 571.681956 651.448 572.195289 651.448 572.659622 651.567 573.074956 651.805 573.490289 652.043 573.816956 652.381333 574.054956 652.82 574.292956 653.258667 574.411956 653.758 574.411956 654.318 574.411956 654.878 574.292956 655.377333 574.054956 655.816 573.816956 656.254667 573.490289 656.593 573.074956 656.831 572.659622 657.069 572.195289 657.188 571.681956 657.188zM581.285933 658.07C581.873933 658.07 582.412933 657.967333 582.902933 657.762 583.392933 657.556667 583.801267 657.258 584.127933 656.866L584.127933 656.866 583.567933 656.222C583.287933 656.539333 582.9566 656.779667 582.573933 656.943 582.191267 657.106333 581.771267 657.188 581.313933 657.188 580.501933 657.188 579.829933 656.952333 579.297933 656.481 578.765933 656.009667 578.471933 655.391333 578.415933 654.626L578.415933 654.626 584.575933 654.626 584.589933 654.318C584.589933 653.59 584.435933 652.943667 584.127933 652.379 583.819933 651.814333 583.395267 651.373333 582.853933 651.056 582.3126 650.738667 581.701267 650.58 581.019933 650.58 580.3386 650.58 579.724933 650.738667 579.178933 651.056 578.632933 651.373333 578.2036 651.816667 577.890933 652.386 577.578267 652.955333 577.421933 653.599333 577.421933 654.318 577.421933 655.036667 577.585267 655.680667 577.911933 656.25 578.2386 656.819333 578.6936 657.265 579.276933 657.587 579.860267 657.909 580.529933 658.07 581.285933 658.07zM583.637933 653.884L578.415933 653.884C578.481267 653.156 578.754267 652.565667 579.234933 652.113 579.7156 651.660333 580.3106 651.434 581.019933 651.434 581.7386 651.434 582.338267 651.660333 582.818933 652.113 583.2996 652.565667 583.5726 653.156 583.637933 653.884L583.637933 653.884zM589.629911 658.07C590.339244 658.07 590.978578 657.909 591.547911 657.587 592.117244 657.265 592.562911 656.819333 592.884911 656.25 593.206911 655.680667 593.367911 655.036667 593.367911 654.318 593.367911 653.599333 593.206911 652.955333 592.884911 652.386 592.562911 651.816667 592.117244 651.373333 591.547911 651.056 590.978578 650.738667 590.339244 650.58 589.629911 650.58 588.920578 650.58 588.281244 650.738667 587.711911 651.056 587.142578 651.373333 586.694578 651.816667 586.367911 652.386 586.041244 652.955333 585.877911 653.599333 585.877911 654.318 585.877911 655.036667 586.041244 655.680667 586.367911 656.25 586.694578 656.819333 587.142578 657.265 587.711911 657.587 588.281244 657.909 588.920578 658.07 589.629911 658.07zM589.629911 657.188C589.107244 657.188 588.638244 657.069 588.222911 656.831 587.807578 656.593 587.480911 656.254667 587.242911 655.816 587.004911 655.377333 586.885911 654.878 586.885911 654.318 586.885911 653.758 587.004911 653.258667 587.242911 652.82 587.480911 652.381333 587.807578 652.043 588.222911 651.805 588.638244 651.567 589.107244 651.448 589.629911 651.448 590.152578 651.448 590.621578 651.567 591.036911 651.805 591.452244 652.043 591.776578 652.381333 592.009911 652.82 592.243244 653.258667 592.359911 653.758 592.359911 654.318 592.359911 654.878 592.243244 655.377333 592.009911 655.816 591.776578 656.254667 591.452244 656.593 591.036911 656.831 590.621578 657.069 590.152578 657.188 589.629911 657.188zM603.531867 658.084C604.259867 658.084 604.9342 657.960333 605.554867 657.713 606.175533 657.465667 606.700533 657.108667 607.129867 656.642L607.129867 656.642 606.471867 655.984C605.715867 656.768 604.749867 657.16 603.573867 657.16 602.7992 657.16 602.094533 656.982667 601.459867 656.628 600.8252 656.273333 600.3282 655.788 599.968867 655.172 599.609533 654.556 599.429867 653.865333 599.429867 653.1 599.429867 652.334667 599.609533 651.644 599.968867 651.028 600.3282 650.412 600.8252 649.926667 601.459867 649.572 602.094533 649.217333 602.7992 649.04 603.573867 649.04 604.740533 649.04 605.706533 649.427333 606.471867 650.202L606.471867 650.202 607.129867 649.544C606.700533 649.077333 606.177867 648.722667 605.561867 648.48 604.945867 648.237333 604.273867 648.116 603.545867 648.116 602.5752 648.116 601.697867 648.330667 600.913867 648.76 600.129867 649.189333 599.5162 649.784333 599.072867 650.545 598.629533 651.305667 598.407867 652.157333 598.407867 653.1 598.407867 654.042667 598.629533 654.894333 599.072867 655.655 599.5162 656.415667 600.127533 657.010667 600.906867 657.44 601.6862 657.869333 602.5612 658.084 603.531867 658.084zM611.819844 658.07C612.529178 658.07 613.168511 657.909 613.737844 657.587 614.307178 657.265 614.752844 656.819333 615.074844 656.25 615.396844 655.680667 615.557844 655.036667 615.557844 654.318 615.557844 653.599333 615.396844 652.955333 615.074844 652.386 614.752844 651.816667 614.307178 651.373333 613.737844 651.056 613.168511 650.738667 612.529178 650.58 611.819844 650.58 611.110511 650.58 610.471178 650.738667 609.901844 651.056 609.332511 651.373333 608.884511 651.816667 608.557844 652.386 608.231178 652.955333 608.067844 653.599333 608.067844 654.318 608.067844 655.036667 608.231178 655.680667 608.557844 656.25 608.884511 656.819333 609.332511 657.265 609.901844 657.587 610.471178 657.909 611.110511 658.07 611.819844 658.07zM611.819844 657.188C611.297178 657.188 610.828178 657.069 610.412844 656.831 609.997511 656.593 609.670844 656.254667 609.432844 655.816 609.194844 655.377333 609.075844 654.878 609.075844 654.318 609.075844 653.758 609.194844 653.258667 609.432844 652.82 609.670844 652.381333 609.997511 652.043 610.412844 651.805 610.828178 651.567 611.297178 651.448 611.819844 651.448 612.342511 651.448 612.811511 651.567 613.226844 651.805 613.642178 652.043 613.966511 652.381333 614.199844 652.82 614.433178 653.258667 614.549844 653.758 614.549844 654.318 614.549844 654.878 614.433178 655.377333 614.199844 655.816 613.966511 656.254667 613.642178 656.593 613.226844 656.831 612.811511 657.069 612.342511 657.188 611.819844 657.188zM618.581822 658L618.581822 654.136C618.581822 653.305333 618.812822 652.654333 619.274822 652.183 619.736822 651.711667 620.364489 651.476 621.157822 651.476 621.867156 651.476 622.413156 651.676667 622.795822 652.078 623.178489 652.479333 623.369822 653.062667 623.369822 653.828L623.369822 653.828 623.369822 658 624.363822 658 624.363822 653.73C624.363822 652.703333 624.090822 651.921667 623.544822 651.385 622.998822 650.848333 622.263822 650.58 621.339822 650.58 620.705156 650.58 620.147489 650.703667 619.666822 650.951 619.186156 651.198333 618.810489 651.546 618.539822 651.994L618.539822 651.994 618.539822 650.636 617.587822 650.636 617.587822 658 618.581822 658zM628.2278 658L628.2278 651.476 630.4678 651.476 630.4678 650.636 628.1998 650.636 628.1998 649.768C628.1998 649.310667 628.309467 648.965333 628.5288 648.732 628.748133 648.498667 629.072467 648.382 629.5018 648.382 629.940467 648.382 630.304467 648.503333 630.5938 648.746L630.5938 648.746 630.9298 648.004C630.752467 647.854667 630.533133 647.740333 630.2718 647.661 630.010467 647.581667 629.7398 647.542 629.4598 647.542 628.750467 647.542 628.202133 647.738 627.8148 648.13 627.427467 648.522 627.2338 649.054 627.2338 649.726L627.2338 649.726 627.2338 650.636 625.9178 650.636 625.9178 651.476 627.2338 651.476 627.2338 658 628.2278 658zM634.807778 658.07C635.395778 658.07 635.934778 657.967333 636.424778 657.762 636.914778 657.556667 637.323111 657.258 637.649778 656.866L637.649778 656.866 637.089778 656.222C636.809778 656.539333 636.478444 656.779667 636.095778 656.943 635.713111 657.106333 635.293111 657.188 634.835778 657.188 634.023778 657.188 633.351778 656.952333 632.819778 656.481 632.287778 656.009667 631.993778 655.391333 631.937778 654.626L631.937778 654.626 638.097778 654.626 638.111778 654.318C638.111778 653.59 637.957778 652.943667 637.649778 652.379 637.341778 651.814333 636.917111 651.373333 636.375778 651.056 635.834444 650.738667 635.223111 650.58 634.541778 650.58 633.860444 650.58 633.246778 650.738667 632.700778 651.056 632.154778 651.373333 631.725444 651.816667 631.412778 652.386 631.100111 652.955333 630.943778 653.599333 630.943778 654.318 630.943778 655.036667 631.107111 655.680667 631.433778 656.25 631.760444 656.819333 632.215444 657.265 632.798778 657.587 633.382111 657.909 634.051778 658.07 634.807778 658.07zM637.159778 653.884L631.937778 653.884C632.003111 653.156 632.276111 652.565667 632.756778 652.113 633.237444 651.660333 633.832444 651.434 634.541778 651.434 635.260444 651.434 635.860111 651.660333 636.340778 652.113 636.821444 652.565667 637.094444 653.156 637.159778 653.884L637.159778 653.884zM641.135756 658L641.135756 654.248C641.135756 653.389333 641.355089 652.722 641.793756 652.246 642.232422 651.77 642.839089 651.532 643.613756 651.532L643.613756 651.532 643.851756 651.546 643.851756 650.58C643.170422 650.58 642.598756 650.706 642.136756 650.958 641.674756 651.21 641.327089 651.583333 641.093756 652.078L641.093756 652.078 641.093756 650.636 640.141756 650.636 640.141756 658 641.135756 658zM648.695733 658.07C649.283733 658.07 649.822733 657.967333 650.312733 657.762 650.802733 657.556667 651.211067 657.258 651.537733 656.866L651.537733 656.866 650.977733 656.222C650.697733 656.539333 650.3664 656.779667 649.983733 656.943 649.601067 657.106333 649.181067 657.188 648.723733 657.188 647.911733 657.188 647.239733 656.952333 646.707733 656.481 646.175733 656.009667 645.881733 655.391333 645.825733 654.626L645.825733 654.626 651.985733 654.626 651.999733 654.318C651.999733 653.59 651.845733 652.943667 651.537733 652.379 651.229733 651.814333 650.805067 651.373333 650.263733 651.056 649.7224 650.738667 649.111067 650.58 648.429733 650.58 647.7484 650.58 647.134733 650.738667 646.588733 651.056 646.042733 651.373333 645.6134 651.816667 645.300733 652.386 644.988067 652.955333 644.831733 653.599333 644.831733 654.318 644.831733 655.036667 644.995067 655.680667 645.321733 656.25 645.6484 656.819333 646.1034 657.265 646.686733 657.587 647.270067 657.909 647.939733 658.07 648.695733 658.07zM651.047733 653.884L645.825733 653.884C645.891067 653.156 646.164067 652.565667 646.644733 652.113 647.1254 651.660333 647.7204 651.434 648.429733 651.434 649.1484 651.434 649.748067 651.660333 650.228733 652.113 650.7094 652.565667 650.9824 653.156 651.047733 653.884L651.047733 653.884zM655.023711 658L655.023711 654.136C655.023711 653.305333 655.254711 652.654333 655.716711 652.183 656.178711 651.711667 656.806378 651.476 657.599711 651.476 658.309044 651.476 658.855044 651.676667 659.237711 652.078 659.620378 652.479333 659.811711 653.062667 659.811711 653.828L659.811711 653.828 659.811711 658 660.805711 658 660.805711 653.73C660.805711 652.703333 660.532711 651.921667 659.986711 651.385 659.440711 650.848333 658.705711 650.58 657.781711 650.58 657.147044 650.58 656.589378 650.703667 656.108711 650.951 655.628044 651.198333 655.252378 651.546 654.981711 651.994L654.981711 651.994 654.981711 650.636 654.029711 650.636 654.029711 658 655.023711 658zM666.587689 658.07C667.213022 658.07 667.777689 657.946333 668.281689 657.699 668.785689 657.451667 669.182356 657.09 669.471689 656.614L669.471689 656.614 668.729689 656.11C668.487022 656.474 668.179022 656.744667 667.805689 656.922 667.432356 657.099333 667.026356 657.188 666.587689 657.188 666.055689 657.188 665.577356 657.069 665.152689 656.831 664.728022 656.593 664.396689 656.257 664.158689 655.823 663.920689 655.389 663.801689 654.887333 663.801689 654.318 663.801689 653.758 663.920689 653.258667 664.158689 652.82 664.396689 652.381333 664.728022 652.043 665.152689 651.805 665.577356 651.567 666.055689 651.448 666.587689 651.448 667.026356 651.448 667.432356 651.539 667.805689 651.721 668.179022 651.903 668.487022 652.176 668.729689 652.54L668.729689 652.54 669.471689 652.036C669.182356 651.56 668.788022 651.198333 668.288689 650.951 667.789356 650.703667 667.222356 650.58 666.587689 650.58 665.859689 650.58 665.208689 650.738667 664.634689 651.056 664.060689 651.373333 663.610356 651.816667 663.283689 652.386 662.957022 652.955333 662.793689 653.599333 662.793689 654.318 662.793689 655.036667 662.957022 655.683 663.283689 656.257 663.610356 656.831 664.060689 657.276667 664.634689 657.594 665.208689 657.911333 665.859689 658.07 666.587689 658.07zM671.921667 649.026C672.127 649.026 672.299667 648.956 672.439667 648.816 672.579667 648.676 672.649667 648.503333 672.649667 648.298 672.649667 648.111333 672.579667 647.950333 672.439667 647.815 672.299667 647.679667 672.127 647.612 671.921667 647.612 671.716333 647.612 671.543667 647.682 671.403667 647.822 671.263667 647.962 671.193667 648.125333 671.193667 648.312 671.193667 648.508 671.263667 648.676 671.403667 648.816 671.543667 648.956 671.716333 649.026 671.921667 649.026zM672.411667 658L672.411667 650.636 671.417667 650.636 671.417667 658 672.411667 658zM676.177644 658L676.177644 654.136C676.177644 653.305333 676.408644 652.654333 676.870644 652.183 677.332644 651.711667 677.960311 651.476 678.753644 651.476 679.462978 651.476 680.008978 651.676667 680.391644 652.078 680.774311 652.479333 680.965644 653.062667 680.965644 653.828L680.965644 653.828 680.965644 658 681.959644 658 681.959644 653.73C681.959644 652.703333 681.686644 651.921667 681.140644 651.385 680.594644 650.848333 679.859644 650.58 678.935644 650.58 678.300978 650.58 677.743311 650.703667 677.262644 650.951 676.781978 651.198333 676.406311 651.546 676.135644 651.994L676.135644 651.994 676.135644 650.636 675.183644 650.636 675.183644 658 676.177644 658zM687.825622 660.786C689.057622 660.786 689.979289 660.485 690.590622 659.883 691.201956 659.281 691.507622 658.354667 691.507622 657.104L691.507622 657.104 691.507622 650.636 690.555622 650.636 690.555622 652.05C690.247622 651.574 689.841622 651.21 689.337622 650.958 688.833622 650.706 688.268956 650.58 687.643622 650.58 686.943622 650.58 686.313622 650.729333 685.753622 651.028 685.193622 651.326667 684.752622 651.746667 684.430622 652.288 684.108622 652.829333 683.947622 653.445333 683.947622 654.136 683.947622 654.826667 684.108622 655.445 684.430622 655.991 684.752622 656.537 685.195956 656.961667 685.760622 657.265 686.325289 657.568333 686.952956 657.72 687.643622 657.72 688.250289 657.72 688.803289 657.598667 689.302622 657.356 689.801956 657.113333 690.205622 656.758667 690.513622 656.292L690.513622 656.292 690.513622 657.23C690.513622 658.144667 690.294289 658.819 689.855622 659.253 689.416956 659.687 688.730956 659.904 687.797622 659.904 687.237622 659.904 686.703289 659.815333 686.194622 659.638 685.685956 659.460667 685.254289 659.213333 684.899622 658.896L684.899622 658.896 684.395622 659.652C684.778289 660.006667 685.275289 660.284333 685.886622 660.485 686.497956 660.685667 687.144289 660.786 687.825622 660.786zM687.741622 656.838C687.209622 656.838 686.731289 656.723667 686.306622 656.495 685.881956 656.266333 685.550622 655.946667 685.312622 655.536 685.074622 655.125333 684.955622 654.658667 684.955622 654.136 684.955622 653.613333 685.074622 653.146667 685.312622 652.736 685.550622 652.325333 685.881956 652.008 686.306622 651.784 686.731289 651.56 687.209622 651.448 687.741622 651.448 688.282956 651.448 688.765956 651.562333 689.190622 651.791 689.615289 652.019667 689.946622 652.337 690.184622 652.743 690.422622 653.149 690.541622 653.613333 690.541622 654.136 690.541622 654.658667 690.422622 655.125333 690.184622 655.536 689.946622 655.946667 689.612956 656.266333 689.183622 656.495 688.754289 656.723667 688.273622 656.838 687.741622 656.838zM92.852 749.084C93.58 749.084 94.2543333 748.960333 94.875 748.713 95.4956667 748.465667 96.0206667 748.108667 96.45 747.642L96.45 747.642 95.792 746.984C95.036 747.768 94.07 748.16 92.894 748.16 92.1193333 748.16 91.4146667 747.982667 90.78 747.628 90.1453333 747.273333 89.6483333 746.788 89.289 746.172 88.9296667 745.556 88.75 744.865333 88.75 744.1 88.75 743.334667 88.9296667 742.644 89.289 742.028 89.6483333 741.412 90.1453333 740.926667 90.78 740.572 91.4146667 740.217333 92.1193333 740.04 92.894 740.04 94.0606667 740.04 95.0266667 740.427333 95.792 741.202L95.792 741.202 96.45 740.544C96.0206667 740.077333 95.498 739.722667 94.882 739.48 94.266 739.237333 93.594 739.116 92.866 739.116 91.8953333 739.116 91.018 739.330667 90.234 739.76 89.45 740.189333 88.8363333 740.784333 88.393 741.545 87.9496667 742.305667 87.728 743.157333 87.728 744.1 87.728 745.042667 87.9496667 745.894333 88.393 746.655 88.8363333 747.415667 89.4476667 748.010667 90.227 748.44 91.0063333 748.869333 91.8813333 749.084 92.852 749.084zM101.139978 749.07C101.849311 749.07 102.488644 748.909 103.057978 748.587 103.627311 748.265 104.072978 747.819333 104.394978 747.25 104.716978 746.680667 104.877978 746.036667 104.877978 745.318 104.877978 744.599333 104.716978 743.955333 104.394978 743.386 104.072978 742.816667 103.627311 742.373333 103.057978 742.056 102.488644 741.738667 101.849311 741.58 101.139978 741.58 100.430644 741.58 99.7913111 741.738667 99.2219778 742.056 98.6526444 742.373333 98.2046444 742.816667 97.8779778 743.386 97.5513111 743.955333 97.3879778 744.599333 97.3879778 745.318 97.3879778 746.036667 97.5513111 746.680667 97.8779778 747.25 98.2046444 747.819333 98.6526444 748.265 99.2219778 748.587 99.7913111 748.909 100.430644 749.07 101.139978 749.07zM101.139978 748.188C100.617311 748.188 100.148311 748.069 99.7329778 747.831 99.3176444 747.593 98.9909778 747.254667 98.7529778 746.816 98.5149778 746.377333 98.3959778 745.878 98.3959778 745.318 98.3959778 744.758 98.5149778 744.258667 98.7529778 743.82 98.9909778 743.381333 99.3176444 743.043 99.7329778 742.805 100.148311 742.567 100.617311 742.448 101.139978 742.448 101.662644 742.448 102.131644 742.567 102.546978 742.805 102.962311 743.043 103.286644 743.381333 103.519978 743.82 103.753311 744.258667 103.869978 744.758 103.869978 745.318 103.869978 745.878 103.753311 746.377333 103.519978 746.816 103.286644 747.254667 102.962311 747.593 102.546978 747.831 102.131644 748.069 101.662644 748.188 101.139978 748.188zM107.901956 749L107.901956 745.136C107.901956 744.305333 108.132956 743.654333 108.594956 743.183 109.056956 742.711667 109.684622 742.476 110.477956 742.476 111.187289 742.476 111.733289 742.676667 112.115956 743.078 112.498622 743.479333 112.689956 744.062667 112.689956 744.828L112.689956 744.828 112.689956 749 113.683956 749 113.683956 744.73C113.683956 743.703333 113.410956 742.921667 112.864956 742.385 112.318956 741.848333 111.583956 741.58 110.659956 741.58 110.025289 741.58 109.467622 741.703667 108.986956 741.951 108.506289 742.198333 108.130622 742.546 107.859956 742.994L107.859956 742.994 107.859956 741.636 106.907956 741.636 106.907956 749 107.901956 749zM118.709933 749.07C119.0086 749.07 119.2956 749.025667 119.570933 748.937 119.846267 748.848333 120.077267 748.72 120.263933 748.552L120.263933 748.552 119.913933 747.838C119.773933 747.959333 119.608267 748.052667 119.416933 748.118 119.2256 748.183333 119.027267 748.216 118.821933 748.216 118.411267 748.216 118.096267 748.101667 117.876933 747.873 117.6576 747.644333 117.547933 747.310667 117.547933 746.872L117.547933 746.872 117.547933 742.476 119.787933 742.476 119.787933 741.636 117.547933 741.636 117.547933 740.026 116.553933 740.026 116.553933 741.636 115.237933 741.636 115.237933 742.476 116.553933 742.476 116.553933 746.928C116.553933 747.609333 116.7406 748.136667 117.113933 748.51 117.487267 748.883333 118.019267 749.07 118.709933 749.07zM124.925911 749.07C125.513911 749.07 126.052911 748.967333 126.542911 748.762 127.032911 748.556667 127.441244 748.258 127.767911 747.866L127.767911 747.866 127.207911 747.222C126.927911 747.539333 126.596578 747.779667 126.213911 747.943 125.831244 748.106333 125.411244 748.188 124.953911 748.188 124.141911 748.188 123.469911 747.952333 122.937911 747.481 122.405911 747.009667 122.111911 746.391333 122.055911 745.626L122.055911 745.626 128.215911 745.626 128.229911 745.318C128.229911 744.59 128.075911 743.943667 127.767911 743.379 127.459911 742.814333 127.035244 742.373333 126.493911 742.056 125.952578 741.738667 125.341244 741.58 124.659911 741.58 123.978578 741.58 123.364911 741.738667 122.818911 742.056 122.272911 742.373333 121.843578 742.816667 121.530911 743.386 121.218244 743.955333 121.061911 744.599333 121.061911 745.318 121.061911 746.036667 121.225244 746.680667 121.551911 747.25 121.878578 747.819333 122.333578 748.265 122.916911 748.587 123.500244 748.909 124.169911 749.07 124.925911 749.07zM127.277911 744.884L122.055911 744.884C122.121244 744.156 122.394244 743.565667 122.874911 743.113 123.355578 742.660333 123.950578 742.434 124.659911 742.434 125.378578 742.434 125.978244 742.660333 126.458911 743.113 126.939578 743.565667 127.212578 744.156 127.277911 744.884L127.277911 744.884zM131.253889 749L131.253889 745.136C131.253889 744.305333 131.484889 743.654333 131.946889 743.183 132.408889 742.711667 133.036556 742.476 133.829889 742.476 134.539222 742.476 135.085222 742.676667 135.467889 743.078 135.850556 743.479333 136.041889 744.062667 136.041889 744.828L136.041889 744.828 136.041889 749 137.035889 749 137.035889 744.73C137.035889 743.703333 136.762889 742.921667 136.216889 742.385 135.670889 741.848333 134.935889 741.58 134.011889 741.58 133.377222 741.58 132.819556 741.703667 132.338889 741.951 131.858222 742.198333 131.482556 742.546 131.211889 742.994L131.211889 742.994 131.211889 741.636 130.259889 741.636 130.259889 749 131.253889 749zM142.061867 749.07C142.360533 749.07 142.647533 749.025667 142.922867 748.937 143.1982 748.848333 143.4292 748.72 143.615867 748.552L143.615867 748.552 143.265867 747.838C143.125867 747.959333 142.9602 748.052667 142.768867 748.118 142.577533 748.183333 142.3792 748.216 142.173867 748.216 141.7632 748.216 141.4482 748.101667 141.228867 747.873 141.009533 747.644333 140.899867 747.310667 140.899867 746.872L140.899867 746.872 140.899867 742.476 143.139867 742.476 143.139867 741.636 140.899867 741.636 140.899867 740.026 139.905867 740.026 139.905867 741.636 138.589867 741.636 138.589867 742.476 139.905867 742.476 139.905867 746.928C139.905867 747.609333 140.092533 748.136667 140.465867 748.51 140.8392 748.883333 141.3712 749.07 142.061867 749.07zM150.293822 749L150.293822 741.202 154.143822 747.754 154.633822 747.754 158.483822 741.16 158.483822 749 159.477822 749 159.477822 739.2 158.623822 739.2 154.409822 746.466 150.153822 739.2 149.299822 739.2 149.299822 749 150.293822 749zM164.5318 749.07C165.129133 749.07 165.6448 748.962667 166.0788 748.748 166.5128 748.533333 166.8418 748.234667 167.0658 747.852L167.0658 747.852 167.0658 749 168.0178 749 168.0178 744.436C168.0178 743.493333 167.761133 742.781667 167.2478 742.301 166.734467 741.820333 165.997133 741.58 165.0358 741.58 164.457133 741.58 163.906467 741.666333 163.3838 741.839 162.861133 742.011667 162.413133 742.256667 162.0398 742.574L162.0398 742.574 162.4878 743.316C162.7958 743.045333 163.164467 742.833 163.5938 742.679 164.023133 742.525 164.471133 742.448 164.9378 742.448 165.619133 742.448 166.137133 742.613667 166.4918 742.945 166.846467 743.276333 167.0238 743.759333 167.0238 744.394L167.0238 744.394 167.0238 744.842 164.6858 744.842C163.696467 744.842 162.975467 745.033333 162.5228 745.416 162.070133 745.798667 161.8438 746.302667 161.8438 746.928 161.8438 747.572 162.086467 748.09 162.5718 748.482 163.057133 748.874 163.710467 749.07 164.5318 749.07zM164.6858 748.286C164.0978 748.286 163.640467 748.162333 163.3138 747.915 162.987133 747.667667 162.8238 747.329333 162.8238 746.9 162.8238 746.022667 163.4538 745.584 164.7138 745.584L164.7138 745.584 167.0238 745.584 167.0238 746.788C166.8278 747.273333 166.529133 747.644333 166.1278 747.901 165.726467 748.157667 165.2458 748.286 164.6858 748.286zM171.713778 749L171.713778 745.136C171.713778 744.305333 171.944778 743.654333 172.406778 743.183 172.868778 742.711667 173.496444 742.476 174.289778 742.476 174.999111 742.476 175.545111 742.676667 175.927778 743.078 176.310444 743.479333 176.501778 744.062667 176.501778 744.828L176.501778 744.828 176.501778 749 177.495778 749 177.495778 744.73C177.495778 743.703333 177.222778 742.921667 176.676778 742.385 176.130778 741.848333 175.395778 741.58 174.471778 741.58 173.837111 741.58 173.279444 741.703667 172.798778 741.951 172.318111 742.198333 171.942444 742.546 171.671778 742.994L171.671778 742.994 171.671778 741.636 170.719778 741.636 170.719778 749 171.713778 749zM182.269756 749.07C182.867089 749.07 183.382756 748.962667 183.816756 748.748 184.250756 748.533333 184.579756 748.234667 184.803756 747.852L184.803756 747.852 184.803756 749 185.755756 749 185.755756 744.436C185.755756 743.493333 185.499089 742.781667 184.985756 742.301 184.472422 741.820333 183.735089 741.58 182.773756 741.58 182.195089 741.58 181.644422 741.666333 181.121756 741.839 180.599089 742.011667 180.151089 742.256667 179.777756 742.574L179.777756 742.574 180.225756 743.316C180.533756 743.045333 180.902422 742.833 181.331756 742.679 181.761089 742.525 182.209089 742.448 182.675756 742.448 183.357089 742.448 183.875089 742.613667 184.229756 742.945 184.584422 743.276333 184.761756 743.759333 184.761756 744.394L184.761756 744.394 184.761756 744.842 182.423756 744.842C181.434422 744.842 180.713422 745.033333 180.260756 745.416 179.808089 745.798667 179.581756 746.302667 179.581756 746.928 179.581756 747.572 179.824422 748.09 180.309756 748.482 180.795089 748.874 181.448422 749.07 182.269756 749.07zM182.423756 748.286C181.835756 748.286 181.378422 748.162333 181.051756 747.915 180.725089 747.667667 180.561756 747.329333 180.561756 746.9 180.561756 746.022667 181.191756 745.584 182.451756 745.584L182.451756 745.584 184.761756 745.584 184.761756 746.788C184.565756 747.273333 184.267089 747.644333 183.865756 747.901 183.464422 748.157667 182.983756 748.286 182.423756 748.286zM191.621733 751.786C192.853733 751.786 193.7754 751.485 194.386733 750.883 194.998067 750.281 195.303733 749.354667 195.303733 748.104L195.303733 748.104 195.303733 741.636 194.351733 741.636 194.351733 743.05C194.043733 742.574 193.637733 742.21 193.133733 741.958 192.629733 741.706 192.065067 741.58 191.439733 741.58 190.739733 741.58 190.109733 741.729333 189.549733 742.028 188.989733 742.326667 188.548733 742.746667 188.226733 743.288 187.904733 743.829333 187.743733 744.445333 187.743733 745.136 187.743733 745.826667 187.904733 746.445 188.226733 746.991 188.548733 747.537 188.992067 747.961667 189.556733 748.265 190.1214 748.568333 190.749067 748.72 191.439733 748.72 192.0464 748.72 192.5994 748.598667 193.098733 748.356 193.598067 748.113333 194.001733 747.758667 194.309733 747.292L194.309733 747.292 194.309733 748.23C194.309733 749.144667 194.0904 749.819 193.651733 750.253 193.213067 750.687 192.527067 750.904 191.593733 750.904 191.033733 750.904 190.4994 750.815333 189.990733 750.638 189.482067 750.460667 189.0504 750.213333 188.695733 749.896L188.695733 749.896 188.191733 750.652C188.5744 751.006667 189.0714 751.284333 189.682733 751.485 190.294067 751.685667 190.9404 751.786 191.621733 751.786zM191.537733 747.838C191.005733 747.838 190.5274 747.723667 190.102733 747.495 189.678067 747.266333 189.346733 746.946667 189.108733 746.536 188.870733 746.125333 188.751733 745.658667 188.751733 745.136 188.751733 744.613333 188.870733 744.146667 189.108733 743.736 189.346733 743.325333 189.678067 743.008 190.102733 742.784 190.5274 742.56 191.005733 742.448 191.537733 742.448 192.079067 742.448 192.562067 742.562333 192.986733 742.791 193.4114 743.019667 193.742733 743.337 193.980733 743.743 194.218733 744.149 194.337733 744.613333 194.337733 745.136 194.337733 745.658667 194.218733 746.125333 193.980733 746.536 193.742733 746.946667 193.409067 747.266333 192.979733 747.495 192.5504 747.723667 192.069733 747.838 191.537733 747.838zM201.211711 749.07C201.799711 749.07 202.338711 748.967333 202.828711 748.762 203.318711 748.556667 203.727044 748.258 204.053711 747.866L204.053711 747.866 203.493711 747.222C203.213711 747.539333 202.882378 747.779667 202.499711 747.943 202.117044 748.106333 201.697044 748.188 201.239711 748.188 200.427711 748.188 199.755711 747.952333 199.223711 747.481 198.691711 747.009667 198.397711 746.391333 198.341711 745.626L198.341711 745.626 204.501711 745.626 204.515711 745.318C204.515711 744.59 204.361711 743.943667 204.053711 743.379 203.745711 742.814333 203.321044 742.373333 202.779711 742.056 202.238378 741.738667 201.627044 741.58 200.945711 741.58 200.264378 741.58 199.650711 741.738667 199.104711 742.056 198.558711 742.373333 198.129378 742.816667 197.816711 743.386 197.504044 743.955333 197.347711 744.599333 197.347711 745.318 197.347711 746.036667 197.511044 746.680667 197.837711 747.25 198.164378 747.819333 198.619378 748.265 199.202711 748.587 199.786044 748.909 200.455711 749.07 201.211711 749.07zM203.563711 744.884L198.341711 744.884C198.407044 744.156 198.680044 743.565667 199.160711 743.113 199.641378 742.660333 200.236378 742.434 200.945711 742.434 201.664378 742.434 202.264044 742.660333 202.744711 743.113 203.225378 743.565667 203.498378 744.156 203.563711 744.884L203.563711 744.884zM207.539689 749L207.539689 745.136C207.539689 744.305333 207.761356 743.654333 208.204689 743.183 208.648022 742.711667 209.247689 742.476 210.003689 742.476 210.685022 742.476 211.210022 742.676667 211.578689 743.078 211.947356 743.479333 212.131689 744.062667 212.131689 744.828L212.131689 744.828 212.131689 749 213.125689 749 213.125689 745.136C213.125689 744.305333 213.345022 743.654333 213.783689 743.183 214.222356 742.711667 214.824356 742.476 215.589689 742.476 216.261689 742.476 216.782022 742.676667 217.150689 743.078 217.519356 743.479333 217.703689 744.062667 217.703689 744.828L217.703689 744.828 217.703689 749 218.697689 749 218.697689 744.73C218.697689 743.694 218.434022 742.91 217.906689 742.378 217.379356 741.846 216.653689 741.58 215.729689 741.58 215.076356 741.58 214.495356 741.717667 213.986689 741.993 213.478022 742.268333 213.088356 742.648667 212.817689 743.134 212.593689 742.620667 212.255356 742.233333 211.802689 741.972 211.350022 741.710667 210.815689 741.58 210.199689 741.58 209.593022 741.58 209.056356 741.701333 208.589689 741.944 208.123022 742.186667 207.759022 742.532 207.497689 742.98L207.497689 742.98 207.497689 741.636 206.545689 741.636 206.545689 749 207.539689 749zM224.549667 749.07C225.137667 749.07 225.676667 748.967333 226.166667 748.762 226.656667 748.556667 227.065 748.258 227.391667 747.866L227.391667 747.866 226.831667 747.222C226.551667 747.539333 226.220333 747.779667 225.837667 747.943 225.455 748.106333 225.035 748.188 224.577667 748.188 223.765667 748.188 223.093667 747.952333 222.561667 747.481 222.029667 747.009667 221.735667 746.391333 221.679667 745.626L221.679667 745.626 227.839667 745.626 227.853667 745.318C227.853667 744.59 227.699667 743.943667 227.391667 743.379 227.083667 742.814333 226.659 742.373333 226.117667 742.056 225.576333 741.738667 224.965 741.58 224.283667 741.58 223.602333 741.58 222.988667 741.738667 222.442667 742.056 221.896667 742.373333 221.467333 742.816667 221.154667 743.386 220.842 743.955333 220.685667 744.599333 220.685667 745.318 220.685667 746.036667 220.849 746.680667 221.175667 747.25 221.502333 747.819333 221.957333 748.265 222.540667 748.587 223.124 748.909 223.793667 749.07 224.549667 749.07zM226.901667 744.884L221.679667 744.884C221.745 744.156 222.018 743.565667 222.498667 743.113 222.979333 742.660333 223.574333 742.434 224.283667 742.434 225.002333 742.434 225.602 742.660333 226.082667 743.113 226.563333 743.565667 226.836333 744.156 226.901667 744.884L226.901667 744.884zM230.877644 749L230.877644 745.136C230.877644 744.305333 231.108644 743.654333 231.570644 743.183 232.032644 742.711667 232.660311 742.476 233.453644 742.476 234.162978 742.476 234.708978 742.676667 235.091644 743.078 235.474311 743.479333 235.665644 744.062667 235.665644 744.828L235.665644 744.828 235.665644 749 236.659644 749 236.659644 744.73C236.659644 743.703333 236.386644 742.921667 235.840644 742.385 235.294644 741.848333 234.559644 741.58 233.635644 741.58 233.000978 741.58 232.443311 741.703667 231.962644 741.951 231.481978 742.198333 231.106311 742.546 230.835644 742.994L230.835644 742.994 230.835644 741.636 229.883644 741.636 229.883644 749 230.877644 749zM241.685622 749.07C241.984289 749.07 242.271289 749.025667 242.546622 748.937 242.821956 748.848333 243.052956 748.72 243.239622 748.552L243.239622 748.552 242.889622 747.838C242.749622 747.959333 242.583956 748.052667 242.392622 748.118 242.201289 748.183333 242.002956 748.216 241.797622 748.216 241.386956 748.216 241.071956 748.101667 240.852622 747.873 240.633289 747.644333 240.523622 747.310667 240.523622 746.872L240.523622 746.872 240.523622 742.476 242.763622 742.476 242.763622 741.636 240.523622 741.636 240.523622 740.026 239.529622 740.026 239.529622 741.636 238.213622 741.636 238.213622 742.476 239.529622 742.476 239.529622 746.928C239.529622 747.609333 239.716289 748.136667 240.089622 748.51 240.462956 748.883333 240.994956 749.07 241.685622 749.07zM26.59 21L26.59 13.202 30.44 19.754 30.93 19.754 34.78 13.16 34.78 21 35.774 21 35.774 11.2 34.92 11.2 30.706 18.466 26.45 11.2 25.596 11.2 25.596 21 26.59 21zM41.8779778 21.07C42.4659778 21.07 43.0049778 20.9673333 43.4949778 20.762 43.9849778 20.5566667 44.3933111 20.258 44.7199778 19.866L44.7199778 19.866 44.1599778 19.222C43.8799778 19.5393333 43.5486444 19.7796667 43.1659778 19.943 42.7833111 20.1063333 42.3633111 20.188 41.9059778 20.188 41.0939778 20.188 40.4219778 19.9523333 39.8899778 19.481 39.3579778 19.0096667 39.0639778 18.3913333 39.0079778 17.626L39.0079778 17.626 45.1679778 17.626 45.1819778 17.318C45.1819778 16.59 45.0279778 15.9436667 44.7199778 15.379 44.4119778 14.8143333 43.9873111 14.3733333 43.4459778 14.056 42.9046444 13.7386667 42.2933111 13.58 41.6119778 13.58 40.9306444 13.58 40.3169778 13.7386667 39.7709778 14.056 39.2249778 14.3733333 38.7956444 14.8166667 38.4829778 15.386 38.1703111 15.9553333 38.0139778 16.5993333 38.0139778 17.318 38.0139778 18.0366667 38.1773111 18.6806667 38.5039778 19.25 38.8306444 19.8193333 39.2856444 20.265 39.8689778 20.587 40.4523111 20.909 41.1219778 21.07 41.8779778 21.07zM44.2299778 16.884L39.0079778 16.884C39.0733111 16.156 39.3463111 15.5656667 39.8269778 15.113 40.3076444 14.6603333 40.9026444 14.434 41.6119778 14.434 42.3306444 14.434 42.9303111 14.6603333 43.4109778 15.113 43.8916444 15.5656667 44.1646444 16.156 44.2299778 16.884L44.2299778 16.884zM49.1859556 21.07C50.1379556 21.07 50.8822889 20.881 51.4189556 20.503 51.9556222 20.125 52.2239556 19.614 52.2239556 18.97 52.2239556 18.494 52.0979556 18.1206667 51.8459556 17.85 51.5939556 17.5793333 51.2906222 17.388 50.9359556 17.276 50.5812889 17.164 50.1099556 17.052 49.5219556 16.94 49.0459556 16.856 48.6726222 16.7743333 48.4019556 16.695 48.1312889 16.6156667 47.9049556 16.492 47.7229556 16.324 47.5409556 16.156 47.4499556 15.932 47.4499556 15.652 47.4499556 15.288 47.6109556 14.994 47.9329556 14.77 48.2549556 14.546 48.7332889 14.434 49.3679556 14.434 50.2079556 14.434 50.9312889 14.644 51.5379556 15.064L51.5379556 15.064 51.9719556 14.266C51.6639556 14.0606667 51.2719556 13.895 50.7959556 13.769 50.3199556 13.643 49.8439556 13.58 49.3679556 13.58 48.4532889 13.58 47.7392889 13.776 47.2259556 14.168 46.7126222 14.56 46.4559556 15.064 46.4559556 15.68 46.4559556 16.1746667 46.5842889 16.562 46.8409556 16.842 47.0976222 17.122 47.4079556 17.3203333 47.7719556 17.437 48.1359556 17.5536667 48.6166222 17.668 49.2139556 17.78 49.6619556 17.8546667 50.0212889 17.9316667 50.2919556 18.011 50.5626222 18.0903333 50.7866222 18.207 50.9639556 18.361 51.1412889 18.515 51.2299556 18.7273333 51.2299556 18.998 51.2299556 19.3806667 51.0689556 19.677 50.7469556 19.887 50.4249556 20.097 49.9279556 20.202 49.2559556 20.202 48.7519556 20.202 48.2666222 20.125 47.7999556 19.971 47.3332889 19.817 46.9459556 19.6186667 46.6379556 19.376L46.6379556 19.376 46.1899556 20.16C46.4979556 20.4213333 46.9249556 20.6383333 47.4709556 20.811 48.0169556 20.9836667 48.5886222 21.07 49.1859556 21.07zM56.0319333 21.07C56.9839333 21.07 57.7282667 20.881 58.2649333 20.503 58.8016 20.125 59.0699333 19.614 59.0699333 18.97 59.0699333 18.494 58.9439333 18.1206667 58.6919333 17.85 58.4399333 17.5793333 58.1366 17.388 57.7819333 17.276 57.4272667 17.164 56.9559333 17.052 56.3679333 16.94 55.8919333 16.856 55.5186 16.7743333 55.2479333 16.695 54.9772667 16.6156667 54.7509333 16.492 54.5689333 16.324 54.3869333 16.156 54.2959333 15.932 54.2959333 15.652 54.2959333 15.288 54.4569333 14.994 54.7789333 14.77 55.1009333 14.546 55.5792667 14.434 56.2139333 14.434 57.0539333 14.434 57.7772667 14.644 58.3839333 15.064L58.3839333 15.064 58.8179333 14.266C58.5099333 14.0606667 58.1179333 13.895 57.6419333 13.769 57.1659333 13.643 56.6899333 13.58 56.2139333 13.58 55.2992667 13.58 54.5852667 13.776 54.0719333 14.168 53.5586 14.56 53.3019333 15.064 53.3019333 15.68 53.3019333 16.1746667 53.4302667 16.562 53.6869333 16.842 53.9436 17.122 54.2539333 17.3203333 54.6179333 17.437 54.9819333 17.5536667 55.4626 17.668 56.0599333 17.78 56.5079333 17.8546667 56.8672667 17.9316667 57.1379333 18.011 57.4086 18.0903333 57.6326 18.207 57.8099333 18.361 57.9872667 18.515 58.0759333 18.7273333 58.0759333 18.998 58.0759333 19.3806667 57.9149333 19.677 57.5929333 19.887 57.2709333 20.097 56.7739333 20.202 56.1019333 20.202 55.5979333 20.202 55.1126 20.125 54.6459333 19.971 54.1792667 19.817 53.7919333 19.6186667 53.4839333 19.376L53.4839333 19.376 53.0359333 20.16C53.3439333 20.4213333 53.7709333 20.6383333 54.3169333 20.811 54.8629333 20.9836667 55.4346 21.07 56.0319333 21.07zM62.9759111 21.07C63.5732444 21.07 64.0889111 20.9626667 64.5229111 20.748 64.9569111 20.5333333 65.2859111 20.2346667 65.5099111 19.852L65.5099111 19.852 65.5099111 21 66.4619111 21 66.4619111 16.436C66.4619111 15.4933333 66.2052444 14.7816667 65.6919111 14.301 65.1785778 13.8203333 64.4412444 13.58 63.4799111 13.58 62.9012444 13.58 62.3505778 13.6663333 61.8279111 13.839 61.3052444 14.0116667 60.8572444 14.2566667 60.4839111 14.574L60.4839111 14.574 60.9319111 15.316C61.2399111 15.0453333 61.6085778 14.833 62.0379111 14.679 62.4672444 14.525 62.9152444 14.448 63.3819111 14.448 64.0632444 14.448 64.5812444 14.6136667 64.9359111 14.945 65.2905778 15.2763333 65.4679111 15.7593333 65.4679111 16.394L65.4679111 16.394 65.4679111 16.842 63.1299111 16.842C62.1405778 16.842 61.4195778 17.0333333 60.9669111 17.416 60.5142444 17.7986667 60.2879111 18.3026667 60.2879111 18.928 60.2879111 19.572 60.5305778 20.09 61.0159111 20.482 61.5012444 20.874 62.1545778 21.07 62.9759111 21.07zM63.1299111 20.286C62.5419111 20.286 62.0845778 20.1623333 61.7579111 19.915 61.4312444 19.6676667 61.2679111 19.3293333 61.2679111 18.9 61.2679111 18.0226667 61.8979111 17.584 63.1579111 17.584L63.1579111 17.584 65.4679111 17.584 65.4679111 18.788C65.2719111 19.2733333 64.9732444 19.6443333 64.5719111 19.901 64.1705778 20.1576667 63.6899111 20.286 63.1299111 20.286zM72.3278889 23.786C73.5598889 23.786 74.4815556 23.485 75.0928889 22.883 75.7042222 22.281 76.0098889 21.3546667 76.0098889 20.104L76.0098889 20.104 76.0098889 13.636 75.0578889 13.636 75.0578889 15.05C74.7498889 14.574 74.3438889 14.21 73.8398889 13.958 73.3358889 13.706 72.7712222 13.58 72.1458889 13.58 71.4458889 13.58 70.8158889 13.7293333 70.2558889 14.028 69.6958889 14.3266667 69.2548889 14.7466667 68.9328889 15.288 68.6108889 15.8293333 68.4498889 16.4453333 68.4498889 17.136 68.4498889 17.8266667 68.6108889 18.445 68.9328889 18.991 69.2548889 19.537 69.6982222 19.9616667 70.2628889 20.265 70.8275556 20.5683333 71.4552222 20.72 72.1458889 20.72 72.7525556 20.72 73.3055556 20.5986667 73.8048889 20.356 74.3042222 20.1133333 74.7078889 19.7586667 75.0158889 19.292L75.0158889 19.292 75.0158889 20.23C75.0158889 21.1446667 74.7965556 21.819 74.3578889 22.253 73.9192222 22.687 73.2332222 22.904 72.2998889 22.904 71.7398889 22.904 71.2055556 22.8153333 70.6968889 22.638 70.1882222 22.4606667 69.7565556 22.2133333 69.4018889 21.896L69.4018889 21.896 68.8978889 22.652C69.2805556 23.0066667 69.7775556 23.2843333 70.3888889 23.485 71.0002222 23.6856667 71.6465556 23.786 72.3278889 23.786zM72.2438889 19.838C71.7118889 19.838 71.2335556 19.7236667 70.8088889 19.495 70.3842222 19.2663333 70.0528889 18.9466667 69.8148889 18.536 69.5768889 18.1253333 69.4578889 17.6586667 69.4578889 17.136 69.4578889 16.6133333 69.5768889 16.1466667 69.8148889 15.736 70.0528889 15.3253333 70.3842222 15.008 70.8088889 14.784 71.2335556 14.56 71.7118889 14.448 72.2438889 14.448 72.7852222 14.448 73.2682222 14.5623333 73.6928889 14.791 74.1175556 15.0196667 74.4488889 15.337 74.6868889 15.743 74.9248889 16.149 75.0438889 16.6133333 75.0438889 17.136 75.0438889 17.6586667 74.9248889 18.1253333 74.6868889 18.536 74.4488889 18.9466667 74.1152222 19.2663333 73.6858889 19.495 73.2565556 19.7236667 72.7758889 19.838 72.2438889 19.838zM79.2998667 12.026C79.5052 12.026 79.6778667 11.956 79.8178667 11.816 79.9578667 11.676 80.0278667 11.5033333 80.0278667 11.298 80.0278667 11.1113333 79.9578667 10.9503333 79.8178667 10.815 79.6778667 10.6796667 79.5052 10.612 79.2998667 10.612 79.0945333 10.612 78.9218667 10.682 78.7818667 10.822 78.6418667 10.962 78.5718667 11.1253333 78.5718667 11.312 78.5718667 11.508 78.6418667 11.676 78.7818667 11.816 78.9218667 11.956 79.0945333 12.026 79.2998667 12.026zM79.7898667 21L79.7898667 13.636 78.7958667 13.636 78.7958667 21 79.7898667 21zM83.5558444 21L83.5558444 17.136C83.5558444 16.3053333 83.7868444 15.6543333 84.2488444 15.183 84.7108444 14.7116667 85.3385111 14.476 86.1318444 14.476 86.8411778 14.476 87.3871778 14.6766667 87.7698444 15.078 88.1525111 15.4793333 88.3438444 16.0626667 88.3438444 16.828L88.3438444 16.828 88.3438444 21 89.3378444 21 89.3378444 16.73C89.3378444 15.7033333 89.0648444 14.9216667 88.5188444 14.385 87.9728444 13.8483333 87.2378444 13.58 86.3138444 13.58 85.6791778 13.58 85.1215111 13.7036667 84.6408444 13.951 84.1601778 14.1983333 83.7845111 14.546 83.5138444 14.994L83.5138444 14.994 83.5138444 13.636 82.5618444 13.636 82.5618444 21 83.5558444 21zM95.2038222 23.786C96.4358222 23.786 97.3574889 23.485 97.9688222 22.883 98.5801556 22.281 98.8858222 21.3546667 98.8858222 20.104L98.8858222 20.104 98.8858222 13.636 97.9338222 13.636 97.9338222 15.05C97.6258222 14.574 97.2198222 14.21 96.7158222 13.958 96.2118222 13.706 95.6471556 13.58 95.0218222 13.58 94.3218222 13.58 93.6918222 13.7293333 93.1318222 14.028 92.5718222 14.3266667 92.1308222 14.7466667 91.8088222 15.288 91.4868222 15.8293333 91.3258222 16.4453333 91.3258222 17.136 91.3258222 17.8266667 91.4868222 18.445 91.8088222 18.991 92.1308222 19.537 92.5741556 19.9616667 93.1388222 20.265 93.7034889 20.5683333 94.3311556 20.72 95.0218222 20.72 95.6284889 20.72 96.1814889 20.5986667 96.6808222 20.356 97.1801556 20.1133333 97.5838222 19.7586667 97.8918222 19.292L97.8918222 19.292 97.8918222 20.23C97.8918222 21.1446667 97.6724889 21.819 97.2338222 22.253 96.7951556 22.687 96.1091556 22.904 95.1758222 22.904 94.6158222 22.904 94.0814889 22.8153333 93.5728222 22.638 93.0641556 22.4606667 92.6324889 22.2133333 92.2778222 21.896L92.2778222 21.896 91.7738222 22.652C92.1564889 23.0066667 92.6534889 23.2843333 93.2648222 23.485 93.8761556 23.6856667 94.5224889 23.786 95.2038222 23.786zM95.1198222 19.838C94.5878222 19.838 94.1094889 19.7236667 93.6848222 19.495 93.2601556 19.2663333 92.9288222 18.9466667 92.6908222 18.536 92.4528222 18.1253333 92.3338222 17.6586667 92.3338222 17.136 92.3338222 16.6133333 92.4528222 16.1466667 92.6908222 15.736 92.9288222 15.3253333 93.2601556 15.008 93.6848222 14.784 94.1094889 14.56 94.5878222 14.448 95.1198222 14.448 95.6611556 14.448 96.1441556 14.5623333 96.5688222 14.791 96.9934889 15.0196667 97.3248222 15.337 97.5628222 15.743 97.8008222 16.149 97.9198222 16.6133333 97.9198222 17.136 97.9198222 17.6586667 97.8008222 18.1253333 97.5628222 18.536 97.3248222 18.9466667 96.9911556 19.2663333 96.5618222 19.495 96.1324889 19.7236667 95.6518222 19.838 95.1198222 19.838z"/>
    <g transform="translate(598 553)">
      <path fill="url(#hero-with-icons-a)" fill-rule="nonzero" d="M2.95667066,80.2347737 C2.75132619,79.7796873 2.58331426,79.3698329 2.58331426,79.3239326 C2.58331426,79.2780427 1.86840887,75.4888571 1.7869473,74.5151165 C1.4312968,70.2637872 0.870377432,69.8566442 1.02698171,66.0662189 C1.12185071,63.7701276 0.805728388,62.9869174 1.47828462,61.1092026 C2.86335819,57.242241 3.87891342,55.7206889 5.67887477,54.8157416 C7.13910135,54.0816002 8.50912164,54.1813204 9.79500369,55.1153419 C10.1339138,55.3615239 11.2710463,56.1370535 12.321955,56.838734 C13.3728705,57.5404284 14.6210179,58.391123 15.0956241,58.7291783 C15.5702267,59.067251 16.3618417,59.5550614 16.854779,59.8132146 C17.7242958,60.2686161 17.756433,60.2755419 17.9327636,60.0455868 C18.3202146,59.5403304 19.2554559,58.1223284 19.7611616,57.4454801 C22.2942394,54.0551543 19.9086157,54.432018 19.3124426,54.2551729 C18.37515,53.9771255 17.9803459,53.5697402 17.1043006,52.5349666 C15.0696064,50.1316164 14.1053374,47.4576641 13.9628621,44.1536572 C13.7974032,40.3168987 14.1802465,37.2226238 15.8519577,35.4615591 C16.5684643,34.7067478 18.0852069,33.6105741 19.4718404,32.8453812 C20.6461749,32.1973439 27.8484977,30.8430413 28.4805705,31.1244234 C28.7963355,31.2649915 27.2305538,27.0941254 28.1316341,21.6711597 C28.3106379,20.5938517 29.5264385,17.2602027 29.6549051,17.0333503 C29.972096,16.4732525 35.1989618,14.6703079 36.6857971,13.7903245 C38.3470731,12.8070956 41.9397526,10.4386754 42.2104058,8.6771675 C42.8051805,4.80616823 42.9107562,3.15195719 43.1586869,3.00661725 C43.5276761,2.79030933 45.9942802,7.9154582 44.3247131,12.7480607 C43.9952211,13.7017824 42.4238765,15.9161155 41.7202826,16.8423109 C41.213632,17.5092658 42.3139439,17.8209895 42.9468964,18.7838671 C43.5225495,19.6595636 43.9009981,21.8003211 43.9748901,22.9095809 C44.050342,24.0422878 43.6947053,26.3663349 43.3761606,26.8222039 C43.2471408,27.0068612 43.1942945,27.18826 43.2580055,27.2278301 C43.321397,27.267196 43.7507917,27.2156408 44.2122206,27.1132924 C44.6736427,27.0109335 45.6737941,26.847933 46.4347768,26.7510766 C47.7894655,26.5786709 47.8379995,26.5810672 48.7573663,26.8660888 C50.1365436,27.2936696 56.8450735,28.9271069 52.5643137,47.8189969 C51.1460789,54.0779642 44.5278585,62.337024 43.6956949,61.6975747 L41.6464181,60.122871 L39.2847436,63.6516076 C38.0793886,64.8992539 36.779649,66.103417 36.0130622,66.6826956 C34.8034017,67.5967953 32.3830501,69.0367484 32.056252,69.0367484 C31.9720966,69.0367484 31.4953154,69.2338928 30.9967361,69.4748563 C29.5552909,70.1715019 27.3962808,70.7425458 25.1093299,70.8939215 C16.2541975,71.4720677 19.6323721,70.3946039 12.3002701,66.8163449 C11.7219301,66.5341006 10.390682,67.9579791 8.78616934,69.4293231 C7.07322221,71.0000999 6.17400433,72.1956197 5.4944592,73.8056653 C5.2644268,74.3506823 4.90631954,75.1867878 4.69866605,75.663673 C4.13363031,76.9613162 3.66882034,78.7568052 3.59975943,79.9085024 C3.56598318,80.4718588 3.49147614,80.961882 3.43418709,80.9974664 C3.37689804,81.033037 3.16201856,80.6898219 2.95667066,80.2347737 L2.95667066,80.2347737 Z M12.6916417,64.3371511 C13.8266095,64.0478772 13.9508704,63.9840565 15.1716533,63.0634225 C16.0463859,62.4037431 16.5884037,61.2126592 16.8210887,61.108607 C18.3440779,60.4275548 15.6843444,59.8145652 14.6899689,59.1386137 C13.6955865,58.4626554 12.4025163,57.9629431 11.5216331,57.2852533 C10.6407465,56.6075773 9.87798399,56.0792098 9.82660836,56.1111063 C9.77523273,56.1429993 9.73221697,56.5978155 9.73101436,57.1217818 C9.72749929,58.6500241 9.52413054,60.1835231 9.23988435,60.8251368 C9.09520999,61.1516885 8.94915778,61.781189 8.91531281,62.2240272 C8.83691618,63.2498008 9.07374506,63.7431276 9.91613088,64.3087972 C10.625999,64.7854953 10.9207767,64.7885149 12.6916417,64.337158 L12.6916417,64.3371511 Z M53.8229858,35.3928039 C53.4534125,32.8909941 53.759426,29.4503425 51.8251224,28.1979104 C47.3625103,25.3084432 46.8725898,28.1738089 46.5988373,28.8070251 C46.148469,29.848759 45.871246,30.7008387 46.213063,31.8460708 C47.263257,35.3646404 48.6067545,38.480302 49.2445243,40.9812115 C49.9764724,43.8514286 50.7831715,45.6667357 50.8638875,47.9172834 C50.9211937,49.5149735 50.9061576,49.6829537 50.6728404,50.0520502 C50.341091,50.5768198 45.3290634,51.8622702 42.8051152,52.6117175 C41.9385087,52.8690466 42.7061436,54.7315975 42.6068696,55.3447463 C42.5075956,55.9578779 41.1510171,59.384917 41.5872976,60.07392 C45.892388,66.8728208 55.4122149,46.1510036 53.8229858,35.3928039 L53.8229858,35.3928039 Z M44.5497014,52.1087536 C45.2231097,51.9455452 45.8527121,51.7464478 45.9488215,51.6662928 C46.0449309,51.5861517 46.2892159,51.533253 46.4916845,51.5487597 C46.8539528,51.5764972 48.2723009,51.1264666 48.3813333,50.9491714 C48.4120514,50.8992542 49.6774753,50.2338956 49.4243424,50.0649043 C49.1711958,49.8959061 44.2248034,46.2314945 43.515564,45.8588139 C35.3480893,41.5670626 31.0546849,41.2716074 28.3578043,41.8191869 C23.7381997,42.7571596 19.748273,45.1179061 19.2682964,45.7002112 C19.1233712,45.8760347 26.5008563,43.3936066 31.7375973,46.0017749 C32.7051545,46.4836708 34.7027774,47.3117909 36.2046453,48.9322909 C37.5765451,50.4125518 38.8274723,51.9788442 39.8120345,52.2433794 C40.8795942,52.5302224 43.0671199,52.4680571 44.5497014,52.1087536 L44.5497014,52.1087536 Z M34.7029423,34.4145927 C37.2889694,33.9585333 41.2954165,28.5442213 40.9836546,28.0373581 C40.9414738,27.9687657 41.7585738,26.6021422 41.6258637,26.5754712 C36.7864798,25.6029842 36.9030818,20.7466299 36.8333027,20.703306 C36.7635237,20.6599717 29.698285,24.0658249 28.0701152,24.7751826 C26.6885121,25.3771153 28.2676977,28.9659706 29.1006825,31.1933864 C29.4712763,32.1843617 31.5119012,33.5058363 32.3331897,34.044589 C33.3048084,34.6819468 34.482012,34.4535534 34.7029423,34.4145927 L34.7029423,34.4145927 Z M40.2760885,17.8907421 C41.6725113,16.7816242 45.391668,11.2301896 44.99707,8.9773668 C43.3894374,-0.200889988 42.6964058,5.48118814 42.5932251,6.30026674 C42.5504945,6.63949947 42.4287488,7.39084787 42.3226715,7.96992562 C42.2166079,8.54901029 42.0813792,9.38512273 42.0221694,9.82794363 C41.9629665,10.2707749 41.7992908,11.0511421 41.6584476,11.5620915 C41.5176045,12.0730512 41.295176,12.9224125 41.164153,13.4495819 C41.0331438,13.9767409 40.5921009,15.2753295 40.1840783,16.3353231 C39.7760523,17.3953202 39.4422104,18.2878462 39.4422104,18.3187107 C39.4422104,18.4735008 39.7253158,18.328199 40.2760885,17.8907421 L40.2760885,17.8907421 Z"/>
      <path fill="url(#hero-with-icons-b)" d="M3.36999909,80 C5.61700083,70.8429858 7.65000106,69.8167674 13,66.4223542 C11.8229987,65.7645258 8.92643418,63.5836016 8.93399954,62.4227377 C8.95425162,59.0333901 9.52380703,53.1258316 5.72399805,55.5812897 C-1.48595296,60.2404114 1.12299734,75.0531064 3.36999909,80 Z"/>
      <path fill="url(#hero-with-icons-c)" d="M10,65.3877089 C13.1168834,67.7467078 15.871629,69.8322046 17.8268398,70.9382959 C36.8928632,71.9038454 41.6536796,61.3461853 42,52.6907338 C40.3030277,52.7687879 37.4112524,52.352495 35.8528125,50 C31.9611406,51.279542 20.1790297,54.8677375 19.9740248,55.6741755 C18.9105082,59.8578051 15.7489176,63.236853 10,65.3877089 Z"/>
      <path fill="url(#hero-with-icons-d)" d="M43.4457997,60.9915091 C55.2776891,52.4703707 53.7547573,35.4073774 53.9458997,34.5336861 C54.4318634,32.3124112 51.5750529,24.7871769 48.1435886,26.1678555 C42.430267,28.4666497 52.1642107,41.5007952 50.8583277,48.6495244 C50.5861361,50.1395614 45.8704844,51.2379655 42.664904,51.7194684 C42.2952087,51.774998 42.6234381,56.5822784 41.0152784,58.7949665 C40.7850554,59.1117297 43.229489,61.1472963 43.4457997,60.9915091 L43.4457997,60.9915091 Z"/>
      <path fill="url(#hero-with-icons-e)" d="M45,61 C60.3351299,46.5763324 52.5722629,20.8274755 47.218161,28.3480948 C54.5719735,26.9244486 55.7418604,50.5515104 45,61 L45,61 Z"/>
      <path fill="url(#hero-with-icons-f)" d="M16.989026,59.8195714 C17.273294,59.4571923 11.9687056,57.7411663 8.76268148,55.0138908 C8.4072036,54.7114977 8.34987405,59.4258497 8.01394724,61.3915847 C7.80522893,62.6129352 10.000337,63.8426536 10.5020501,63.9958405 C10.9182462,64.1229159 15.822045,61.3071889 16.989026,59.8195714 L16.989026,59.8195714 Z"/>
      <path fill="url(#hero-with-icons-g)" d="M13.4494441,47 C11.6715469,37.9135816 14.9066508,32.5707818 27.8699176,30.6937883 C27.9327628,30.8937716 42.276859,26.0330323 47.3231652,26 C45.9553718,28.1915685 47.3382629,33.6028238 49,38.05128 C49,38.05128 36.8564801,41.2464571 13.4494441,47 L13.4494441,47 Z"/>
      <path fill="url(#hero-with-icons-h)" d="M19.3721752,44.5944881 C20.8903526,44.0720847 25.22463,42.8130726 30.4025384,44.5442878 C33.9488936,45.7299957 35.9839262,48.7193109 37.5147808,49.8690194 C41.1207369,52.5771801 47.7773113,49.5687993 48.9813144,49.5869824 C49.4759913,49.5944513 40.0456775,41.4564789 32.9357269,41.0447408 C23.3777772,40.4912424 17.412153,45.2689265 19.3721752,44.5944881 L19.3721752,44.5944881 Z"/>
      <path fill="url(#hero-with-icons-i)" d="M43.1394166,2.4305134 C43.0860224,5.23372231 42.1621447,11.9246817 39.1882496,16.4975255 C37.8279754,18.58917 44.2621284,13.7368018 44.9548139,9.56595456 C45.3358035,7.27191421 43.1835752,0.196466662 43.1394166,2.4305134 L43.1394166,2.4305134 Z"/>
      <path fill="url(#hero-with-icons-j)" d="M32.981229,35 C36.1894792,33.3232296 39.112271,31.1182256 40.9647015,27.0236486 C41.2783279,26.3304187 39.4369604,27.0028215 38.0216588,24.9465073 C36.6203057,22.9104729 36.9509781,20.8440118 35.7507113,21.0092994 C32.0004555,21.5257476 27,25.1454275 27,25.1454275 C27,25.1454275 27.2875974,29.1061601 28.3012822,30.7160456 C30.3913077,34.0353318 32.981229,35 32.981229,35 L32.981229,35 Z"/>
      <path fill="url(#hero-with-icons-k)" d="M38,23.9245655 C39.0802506,27.4044283 45.0833873,26.7737852 43.8283652,20 C43.2872947,20.7024588 41.9355697,24.559544 38,23.9245655 Z" opacity=".552"/>
      <path fill="url(#hero-with-icons-l)" d="M33.5470294,34 C31.6381576,32.7532256 29.990389,31.2022434 28.9347757,29.5615389 C27.8791625,27.9208379 27.415712,19.5534576 29.1918075,17.4738309 C30.1678657,15.1867667 33.6230443,12.9763105 37.4609845,12 C30.1656241,20.1240826 32.5295527,32.4375032 38.9853958,31.2401557 C39.3079943,31.1803241 34.1857225,34.0183509 33.5470294,34 L33.5470294,34 Z"/>
      <path fill="url(#hero-with-icons-m)" d="M8.44538977,55 C9.81100298,55.986288 15.7017342,60.4358206 17,59.7316531 C13.9846482,66.9251301 6.04547566,60.8311567 8.44538977,55 L8.44538977,55 Z"/>
      <path fill="#2C3B54" fill-rule="nonzero" d="M32.5813278,15.2484789 C31.2171446,16.0458032 29.5770129,16.9376083 29.2513567,17.743909 C28.1585082,20.0463539 27.7488744,24.1783167 28.0816189,23.9410387 C31.3247405,21.6283732 35.0795898,20.9872102 36.4458673,19.7485841 C40.494543,16.0781632 42.0663286,8.49049522 41.21557,9.61522174 C38.4614252,13.2562493 33.9886766,14.4259271 32.5813278,15.2484789 L32.5813278,15.2484789 Z M11.3584996,66.1996063 C11.3584996,66.1996063 7.52892794,63.5433049 7.59950654,62.6910895 C8.18599114,55.6095576 6.9326974,55.1963322 6.30106351,55.2714427 C5.53796652,55.3621908 1.57248391,57.8726971 0.798897935,64.9612021 C0.237548884,70.1049346 2.26429036,78.1414389 2.5730294,78.5762769 C4.17065907,74.2704635 3.54734379,70.8048427 11.3584996,66.1996063 L11.3584996,66.1996063 Z M53.1961716,34.8265524 C53.0056315,29.517762 49.8183313,25.8675743 47.6536122,26.7224341 C46.7352229,27.085111 46.1186261,29.5570535 46.4410855,31.0897548 C46.7270875,32.4492293 48.675858,37.7099285 48.8159818,38.1546544 C49.1473024,39.2062355 51.3840966,45.6510683 50.986476,48.7477218 C50.6379514,51.461985 42.7923841,52.4011084 42.7923841,52.4011084 C42.7923841,52.4011084 42.6605408,54.6103687 42.3900805,56.1031788 C42.0576056,57.9382836 41.3984343,59.3784588 41.3984343,59.3784588 C41.3984343,59.3784588 43.1065698,60.9742061 43.1755967,60.9724366 C43.2446235,60.9707022 53.9266992,55.1801748 53.1961716,34.8265524 L53.1961716,34.8265524 Z M45.0065864,51.2715713 C45.5587908,51.1165746 48.8192581,50.2520244 48.644512,50.1370782 C47.4345808,49.3411957 46.057676,48.3393277 43.7515646,46.5406587 C30.9486024,36.5548764 19.3194249,44.9654531 19.5485686,44.8890256 C21.6745425,44.1799471 23.9195689,43.7792436 27.0385403,43.9881645 C29.5507749,44.1564456 33.499959,45.4334968 36.9593818,49.5689219 C38.2461504,51.1071338 39.7062102,52.1508268 45.0065864,51.2715713 Z M39.2955397,29.5963694 C39.6829063,29.2603201 41.0292669,26.7151386 40.7868245,26.6560158 C37.3893057,25.8274371 37.0583999,24.3199702 36.7258662,22.6798262 C36.4144004,21.1436037 36.4624527,20.924528 35.8188299,21.1377153 C30.6185639,22.8601994 29.180118,23.8068228 28.3844136,24.4690751 C27.1379489,25.5064916 28.0122706,28.2940319 28.499668,29.4019181 C29.1789914,30.9460634 31.6765414,33.7402406 32.8384686,33.9652497 C34.533264,34.293449 38.5386151,30.8114766 39.2955397,29.5963694 L39.2955397,29.5963694 Z M43.0750199,20.1899309 C42.7931893,19.0340088 41.8877497,17.5453092 41.6464824,17.5453092 C41.4192705,17.5453092 39.0134326,19.412209 38.3920285,20.062695 C36.9816799,21.5390115 37.6690108,24.2143331 39.2335078,25.1319964 C41.8815255,26.6852012 43.8261073,23.2704858 43.0750199,20.1899309 L43.0750199,20.1899309 Z M41.0784667,15.7688316 C42.2369932,14.6082724 43.77707,12.703235 44.1866069,9.80824164 C44.3471143,8.6735995 44.440316,7.67552311 43.7366174,5.43215251 C43.5735249,4.9122087 43.0777571,3.4168686 43.0592225,3.6138776 C42.693207,7.50381086 42.1569175,11.8231166 39.6252394,16.4135956 C38.8305856,17.8544779 39.2579141,17.5925651 41.0784667,15.7688316 L41.0784667,15.7688316 Z M13.9076409,38.9369511 C12.5274874,44.7424958 16.184898,52.3670778 19.1476924,52.8016663 C22.0117106,53.2217644 30.2224259,50.7357369 34.5286018,49.5349295 C35.6568364,49.2203126 36.2637737,49.3844209 33.7678273,47.2875247 C29.8547274,44.6197204 26.6964923,44.2762162 23.5457843,44.6348416 C20.0704881,45.0304088 17.4663133,46.0619543 17.7099481,45.8573725 C19.303351,44.519386 22.1414146,42.1267995 27.624586,41.0433539 C30.0077974,40.5724406 33.6856918,40.5310834 38.1260576,42.2702587 C43.6338115,44.4275011 46.5025195,47.626773 48.8311502,48.7110053 C49.6603676,49.097097 49.9565786,48.9175798 50.2842151,47.9526329 C50.8331329,46.3360111 47.4963811,36.2419646 46.2874936,33.2984814 C44.4426695,28.8065727 46.5950922,26.6595752 46.1246292,26.7635695 C43.8427307,27.2679901 41.8305113,28.7388305 40.1436614,30.253378 C36.0203532,33.9555212 33.507182,34.7441777 33.1342235,34.7123826 C31.9566681,34.6119719 29.7533868,32.521931 28.9528786,31.4606422 C28.4420978,30.7834662 19.3004238,32.5529775 16.6046579,34.9015658 C16.5429854,34.9552959 14.4629557,36.2930711 13.9076409,38.9369511 L13.9076409,38.9369511 Z M10.9786324,64.2125062 C13.993775,62.9438561 16.9457244,60.247861 16.6904084,60.2033326 C15.1250474,59.9303259 9.35199303,55.9633518 9.3559778,56.0044872 C9.55427664,58.0517152 9.10936742,59.89127 8.90637878,61.9203859 C8.82172731,62.7665951 9.94655086,64.0775867 10.9786324,64.2125062 Z M20.707897,55.3383947 C20.1310857,56.6278673 19.528859,61.6985237 11.1934095,64.9524475 C10.951959,65.0466995 18.1787107,70.0022192 18.571994,70.0195342 C42.4372516,71.0701658 42.2349922,52.8450614 41.9182283,52.3855713 C41.8723843,52.3190698 39.8311829,52.390354 38.250187,51.6380294 C38.1296173,51.5806707 37.0571591,51.0263117 36.4177181,50.1913316 C36.2008294,49.9081251 36.1670746,49.75422 35.3633799,49.9884412 C31.6437853,51.0724551 20.5386977,55.0682265 20.707897,55.3383947 Z M13.2732664,46.448909 C9.0115693,31.5160705 23.9672929,30.8233019 26.3385362,30.2483145 C28.17227,29.8036649 27.7727001,29.63075 27.3860143,27.8914672 C26.8430788,25.4493755 27.0122124,23.3206496 27.4776434,21.0388607 C27.9177695,18.8811331 28.144774,17.7900559 29.0743123,16.7081179 C29.8235369,15.836054 34.045362,13.841745 35.0919484,13.3383538 C39.5520273,11.1931238 41.2560364,8.83516394 41.7531348,6.98049484 C42.103574,5.67301061 42.616373,2.45038975 42.3858642,0.146915528 C42.3291304,-0.420052029 42.6939155,0.468349639 44.5085618,6.1224777 C45.4357846,9.01153074 44.9791906,12.4804648 42.0548166,15.6123896 C41.6576591,16.0377314 41.8502728,16.1219638 42.3843608,17.0069794 C43.4940091,18.8457648 44.1074332,21.1451009 43.9346086,22.8179272 C43.7930091,24.188409 43.2088193,25.4842933 44.0443507,25.3835984 C44.1651417,25.3690421 47.8557541,24.8087115 50.3821445,26.4190255 C52.0930345,27.5095448 54.5302461,29.5999496 53.8976099,38.3321094 C52.5122967,57.4534863 43.196115,61.6148701 43.1308068,61.6171229 C42.9731091,61.6225295 41.2301543,59.8077273 41.1269925,60.0214518 C35.78512,71.0880561 24.7625861,70.6904753 18.6151561,70.8068009 C17.3860786,70.8300563 12.2753025,66.5145352 11.8445318,66.809761 C6.40375879,70.5385353 4.89328274,71.4698157 2.79540971,81 C2.71500913,80.8489092 -0.113868402,75.816709 0.00355639002,65.6962325 C0.0997647475,57.4042652 4.61706128,53.4910731 6.62525782,53.716758 C9.06320207,53.9907455 10.2867016,55.2662544 13.7201766,57.5284096 C14.3330479,57.9322046 16.4983925,59.2452791 16.9911398,59.2333187 C18.2187485,59.2042754 19.0562223,56.9425431 19.2565843,55.4781975 C19.4586744,54.0011914 19.6540564,54.3581706 18.5045397,53.9614562 C17.0552972,53.4613055 14.5555249,50.7396636 13.2732664,46.448909 L13.2732664,46.448909 Z"/>
      <path fill="url(#hero-with-icons-n)" d="M21.3869131,55.2892326 C23.7076195,54.1032656 36.8813648,50.245972 36.9996417,50.0038446 C37.085975,49.8271083 21.5472403,55.8135171 18.0279706,53.5944009 C17.8158557,53.460648 18.8499237,54.1721443 19.7848817,54.3518006 C19.8505608,54.3644211 19.8461382,56.6651235 18.9603339,57.9668829 C18.7119316,58.3319285 20.8480942,55.5645894 21.3869131,55.2892326 Z"/>
      <path fill="url(#hero-with-icons-o)" d="M40.9703666,17.2596627 C39.5342968,18.3046416 37.5543418,19.7647104 37.1494734,20.8907307 C36.9106945,21.5548188 36.7494165,19.0362364 38.3797285,17.5357974 C39.298248,16.690448 41.2641891,17.0458594 40.9703666,17.2596627 Z"/>
      <path fill="url(#hero-with-icons-p)" d="M40.0486273,24.6733012 C41.8415114,25.1589872 43.2263421,24.1641738 43.9854698,22.0207932 C44.0752068,21.7674289 43.7636067,23.8978858 42.649411,24.6898281 C41.5871651,25.4448459 39.6706484,24.5709104 40.0486273,24.6732905 L40.0486273,24.6733012 Z"/>
      <path fill="url(#hero-with-icons-q)" d="M44.0465235,27.1997153 C46.3542513,25.97227 48.7169911,26.1601203 50.7309013,26.2485481 C52.0677262,26.3072429 48.2126903,24.7876854 43.8330788,25.0252297 C43.3653042,25.4134538 41.9752776,27.6778714 40.0162513,29.9710146 C39.722138,30.3152906 43.510718,27.4847025 44.0465235,27.1997153 L44.0465235,27.1997153 Z"/>
      <path fill="url(#hero-with-icons-r)" d="M22.2511807,31.6842269 C23.5220916,31.390359 25.1161406,30.9052024 26.1711883,30.785723 C27.0509001,30.6861024 28.1531739,30.1296247 29,31.1527257 C28.5285019,30.4267217 27.6267582,28.9604045 27.345782,28 C27.6015941,29.1284964 26.4583151,29.2876144 26.1741433,29.3383296 C19.7838246,30.472398 15.9395698,32.4053798 14,36 C17.6737658,32.8074892 22.0113133,31.7396881 22.2511807,31.6842269 L22.2511807,31.6842269 Z"/>
    </g>
    <g transform="translate(29 42)">
      <rect width="66" height="66"/>
      <g fill="#1875F0" fill-rule="nonzero" transform="translate(1 1)">
        <path d="M51.4761159,6.4550813 L51.8175508,13.318035 C57.3965907,19.4649317 59.5987642,28.1701809 56.821478,36.3518736 C52.6756829,48.564972 39.0051789,54.9850642 26.2879341,50.6914866 C13.5702931,46.3983053 6.62156057,33.0168451 10.7673557,20.8037467 C13.5537154,12.5948915 20.6429748,7.00304715 28.853648,5.52251626 L33.2899561,0.295189837 C19.4497228,-0.0783857724 6.39222154,8.48908455 1.72025935,22.2523907 C-4.01982724,39.1629545 5.07265813,57.5123224 22.0292504,63.2372211 C38.9858374,68.9617289 57.3855407,59.8935313 63.1260236,42.9829675 C67.7900959,29.2420996 62.6606447,14.5505618 51.4761159,6.4550813 Z"/>
        <path d="M43.5274931,26.7062329 L43.2926317,17.1117203 L43.1043484,11.5907313 L42.976848,6.80784106 C42.976848,6.80784106 43.0032972,4.50142439 42.9227711,3.95936667 C42.9058024,3.84520447 42.869878,3.75269837 42.8268565,3.67160691 L42.8106699,3.63774878 L42.7921211,3.60822927 C42.7037,3.45588089 42.5639659,3.3322752 42.3835776,3.27125976 C42.1992419,3.20906057 42.0081947,3.22441748 41.842413,3.29566382 L41.8321504,3.29960081 L41.7749134,3.32873455 C41.6963638,3.36691545 41.6162341,3.41651626 41.5380809,3.49210122 C41.1437476,3.87355081 39.7602358,5.72175447 39.7602358,5.72175447 L36.7453297,9.44414065 L33.2330679,13.7156711 L27.202463,21.1946927 C27.202463,21.1946927 24.4350484,24.6391589 25.0464764,28.8792041 C25.6583008,33.1188476 28.8188598,35.1843467 31.2708923,36.0122037 C33.7225285,36.8400553 37.4913606,37.1140382 40.5599524,34.116365 C43.628148,31.1186972 43.5274931,26.7062329 43.5274931,26.7062329 L43.5274931,26.7062329 Z"/>
      </g>
    </g>
    <g fill="#000" fill-rule="nonzero" transform="translate(132 650)">
      <path d="M64 34.7393252C64 31.6995276 63.5111047 28.7570499 62.6249433 26L49 60C57.9747208 54.8940494 63.9998455 45.4959206 63.9998455 34.7393252L64 34.7393252zM25 62.4843818C27.9203533 63.4702737 31.0463066 64 34.3019873 64 37.70376 64 40.9622673 63.4213828 44 62.3510158L35.0378032 39 25 62.4843818 25 62.4843818zM6.19813864 26C5.423266 28.6377587 5 31.4298988 5 34.3212308 5 45.352265 11.0529863 54.9640347 20 60L6.28793585 26.1848102 6.19813864 26 6.19813864 26z"/>
      <path d="M21.96833,24.4145632 L20.6907416,24.3574611 C17.9037966,24.3112069 18.212419,27.2039782 18.212419,27.2039782 L28.1006941,52 L34.7484335,36.124411 L31.0372788,26.6777048 C29.5512798,24.1799776 25.9249662,24.2061933 25.9249662,24.2061933 L25.9249662,22.8902837 L46.7168962,22.8902837 L46.6860038,24.3497772 L44.5226328,24.4840199 C41.8283649,24.4840199 42.3731257,27.0465331 42.3731257,27.0465331 L51.3956606,51.1437698 L53.9818805,44.4711108 C58.5694747,34.0726527 55.739431,26.3771277 55.739431,26.3771277 C51.1455076,16.9274082 56.9507138,15.571271 56.9507138,15.571271 C57.3179565,15.5188396 57.6621428,15.4896105 58,15.474092 C52.5450079,9.06524764 44.4191057,5 35.347143,5 C23.0809079,5 12.5446463,12.4317102 8,23.0355249 L21.9189022,22.8920917 L21.9681793,24.4148646 L21.96833,24.4145632 Z"/>
      <path d="M67.4893029,34.502379 C67.4893029,52.687538 52.6898546,67.4866765 34.5067661,67.4866765 C16.3144578,67.4866765 1.51500954,52.687538 1.51500954,34.502379 C1.51500954,16.312462 16.3144578,1.51956834 34.5067661,1.51956834 C52.6898546,1.52105519 67.4893029,16.3126107 67.4893029,34.502379 Z M34.5067661,0 C15.4815595,0 0,15.4796731 0,34.5038658 C0,53.5280585 15.4817082,69 34.5067661,69 C53.5288499,69 69,53.5279098 69,34.5038658 C69,15.4796731 53.5289986,0 34.5067661,0 Z"/>
    </g>
  </g>
</svg>
