<svg xmlns="http://www.w3.org/2000/svg" width="702" height="760" viewBox="0 0 702 760">
  <defs>
    <linearGradient id="hero-with-icons-a" x1="55.606%" x2="64.53%" y1="15.839%" y2="61.127%">
      <stop offset="0%" stop-color="#0F3060"/>
      <stop offset="27.115%" stop-color="#0575CE"/>
      <stop offset="73.275%" stop-color="#0575CE"/>
      <stop offset="100%" stop-color="#0F3060"/>
    </linearGradient>
    <linearGradient id="hero-with-icons-b" x1="64.756%" x2="40.744%" y1="20.629%" y2="103.847%">
      <stop offset="0%" stop-color="#092D61"/>
      <stop offset="100%" stop-color="#0575CE"/>
    </linearGradient>
    <linearGradient id="hero-with-icons-c" x1="46.252%" x2="68.529%" y1="74.449%" y2="-20.84%">
      <stop offset="0%" stop-color="#0F3060"/>
      <stop offset="45.698%" stop-color="#0575CE"/>
      <stop offset="73.828%" stop-color="#0575CE"/>
      <stop offset="100%" stop-color="#0F3060"/>
    </linearGradient>
    <linearGradient id="hero-with-icons-d" x1="30.113%" x2="22.618%" y1="100%" y2="16.852%">
      <stop offset="0%" stop-color="#FF8000"/>
      <stop offset="66.272%" stop-color="#FFF4E1"/>
      <stop offset="75%" stop-color="#FFF4E1"/>
      <stop offset="100%" stop-color="#FF8400"/>
    </linearGradient>
    <linearGradient id="hero-with-icons-e" x1="62.143%" x2="42.376%" y1="24.183%" y2="39.821%">
      <stop offset="0%" stop-color="#FFF"/>
      <stop offset="100%" stop-color="#FFF" stop-opacity="0"/>
    </linearGradient>
    <linearGradient id="hero-with-icons-f" x1="50%" x2="0%" y1="8.787%" y2="85.381%">
      <stop offset="0%" stop-color="#FFC768"/>
      <stop offset="37.842%" stop-color="#FF8400"/>
      <stop offset="77.42%" stop-color="#FF8400"/>
      <stop offset="100%" stop-color="#FFC768"/>
    </linearGradient>
    <linearGradient id="hero-with-icons-g" x1="34.135%" x2="44.037%" y1="31.392%" y2="64.449%">
      <stop offset="0%" stop-color="#FFF"/>
      <stop offset="100%" stop-color="#FFF" stop-opacity="0"/>
    </linearGradient>
    <linearGradient id="hero-with-icons-h" x1="39.519%" x2="55.921%" y1="47.189%" y2="57.717%">
      <stop offset="0%" stop-color="#FF8000"/>
      <stop offset="34.145%" stop-color="#FFC768"/>
      <stop offset="71.198%" stop-color="#FFC768"/>
      <stop offset="100%" stop-color="#FF8400"/>
    </linearGradient>
    <linearGradient id="hero-with-icons-i" x1="46.844%" x2="61.337%" y1="54.141%" y2="50%">
      <stop offset="0%" stop-color="#FF8000"/>
      <stop offset="50%" stop-color="#FFF4E1"/>
      <stop offset="75%" stop-color="#FFF4E1"/>
      <stop offset="100%" stop-color="#FF8400"/>
    </linearGradient>
    <linearGradient id="hero-with-icons-j" x1="69.702%" x2="23.334%" y1="81.024%" y2="18.199%">
      <stop offset="0%" stop-color="#FF8000"/>
      <stop offset="34.145%" stop-color="#FFC768"/>
      <stop offset="71.198%" stop-color="#FFC768"/>
      <stop offset="100%" stop-color="#FF8400"/>
    </linearGradient>
    <linearGradient id="hero-with-icons-k" x1="130.581%" x2="28.847%" y1="163.14%" y2="34.2%">
      <stop offset="0%" stop-color="#FFF"/>
      <stop offset="100%" stop-color="#FFF" stop-opacity="0"/>
    </linearGradient>
    <linearGradient id="hero-with-icons-l" x1="13.217%" x2="57.419%" y1="84.282%" y2="57.452%">
      <stop offset="0%" stop-color="#FFF"/>
      <stop offset="100%" stop-color="#FFF" stop-opacity="0"/>
    </linearGradient>
    <linearGradient id="hero-with-icons-m" x1="109.562%" x2="4.949%" y1="74.647%" y2="10.494%">
      <stop offset="0%" stop-color="#FFF"/>
      <stop offset="100%" stop-color="#FFF" stop-opacity="0"/>
    </linearGradient>
    <linearGradient id="hero-with-icons-n" x1="20.152%" x2="26.364%" y1="48.503%" y2="57.04%">
      <stop offset="0%" stop-color="#212A3A"/>
      <stop offset="100%" stop-color="#404E67" stop-opacity="0"/>
    </linearGradient>
    <linearGradient id="hero-with-icons-o" x1="0%" x2="100%" y1="100%" y2="0%">
      <stop offset="0%" stop-color="#212A3A"/>
      <stop offset="100%" stop-color="#404E67" stop-opacity="0"/>
    </linearGradient>
    <linearGradient id="hero-with-icons-p" x1="67.483%" x2="7.807%" y1="78.234%" y2="64.15%">
      <stop offset="0%" stop-color="#212A3A"/>
      <stop offset="100%" stop-color="#404E67" stop-opacity="0"/>
    </linearGradient>
    <linearGradient id="hero-with-icons-q" x1="20.199%" x2="105.361%" y1="46.953%" y2="39.656%">
      <stop offset="0%" stop-color="#212A3A"/>
      <stop offset="100%" stop-color="#404E67" stop-opacity="0"/>
    </linearGradient>
    <linearGradient id="hero-with-icons-r" x1="50.737%" x2="11.349%" y1="46.181%" y2="57.529%">
      <stop offset="0%" stop-color="#212A3A"/>
      <stop offset="100%" stop-color="#404E67" stop-opacity="0"/>
    </linearGradient>
  </defs>
  <g fill="none" fill-rule="evenodd">
    <g transform="translate(10 25)">
      <line x1="257.936" x2="255.486" y1="501.152" y2="502.892" stroke="#FFF" stroke-linecap="round"/>
      <path stroke="#FFF" stroke-dasharray="5.94" stroke-linecap="round" d="M250.646,506.344 L155.726,574.004 C155.726,574.004 154.226,575.504 154.226,580.504 L154.226,608.694"/>
      <line x1="154.226" x2="154.226" y1="611.664" y2="614.664" stroke="#FFF" stroke-linecap="round"/>
      <path stroke="#FFF" stroke-dasharray="6" stroke-linecap="round" d="M81.216 210.724L8.12595 167.324C8.12595 167.324 4.22595 164.504 9.22595 157.504L76.226 121.504C76.226 121.504 81.226 119.504 77.226 115.504 73.226 111.504 48.226 92.5039 48.226 92.5039M541.866 342.473L608.466 385.383C610.722 387.037 612.492 389.266 613.593 391.838 614.694 394.409 615.085 397.229 614.726 400.003 613.726 410.003 614.726 523.003 614.726 523.003"/>
      <polygon fill="#2899A6" points="200.546 385.383 200.546 415.513 226.446 415.513 233.726 397.003"/>
      <polygon fill="#3C5AAC" fill-rule="nonzero" points="231.735 234.383 231.735 210.723 201.275 222.553 219.795 234.383"/>
      <path fill="#D95020" fill-rule="nonzero" d="M608.236,224.324 L608.236,306.374 C607.766,308.724 599.796,313.374 599.796,313.374 L482.116,381.634 L432.876,353.734 C428.656,359.824 418.346,362.644 418.346,362.644 C418.346,362.644 390.216,368.264 380.346,353.734 C370.476,339.204 395.816,331.734 395.816,331.734 L348.486,304.004 L348.486,222.004 L395.836,249.674 C395.836,249.674 370.516,257.174 380.366,271.674 C390.216,286.174 418.366,280.584 418.366,280.584 C418.366,280.584 428.676,277.774 432.896,271.674 L482.136,299.574 L599.816,231.354 C599.816,231.354 607.726,226.664 608.236,224.324 Z"/>
      <path fill="#FF5A00" fill-rule="nonzero" d="M608.236,220.332 L608.236,224.332 C607.766,226.672 599.796,231.332 599.796,231.332 L482.116,299.572 L432.876,271.672 C428.656,277.772 418.346,280.582 418.346,280.582 C418.346,280.582 390.216,286.212 380.346,271.672 C370.476,257.132 395.816,249.672 395.816,249.672 L348.486,222.002 L391.616,196.682 C391.616,196.682 416.466,212.632 436.166,198.562 C437.126,197.896 437.986,197.229 438.746,196.562 C453.626,183.462 432.406,173.282 432.406,173.282 L482.116,145.152 C482.116,145.152 602.116,214.072 605.426,216.422 C606.805,217.343 607.804,218.732 608.236,220.332 Z"/>
      <path fill="#C3B566" fill-rule="nonzero" d="M441.786,73.3438 L441.786,124.454 L403.846,146.454 L403.846,115.454 C403.846,111.454 401.026,106.874 392.556,101.924 L441.786,73.3438 Z"/>
      <path fill="#FAE170" fill-rule="nonzero" d="M441.786,73.3433 L392.556,101.943 C401.026,106.943 403.826,111.523 403.846,115.473 C403.846,123.083 393.496,128.163 393.496,128.163 C370.496,137.073 351.296,125.353 351.296,125.353 L307.726,150.703 L258.496,121.633 C284.756,117.883 279.596,102.413 279.596,102.413 C279.596,102.413 275.846,90.6933 253.336,89.2833 C230.826,87.8733 222.866,101.473 222.866,101.473 L174.096,72.8733 C174.096,72.8733 272.526,16.6133 290.806,5.82334 C309.086,-4.96666 318.946,2.54334 318.946,2.54334 L441.786,73.3433 Z"/>
      <path fill="#2899A6" fill-rule="nonzero" d="M441.106,475.404 L441.106,495.504 L324.356,563.504 C324.356,563.504 307.476,572.884 295.286,565.844 C283.096,558.804 173.846,495.504 173.846,495.504 L173.846,475.404 L173.846,428.514 C173.846,428.514 283.096,491.814 295.286,498.854 C307.476,505.894 324.356,496.504 324.356,496.504 L441.106,428.504 L441.106,475.404 Z"/>
      <path fill="#09C1D1" fill-rule="nonzero" d="M441.086,428.514 L324.336,496.514 C324.336,496.514 307.456,505.894 295.266,498.864 C283.076,491.834 173.826,428.514 173.826,428.514 L223.996,399.004 C223.996,399.004 203.836,397.134 200.556,385.414 C197.276,373.694 216.496,367.594 216.496,367.594 C216.496,367.594 228.916,363.144 241.106,367.364 C253.296,371.584 257.516,380.484 257.516,380.484 L307.926,351.184 L355.276,378.844 C355.276,378.844 327.146,385.414 341.216,403.224 C341.626,403.744 342.056,404.224 342.496,404.714 C357.206,420.364 388.706,409.074 393.256,400.884 L441.086,428.514 Z"/>
      <path fill="#D95020" fill-rule="nonzero" d="M432.406,173.215 C432.406,173.215 453.626,183.395 438.746,196.495 C438.516,194.495 432.406,192.435 432.406,192.435 L432.406,173.215 Z"/>
      <path fill="#C3B566" fill-rule="nonzero" d="M403.846,146.493 L403.846,167.323 C403.246,174.543 393.526,179.323 393.526,179.323 C370.526,188.223 351.326,176.503 351.326,176.503 L351.326,125.403 C351.326,125.403 370.546,137.123 393.526,128.213 C393.526,128.213 403.876,123.133 403.876,115.523 L403.846,146.493 Z"/>
      <path fill="#2899A6" fill-rule="nonzero" d="M355.276,378.812 L355.276,398.573 C355.276,398.573 344.946,400.772 342.496,404.682 C342.056,404.212 341.626,403.683 341.216,403.193 C327.146,385.383 355.276,378.812 355.276,378.812 Z"/>
      <polygon fill="#C3B566" fill-rule="nonzero" points="351.296 125.395 351.296 176.495 307.686 201.815 307.686 150.705"/>
      <polygon fill="#C3B566" fill-rule="nonzero" points="307.686 150.703 307.686 201.813 258.456 172.743 258.456 140.933 258.456 121.633"/>
      <path fill="#C3B566" fill-rule="nonzero" d="M279.556,102.415 C279.556,102.415 284.716,117.885 258.456,121.635 L258.456,140.935 C256.856,140.695 255.146,140.505 253.296,140.395 C230.796,138.985 222.826,152.585 222.826,152.585 L222.826,101.475 C222.826,101.475 230.826,87.8848 253.296,89.2848 C275.766,90.6848 279.556,102.415 279.556,102.415 Z"/>
      <polygon fill="#3C5AAC" fill-rule="nonzero" points="259.866 251.043 259.866 313.403 210.636 342.483 210.636 280.113"/>
      <path fill="#416EDD" fill-rule="nonzero" d="M259.865,251.002 L210.635,280.072 C210.635,280.072 202.635,262.262 174.055,266.482 C145.475,270.702 155.775,290.002 155.775,290.002 C155.775,290.002 159.055,297.002 176.405,299.382 L126.235,328.922 L4.79547,258.552 C4.79547,258.552 0.795469,256.552 0.105469,253.142 L0.105469,251.002 C1.04547,246.322 3.38547,245.382 7.105469,243.002 C10.8255,240.622 126.205,174.082 126.205,174.082 L175.435,202.682 C175.435,202.682 182.935,187.212 209.665,190.022 C236.395,192.832 231.665,210.652 231.665,210.652 C229.606,214.184 226.664,217.121 223.128,219.176 C219.593,221.23 215.584,222.332 211.495,222.372 L259.865,251.002 Z"/>
      <polygon fill="#C3B566" fill-rule="nonzero" points="222.826 101.475 222.826 152.585 174.056 123.985 174.056 72.875"/>
      <path fill="#3C5AAC" fill-rule="nonzero" d="M210.636,280.112 L210.636,342.482 C210.636,342.482 203.096,325.642 176.406,328.582 L176.406,299.342 C159.056,297.002 155.776,290.002 155.776,290.002 C155.776,290.002 145.456,270.782 174.056,266.562 C202.656,262.342 210.636,280.112 210.636,280.112 Z"/>
      <polygon fill="#3C5AAC" fill-rule="nonzero" points="176.406 328.584 176.406 361.704 126.236 391.244 126.236 328.884 176.406 299.344"/>
      <path fill="#3C5AAC" fill-rule="nonzero" d="M126.236,328.885 L126.236,391.245 L4.79585,320.915 C4.79585,320.915 -0.834151,318.095 0.105849,313.405 L0.105849,253.145 C0.815849,256.565 4.79585,258.555 4.79585,258.555 L126.236,328.885 Z"/>
      <polygon fill="#D95020" fill-rule="nonzero" points="378.105 346.794 378.105 299.574 415.625 337.104"/>
    </g>
    <rect width="89" height="89" x="18" y="31" fill="#FFF" rx="8"/>
    <rect width="89" height="89" x="122" y="640" fill="#FFF" rx="8"/>
    <rect width="89" height="89" x="580" y="549" fill="#FFF" rx="8"/>
    <text fill="#FFF" font-family="Montserrat-Light, Montserrat" font-size="14" font-weight="300" letter-spacing="0">
      <tspan x="554" y="658">Video Conferencing</tspan>
    </text>
    <text fill="#FFF" font-family="Montserrat-Light, Montserrat" font-size="14" font-weight="300" letter-spacing="0">
      <tspan x="87" y="749">Content Management</tspan>
    </text>
    <text fill="#FFF" font-family="Montserrat-Light, Montserrat" font-size="14" font-weight="300" letter-spacing="0">
      <tspan x="24" y="21">Messaging</tspan>
    </text>
    <g transform="translate(598 553)">
      <path fill="url(#hero-with-icons-a)" fill-rule="nonzero" d="M2.95667066,80.2347737 C2.75132619,79.7796873 2.58331426,79.3698329 2.58331426,79.3239326 C2.58331426,79.2780427 1.86840887,75.4888571 1.7869473,74.5151165 C1.4312968,70.2637872 0.870377432,69.8566442 1.02698171,66.0662189 C1.12185071,63.7701276 0.805728388,62.9869174 1.47828462,61.1092026 C2.86335819,57.242241 3.87891342,55.7206889 5.67887477,54.8157416 C7.13910135,54.0816002 8.50912164,54.1813204 9.79500369,55.1153419 C10.1339138,55.3615239 11.2710463,56.1370535 12.321955,56.838734 C13.3728705,57.5404284 14.6210179,58.391123 15.0956241,58.7291783 C15.5702267,59.067251 16.3618417,59.5550614 16.854779,59.8132146 C17.7242958,60.2686161 17.756433,60.2755419 17.9327636,60.0455868 C18.3202146,59.5403304 19.2554559,58.1223284 19.7611616,57.4454801 C22.2942394,54.0551543 19.9086157,54.432018 19.3124426,54.2551729 C18.37515,53.9771255 17.9803459,53.5697402 17.1043006,52.5349666 C15.0696064,50.1316164 14.1053374,47.4576641 13.9628621,44.1536572 C13.7974032,40.3168987 14.1802465,37.2226238 15.8519577,35.4615591 C16.5684643,34.7067478 18.0852069,33.6105741 19.4718404,32.8453812 C20.6461749,32.1973439 27.8484977,30.8430413 28.4805705,31.1244234 C28.7963355,31.2649915 27.2305538,27.0941254 28.1316341,21.6711597 C28.3106379,20.5938517 29.5264385,17.2602027 29.6549051,17.0333503 C29.972096,16.4732525 35.1989618,14.6703079 36.6857971,13.7903245 C38.3470731,12.8070956 41.9397526,10.4386754 42.2104058,8.6771675 C42.8051805,4.80616823 42.9107562,3.15195719 43.1586869,3.00661725 C43.5276761,2.79030933 45.9942802,7.9154582 44.3247131,12.7480607 C43.9952211,13.7017824 42.4238765,15.9161155 41.7202826,16.8423109 C41.213632,17.5092658 42.3139439,17.8209895 42.9468964,18.7838671 C43.5225495,19.6595636 43.9009981,21.8003211 43.9748901,22.9095809 C44.050342,24.0422878 43.6947053,26.3663349 43.3761606,26.8222039 C43.2471408,27.0068612 43.1942945,27.18826 43.2580055,27.2278301 C43.321397,27.267196 43.7507917,27.2156408 44.2122206,27.1132924 C44.6736427,27.0109335 45.6737941,26.847933 46.4347768,26.7510766 C47.7894655,26.5786709 47.8379995,26.5810672 48.7573663,26.8660888 C50.1365436,27.2936696 56.8450735,28.9271069 52.5643137,47.8189969 C51.1460789,54.0779642 44.5278585,62.337024 43.6956949,61.6975747 L41.6464181,60.122871 L39.2847436,63.6516076 C38.0793886,64.8992539 36.779649,66.103417 36.0130622,66.6826956 C34.8034017,67.5967953 32.3830501,69.0367484 32.056252,69.0367484 C31.9720966,69.0367484 31.4953154,69.2338928 30.9967361,69.4748563 C29.5552909,70.1715019 27.3962808,70.7425458 25.1093299,70.8939215 C16.2541975,71.4720677 19.6323721,70.3946039 12.3002701,66.8163449 C11.7219301,66.5341006 10.390682,67.9579791 8.78616934,69.4293231 C7.07322221,71.0000999 6.17400433,72.1956197 5.4944592,73.8056653 C5.2644268,74.3506823 4.90631954,75.1867878 4.69866605,75.663673 C4.13363031,76.9613162 3.66882034,78.7568052 3.59975943,79.9085024 C3.56598318,80.4718588 3.49147614,80.961882 3.43418709,80.9974664 C3.37689804,81.033037 3.16201856,80.6898219 2.95667066,80.2347737 L2.95667066,80.2347737 Z M12.6916417,64.3371511 C13.8266095,64.0478772 13.9508704,63.9840565 15.1716533,63.0634225 C16.0463859,62.4037431 16.5884037,61.2126592 16.8210887,61.108607 C18.3440779,60.4275548 15.6843444,59.8145652 14.6899689,59.1386137 C13.6955865,58.4626554 12.4025163,57.9629431 11.5216331,57.2852533 C10.6407465,56.6075773 9.87798399,56.0792098 9.82660836,56.1111063 C9.77523273,56.1429993 9.73221697,56.5978155 9.73101436,57.1217818 C9.72749929,58.6500241 9.52413054,60.1835231 9.23988435,60.8251368 C9.09520999,61.1516885 8.94915778,61.781189 8.91531281,62.2240272 C8.83691618,63.2498008 9.07374506,63.7431276 9.91613088,64.3087972 C10.625999,64.7854953 10.9207767,64.7885149 12.6916417,64.337158 L12.6916417,64.3371511 Z M53.8229858,35.3928039 C53.4534125,32.8909941 53.759426,29.4503425 51.8251224,28.1979104 C47.3625103,25.3084432 46.8725898,28.1738089 46.5988373,28.8070251 C46.148469,29.848759 45.871246,30.7008387 46.213063,31.8460708 C47.263257,35.3646404 48.6067545,38.480302 49.2445243,40.9812115 C49.9764724,43.8514286 50.7831715,45.6667357 50.8638875,47.9172834 C50.9211937,49.5149735 50.9061576,49.6829537 50.6728404,50.0520502 C50.341091,50.5768198 45.3290634,51.8622702 42.8051152,52.6117175 C41.9385087,52.8690466 42.7061436,54.7315975 42.6068696,55.3447463 C42.5075956,55.9578779 41.1510171,59.384917 41.5872976,60.07392 C45.892388,66.8728208 55.4122149,46.1510036 53.8229858,35.3928039 L53.8229858,35.3928039 Z M44.5497014,52.1087536 C45.2231097,51.9455452 45.8527121,51.7464478 45.9488215,51.6662928 C46.0449309,51.5861517 46.2892159,51.533253 46.4916845,51.5487597 C46.8539528,51.5764972 48.2723009,51.1264666 48.3813333,50.9491714 C48.4120514,50.8992542 49.6774753,50.2338956 49.4243424,50.0649043 C49.1711958,49.8959061 44.2248034,46.2314945 43.515564,45.8588139 C35.3480893,41.5670626 31.0546849,41.2716074 28.3578043,41.8191869 C23.7381997,42.7571596 19.748273,45.1179061 19.2682964,45.7002112 C19.1233712,45.8760347 26.5008563,43.3936066 31.7375973,46.0017749 C32.7051545,46.4836708 34.7027774,47.3117909 36.2046453,48.9322909 C37.5765451,50.4125518 38.8274723,51.9788442 39.8120345,52.2433794 C40.8795942,52.5302224 43.0671199,52.4680571 44.5497014,52.1087536 L44.5497014,52.1087536 Z M34.7029423,34.4145927 C37.2889694,33.9585333 41.2954165,28.5442213 40.9836546,28.0373581 C40.9414738,27.9687657 41.7585738,26.6021422 41.6258637,26.5754712 C36.7864798,25.6029842 36.9030818,20.7466299 36.8333027,20.703306 C36.7635237,20.6599717 29.698285,24.0658249 28.0701152,24.7751826 C26.6885121,25.3771153 28.2676977,28.9659706 29.1006825,31.1933864 C29.4712763,32.1843617 31.5119012,33.5058363 32.3331897,34.044589 C33.3048084,34.6819468 34.482012,34.4535534 34.7029423,34.4145927 L34.7029423,34.4145927 Z M40.2760885,17.8907421 C41.6725113,16.7816242 45.391668,11.2301896 44.99707,8.9773668 C43.3894374,-0.200889988 42.6964058,5.48118814 42.5932251,6.30026674 C42.5504945,6.63949947 42.4287488,7.39084787 42.3226715,7.96992562 C42.2166079,8.54901029 42.0813792,9.38512273 42.0221694,9.82794363 C41.9629665,10.2707749 41.7992908,11.0511421 41.6584476,11.5620915 C41.5176045,12.0730512 41.295176,12.9224125 41.164153,13.4495819 C41.0331438,13.9767409 40.5921009,15.2753295 40.1840783,16.3353231 C39.7760523,17.3953202 39.4422104,18.2878462 39.4422104,18.3187107 C39.4422104,18.4735008 39.7253158,18.328199 40.2760885,17.8907421 L40.2760885,17.8907421 Z"/>
      <path fill="url(#hero-with-icons-b)" d="M3.36999909,80 C5.61700083,70.8429858 7.65000106,69.8167674 13,66.4223542 C11.8229987,65.7645258 8.92643418,63.5836016 8.93399954,62.4227377 C8.95425162,59.0333901 9.52380703,53.1258316 5.72399805,55.5812897 C-1.48595296,60.2404114 1.12299734,75.0531064 3.36999909,80 Z"/>
      <path fill="url(#hero-with-icons-c)" d="M10,65.3877089 C13.1168834,67.7467078 15.871629,69.8322046 17.8268398,70.9382959 C36.8928632,71.9038454 41.6536796,61.3461853 42,52.6907338 C40.3030277,52.7687879 37.4112524,52.352495 35.8528125,50 C31.9611406,51.279542 20.1790297,54.8677375 19.9740248,55.6741755 C18.9105082,59.8578051 15.7489176,63.236853 10,65.3877089 Z"/>
      <path fill="url(#hero-with-icons-d)" d="M43.4457997,60.9915091 C55.2776891,52.4703707 53.7547573,35.4073774 53.9458997,34.5336861 C54.4318634,32.3124112 51.5750529,24.7871769 48.1435886,26.1678555 C42.430267,28.4666497 52.1642107,41.5007952 50.8583277,48.6495244 C50.5861361,50.1395614 45.8704844,51.2379655 42.664904,51.7194684 C42.2952087,51.774998 42.6234381,56.5822784 41.0152784,58.7949665 C40.7850554,59.1117297 43.229489,61.1472963 43.4457997,60.9915091 L43.4457997,60.9915091 Z"/>
      <path fill="url(#hero-with-icons-e)" d="M45,61 C60.3351299,46.5763324 52.5722629,20.8274755 47.218161,28.3480948 C54.5719735,26.9244486 55.7418604,50.5515104 45,61 L45,61 Z"/>
      <path fill="url(#hero-with-icons-f)" d="M16.989026,59.8195714 C17.273294,59.4571923 11.9687056,57.7411663 8.76268148,55.0138908 C8.4072036,54.7114977 8.34987405,59.4258497 8.01394724,61.3915847 C7.80522893,62.6129352 10.000337,63.8426536 10.5020501,63.9958405 C10.9182462,64.1229159 15.822045,61.3071889 16.989026,59.8195714 L16.989026,59.8195714 Z"/>
      <path fill="url(#hero-with-icons-g)" d="M13.4494441,47 C11.6715469,37.9135816 14.9066508,32.5707818 27.8699176,30.6937883 C27.9327628,30.8937716 42.276859,26.0330323 47.3231652,26 C45.9553718,28.1915685 47.3382629,33.6028238 49,38.05128 C49,38.05128 36.8564801,41.2464571 13.4494441,47 L13.4494441,47 Z"/>
      <path fill="url(#hero-with-icons-h)" d="M19.3721752,44.5944881 C20.8903526,44.0720847 25.22463,42.8130726 30.4025384,44.5442878 C33.9488936,45.7299957 35.9839262,48.7193109 37.5147808,49.8690194 C41.1207369,52.5771801 47.7773113,49.5687993 48.9813144,49.5869824 C49.4759913,49.5944513 40.0456775,41.4564789 32.9357269,41.0447408 C23.3777772,40.4912424 17.412153,45.2689265 19.3721752,44.5944881 L19.3721752,44.5944881 Z"/>
      <path fill="url(#hero-with-icons-i)" d="M43.1394166,2.4305134 C43.0860224,5.23372231 42.1621447,11.9246817 39.1882496,16.4975255 C37.8279754,18.58917 44.2621284,13.7368018 44.9548139,9.56595456 C45.3358035,7.27191421 43.1835752,0.196466662 43.1394166,2.4305134 L43.1394166,2.4305134 Z"/>
      <path fill="url(#hero-with-icons-j)" d="M32.981229,35 C36.1894792,33.3232296 39.112271,31.1182256 40.9647015,27.0236486 C41.2783279,26.3304187 39.4369604,27.0028215 38.0216588,24.9465073 C36.6203057,22.9104729 36.9509781,20.8440118 35.7507113,21.0092994 C32.0004555,21.5257476 27,25.1454275 27,25.1454275 C27,25.1454275 27.2875974,29.1061601 28.3012822,30.7160456 C30.3913077,34.0353318 32.981229,35 32.981229,35 L32.981229,35 Z"/>
      <path fill="url(#hero-with-icons-k)" d="M38,23.9245655 C39.0802506,27.4044283 45.0833873,26.7737852 43.8283652,20 C43.2872947,20.7024588 41.9355697,24.559544 38,23.9245655 Z" opacity=".552"/>
      <path fill="url(#hero-with-icons-l)" d="M33.5470294,34 C31.6381576,32.7532256 29.990389,31.2022434 28.9347757,29.5615389 C27.8791625,27.9208379 27.415712,19.5534576 29.1918075,17.4738309 C30.1678657,15.1867667 33.6230443,12.9763105 37.4609845,12 C30.1656241,20.1240826 32.5295527,32.4375032 38.9853958,31.2401557 C39.3079943,31.1803241 34.1857225,34.0183509 33.5470294,34 L33.5470294,34 Z"/>
      <path fill="url(#hero-with-icons-m)" d="M8.44538977,55 C9.81100298,55.986288 15.7017342,60.4358206 17,59.7316531 C13.9846482,66.9251301 6.04547566,60.8311567 8.44538977,55 L8.44538977,55 Z"/>
      <path fill="#2C3B54" fill-rule="nonzero" d="M32.5813278,15.2484789 C31.2171446,16.0458032 29.5770129,16.9376083 29.2513567,17.743909 C28.1585082,20.0463539 27.7488744,24.1783167 28.0816189,23.9410387 C31.3247405,21.6283732 35.0795898,20.9872102 36.4458673,19.7485841 C40.494543,16.0781632 42.0663286,8.49049522 41.21557,9.61522174 C38.4614252,13.2562493 33.9886766,14.4259271 32.5813278,15.2484789 L32.5813278,15.2484789 Z M11.3584996,66.1996063 C11.3584996,66.1996063 7.52892794,63.5433049 7.59950654,62.6910895 C8.18599114,55.6095576 6.9326974,55.1963322 6.30106351,55.2714427 C5.53796652,55.3621908 1.57248391,57.8726971 0.798897935,64.9612021 C0.237548884,70.1049346 2.26429036,78.1414389 2.5730294,78.5762769 C4.17065907,74.2704635 3.54734379,70.8048427 11.3584996,66.1996063 L11.3584996,66.1996063 Z M53.1961716,34.8265524 C53.0056315,29.517762 49.8183313,25.8675743 47.6536122,26.7224341 C46.7352229,27.085111 46.1186261,29.5570535 46.4410855,31.0897548 C46.7270875,32.4492293 48.675858,37.7099285 48.8159818,38.1546544 C49.1473024,39.2062355 51.3840966,45.6510683 50.986476,48.7477218 C50.6379514,51.461985 42.7923841,52.4011084 42.7923841,52.4011084 C42.7923841,52.4011084 42.6605408,54.6103687 42.3900805,56.1031788 C42.0576056,57.9382836 41.3984343,59.3784588 41.3984343,59.3784588 C41.3984343,59.3784588 43.1065698,60.9742061 43.1755967,60.9724366 C43.2446235,60.9707022 53.9266992,55.1801748 53.1961716,34.8265524 L53.1961716,34.8265524 Z M45.0065864,51.2715713 C45.5587908,51.1165746 48.8192581,50.2520244 48.644512,50.1370782 C47.4345808,49.3411957 46.057676,48.3393277 43.7515646,46.5406587 C30.9486024,36.5548764 19.3194249,44.9654531 19.5485686,44.8890256 C21.6745425,44.1799471 23.9195689,43.7792436 27.0385403,43.9881645 C29.5507749,44.1564456 33.499959,45.4334968 36.9593818,49.5689219 C38.2461504,51.1071338 39.7062102,52.1508268 45.0065864,51.2715713 Z M39.2955397,29.5963694 C39.6829063,29.2603201 41.0292669,26.7151386 40.7868245,26.6560158 C37.3893057,25.8274371 37.0583999,24.3199702 36.7258662,22.6798262 C36.4144004,21.1436037 36.4624527,20.924528 35.8188299,21.1377153 C30.6185639,22.8601994 29.180118,23.8068228 28.3844136,24.4690751 C27.1379489,25.5064916 28.0122706,28.2940319 28.499668,29.4019181 C29.1789914,30.9460634 31.6765414,33.7402406 32.8384686,33.9652497 C34.533264,34.293449 38.5386151,30.8114766 39.2955397,29.5963694 L39.2955397,29.5963694 Z M43.0750199,20.1899309 C42.7931893,19.0340088 41.8877497,17.5453092 41.6464824,17.5453092 C41.4192705,17.5453092 39.0134326,19.412209 38.3920285,20.062695 C36.9816799,21.5390115 37.6690108,24.2143331 39.2335078,25.1319964 C41.8815255,26.6852012 43.8261073,23.2704858 43.0750199,20.1899309 L43.0750199,20.1899309 Z M41.0784667,15.7688316 C42.2369932,14.6082724 43.77707,12.703235 44.1866069,9.80824164 C44.3471143,8.6735995 44.440316,7.67552311 43.7366174,5.43215251 C43.5735249,4.9122087 43.0777571,3.4168686 43.0592225,3.6138776 C42.693207,7.50381086 42.1569175,11.8231166 39.6252394,16.4135956 C38.8305856,17.8544779 39.2579141,17.5925651 41.0784667,15.7688316 L41.0784667,15.7688316 Z M13.9076409,38.9369511 C12.5274874,44.7424958 16.184898,52.3670778 19.1476924,52.8016663 C22.0117106,53.2217644 30.2224259,50.7357369 34.5286018,49.5349295 C35.6568364,49.2203126 36.2637737,49.3844209 33.7678273,47.2875247 C29.8547274,44.6197204 26.6964923,44.2762162 23.5457843,44.6348416 C20.0704881,45.0304088 17.4663133,46.0619543 17.7099481,45.8573725 C19.303351,44.519386 22.1414146,42.1267995 27.624586,41.0433539 C30.0077974,40.5724406 33.6856918,40.5310834 38.1260576,42.2702587 C43.6338115,44.4275011 46.5025195,47.626773 48.8311502,48.7110053 C49.6603676,49.097097 49.9565786,48.9175798 50.2842151,47.9526329 C50.8331329,46.3360111 47.4963811,36.2419646 46.2874936,33.2984814 C44.4426695,28.8065727 46.5950922,26.6595752 46.1246292,26.7635695 C43.8427307,27.2679901 41.8305113,28.7388305 40.1436614,30.253378 C36.0203532,33.9555212 33.507182,34.7441777 33.1342235,34.7123826 C31.9566681,34.6119719 29.7533868,32.521931 28.9528786,31.4606422 C28.4420978,30.7834662 19.3004238,32.5529775 16.6046579,34.9015658 C16.5429854,34.9552959 14.4629557,36.2930711 13.9076409,38.9369511 L13.9076409,38.9369511 Z M10.9786324,64.2125062 C13.993775,62.9438561 16.9457244,60.247861 16.6904084,60.2033326 C15.1250474,59.9303259 9.35199303,55.9633518 9.3559778,56.0044872 C9.55427664,58.0517152 9.10936742,59.89127 8.90637878,61.9203859 C8.82172731,62.7665951 9.94655086,64.0775867 10.9786324,64.2125062 Z M20.707897,55.3383947 C20.1310857,56.6278673 19.528859,61.6985237 11.1934095,64.9524475 C10.951959,65.0466995 18.1787107,70.0022192 18.571994,70.0195342 C42.4372516,71.0701658 42.2349922,52.8450614 41.9182283,52.3855713 C41.8723843,52.3190698 39.8311829,52.390354 38.250187,51.6380294 C38.1296173,51.5806707 37.0571591,51.0263117 36.4177181,50.1913316 C36.2008294,49.9081251 36.1670746,49.75422 35.3633799,49.9884412 C31.6437853,51.0724551 20.5386977,55.0682265 20.707897,55.3383947 Z M13.2732664,46.448909 C9.0115693,31.5160705 23.9672929,30.8233019 26.3385362,30.2483145 C28.17227,29.8036649 27.7727001,29.63075 27.3860143,27.8914672 C26.8430788,25.4493755 27.0122124,23.3206496 27.4776434,21.0388607 C27.9177695,18.8811331 28.144774,17.7900559 29.0743123,16.7081179 C29.8235369,15.836054 34.045362,13.841745 35.0919484,13.3383538 C39.5520273,11.1931238 41.2560364,8.83516394 41.7531348,6.98049484 C42.103574,5.67301061 42.616373,2.45038975 42.3858642,0.146915528 C42.3291304,-0.420052029 42.6939155,0.468349639 44.5085618,6.1224777 C45.4357846,9.01153074 44.9791906,12.4804648 42.0548166,15.6123896 C41.6576591,16.0377314 41.8502728,16.1219638 42.3843608,17.0069794 C43.4940091,18.8457648 44.1074332,21.1451009 43.9346086,22.8179272 C43.7930091,24.188409 43.2088193,25.4842933 44.0443507,25.3835984 C44.1651417,25.3690421 47.8557541,24.8087115 50.3821445,26.4190255 C52.0930345,27.5095448 54.5302461,29.5999496 53.8976099,38.3321094 C52.5122967,57.4534863 43.196115,61.6148701 43.1308068,61.6171229 C42.9731091,61.6225295 41.2301543,59.8077273 41.1269925,60.0214518 C35.78512,71.0880561 24.7625861,70.6904753 18.6151561,70.8068009 C17.3860786,70.8300563 12.2753025,66.5145352 11.8445318,66.809761 C6.40375879,70.5385353 4.89328274,71.4698157 2.79540971,81 C2.71500913,80.8489092 -0.113868402,75.816709 0.00355639002,65.6962325 C0.0997647475,57.4042652 4.61706128,53.4910731 6.62525782,53.716758 C9.06320207,53.9907455 10.2867016,55.2662544 13.7201766,57.5284096 C14.3330479,57.9322046 16.4983925,59.2452791 16.9911398,59.2333187 C18.2187485,59.2042754 19.0562223,56.9425431 19.2565843,55.4781975 C19.4586744,54.0011914 19.6540564,54.3581706 18.5045397,53.9614562 C17.0552972,53.4613055 14.5555249,50.7396636 13.2732664,46.448909 L13.2732664,46.448909 Z"/>
      <path fill="url(#hero-with-icons-n)" d="M21.3869131,55.2892326 C23.7076195,54.1032656 36.8813648,50.245972 36.9996417,50.0038446 C37.085975,49.8271083 21.5472403,55.8135171 18.0279706,53.5944009 C17.8158557,53.460648 18.8499237,54.1721443 19.7848817,54.3518006 C19.8505608,54.3644211 19.8461382,56.6651235 18.9603339,57.9668829 C18.7119316,58.3319285 20.8480942,55.5645894 21.3869131,55.2892326 Z"/>
      <path fill="url(#hero-with-icons-o)" d="M40.9703666,17.2596627 C39.5342968,18.3046416 37.5543418,19.7647104 37.1494734,20.8907307 C36.9106945,21.5548188 36.7494165,19.0362364 38.3797285,17.5357974 C39.298248,16.690448 41.2641891,17.0458594 40.9703666,17.2596627 Z"/>
      <path fill="url(#hero-with-icons-p)" d="M40.0486273,24.6733012 C41.8415114,25.1589872 43.2263421,24.1641738 43.9854698,22.0207932 C44.0752068,21.7674289 43.7636067,23.8978858 42.649411,24.6898281 C41.5871651,25.4448459 39.6706484,24.5709104 40.0486273,24.6732905 L40.0486273,24.6733012 Z"/>
      <path fill="url(#hero-with-icons-q)" d="M44.0465235,27.1997153 C46.3542513,25.97227 48.7169911,26.1601203 50.7309013,26.2485481 C52.0677262,26.3072429 48.2126903,24.7876854 43.8330788,25.0252297 C43.3653042,25.4134538 41.9752776,27.6778714 40.0162513,29.9710146 C39.722138,30.3152906 43.510718,27.4847025 44.0465235,27.1997153 L44.0465235,27.1997153 Z"/>
      <path fill="url(#hero-with-icons-r)" d="M22.2511807,31.6842269 C23.5220916,31.390359 25.1161406,30.9052024 26.1711883,30.785723 C27.0509001,30.6861024 28.1531739,30.1296247 29,31.1527257 C28.5285019,30.4267217 27.6267582,28.9604045 27.345782,28 C27.6015941,29.1284964 26.4583151,29.2876144 26.1741433,29.3383296 C19.7838246,30.472398 15.9395698,32.4053798 14,36 C17.6737658,32.8074892 22.0113133,31.7396881 22.2511807,31.6842269 L22.2511807,31.6842269 Z"/>
    </g>
    <g transform="translate(29 42)">
      <rect width="66" height="66"/>
      <g fill="#1875F0" fill-rule="nonzero" transform="translate(1 1)">
        <path d="M51.4761159,6.4550813 L51.8175508,13.318035 C57.3965907,19.4649317 59.5987642,28.1701809 56.821478,36.3518736 C52.6756829,48.564972 39.0051789,54.9850642 26.2879341,50.6914866 C13.5702931,46.3983053 6.62156057,33.0168451 10.7673557,20.8037467 C13.5537154,12.5948915 20.6429748,7.00304715 28.853648,5.52251626 L33.2899561,0.295189837 C19.4497228,-0.0783857724 6.39222154,8.48908455 1.72025935,22.2523907 C-4.01982724,39.1629545 5.07265813,57.5123224 22.0292504,63.2372211 C38.9858374,68.9617289 57.3855407,59.8935313 63.1260236,42.9829675 C67.7900959,29.2420996 62.6606447,14.5505618 51.4761159,6.4550813 Z"/>
        <path d="M43.5274931,26.7062329 L43.2926317,17.1117203 L43.1043484,11.5907313 L42.976848,6.80784106 C42.976848,6.80784106 43.0032972,4.50142439 42.9227711,3.95936667 C42.9058024,3.84520447 42.869878,3.75269837 42.8268565,3.67160691 L42.8106699,3.63774878 L42.7921211,3.60822927 C42.7037,3.45588089 42.5639659,3.3322752 42.3835776,3.27125976 C42.1992419,3.20906057 42.0081947,3.22441748 41.842413,3.29566382 L41.8321504,3.29960081 L41.7749134,3.32873455 C41.6963638,3.36691545 41.6162341,3.41651626 41.5380809,3.49210122 C41.1437476,3.87355081 39.7602358,5.72175447 39.7602358,5.72175447 L36.7453297,9.44414065 L33.2330679,13.7156711 L27.202463,21.1946927 C27.202463,21.1946927 24.4350484,24.6391589 25.0464764,28.8792041 C25.6583008,33.1188476 28.8188598,35.1843467 31.2708923,36.0122037 C33.7225285,36.8400553 37.4913606,37.1140382 40.5599524,34.116365 C43.628148,31.1186972 43.5274931,26.7062329 43.5274931,26.7062329 L43.5274931,26.7062329 Z"/>
      </g>
    </g>
    <g fill="#000" fill-rule="nonzero" transform="translate(132 650)">
      <path d="M64 34.7393252C64 31.6995276 63.5111047 28.7570499 62.6249433 26L49 60C57.9747208 54.8940494 63.9998455 45.4959206 63.9998455 34.7393252L64 34.7393252zM25 62.4843818C27.9203533 63.4702737 31.0463066 64 34.3019873 64 37.70376 64 40.9622673 63.4213828 44 62.3510158L35.0378032 39 25 62.4843818 25 62.4843818zM6.19813864 26C5.423266 28.6377587 5 31.4298988 5 34.3212308 5 45.352265 11.0529863 54.9640347 20 60L6.28793585 26.1848102 6.19813864 26 6.19813864 26z"/>
      <path d="M21.96833,24.4145632 L20.6907416,24.3574611 C17.9037966,24.3112069 18.212419,27.2039782 18.212419,27.2039782 L28.1006941,52 L34.7484335,36.124411 L31.0372788,26.6777048 C29.5512798,24.1799776 25.9249662,24.2061933 25.9249662,24.2061933 L25.9249662,22.8902837 L46.7168962,22.8902837 L46.6860038,24.3497772 L44.5226328,24.4840199 C41.8283649,24.4840199 42.3731257,27.0465331 42.3731257,27.0465331 L51.3956606,51.1437698 L53.9818805,44.4711108 C58.5694747,34.0726527 55.739431,26.3771277 55.739431,26.3771277 C51.1455076,16.9274082 56.9507138,15.571271 56.9507138,15.571271 C57.3179565,15.5188396 57.6621428,15.4896105 58,15.474092 C52.5450079,9.06524764 44.4191057,5 35.347143,5 C23.0809079,5 12.5446463,12.4317102 8,23.0355249 L21.9189022,22.8920917 L21.9681793,24.4148646 L21.96833,24.4145632 Z"/>
      <path d="M67.4893029,34.502379 C67.4893029,52.687538 52.6898546,67.4866765 34.5067661,67.4866765 C16.3144578,67.4866765 1.51500954,52.687538 1.51500954,34.502379 C1.51500954,16.312462 16.3144578,1.51956834 34.5067661,1.51956834 C52.6898546,1.52105519 67.4893029,16.3126107 67.4893029,34.502379 Z M34.5067661,0 C15.4815595,0 0,15.4796731 0,34.5038658 C0,53.5280585 15.4817082,69 34.5067661,69 C53.5288499,69 69,53.5279098 69,34.5038658 C69,15.4796731 53.5289986,0 34.5067661,0 Z"/>
    </g>
  </g>
</svg>
