<svg width="255" height="199" viewBox="0 0 255 199" fill="none" xmlns="http://www.w3.org/2000/svg">
<circle cx="130.171" cy="94.3644" r="91.3644" fill="url(#paint0_linear)" fill-opacity="0.3"/>
<circle cx="130.533" cy="94.0003" r="66.348" fill="url(#paint1_linear)" fill-opacity="0.2"/>
<path d="M165.768 47.5448C165.241 47.5448 164.731 47.4648 164.238 47.3048C163.751 47.1382 163.368 46.9248 163.088 46.6648L163.458 45.8848C163.725 46.1248 164.065 46.3215 164.478 46.4748C164.898 46.6215 165.328 46.6948 165.768 46.6948C166.348 46.6948 166.781 46.5982 167.068 46.4048C167.355 46.2048 167.498 45.9415 167.498 45.6148C167.498 45.3748 167.418 45.1815 167.258 45.0348C167.105 44.8815 166.911 44.7648 166.678 44.6848C166.451 44.6048 166.128 44.5148 165.708 44.4148C165.181 44.2882 164.755 44.1615 164.428 44.0348C164.108 43.9082 163.831 43.7148 163.598 43.4548C163.371 43.1882 163.258 42.8315 163.258 42.3848C163.258 42.0115 163.355 41.6748 163.548 41.3748C163.748 41.0748 164.048 40.8348 164.448 40.6548C164.848 40.4748 165.345 40.3848 165.938 40.3848C166.351 40.3848 166.758 40.4382 167.158 40.5448C167.558 40.6515 167.901 40.8048 168.188 41.0048L167.858 41.8048C167.565 41.6182 167.251 41.4782 166.918 41.3848C166.585 41.2848 166.258 41.2348 165.938 41.2348C165.371 41.2348 164.945 41.3382 164.658 41.5448C164.378 41.7515 164.238 42.0182 164.238 42.3448C164.238 42.5848 164.318 42.7815 164.478 42.9348C164.638 43.0815 164.835 43.1982 165.068 43.2848C165.308 43.3648 165.631 43.4515 166.038 43.5448C166.565 43.6715 166.988 43.7982 167.308 43.9248C167.628 44.0515 167.901 44.2448 168.128 44.5048C168.361 44.7648 168.478 45.1148 168.478 45.5548C168.478 45.9215 168.378 46.2582 168.178 46.5648C167.978 46.8648 167.675 47.1048 167.268 47.2848C166.861 47.4582 166.361 47.5448 165.768 47.5448ZM174.589 44.8448C174.589 44.9182 174.582 45.0148 174.569 45.1348H170.269C170.329 45.6015 170.532 45.9782 170.879 46.2648C171.232 46.5448 171.669 46.6848 172.189 46.6848C172.822 46.6848 173.332 46.4715 173.719 46.0448L174.249 46.6648C174.009 46.9448 173.709 47.1582 173.349 47.3048C172.996 47.4515 172.599 47.5248 172.159 47.5248C171.599 47.5248 171.102 47.4115 170.669 47.1848C170.236 46.9515 169.899 46.6282 169.659 46.2148C169.426 45.8015 169.309 45.3348 169.309 44.8148C169.309 44.3015 169.422 43.8382 169.649 43.4248C169.882 43.0115 170.199 42.6915 170.599 42.4648C171.006 42.2315 171.462 42.1148 171.969 42.1148C172.476 42.1148 172.926 42.2315 173.319 42.4648C173.719 42.6915 174.029 43.0115 174.249 43.4248C174.476 43.8382 174.589 44.3115 174.589 44.8448ZM171.969 42.9248C171.509 42.9248 171.122 43.0648 170.809 43.3448C170.502 43.6248 170.322 43.9915 170.269 44.4448H173.669C173.616 43.9982 173.432 43.6348 173.119 43.3548C172.812 43.0682 172.429 42.9248 171.969 42.9248ZM175.922 40.0448H176.882V47.4648H175.922V40.0448ZM180.655 40.7748C180.082 40.7748 179.795 41.0848 179.795 41.7048V42.1648H181.335V42.9548H179.815V47.4648H178.855V42.9548H177.955V42.1648H178.855V41.6948C178.855 41.1682 179.008 40.7515 179.315 40.4448C179.622 40.1382 180.052 39.9848 180.605 39.9848C180.818 39.9848 181.018 40.0115 181.205 40.0648C181.392 40.1182 181.552 40.1948 181.685 40.2948L181.395 41.0248C181.175 40.8582 180.928 40.7748 180.655 40.7748ZM181.803 44.3048H184.493V45.1348H181.803V44.3048ZM192.131 40.4648V47.4648H191.131V44.3448H187.111V47.4648H186.111V40.4648H187.111V43.4748H191.131V40.4648H192.131ZM196.356 47.5248C195.83 47.5248 195.356 47.4082 194.936 47.1748C194.516 46.9415 194.186 46.6215 193.946 46.2148C193.713 45.8015 193.596 45.3348 193.596 44.8148C193.596 44.2948 193.713 43.8315 193.946 43.4248C194.186 43.0115 194.516 42.6915 194.936 42.4648C195.356 42.2315 195.83 42.1148 196.356 42.1148C196.883 42.1148 197.353 42.2315 197.766 42.4648C198.186 42.6915 198.513 43.0115 198.746 43.4248C198.986 43.8315 199.106 44.2948 199.106 44.8148C199.106 45.3348 198.986 45.8015 198.746 46.2148C198.513 46.6215 198.186 46.9415 197.766 47.1748C197.353 47.4082 196.883 47.5248 196.356 47.5248ZM196.356 46.6848C196.696 46.6848 197 46.6082 197.266 46.4548C197.54 46.2948 197.753 46.0748 197.906 45.7948C198.06 45.5082 198.136 45.1815 198.136 44.8148C198.136 44.4482 198.06 44.1248 197.906 43.8448C197.753 43.5582 197.54 43.3382 197.266 43.1848C197 43.0315 196.696 42.9548 196.356 42.9548C196.016 42.9548 195.71 43.0315 195.436 43.1848C195.17 43.3382 194.956 43.5582 194.796 43.8448C194.643 44.1248 194.566 44.4482 194.566 44.8148C194.566 45.1815 194.643 45.5082 194.796 45.7948C194.956 46.0748 195.17 46.2948 195.436 46.4548C195.71 46.6082 196.016 46.6848 196.356 46.6848ZM201.954 47.5248C201.521 47.5248 201.104 47.4682 200.704 47.3548C200.304 47.2348 199.991 47.0848 199.764 46.9048L200.164 46.1448C200.397 46.3115 200.681 46.4448 201.014 46.5448C201.347 46.6448 201.684 46.6948 202.024 46.6948C202.864 46.6948 203.284 46.4548 203.284 45.9748C203.284 45.8148 203.227 45.6882 203.114 45.5948C203.001 45.5015 202.857 45.4348 202.684 45.3948C202.517 45.3482 202.277 45.2982 201.964 45.2448C201.537 45.1782 201.187 45.1015 200.914 45.0148C200.647 44.9282 200.417 44.7815 200.224 44.5748C200.031 44.3682 199.934 44.0782 199.934 43.7048C199.934 43.2248 200.134 42.8415 200.534 42.5548C200.934 42.2615 201.471 42.1148 202.144 42.1148C202.497 42.1148 202.851 42.1582 203.204 42.2448C203.557 42.3315 203.847 42.4482 204.074 42.5948L203.664 43.3548C203.231 43.0748 202.721 42.9348 202.134 42.9348C201.727 42.9348 201.417 43.0015 201.204 43.1348C200.991 43.2682 200.884 43.4448 200.884 43.6648C200.884 43.8382 200.944 43.9748 201.064 44.0748C201.184 44.1748 201.331 44.2482 201.504 44.2948C201.684 44.3415 201.934 44.3948 202.254 44.4548C202.681 44.5282 203.024 44.6082 203.284 44.6948C203.551 44.7748 203.777 44.9148 203.964 45.1148C204.151 45.3148 204.244 45.5948 204.244 45.9548C204.244 46.4348 204.037 46.8182 203.624 47.1048C203.217 47.3848 202.661 47.5248 201.954 47.5248ZM208.424 47.1548C208.284 47.2748 208.11 47.3682 207.904 47.4348C207.697 47.4948 207.484 47.5248 207.264 47.5248C206.73 47.5248 206.317 47.3815 206.024 47.0948C205.73 46.8082 205.584 46.3982 205.584 45.8648V42.9548H204.684V42.1648H205.584V41.0048H206.544V42.1648H208.064V42.9548H206.544V45.8248C206.544 46.1115 206.614 46.3315 206.754 46.4848C206.9 46.6382 207.107 46.7148 207.374 46.7148C207.667 46.7148 207.917 46.6315 208.124 46.4648L208.424 47.1548Z" fill="white"/>
<path d="M173.118 7.74961L184.201 3L195.811 7.74961L198.977 19.8875L190.534 29.9145H178.396L169.952 19.8875L173.118 7.74961Z" fill="white" stroke="white" stroke-width="2" stroke-linejoin="round"/>
<circle cx="184.201" cy="17.2473" r="5.86055" stroke="#2A343E" stroke-width="2"/>
<circle cx="184.201" cy="17.2473" r="1.5832" fill="#2A343E"/>
<path d="M39.8225 35H42.7725C43.5125 35 44.1691 35.1467 44.7425 35.44C45.3158 35.7333 45.7591 36.1467 46.0725 36.68C46.3925 37.2067 46.5525 37.8133 46.5525 38.5C46.5525 39.1867 46.3925 39.7967 46.0725 40.33C45.7591 40.8567 45.3158 41.2667 44.7425 41.56C44.1691 41.8533 43.5125 42 42.7725 42H39.8225V35ZM42.7125 41.13C43.2791 41.13 43.7758 41.02 44.2025 40.8C44.6358 40.58 44.9691 40.2733 45.2025 39.88C45.4358 39.48 45.5525 39.02 45.5525 38.5C45.5525 37.98 45.4358 37.5233 45.2025 37.13C44.9691 36.73 44.6358 36.42 44.2025 36.2C43.7758 35.98 43.2791 35.87 42.7125 35.87H40.8225V41.13H42.7125ZM47.9442 36.7H48.9042V42H47.9442V36.7ZM48.4242 35.68C48.2375 35.68 48.0808 35.62 47.9542 35.5C47.8342 35.38 47.7742 35.2333 47.7742 35.06C47.7742 34.8867 47.8342 34.74 47.9542 34.62C48.0808 34.4933 48.2375 34.43 48.4242 34.43C48.6108 34.43 48.7642 34.49 48.8842 34.61C49.0108 34.7233 49.0742 34.8667 49.0742 35.04C49.0742 35.22 49.0108 35.3733 48.8842 35.5C48.7642 35.62 48.6108 35.68 48.4242 35.68ZM55.8071 36.7V41.28C55.8071 42.2067 55.5771 42.89 55.1171 43.33C54.6571 43.7767 53.9705 44 53.0571 44C52.5571 44 52.0805 43.93 51.6271 43.79C51.1738 43.6567 50.8071 43.4633 50.5271 43.21L50.9871 42.47C51.2338 42.6833 51.5371 42.85 51.8971 42.97C52.2638 43.0967 52.6405 43.16 53.0271 43.16C53.6471 43.16 54.1038 43.0133 54.3971 42.72C54.6971 42.4267 54.8471 41.98 54.8471 41.38V40.96C54.6205 41.2333 54.3405 41.44 54.0071 41.58C53.6805 41.7133 53.3238 41.78 52.9371 41.78C52.4305 41.78 51.9705 41.6733 51.5571 41.46C51.1505 41.24 50.8305 40.9367 50.5971 40.55C50.3638 40.1567 50.2471 39.71 50.2471 39.21C50.2471 38.71 50.3638 38.2667 50.5971 37.88C50.8305 37.4867 51.1505 37.1833 51.5571 36.97C51.9705 36.7567 52.4305 36.65 52.9371 36.65C53.3371 36.65 53.7071 36.7233 54.0471 36.87C54.3938 37.0167 54.6771 37.2333 54.8971 37.52V36.7H55.8071ZM53.0471 40.94C53.3938 40.94 53.7038 40.8667 53.9771 40.72C54.2571 40.5733 54.4738 40.37 54.6271 40.11C54.7871 39.8433 54.8671 39.5433 54.8671 39.21C54.8671 38.6967 54.6971 38.2833 54.3571 37.97C54.0171 37.65 53.5805 37.49 53.0471 37.49C52.5071 37.49 52.0671 37.65 51.7271 37.97C51.3871 38.2833 51.2171 38.6967 51.2171 39.21C51.2171 39.5433 51.2938 39.8433 51.4471 40.11C51.6071 40.37 51.8238 40.5733 52.0971 40.72C52.3771 40.8667 52.6938 40.94 53.0471 40.94ZM57.6414 36.7H58.6014V42H57.6414V36.7ZM58.1214 35.68C57.9348 35.68 57.7781 35.62 57.6514 35.5C57.5314 35.38 57.4714 35.2333 57.4714 35.06C57.4714 34.8867 57.5314 34.74 57.6514 34.62C57.7781 34.4933 57.9348 34.43 58.1214 34.43C58.3081 34.43 58.4614 34.49 58.5814 34.61C58.7081 34.7233 58.7714 34.8667 58.7714 35.04C58.7714 35.22 58.7081 35.3733 58.5814 35.5C58.4614 35.62 58.3081 35.68 58.1214 35.68ZM63.4144 41.69C63.2744 41.81 63.1011 41.9033 62.8944 41.97C62.6877 42.03 62.4744 42.06 62.2544 42.06C61.7211 42.06 61.3077 41.9167 61.0144 41.63C60.7211 41.3433 60.5744 40.9333 60.5744 40.4V37.49H59.6744V36.7H60.5744V35.54H61.5344V36.7H63.0544V37.49H61.5344V40.36C61.5344 40.6467 61.6044 40.8667 61.7444 41.02C61.8911 41.1733 62.0977 41.25 62.3644 41.25C62.6577 41.25 62.9077 41.1667 63.1144 41L63.4144 41.69ZM66.505 36.65C67.2384 36.65 67.7984 36.83 68.185 37.19C68.5784 37.55 68.775 38.0867 68.775 38.8V42H67.865V41.3C67.705 41.5467 67.475 41.7367 67.175 41.87C66.8817 41.9967 66.5317 42.06 66.125 42.06C65.5317 42.06 65.055 41.9167 64.695 41.63C64.3417 41.3433 64.165 40.9667 64.165 40.5C64.165 40.0333 64.335 39.66 64.675 39.38C65.015 39.0933 65.555 38.95 66.295 38.95H67.815V38.76C67.815 38.3467 67.695 38.03 67.455 37.81C67.215 37.59 66.8617 37.48 66.395 37.48C66.0817 37.48 65.775 37.5333 65.475 37.64C65.175 37.74 64.9217 37.8767 64.715 38.05L64.315 37.33C64.5884 37.11 64.915 36.9433 65.295 36.83C65.675 36.71 66.0784 36.65 66.505 36.65ZM66.285 41.32C66.6517 41.32 66.9684 41.24 67.235 41.08C67.5017 40.9133 67.695 40.68 67.815 40.38V39.64H66.335C65.5217 39.64 65.115 39.9133 65.115 40.46C65.115 40.7267 65.2184 40.9367 65.425 41.09C65.6317 41.2433 65.9184 41.32 66.285 41.32ZM70.5516 34.58H71.5116V42H70.5516V34.58ZM76.6446 42.08C75.9379 42.08 75.3012 41.9267 74.7346 41.62C74.1679 41.3067 73.7212 40.8767 73.3946 40.33C73.0746 39.7833 72.9146 39.1733 72.9146 38.5C72.9146 37.8267 73.0746 37.2167 73.3946 36.67C73.7212 36.1233 74.1679 35.6967 74.7346 35.39C75.3012 35.0767 75.9379 34.92 76.6446 34.92C77.3446 34.92 77.9779 35.0767 78.5446 35.39C79.1112 35.6967 79.5546 36.1233 79.8746 36.67C80.1946 37.21 80.3546 37.82 80.3546 38.5C80.3546 39.18 80.1946 39.7933 79.8746 40.34C79.5546 40.88 79.1112 41.3067 78.5446 41.62C77.9779 41.9267 77.3446 42.08 76.6446 42.08ZM76.6446 41.19C77.1579 41.19 77.6179 41.0733 78.0246 40.84C78.4379 40.6067 78.7612 40.2867 78.9946 39.88C79.2346 39.4667 79.3546 39.0067 79.3546 38.5C79.3546 37.9933 79.2346 37.5367 78.9946 37.13C78.7612 36.7167 78.4379 36.3933 78.0246 36.16C77.6179 35.9267 77.1579 35.81 76.6446 35.81C76.1312 35.81 75.6646 35.9267 75.2446 36.16C74.8312 36.3933 74.5046 36.7167 74.2646 37.13C74.0312 37.5367 73.9146 37.9933 73.9146 38.5C73.9146 39.0067 74.0312 39.4667 74.2646 39.88C74.5046 40.2867 74.8312 40.6067 75.2446 40.84C75.6646 41.0733 76.1312 41.19 76.6446 41.19ZM84.053 42.06C83.513 42.06 83.0297 41.9433 82.603 41.71C82.183 41.4767 81.853 41.1567 81.613 40.75C81.373 40.3367 81.253 39.87 81.253 39.35C81.253 38.83 81.373 38.3667 81.613 37.96C81.853 37.5467 82.183 37.2267 82.603 37C83.0297 36.7667 83.513 36.65 84.053 36.65C84.533 36.65 84.9597 36.7467 85.333 36.94C85.713 37.1333 86.0063 37.4133 86.213 37.78L85.483 38.25C85.3163 37.9967 85.1097 37.8067 84.863 37.68C84.6163 37.5533 84.343 37.49 84.043 37.49C83.6963 37.49 83.383 37.5667 83.103 37.72C82.8297 37.8733 82.613 38.0933 82.453 38.38C82.2997 38.66 82.223 38.9833 82.223 39.35C82.223 39.7233 82.2997 40.0533 82.453 40.34C82.613 40.62 82.8297 40.8367 83.103 40.99C83.383 41.1433 83.6963 41.22 84.043 41.22C84.343 41.22 84.6163 41.1567 84.863 41.03C85.1097 40.9033 85.3163 40.7133 85.483 40.46L86.213 40.92C86.0063 41.2867 85.713 41.57 85.333 41.77C84.9597 41.9633 84.533 42.06 84.053 42.06ZM92.1678 39.38C92.1678 39.4533 92.1611 39.55 92.1478 39.67H87.8478C87.9078 40.1367 88.1111 40.5133 88.4578 40.8C88.8111 41.08 89.2478 41.22 89.7678 41.22C90.4011 41.22 90.9111 41.0067 91.2978 40.58L91.8278 41.2C91.5878 41.48 91.2878 41.6933 90.9278 41.84C90.5744 41.9867 90.1778 42.06 89.7378 42.06C89.1778 42.06 88.6811 41.9467 88.2478 41.72C87.8144 41.4867 87.4778 41.1633 87.2378 40.75C87.0044 40.3367 86.8878 39.87 86.8878 39.35C86.8878 38.8367 87.0011 38.3733 87.2278 37.96C87.4611 37.5467 87.7778 37.2267 88.1778 37C88.5844 36.7667 89.0411 36.65 89.5478 36.65C90.0544 36.65 90.5044 36.7667 90.8978 37C91.2978 37.2267 91.6078 37.5467 91.8278 37.96C92.0544 38.3733 92.1678 38.8467 92.1678 39.38ZM89.5478 37.46C89.0878 37.46 88.7011 37.6 88.3878 37.88C88.0811 38.16 87.9011 38.5267 87.8478 38.98H91.2478C91.1944 38.5333 91.0111 38.17 90.6978 37.89C90.3911 37.6033 90.0078 37.46 89.5478 37.46ZM95.2843 36.65C96.0177 36.65 96.5777 36.83 96.9643 37.19C97.3577 37.55 97.5543 38.0867 97.5543 38.8V42H96.6443V41.3C96.4843 41.5467 96.2543 41.7367 95.9543 41.87C95.661 41.9967 95.311 42.06 94.9043 42.06C94.311 42.06 93.8343 41.9167 93.4743 41.63C93.121 41.3433 92.9443 40.9667 92.9443 40.5C92.9443 40.0333 93.1143 39.66 93.4543 39.38C93.7943 39.0933 94.3343 38.95 95.0743 38.95H96.5943V38.76C96.5943 38.3467 96.4743 38.03 96.2343 37.81C95.9943 37.59 95.641 37.48 95.1743 37.48C94.861 37.48 94.5543 37.5333 94.2543 37.64C93.9543 37.74 93.701 37.8767 93.4943 38.05L93.0943 37.33C93.3677 37.11 93.6943 36.9433 94.0743 36.83C94.4543 36.71 94.8577 36.65 95.2843 36.65ZM95.0643 41.32C95.431 41.32 95.7477 41.24 96.0143 41.08C96.281 40.9133 96.4743 40.68 96.5943 40.38V39.64H95.1143C94.301 39.64 93.8943 39.9133 93.8943 40.46C93.8943 40.7267 93.9977 40.9367 94.2043 41.09C94.411 41.2433 94.6977 41.32 95.0643 41.32ZM102.161 36.65C102.834 36.65 103.368 36.8467 103.761 37.24C104.161 37.6267 104.361 38.1967 104.361 38.95V42H103.401V39.06C103.401 38.5467 103.278 38.16 103.031 37.9C102.784 37.64 102.431 37.51 101.971 37.51C101.451 37.51 101.041 37.6633 100.741 37.97C100.441 38.27 100.291 38.7033 100.291 39.27V42H99.3309V36.7H100.251V37.5C100.444 37.2267 100.704 37.0167 101.031 36.87C101.364 36.7233 101.741 36.65 102.161 36.65Z" fill="white"/>
<path d="M71.9442 25.7134C78.2163 25.7134 83.3009 20.6289 83.3009 14.3567C83.3009 8.08457 78.2163 3 71.9442 3C65.6721 3 60.5875 8.08457 60.5875 14.3567" stroke="white" stroke-width="5"/>
<rect x="67.077" y="18.1406" width="5.40796" height="5.40796" fill="white"/>
<rect x="62.7507" y="23.5508" width="4.32637" height="4.32637" fill="white"/>
<rect x="59.5059" y="20.3047" width="3.24478" height="3.24478" fill="white"/>
<path d="M29.8119 109.309H26.0919L25.3219 111.059H24.2919L27.4619 104.059H28.4519L31.6319 111.059H30.5819L29.8119 109.309ZM29.4619 108.509L27.9519 105.079L26.4419 108.509H29.4619ZM39.1661 105.709C39.8328 105.709 40.3594 105.902 40.7461 106.289C41.1394 106.675 41.3361 107.249 41.3361 108.009V111.059H40.3761V108.119C40.3761 107.605 40.2561 107.219 40.0161 106.959C39.7828 106.699 39.4461 106.569 39.0061 106.569C38.5194 106.569 38.1328 106.722 37.8461 107.029C37.5594 107.329 37.4161 107.762 37.4161 108.329V111.059H36.4561V108.119C36.4561 107.605 36.3361 107.219 36.0961 106.959C35.8628 106.699 35.5261 106.569 35.0861 106.569C34.5994 106.569 34.2128 106.722 33.9261 107.029C33.6394 107.329 33.4961 107.762 33.4961 108.329V111.059H32.5361V105.759H33.4561V106.549C33.6494 106.275 33.9028 106.069 34.2161 105.929C34.5294 105.782 34.8861 105.709 35.2861 105.709C35.6994 105.709 36.0661 105.792 36.3861 105.959C36.7061 106.125 36.9528 106.369 37.1261 106.689C37.3261 106.382 37.6028 106.142 37.9561 105.969C38.3161 105.795 38.7194 105.709 39.1661 105.709ZM45.0325 105.709C45.7658 105.709 46.3258 105.889 46.7125 106.249C47.1058 106.609 47.3025 107.145 47.3025 107.859V111.059H46.3925V110.359C46.2325 110.605 46.0025 110.795 45.7025 110.929C45.4092 111.055 45.0592 111.119 44.6525 111.119C44.0592 111.119 43.5825 110.975 43.2225 110.689C42.8692 110.402 42.6925 110.025 42.6925 109.559C42.6925 109.092 42.8625 108.719 43.2025 108.439C43.5425 108.152 44.0825 108.009 44.8225 108.009H46.3425V107.819C46.3425 107.405 46.2225 107.089 45.9825 106.869C45.7425 106.649 45.3892 106.539 44.9225 106.539C44.6092 106.539 44.3025 106.592 44.0025 106.699C43.7025 106.799 43.4492 106.935 43.2425 107.109L42.8425 106.389C43.1158 106.169 43.4425 106.002 43.8225 105.889C44.2025 105.769 44.6058 105.709 45.0325 105.709ZM44.8125 110.379C45.1792 110.379 45.4958 110.299 45.7625 110.139C46.0292 109.972 46.2225 109.739 46.3425 109.439V108.699H44.8625C44.0492 108.699 43.6425 108.972 43.6425 109.519C43.6425 109.785 43.7458 109.995 43.9525 110.149C44.1592 110.302 44.4458 110.379 44.8125 110.379ZM53.0091 110.269V111.059H48.5691V110.439L51.6991 106.549H48.6291V105.759H52.9291V106.389L49.7991 110.269H53.0091ZM56.4858 111.119C55.9591 111.119 55.4858 111.002 55.0658 110.769C54.6458 110.535 54.3158 110.215 54.0758 109.809C53.8425 109.395 53.7258 108.929 53.7258 108.409C53.7258 107.889 53.8425 107.425 54.0758 107.019C54.3158 106.605 54.6458 106.285 55.0658 106.059C55.4858 105.825 55.9591 105.709 56.4858 105.709C57.0125 105.709 57.4825 105.825 57.8958 106.059C58.3158 106.285 58.6425 106.605 58.8758 107.019C59.1158 107.425 59.2358 107.889 59.2358 108.409C59.2358 108.929 59.1158 109.395 58.8758 109.809C58.6425 110.215 58.3158 110.535 57.8958 110.769C57.4825 111.002 57.0125 111.119 56.4858 111.119ZM56.4858 110.279C56.8258 110.279 57.1291 110.202 57.3958 110.049C57.6691 109.889 57.8825 109.669 58.0358 109.389C58.1891 109.102 58.2658 108.775 58.2658 108.409C58.2658 108.042 58.1891 107.719 58.0358 107.439C57.8825 107.152 57.6691 106.932 57.3958 106.779C57.1291 106.625 56.8258 106.549 56.4858 106.549C56.1458 106.549 55.8391 106.625 55.5658 106.779C55.2991 106.932 55.0858 107.152 54.9258 107.439C54.7725 107.719 54.6958 108.042 54.6958 108.409C54.6958 108.775 54.7725 109.102 54.9258 109.389C55.0858 109.669 55.2991 109.889 55.5658 110.049C55.8391 110.202 56.1458 110.279 56.4858 110.279ZM63.3934 105.709C64.0668 105.709 64.6001 105.905 64.9934 106.299C65.3934 106.685 65.5934 107.255 65.5934 108.009V111.059H64.6334V108.119C64.6334 107.605 64.5101 107.219 64.2634 106.959C64.0168 106.699 63.6634 106.569 63.2034 106.569C62.6834 106.569 62.2734 106.722 61.9734 107.029C61.6734 107.329 61.5234 107.762 61.5234 108.329V111.059H60.5634V105.759H61.4834V106.559C61.6768 106.285 61.9368 106.075 62.2634 105.929C62.5968 105.782 62.9734 105.709 63.3934 105.709ZM35.2419 116.059L32.9019 123.059H31.8519L29.9419 117.469L28.0319 123.059H26.9619L24.6219 116.059H25.6519L27.5419 121.749L29.5119 116.059H30.4319L32.3619 121.779L34.2919 116.059H35.2419ZM40.7148 120.439C40.7148 120.512 40.7081 120.609 40.6948 120.729H36.3948C36.4548 121.195 36.6581 121.572 37.0048 121.859C37.3581 122.139 37.7948 122.279 38.3148 122.279C38.9481 122.279 39.4581 122.065 39.8448 121.639L40.3748 122.259C40.1348 122.539 39.8348 122.752 39.4748 122.899C39.1214 123.045 38.7248 123.119 38.2848 123.119C37.7248 123.119 37.2281 123.005 36.7948 122.779C36.3614 122.545 36.0248 122.222 35.7848 121.809C35.5514 121.395 35.4348 120.929 35.4348 120.409C35.4348 119.895 35.5481 119.432 35.7748 119.019C36.0081 118.605 36.3248 118.285 36.7248 118.059C37.1314 117.825 37.5881 117.709 38.0948 117.709C38.6014 117.709 39.0514 117.825 39.4448 118.059C39.8448 118.285 40.1548 118.605 40.3748 119.019C40.6014 119.432 40.7148 119.905 40.7148 120.439ZM38.0948 118.519C37.6348 118.519 37.2481 118.659 36.9348 118.939C36.6281 119.219 36.4481 119.585 36.3948 120.039H39.7948C39.7414 119.592 39.5581 119.229 39.2448 118.949C38.9381 118.662 38.5548 118.519 38.0948 118.519ZM44.8578 117.709C45.3712 117.709 45.8312 117.822 46.2378 118.049C46.6445 118.275 46.9612 118.592 47.1878 118.999C47.4212 119.405 47.5378 119.875 47.5378 120.409C47.5378 120.942 47.4212 121.415 47.1878 121.829C46.9612 122.235 46.6445 122.552 46.2378 122.779C45.8312 123.005 45.3712 123.119 44.8578 123.119C44.4645 123.119 44.1045 123.042 43.7778 122.889C43.4512 122.735 43.1812 122.512 42.9678 122.219V123.059H42.0478V115.639H43.0078V118.559C43.2212 118.279 43.4878 118.069 43.8078 117.929C44.1278 117.782 44.4778 117.709 44.8578 117.709ZM44.7778 122.279C45.1178 122.279 45.4212 122.202 45.6878 122.049C45.9612 121.889 46.1745 121.669 46.3278 121.389C46.4878 121.102 46.5678 120.775 46.5678 120.409C46.5678 120.042 46.4878 119.719 46.3278 119.439C46.1745 119.152 45.9612 118.932 45.6878 118.779C45.4212 118.625 45.1178 118.549 44.7778 118.549C44.4445 118.549 44.1412 118.625 43.8678 118.779C43.5945 118.932 43.3812 119.152 43.2278 119.439C43.0745 119.719 42.9978 120.042 42.9978 120.409C42.9978 120.775 43.0745 121.102 43.2278 121.389C43.3812 121.669 43.5945 121.889 43.8678 122.049C44.1412 122.202 44.4445 122.279 44.7778 122.279ZM53.7298 123.139C53.2031 123.139 52.6931 123.059 52.1998 122.899C51.7131 122.732 51.3298 122.519 51.0498 122.259L51.4198 121.479C51.6864 121.719 52.0264 121.915 52.4398 122.069C52.8598 122.215 53.2898 122.289 53.7298 122.289C54.3098 122.289 54.7431 122.192 55.0298 121.999C55.3164 121.799 55.4598 121.535 55.4598 121.209C55.4598 120.969 55.3798 120.775 55.2198 120.629C55.0664 120.475 54.8731 120.359 54.6398 120.279C54.4131 120.199 54.0898 120.109 53.6698 120.009C53.1431 119.882 52.7164 119.755 52.3898 119.629C52.0698 119.502 51.7931 119.309 51.5598 119.049C51.3331 118.782 51.2198 118.425 51.2198 117.979C51.2198 117.605 51.3164 117.269 51.5098 116.969C51.7098 116.669 52.0098 116.429 52.4098 116.249C52.8098 116.069 53.3064 115.979 53.8998 115.979C54.3131 115.979 54.7198 116.032 55.1198 116.139C55.5198 116.245 55.8631 116.399 56.1498 116.599L55.8198 117.399C55.5264 117.212 55.2131 117.072 54.8798 116.979C54.5464 116.879 54.2198 116.829 53.8998 116.829C53.3331 116.829 52.9064 116.932 52.6198 117.139C52.3398 117.345 52.1998 117.612 52.1998 117.939C52.1998 118.179 52.2798 118.375 52.4398 118.529C52.5998 118.675 52.7964 118.792 53.0298 118.879C53.2698 118.959 53.5931 119.045 53.9998 119.139C54.5264 119.265 54.9498 119.392 55.2698 119.519C55.5898 119.645 55.8631 119.839 56.0898 120.099C56.3231 120.359 56.4398 120.709 56.4398 121.149C56.4398 121.515 56.3398 121.852 56.1398 122.159C55.9398 122.459 55.6364 122.699 55.2298 122.879C54.8231 123.052 54.3231 123.139 53.7298 123.139ZM62.5507 120.439C62.5507 120.512 62.544 120.609 62.5307 120.729H58.2307C58.2907 121.195 58.494 121.572 58.8407 121.859C59.194 122.139 59.6307 122.279 60.1507 122.279C60.784 122.279 61.294 122.065 61.6807 121.639L62.2107 122.259C61.9707 122.539 61.6707 122.752 61.3107 122.899C60.9574 123.045 60.5607 123.119 60.1207 123.119C59.5607 123.119 59.064 123.005 58.6307 122.779C58.1974 122.545 57.8607 122.222 57.6207 121.809C57.3874 121.395 57.2707 120.929 57.2707 120.409C57.2707 119.895 57.384 119.432 57.6107 119.019C57.844 118.605 58.1607 118.285 58.5607 118.059C58.9674 117.825 59.424 117.709 59.9307 117.709C60.4374 117.709 60.8874 117.825 61.2807 118.059C61.6807 118.285 61.9907 118.605 62.2107 119.019C62.4374 119.432 62.5507 119.905 62.5507 120.439ZM59.9307 118.519C59.4707 118.519 59.084 118.659 58.7707 118.939C58.464 119.219 58.284 119.585 58.2307 120.039H61.6307C61.5774 119.592 61.394 119.229 61.0807 118.949C60.774 118.662 60.3907 118.519 59.9307 118.519ZM64.8038 118.649C64.9704 118.342 65.2171 118.109 65.5438 117.949C65.8704 117.789 66.2671 117.709 66.7338 117.709V118.639C66.6804 118.632 66.6071 118.629 66.5138 118.629C65.9938 118.629 65.5838 118.785 65.2838 119.099C64.9904 119.405 64.8438 119.845 64.8438 120.419V123.059H63.8838V117.759H64.8038V118.649ZM72.8218 117.759L70.5018 123.059H69.5218L67.2018 117.759H68.2018L70.0218 122.009L71.8818 117.759H72.8218ZM73.7177 117.759H74.6777V123.059H73.7177V117.759ZM74.1977 116.739C74.0111 116.739 73.8544 116.679 73.7277 116.559C73.6077 116.439 73.5477 116.292 73.5477 116.119C73.5477 115.945 73.6077 115.799 73.7277 115.679C73.8544 115.552 74.0111 115.489 74.1977 115.489C74.3844 115.489 74.5377 115.549 74.6577 115.669C74.7844 115.782 74.8477 115.925 74.8477 116.099C74.8477 116.279 74.7844 116.432 74.6577 116.559C74.5377 116.679 74.3844 116.739 74.1977 116.739ZM78.8207 123.119C78.2807 123.119 77.7974 123.002 77.3707 122.769C76.9507 122.535 76.6207 122.215 76.3807 121.809C76.1407 121.395 76.0207 120.929 76.0207 120.409C76.0207 119.889 76.1407 119.425 76.3807 119.019C76.6207 118.605 76.9507 118.285 77.3707 118.059C77.7974 117.825 78.2807 117.709 78.8207 117.709C79.3007 117.709 79.7274 117.805 80.1007 117.999C80.4807 118.192 80.774 118.472 80.9807 118.839L80.2507 119.309C80.084 119.055 79.8774 118.865 79.6307 118.739C79.384 118.612 79.1107 118.549 78.8107 118.549C78.464 118.549 78.1507 118.625 77.8707 118.779C77.5974 118.932 77.3807 119.152 77.2207 119.439C77.0674 119.719 76.9907 120.042 76.9907 120.409C76.9907 120.782 77.0674 121.112 77.2207 121.399C77.3807 121.679 77.5974 121.895 77.8707 122.049C78.1507 122.202 78.464 122.279 78.8107 122.279C79.1107 122.279 79.384 122.215 79.6307 122.089C79.8774 121.962 80.084 121.772 80.2507 121.519L80.9807 121.979C80.774 122.345 80.4807 122.629 80.1007 122.829C79.7274 123.022 79.3007 123.119 78.8207 123.119ZM86.9355 120.439C86.9355 120.512 86.9288 120.609 86.9155 120.729H82.6155C82.6755 121.195 82.8788 121.572 83.2255 121.859C83.5788 122.139 84.0155 122.279 84.5355 122.279C85.1688 122.279 85.6788 122.065 86.0655 121.639L86.5955 122.259C86.3555 122.539 86.0555 122.752 85.6955 122.899C85.3421 123.045 84.9455 123.119 84.5055 123.119C83.9455 123.119 83.4488 123.005 83.0155 122.779C82.5821 122.545 82.2455 122.222 82.0055 121.809C81.7721 121.395 81.6555 120.929 81.6555 120.409C81.6555 119.895 81.7688 119.432 81.9955 119.019C82.2288 118.605 82.5455 118.285 82.9455 118.059C83.3521 117.825 83.8088 117.709 84.3155 117.709C84.8221 117.709 85.2721 117.825 85.6655 118.059C86.0655 118.285 86.3755 118.605 86.5955 119.019C86.8221 119.432 86.9355 119.905 86.9355 120.439ZM84.3155 118.519C83.8555 118.519 83.4688 118.659 83.1555 118.939C82.8488 119.219 82.6688 119.585 82.6155 120.039H86.0155C85.9621 119.592 85.7788 119.229 85.4655 118.949C85.1588 118.662 84.7755 118.519 84.3155 118.519ZM89.7885 123.119C89.3552 123.119 88.9385 123.062 88.5385 122.949C88.1385 122.829 87.8252 122.679 87.5985 122.499L87.9985 121.739C88.2319 121.905 88.5152 122.039 88.8485 122.139C89.1819 122.239 89.5185 122.289 89.8585 122.289C90.6985 122.289 91.1185 122.049 91.1185 121.569C91.1185 121.409 91.0619 121.282 90.9485 121.189C90.8352 121.095 90.6919 121.029 90.5185 120.989C90.3519 120.942 90.1119 120.892 89.7985 120.839C89.3719 120.772 89.0219 120.695 88.7485 120.609C88.4819 120.522 88.2519 120.375 88.0585 120.169C87.8652 119.962 87.7685 119.672 87.7685 119.299C87.7685 118.819 87.9685 118.435 88.3685 118.149C88.7685 117.855 89.3052 117.709 89.9785 117.709C90.3319 117.709 90.6852 117.752 91.0385 117.839C91.3919 117.925 91.6819 118.042 91.9085 118.189L91.4985 118.949C91.0652 118.669 90.5552 118.529 89.9685 118.529C89.5619 118.529 89.2519 118.595 89.0385 118.729C88.8252 118.862 88.7185 119.039 88.7185 119.259C88.7185 119.432 88.7785 119.569 88.8985 119.669C89.0185 119.769 89.1652 119.842 89.3385 119.889C89.5185 119.935 89.7685 119.989 90.0885 120.049C90.5152 120.122 90.8585 120.202 91.1185 120.289C91.3852 120.369 91.6119 120.509 91.7985 120.709C91.9852 120.909 92.0785 121.189 92.0785 121.549C92.0785 122.029 91.8719 122.412 91.4585 122.699C91.0519 122.979 90.4952 123.119 89.7885 123.119Z" fill="white"/>
<path d="M15.1951 111.833V105.32L10.8536 107.491V114.003L15.1951 111.833Z" fill="white"/>
<path d="M5.4268 105.32L9.76832 107.491V114.003L5.4268 111.833V105.32Z" fill="white"/>
<path d="M10.3113 106.405L13.0248 105.319L10.3113 103.691L7.59787 105.319L10.3113 106.405Z" fill="white"/>
<path d="M9.76828 102.606V96.0938L5.42676 98.2645V104.777L9.76828 102.606Z" fill="white"/>
<path d="M0 96.0938L4.34152 98.2645V104.777L0 102.606V96.0938Z" fill="white"/>
<path d="M4.88411 97.1783L7.59756 96.0929L4.88411 94.4648L2.17065 96.0929L4.88411 97.1783Z" fill="white"/>
<path d="M20.6224 102.606V96.0938L16.2809 98.2645V104.777L20.6224 102.606Z" fill="white"/>
<path d="M10.8536 96.0938L15.1952 98.2645V104.777L10.8536 102.606V96.0938Z" fill="white"/>
<path d="M15.7381 97.1783L18.4516 96.0929L15.7381 94.4648L13.0247 96.0929L15.7381 97.1783Z" fill="white"/>
<path d="M26.0492 92.8404V86.3281L21.7076 88.4989V95.0112L26.0492 92.8404Z" fill="white"/>
<path d="M16.2808 86.3281L20.6224 88.4989V95.0112L16.2808 92.8404V86.3281Z" fill="white"/>
<path d="M21.1649 87.4127L23.8784 86.3273L21.1649 84.6992L18.4515 86.3273L21.1649 87.4127Z" fill="white"/>
<path d="M36.9028 92.8404V86.3281L32.5612 88.4989V95.0112L36.9028 92.8404Z" fill="white"/>
<path d="M27.1344 86.3281L31.476 88.4989V95.0112L27.1344 92.8404V86.3281Z" fill="white"/>
<path d="M32.0185 87.4127L34.732 86.3273L32.0185 84.6992L29.3051 86.3273L32.0185 87.4127Z" fill="white"/>
<path d="M132.473 186.18L132.463 181.08L129.933 185.33H129.473L126.943 181.11V186.18H125.983V179.18H126.803L129.723 184.1L132.603 179.18H133.423L133.433 186.18H132.473ZM135.394 180.88H136.354V186.18H135.394V180.88ZM135.874 179.86C135.687 179.86 135.531 179.8 135.404 179.68C135.284 179.56 135.224 179.413 135.224 179.24C135.224 179.066 135.284 178.92 135.404 178.8C135.531 178.673 135.687 178.61 135.874 178.61C136.061 178.61 136.214 178.67 136.334 178.79C136.461 178.903 136.524 179.046 136.524 179.22C136.524 179.4 136.461 179.553 136.334 179.68C136.214 179.8 136.061 179.86 135.874 179.86ZM140.497 186.24C139.957 186.24 139.474 186.123 139.047 185.89C138.627 185.656 138.297 185.336 138.057 184.93C137.817 184.516 137.697 184.05 137.697 183.53C137.697 183.01 137.817 182.546 138.057 182.14C138.297 181.726 138.627 181.406 139.047 181.18C139.474 180.946 139.957 180.83 140.497 180.83C140.977 180.83 141.404 180.926 141.777 181.12C142.157 181.313 142.45 181.593 142.657 181.96L141.927 182.43C141.76 182.176 141.554 181.986 141.307 181.86C141.06 181.733 140.787 181.67 140.487 181.67C140.14 181.67 139.827 181.746 139.547 181.9C139.274 182.053 139.057 182.273 138.897 182.56C138.744 182.84 138.667 183.163 138.667 183.53C138.667 183.903 138.744 184.233 138.897 184.52C139.057 184.8 139.274 185.016 139.547 185.17C139.827 185.323 140.14 185.4 140.487 185.4C140.787 185.4 141.06 185.336 141.307 185.21C141.554 185.083 141.76 184.893 141.927 184.64L142.657 185.1C142.45 185.466 142.157 185.75 141.777 185.95C141.404 186.143 140.977 186.24 140.497 186.24ZM144.82 181.77C144.986 181.463 145.233 181.23 145.56 181.07C145.886 180.91 146.283 180.83 146.75 180.83V181.76C146.696 181.753 146.623 181.75 146.53 181.75C146.01 181.75 145.6 181.906 145.3 182.22C145.006 182.526 144.86 182.966 144.86 183.54V186.18H143.9V180.88H144.82V181.77ZM150.154 186.24C149.627 186.24 149.154 186.123 148.734 185.89C148.314 185.656 147.984 185.336 147.744 184.93C147.511 184.516 147.394 184.05 147.394 183.53C147.394 183.01 147.511 182.546 147.744 182.14C147.984 181.726 148.314 181.406 148.734 181.18C149.154 180.946 149.627 180.83 150.154 180.83C150.681 180.83 151.151 180.946 151.564 181.18C151.984 181.406 152.311 181.726 152.544 182.14C152.784 182.546 152.904 183.01 152.904 183.53C152.904 184.05 152.784 184.516 152.544 184.93C152.311 185.336 151.984 185.656 151.564 185.89C151.151 186.123 150.681 186.24 150.154 186.24ZM150.154 185.4C150.494 185.4 150.797 185.323 151.064 185.17C151.337 185.01 151.551 184.79 151.704 184.51C151.857 184.223 151.934 183.896 151.934 183.53C151.934 183.163 151.857 182.84 151.704 182.56C151.551 182.273 151.337 182.053 151.064 181.9C150.797 181.746 150.494 181.67 150.154 181.67C149.814 181.67 149.507 181.746 149.234 181.9C148.967 182.053 148.754 182.273 148.594 182.56C148.441 182.84 148.364 183.163 148.364 183.53C148.364 183.896 148.441 184.223 148.594 184.51C148.754 184.79 148.967 185.01 149.234 185.17C149.507 185.323 149.814 185.4 150.154 185.4ZM155.752 186.24C155.318 186.24 154.902 186.183 154.502 186.07C154.102 185.95 153.788 185.8 153.562 185.62L153.962 184.86C154.195 185.026 154.478 185.16 154.812 185.26C155.145 185.36 155.482 185.41 155.822 185.41C156.662 185.41 157.082 185.17 157.082 184.69C157.082 184.53 157.025 184.403 156.912 184.31C156.798 184.216 156.655 184.15 156.482 184.11C156.315 184.063 156.075 184.013 155.762 183.96C155.335 183.893 154.985 183.816 154.712 183.73C154.445 183.643 154.215 183.496 154.022 183.29C153.828 183.083 153.732 182.793 153.732 182.42C153.732 181.94 153.932 181.556 154.332 181.27C154.732 180.976 155.268 180.83 155.942 180.83C156.295 180.83 156.648 180.873 157.002 180.96C157.355 181.046 157.645 181.163 157.872 181.31L157.462 182.07C157.028 181.79 156.518 181.65 155.932 181.65C155.525 181.65 155.215 181.716 155.002 181.85C154.788 181.983 154.682 182.16 154.682 182.38C154.682 182.553 154.742 182.69 154.862 182.79C154.982 182.89 155.128 182.963 155.302 183.01C155.482 183.056 155.732 183.11 156.052 183.17C156.478 183.243 156.822 183.323 157.082 183.41C157.348 183.49 157.575 183.63 157.762 183.83C157.948 184.03 158.042 184.31 158.042 184.67C158.042 185.15 157.835 185.533 157.422 185.82C157.015 186.1 156.458 186.24 155.752 186.24ZM161.512 186.24C160.985 186.24 160.512 186.123 160.092 185.89C159.672 185.656 159.342 185.336 159.102 184.93C158.868 184.516 158.752 184.05 158.752 183.53C158.752 183.01 158.868 182.546 159.102 182.14C159.342 181.726 159.672 181.406 160.092 181.18C160.512 180.946 160.985 180.83 161.512 180.83C162.038 180.83 162.508 180.946 162.922 181.18C163.342 181.406 163.668 181.726 163.902 182.14C164.142 182.546 164.262 183.01 164.262 183.53C164.262 184.05 164.142 184.516 163.902 184.93C163.668 185.336 163.342 185.656 162.922 185.89C162.508 186.123 162.038 186.24 161.512 186.24ZM161.512 185.4C161.852 185.4 162.155 185.323 162.422 185.17C162.695 185.01 162.908 184.79 163.062 184.51C163.215 184.223 163.292 183.896 163.292 183.53C163.292 183.163 163.215 182.84 163.062 182.56C162.908 182.273 162.695 182.053 162.422 181.9C162.155 181.746 161.852 181.67 161.512 181.67C161.172 181.67 160.865 181.746 160.592 181.9C160.325 182.053 160.112 182.273 159.952 182.56C159.798 182.84 159.722 183.163 159.722 183.53C159.722 183.896 159.798 184.223 159.952 184.51C160.112 184.79 160.325 185.01 160.592 185.17C160.865 185.323 161.172 185.4 161.512 185.4ZM167.529 179.49C166.956 179.49 166.669 179.8 166.669 180.42V180.88H168.209V181.67H166.689V186.18H165.729V181.67H164.829V180.88H165.729V180.41C165.729 179.883 165.883 179.466 166.189 179.16C166.496 178.853 166.926 178.7 167.479 178.7C167.693 178.7 167.893 178.726 168.079 178.78C168.266 178.833 168.426 178.91 168.559 179.01L168.269 179.74C168.049 179.573 167.803 179.49 167.529 179.49ZM172.095 185.87C171.955 185.99 171.781 186.083 171.575 186.15C171.368 186.21 171.155 186.24 170.935 186.24C170.401 186.24 169.988 186.096 169.695 185.81C169.401 185.523 169.255 185.113 169.255 184.58V181.67H168.355V180.88H169.255V179.72H170.215V180.88H171.735V181.67H170.215V184.54C170.215 184.826 170.285 185.046 170.425 185.2C170.571 185.353 170.778 185.43 171.045 185.43C171.338 185.43 171.588 185.346 171.795 185.18L172.095 185.87ZM130.443 196.43H126.723L125.953 198.18H124.923L128.093 191.18H129.083L132.263 198.18H131.213L130.443 196.43ZM130.093 195.63L128.583 192.2L127.073 195.63H130.093ZM137.078 197.39V198.18H132.638V197.56L135.768 193.67H132.698V192.88H136.998V193.51L133.868 197.39H137.078ZM143.303 192.88V198.18H142.393V197.38C142.199 197.653 141.943 197.866 141.623 198.02C141.309 198.166 140.966 198.24 140.593 198.24C139.886 198.24 139.329 198.046 138.923 197.66C138.516 197.266 138.313 196.69 138.313 195.93V192.88H139.273V195.82C139.273 196.333 139.396 196.723 139.643 196.99C139.889 197.25 140.243 197.38 140.703 197.38C141.209 197.38 141.609 197.226 141.903 196.92C142.196 196.613 142.343 196.18 142.343 195.62V192.88H143.303ZM146.05 193.77C146.217 193.463 146.464 193.23 146.79 193.07C147.117 192.91 147.514 192.83 147.98 192.83V193.76C147.927 193.753 147.854 193.75 147.76 193.75C147.24 193.75 146.83 193.906 146.53 194.22C146.237 194.526 146.09 194.966 146.09 195.54V198.18H145.13V192.88H146.05V193.77ZM153.905 195.56C153.905 195.633 153.898 195.73 153.885 195.85H149.585C149.645 196.316 149.848 196.693 150.195 196.98C150.548 197.26 150.985 197.4 151.505 197.4C152.138 197.4 152.648 197.186 153.035 196.76L153.565 197.38C153.325 197.66 153.025 197.873 152.665 198.02C152.311 198.166 151.915 198.24 151.475 198.24C150.915 198.24 150.418 198.126 149.985 197.9C149.551 197.666 149.215 197.343 148.975 196.93C148.741 196.516 148.625 196.05 148.625 195.53C148.625 195.016 148.738 194.553 148.965 194.14C149.198 193.726 149.515 193.406 149.915 193.18C150.321 192.946 150.778 192.83 151.285 192.83C151.791 192.83 152.241 192.946 152.635 193.18C153.035 193.406 153.345 193.726 153.565 194.14C153.791 194.553 153.905 195.026 153.905 195.56ZM151.285 193.64C150.825 193.64 150.438 193.78 150.125 194.06C149.818 194.34 149.638 194.706 149.585 195.16H152.985C152.931 194.713 152.748 194.35 152.435 194.07C152.128 193.783 151.745 193.64 151.285 193.64Z" fill="white"/>
<path d="M98.9126 192.378L92.192 193.499L98.9126 181.178L107.873 174.457L98.9126 192.378Z" fill="white"/>
<path d="M119.074 194.621L108.993 176.699L105.633 184.54L112.354 193.501L100.033 194.621H119.074Z" fill="white"/>
<path d="M217.876 101.223L220.513 105.618H207.767L203.812 112.65L201.174 107.816L204.691 101.223H217.876Z" fill="white" stroke="white" stroke-linejoin="round"/>
<path d="M197.188 114.379L199.736 109.931L205.962 121.053L213.921 121.053L211.099 125.733L203.629 125.885L197.188 114.379Z" fill="white" stroke="white" stroke-linejoin="round"/>
<path d="M218.517 126.25L213.366 126.305L220.022 115.153L216.049 108.088L221.582 108.042L225.403 114.714L218.517 126.25Z" fill="white" stroke="white" stroke-linejoin="round"/>
<path d="M182.305 140.89H183.265V143.62C182.919 143.906 182.515 144.126 182.055 144.28C181.595 144.433 181.115 144.51 180.615 144.51C179.909 144.51 179.272 144.356 178.705 144.05C178.139 143.736 177.692 143.31 177.365 142.77C177.045 142.223 176.885 141.61 176.885 140.93C176.885 140.25 177.045 139.636 177.365 139.09C177.692 138.543 178.139 138.116 178.705 137.81C179.279 137.503 179.922 137.35 180.635 137.35C181.195 137.35 181.702 137.443 182.155 137.63C182.615 137.81 183.005 138.076 183.325 138.43L182.705 139.05C182.145 138.51 181.469 138.24 180.675 138.24C180.142 138.24 179.662 138.356 179.235 138.59C178.815 138.816 178.485 139.136 178.245 139.55C178.005 139.956 177.885 140.416 177.885 140.93C177.885 141.436 178.005 141.896 178.245 142.31C178.485 142.716 178.815 143.036 179.235 143.27C179.662 143.503 180.139 143.62 180.665 143.62C181.292 143.62 181.839 143.47 182.305 143.17V140.89ZM187.31 144.49C186.783 144.49 186.31 144.373 185.89 144.14C185.47 143.906 185.14 143.586 184.9 143.18C184.667 142.766 184.55 142.3 184.55 141.78C184.55 141.26 184.667 140.796 184.9 140.39C185.14 139.976 185.47 139.656 185.89 139.43C186.31 139.196 186.783 139.08 187.31 139.08C187.837 139.08 188.307 139.196 188.72 139.43C189.14 139.656 189.467 139.976 189.7 140.39C189.94 140.796 190.06 141.26 190.06 141.78C190.06 142.3 189.94 142.766 189.7 143.18C189.467 143.586 189.14 143.906 188.72 144.14C188.307 144.373 187.837 144.49 187.31 144.49ZM187.31 143.65C187.65 143.65 187.953 143.573 188.22 143.42C188.493 143.26 188.707 143.04 188.86 142.76C189.013 142.473 189.09 142.146 189.09 141.78C189.09 141.413 189.013 141.09 188.86 140.81C188.707 140.523 188.493 140.303 188.22 140.15C187.953 139.996 187.65 139.92 187.31 139.92C186.97 139.92 186.663 139.996 186.39 140.15C186.123 140.303 185.91 140.523 185.75 140.81C185.597 141.09 185.52 141.413 185.52 141.78C185.52 142.146 185.597 142.473 185.75 142.76C185.91 143.04 186.123 143.26 186.39 143.42C186.663 143.573 186.97 143.65 187.31 143.65ZM193.658 144.49C193.131 144.49 192.658 144.373 192.238 144.14C191.818 143.906 191.488 143.586 191.248 143.18C191.014 142.766 190.898 142.3 190.898 141.78C190.898 141.26 191.014 140.796 191.248 140.39C191.488 139.976 191.818 139.656 192.238 139.43C192.658 139.196 193.131 139.08 193.658 139.08C194.184 139.08 194.654 139.196 195.068 139.43C195.488 139.656 195.814 139.976 196.048 140.39C196.288 140.796 196.408 141.26 196.408 141.78C196.408 142.3 196.288 142.766 196.048 143.18C195.814 143.586 195.488 143.906 195.068 144.14C194.654 144.373 194.184 144.49 193.658 144.49ZM193.658 143.65C193.998 143.65 194.301 143.573 194.568 143.42C194.841 143.26 195.054 143.04 195.208 142.76C195.361 142.473 195.438 142.146 195.438 141.78C195.438 141.413 195.361 141.09 195.208 140.81C195.054 140.523 194.841 140.303 194.568 140.15C194.301 139.996 193.998 139.92 193.658 139.92C193.318 139.92 193.011 139.996 192.738 140.15C192.471 140.303 192.258 140.523 192.098 140.81C191.944 141.09 191.868 141.413 191.868 141.78C191.868 142.146 191.944 142.473 192.098 142.76C192.258 143.04 192.471 143.26 192.738 143.42C193.011 143.573 193.318 143.65 193.658 143.65ZM202.805 139.13V143.71C202.805 144.636 202.575 145.32 202.115 145.76C201.655 146.206 200.969 146.43 200.055 146.43C199.555 146.43 199.079 146.36 198.625 146.22C198.172 146.086 197.805 145.893 197.525 145.64L197.985 144.9C198.232 145.113 198.535 145.28 198.895 145.4C199.262 145.526 199.639 145.59 200.025 145.59C200.645 145.59 201.102 145.443 201.395 145.15C201.695 144.856 201.845 144.41 201.845 143.81V143.39C201.619 143.663 201.339 143.87 201.005 144.01C200.679 144.143 200.322 144.21 199.935 144.21C199.429 144.21 198.969 144.103 198.555 143.89C198.149 143.67 197.829 143.366 197.595 142.98C197.362 142.586 197.245 142.14 197.245 141.64C197.245 141.14 197.362 140.696 197.595 140.31C197.829 139.916 198.149 139.613 198.555 139.4C198.969 139.186 199.429 139.08 199.935 139.08C200.335 139.08 200.705 139.153 201.045 139.3C201.392 139.446 201.675 139.663 201.895 139.95V139.13H202.805ZM200.045 143.37C200.392 143.37 200.702 143.296 200.975 143.15C201.255 143.003 201.472 142.8 201.625 142.54C201.785 142.273 201.865 141.973 201.865 141.64C201.865 141.126 201.695 140.713 201.355 140.4C201.015 140.08 200.579 139.92 200.045 139.92C199.505 139.92 199.065 140.08 198.725 140.4C198.385 140.713 198.215 141.126 198.215 141.64C198.215 141.973 198.292 142.273 198.445 142.54C198.605 142.8 198.822 143.003 199.095 143.15C199.375 143.296 199.692 143.37 200.045 143.37ZM204.64 137.01H205.6V144.43H204.64V137.01ZM212.223 141.81C212.223 141.883 212.216 141.98 212.203 142.1H207.903C207.963 142.566 208.166 142.943 208.513 143.23C208.866 143.51 209.303 143.65 209.823 143.65C210.456 143.65 210.966 143.436 211.353 143.01L211.883 143.63C211.643 143.91 211.343 144.123 210.983 144.27C210.629 144.416 210.233 144.49 209.793 144.49C209.233 144.49 208.736 144.376 208.303 144.15C207.869 143.916 207.533 143.593 207.293 143.18C207.059 142.766 206.943 142.3 206.943 141.78C206.943 141.266 207.056 140.803 207.283 140.39C207.516 139.976 207.833 139.656 208.233 139.43C208.639 139.196 209.096 139.08 209.603 139.08C210.109 139.08 210.559 139.196 210.953 139.43C211.353 139.656 211.663 139.976 211.883 140.39C212.109 140.803 212.223 141.276 212.223 141.81ZM209.603 139.89C209.143 139.89 208.756 140.03 208.443 140.31C208.136 140.59 207.956 140.956 207.903 141.41H211.303C211.249 140.963 211.066 140.6 210.753 140.32C210.446 140.033 210.063 139.89 209.603 139.89ZM219.511 144.51C218.811 144.51 218.178 144.356 217.611 144.05C217.051 143.736 216.611 143.31 216.291 142.77C215.971 142.223 215.811 141.61 215.811 140.93C215.811 140.25 215.971 139.64 216.291 139.1C216.611 138.553 217.055 138.126 217.621 137.82C218.188 137.506 218.821 137.35 219.521 137.35C220.068 137.35 220.568 137.443 221.021 137.63C221.475 137.81 221.861 138.08 222.181 138.44L221.531 139.07C221.005 138.516 220.348 138.24 219.561 138.24C219.041 138.24 218.571 138.356 218.151 138.59C217.731 138.823 217.401 139.146 217.161 139.56C216.928 139.966 216.811 140.423 216.811 140.93C216.811 141.436 216.928 141.896 217.161 142.31C217.401 142.716 217.731 143.036 218.151 143.27C218.571 143.503 219.041 143.62 219.561 143.62C220.341 143.62 220.998 143.34 221.531 142.78L222.181 143.41C221.861 143.77 221.471 144.043 221.011 144.23C220.558 144.416 220.058 144.51 219.511 144.51ZM223.468 137.01H224.428V144.43H223.468V137.01ZM228.531 144.49C228.004 144.49 227.531 144.373 227.111 144.14C226.691 143.906 226.361 143.586 226.121 143.18C225.887 142.766 225.771 142.3 225.771 141.78C225.771 141.26 225.887 140.796 226.121 140.39C226.361 139.976 226.691 139.656 227.111 139.43C227.531 139.196 228.004 139.08 228.531 139.08C229.057 139.08 229.527 139.196 229.941 139.43C230.361 139.656 230.687 139.976 230.921 140.39C231.161 140.796 231.281 141.26 231.281 141.78C231.281 142.3 231.161 142.766 230.921 143.18C230.687 143.586 230.361 143.906 229.941 144.14C229.527 144.373 229.057 144.49 228.531 144.49ZM228.531 143.65C228.871 143.65 229.174 143.573 229.441 143.42C229.714 143.26 229.927 143.04 230.081 142.76C230.234 142.473 230.311 142.146 230.311 141.78C230.311 141.413 230.234 141.09 230.081 140.81C229.927 140.523 229.714 140.303 229.441 140.15C229.174 139.996 228.871 139.92 228.531 139.92C228.191 139.92 227.884 139.996 227.611 140.15C227.344 140.303 227.131 140.523 226.971 140.81C226.817 141.09 226.741 141.413 226.741 141.78C226.741 142.146 226.817 142.473 226.971 142.76C227.131 143.04 227.344 143.26 227.611 143.42C227.884 143.573 228.191 143.65 228.531 143.65ZM237.548 139.13V144.43H236.638V143.63C236.445 143.903 236.188 144.116 235.868 144.27C235.555 144.416 235.212 144.49 234.838 144.49C234.132 144.49 233.575 144.296 233.168 143.91C232.762 143.516 232.558 142.94 232.558 142.18V139.13H233.518V142.07C233.518 142.583 233.642 142.973 233.888 143.24C234.135 143.5 234.488 143.63 234.948 143.63C235.455 143.63 235.855 143.476 236.148 143.17C236.442 142.863 236.588 142.43 236.588 141.87V139.13H237.548ZM244.376 137.01V144.43H243.456V143.59C243.243 143.883 242.973 144.106 242.646 144.26C242.319 144.413 241.959 144.49 241.566 144.49C241.053 144.49 240.593 144.376 240.186 144.15C239.779 143.923 239.459 143.606 239.226 143.2C238.999 142.786 238.886 142.313 238.886 141.78C238.886 141.246 238.999 140.776 239.226 140.37C239.459 139.963 239.779 139.646 240.186 139.42C240.593 139.193 241.053 139.08 241.566 139.08C241.946 139.08 242.296 139.153 242.616 139.3C242.936 139.44 243.203 139.65 243.416 139.93V137.01H244.376ZM241.646 143.65C241.979 143.65 242.283 143.573 242.556 143.42C242.829 143.26 243.043 143.04 243.196 142.76C243.349 142.473 243.426 142.146 243.426 141.78C243.426 141.413 243.349 141.09 243.196 140.81C243.043 140.523 242.829 140.303 242.556 140.15C242.283 139.996 241.979 139.92 241.646 139.92C241.306 139.92 240.999 139.996 240.726 140.15C240.459 140.303 240.246 140.523 240.086 140.81C239.933 141.09 239.856 141.413 239.856 141.78C239.856 142.146 239.933 142.473 240.086 142.76C240.246 143.04 240.459 143.26 240.726 143.42C240.999 143.573 241.306 143.65 241.646 143.65ZM192.363 149.43C193.27 149.43 193.983 149.646 194.503 150.08C195.023 150.513 195.283 151.11 195.283 151.87C195.283 152.63 195.023 153.226 194.503 153.66C193.983 154.093 193.27 154.31 192.363 154.31H190.633V156.43H189.633V149.43H192.363ZM192.333 153.44C192.966 153.44 193.45 153.306 193.783 153.04C194.116 152.766 194.283 152.376 194.283 151.87C194.283 151.363 194.116 150.976 193.783 150.71C193.45 150.436 192.966 150.3 192.333 150.3H190.633V153.44H192.333ZM196.71 149.01H197.67V156.43H196.71V149.01ZM201.433 151.08C202.166 151.08 202.726 151.26 203.113 151.62C203.506 151.98 203.703 152.516 203.703 153.23V156.43H202.793V155.73C202.633 155.976 202.403 156.166 202.103 156.3C201.81 156.426 201.46 156.49 201.053 156.49C200.46 156.49 199.983 156.346 199.623 156.06C199.27 155.773 199.093 155.396 199.093 154.93C199.093 154.463 199.263 154.09 199.603 153.81C199.943 153.523 200.483 153.38 201.223 153.38H202.743V153.19C202.743 152.776 202.623 152.46 202.383 152.24C202.143 152.02 201.79 151.91 201.323 151.91C201.01 151.91 200.703 151.963 200.403 152.07C200.103 152.17 199.85 152.306 199.643 152.48L199.243 151.76C199.516 151.54 199.843 151.373 200.223 151.26C200.603 151.14 201.006 151.08 201.433 151.08ZM201.213 155.75C201.58 155.75 201.896 155.67 202.163 155.51C202.43 155.343 202.623 155.11 202.743 154.81V154.07H201.263C200.45 154.07 200.043 154.343 200.043 154.89C200.043 155.156 200.146 155.366 200.353 155.52C200.56 155.673 200.846 155.75 201.213 155.75ZM208.459 156.12C208.319 156.24 208.146 156.333 207.939 156.4C207.733 156.46 207.519 156.49 207.299 156.49C206.766 156.49 206.353 156.346 206.059 156.06C205.766 155.773 205.619 155.363 205.619 154.83V151.92H204.719V151.13H205.619V149.97H206.579V151.13H208.099V151.92H206.579V154.79C206.579 155.076 206.649 155.296 206.789 155.45C206.936 155.603 207.143 155.68 207.409 155.68C207.703 155.68 207.953 155.596 208.159 155.43L208.459 156.12ZM211.56 149.74C210.987 149.74 210.7 150.05 210.7 150.67V151.13H212.24V151.92H210.72V156.43H209.76V151.92H208.86V151.13H209.76V150.66C209.76 150.133 209.913 149.716 210.22 149.41C210.527 149.103 210.957 148.95 211.51 148.95C211.723 148.95 211.923 148.976 212.11 149.03C212.297 149.083 212.457 149.16 212.59 149.26L212.3 149.99C212.08 149.823 211.833 149.74 211.56 149.74ZM215.337 156.49C214.811 156.49 214.337 156.373 213.917 156.14C213.497 155.906 213.167 155.586 212.927 155.18C212.694 154.766 212.577 154.3 212.577 153.78C212.577 153.26 212.694 152.796 212.927 152.39C213.167 151.976 213.497 151.656 213.917 151.43C214.337 151.196 214.811 151.08 215.337 151.08C215.864 151.08 216.334 151.196 216.747 151.43C217.167 151.656 217.494 151.976 217.727 152.39C217.967 152.796 218.087 153.26 218.087 153.78C218.087 154.3 217.967 154.766 217.727 155.18C217.494 155.586 217.167 155.906 216.747 156.14C216.334 156.373 215.864 156.49 215.337 156.49ZM215.337 155.65C215.677 155.65 215.981 155.573 216.247 155.42C216.521 155.26 216.734 155.04 216.887 154.76C217.041 154.473 217.117 154.146 217.117 153.78C217.117 153.413 217.041 153.09 216.887 152.81C216.734 152.523 216.521 152.303 216.247 152.15C215.981 151.996 215.677 151.92 215.337 151.92C214.997 151.92 214.691 151.996 214.417 152.15C214.151 152.303 213.937 152.523 213.777 152.81C213.624 153.09 213.547 153.413 213.547 153.78C213.547 154.146 213.624 154.473 213.777 154.76C213.937 155.04 214.151 155.26 214.417 155.42C214.691 155.573 214.997 155.65 215.337 155.65ZM220.335 152.02C220.502 151.713 220.748 151.48 221.075 151.32C221.402 151.16 221.798 151.08 222.265 151.08V152.01C222.212 152.003 222.138 152 222.045 152C221.525 152 221.115 152.156 220.815 152.47C220.522 152.776 220.375 153.216 220.375 153.79V156.43H219.415V151.13H220.335V152.02ZM230.078 151.08C230.745 151.08 231.272 151.273 231.658 151.66C232.052 152.046 232.248 152.62 232.248 153.38V156.43H231.288V153.49C231.288 152.976 231.168 152.59 230.928 152.33C230.695 152.07 230.358 151.94 229.918 151.94C229.432 151.94 229.045 152.093 228.758 152.4C228.472 152.7 228.328 153.133 228.328 153.7V156.43H227.368V153.49C227.368 152.976 227.248 152.59 227.008 152.33C226.775 152.07 226.438 151.94 225.998 151.94C225.512 151.94 225.125 152.093 224.838 152.4C224.552 152.7 224.408 153.133 224.408 153.7V156.43H223.448V151.13H224.368V151.92C224.562 151.646 224.815 151.44 225.128 151.3C225.442 151.153 225.798 151.08 226.198 151.08C226.612 151.08 226.978 151.163 227.298 151.33C227.618 151.496 227.865 151.74 228.038 152.06C228.238 151.753 228.515 151.513 228.868 151.34C229.228 151.166 229.632 151.08 230.078 151.08Z" fill="white"/>
<defs>
<linearGradient id="paint0_linear" x1="38.8065" y1="139.322" x2="195.431" y2="121.919" gradientUnits="userSpaceOnUse">
<stop stop-color="white" stop-opacity="0.8"/>
<stop offset="1" stop-color="white" stop-opacity="0"/>
</linearGradient>
<linearGradient id="paint1_linear" x1="64.1855" y1="126.648" x2="177.925" y2="114.01" gradientUnits="userSpaceOnUse">
<stop stop-color="white" stop-opacity="0.8"/>
<stop offset="1" stop-color="white" stop-opacity="0"/>
</linearGradient>
</defs>
</svg>
