<svg xmlns="http://www.w3.org/2000/svg" xmlns:xlink="http://www.w3.org/1999/xlink" width="334" height="389" viewBox="0 0 334 389">
  <defs>
    <polygon id="man-holding-phone-a" points=".06 .74 333.261 .74 333.261 333.94 .06 333.94"/>
    <linearGradient id="man-holding-phone-b" x1="50%" x2="50%" y1="0%" y2="100%">
      <stop offset="0%" stop-color="#6BAAF7" stop-opacity=".816"/>
      <stop offset="100%" stop-color="#63CAEE" stop-opacity=".472"/>
    </linearGradient>
    <polygon id="man-holding-phone-d" points=".562 .009 181.608 .009 181.608 186.94 .562 186.94"/>
    <linearGradient id="man-holding-phone-f" x1="49.995%" x2="49.995%" y1="122.45%" y2="31.139%">
      <stop offset="0%" stop-color="#FFF100"/>
      <stop offset="100%" stop-color="#F05A28"/>
    </linearGradient>
  </defs>
  <g fill="none" fill-rule="evenodd">
    <g transform="translate(0 55)">
      <mask id="man-holding-phone-c" fill="#fff">
        <use xlink:href="#man-holding-phone-a"/>
      </mask>
      <path fill="url(#man-holding-phone-b)" d="M333.261,167.369 C333.261,259.397 258.658,334 166.63,334 C74.603,334 0,259.397 0,167.369 C0,75.344 74.603,0.74 166.63,0.74 C258.658,0.74 333.261,75.344 333.261,167.369" mask="url(#man-holding-phone-c)"/>
    </g>
    <path fill="#F9BA6E" d="M73.566,122.11 C73.566,122.11 84.149,211.97 84.505,228.439 C84.823,242.841 83.749,305.87 83.749,305.87 L177.444,305.87 C177.444,305.87 180.932,292.18 200.073,273.948 C231.357,244.149 246.346,212.477 246.346,212.477 L248.637,123.607 L73.566,122.11"/>
    <path fill="#414042" d="M250.961,274.879 C250.961,279.821 246.954,283.825 242.015,283.825 L105.708,283.825 C100.768,283.825 96.77,279.821 96.77,274.879 L96.77,9.608 C96.77,4.668 100.768,0.664 105.708,0.664 L242.015,0.664 C246.954,0.664 250.961,4.668 250.961,9.608 L250.961,274.879"/>
    <path fill="#D1D3D4" d="M96.77,254.913 L96.77,274.879 C96.77,279.821 100.768,283.825 105.708,283.825 L242.015,283.825 C246.954,283.825 250.961,279.821 250.961,274.879 L250.961,254.913 L96.77,254.913"/>
    <path fill="#231F20" d="M242.015,0.664 L173.863,0.664 L173.863,283.825 L242.015,283.825 C246.954,283.825 250.961,279.821 250.961,274.879 L250.961,9.608 C250.961,4.668 246.954,0.664 242.015,0.664"/>
    <path fill="#808285" d="M173.863,283.825 L242.015,283.825 C246.954,283.825 250.961,279.821 250.961,274.879 L250.961,254.913 L173.863,254.913 L173.863,283.825"/>
    <polygon fill="#FFF" points="109.561 254.913 238.342 254.913 238.342 14.78 109.561 14.78"/>
    <polyline fill="#184F78" points="220.846 230.151 215.066 150.778 139.816 150.778 139.813 150.87 139.737 150.778 134.041 230.151 134.752 230.151 134.041 239.912 220.846 239.912 220.133 230.151 220.846 230.151"/>
    <polyline fill="#E8AF0F" points="220.846 224.371 134.041 224.371 139.816 145 215.066 145 220.846 224.371"/>
    <polyline fill="#C48C00" points="144.106 172.369 134.041 224.371 139.737 145 144.106 150.778 144.106 172.369"/>
    <polyline fill="#A57302" points="144.106 172.369 139.737 172.369 139.737 154.815 144.106 150.778 144.106 172.369"/>
    <polyline fill="#C48C00" points="210.525 172.369 220.846 224.371 214.889 145 210.525 150.778 210.525 172.369"/>
    <polyline fill="#A57302" points="210.525 172.369 214.889 172.369 214.889 154.815 210.525 150.778 210.525 172.369"/>
    <polyline fill="#FDC518" points="220.846 234.138 134.041 234.138 139.816 154.767 215.066 154.767 220.846 234.138"/>
    <path fill="#BCBEC0" d="M161.439,163.537 C161.439,165.182 160.107,166.518 158.462,166.518 C156.814,166.518 155.48,165.182 155.48,163.537 C155.48,161.895 156.814,160.557 158.462,160.557 C160.107,160.557 161.439,161.895 161.439,163.537"/>
    <path fill="#4C3600" d="M160.483,163.537 C160.483,164.654 159.578,165.556 158.462,165.556 C157.345,165.556 156.438,164.654 156.438,163.537 C156.438,162.422 157.345,161.52 158.462,161.52 C159.578,161.52 160.483,162.422 160.483,163.537"/>
    <path fill="#BCBEC0" d="M199.406,163.537 C199.406,165.182 198.074,166.518 196.428,166.518 C194.781,166.518 193.447,165.182 193.447,163.537 C193.447,161.895 194.781,160.557 196.428,160.557 C198.074,160.557 199.406,161.895 199.406,163.537"/>
    <path fill="#4C3600" d="M198.449,163.537 C198.449,164.654 197.544,165.556 196.428,165.556 C195.311,165.556 194.399,164.654 194.399,163.537 C194.399,162.422 195.311,161.52 196.428,161.52 C197.544,161.52 198.449,162.422 198.449,163.537"/>
    <path fill="#E8AF0F" d="M177.444,208.632 C166.249,208.632 157.088,197.945 157.016,184.803 L157.016,165.891 C157.016,165.094 157.66,164.447 158.462,164.447 C159.257,164.447 159.906,165.094 159.906,165.891 L159.906,184.793 C159.964,196.341 167.83,205.746 177.444,205.746 C187.05,205.746 194.921,196.341 194.986,184.789 L194.986,165.891 C194.986,165.094 195.623,164.447 196.428,164.447 C197.223,164.447 197.871,165.094 197.871,165.891 L197.871,184.803 C197.804,197.945 188.64,208.632 177.444,208.632"/>
    <path fill="#FFF" d="M177.444,207.276 C166.249,207.276 157.088,196.588 157.016,183.445 L157.016,164.541 C157.016,163.742 157.66,163.096 158.462,163.096 C159.257,163.096 159.906,163.742 159.906,164.541 L159.906,183.436 C159.964,194.99 167.83,204.389 177.444,204.389 C187.05,204.389 194.921,194.99 194.986,183.43 L194.986,164.541 C194.986,163.742 195.623,163.096 196.428,163.096 C197.223,163.096 197.871,163.742 197.871,164.541 L197.871,183.445 C197.804,196.588 188.64,207.276 177.444,207.276"/>
    <path fill="#FFD092" d="M261.65 135.603C257.083 140.167 249.7 140.167 245.133 135.603 240.567 131.044 240.567 123.636 245.133 119.083L252.608 111.604C257.167 107.038 264.56 107.038 269.127 111.604 273.684 116.168 273.684 123.563 269.127 128.129L261.65 135.603M77.802 134.044C72.147 128.389 72.147 119.232 77.802 113.583 83.454 107.927 92.614 107.927 98.261 113.583L107.519 122.839C113.172 128.496 113.172 137.639 107.519 143.295 101.865 148.945 92.709 148.945 87.055 143.295L77.802 134.044"/>
    <path fill="#FFEDD7" d="M246.763 133.712C249.482 136.425 252.693 137.614 253.931 136.371L261.098 129.211C261.165 129.146 261.208 129.05 261.248 128.972 259.885 129.894 256.9 128.707 254.334 126.146 251.765 123.582 250.587 120.592 251.497 119.219 251.422 119.271 251.33 119.313 251.263 119.38L244.096 126.532C242.857 127.781 244.053 130.989 246.763 133.712M108.592 135.36C111.761 132.177 113.161 128.423 111.701 126.971L103.317 118.588C103.246 118.508 103.132 118.468 103.037 118.401 104.127 120.014 102.745 123.51 99.732 126.512 96.741 129.517 93.239 130.894 91.634 129.813 91.706 129.904 91.739 130.02 91.818 130.102L100.195 138.478C101.65 139.934 105.407 138.536 108.592 135.36"/>
    <path fill="#FFD092" d="M259.827 164.842C254.315 168.182 247.123 166.421 243.778 160.897 240.432 155.377 242.205 148.195 247.717 144.853L260.639 138.048C266.159 134.705 273.344 136.464 276.679 141.993 280.025 147.501 278.26 154.696 272.739 158.036L259.827 164.842M256.9 194.68C251.607 197.892 244.715 196.2 241.512 190.904 238.3 185.615 239.989 178.725 245.284 175.516L261.267 168.344C266.569 165.143 273.45 166.826 276.654 172.119 279.866 177.417 278.167 184.307 272.874 187.523L256.9 194.68M251.286 216.983C246.112 217.852 241.201 214.368 240.334 209.19 239.454 204.01 242.951 199.099 248.12 198.234L262.971 197.575C268.149 196.699 273.058 200.182 273.929 205.37 274.798 210.546 271.312 215.452 266.133 216.327L251.286 216.983"/>
    <path fill="#FFEDD7" d="M245.551 159.593C247.307 163.016 249.991 165.136 251.549 164.327L260.571 159.719C260.654 159.682 260.722 159.6 260.799 159.535 259.199 160.004 256.724 157.958 255.079 154.721 253.421 151.492 253.22 148.286 254.516 147.266 254.426 147.293 254.323 147.293 254.242 147.333L245.226 151.945C243.66 152.741 243.803 156.172 245.551 159.593M243.912 188.538C245.493 192.043 248.069 194.294 249.674 193.566L258.908 189.407C258.999 189.382 259.064 189.292 259.142 189.24 257.527 189.619 255.162 187.454 253.671 184.147 252.165 180.837 252.124 177.629 253.48 176.665 253.377 176.692 253.278 176.692 253.196 176.728L243.962 180.892C242.357 181.612 242.338 185.04 243.912 188.538"/>
    <g transform="translate(73 202)">
      <mask id="man-holding-phone-e" fill="#fff">
        <use xlink:href="#man-holding-phone-d"/>
      </mask>
      <path fill="#FFEDD7" d="M169.659,6.119 C169.659,9.491 170.903,12.228 172.449,12.228 L181.358,12.234 C181.431,12.243 181.516,12.202 181.608,12.182 C180.169,11.9 179.059,9.313 179.059,6.119 C179.059,2.93 180.18,0.349 181.608,0.062 C181.516,0.049 181.439,0.009 181.358,0.016 L172.46,0.009 C170.912,0.009 169.659,2.743 169.659,6.119" mask="url(#man-holding-phone-e)"/>
      <path fill="#1B2B41" fill-opacity=".72" d="M0.562,158.604 C27.138,176.532 59.16,187 93.63,187 C99.642,187 105.572,186.665 111.42,186.045 L111.42,103.87 L0.562,103.87 L0.562,158.604" mask="url(#man-holding-phone-e)"/>
    </g>
    <g transform="translate(177 36)">
      <polygon fill="#8F0000" fill-rule="nonzero" points="29.5 0 59 17.028 59 51.007 29.5 68 0 51.006 0 17.018" opacity=".98"/>
      <polygon fill="#000" fill-opacity=".199" points="29.573 64 26.667 62.437 4 37.097 4.4 35.775 15.547 35.775 17.584 28.832 19.376 31.466 25.365 24.575 30.311 23.213 30.533 26.77 34.002 27.148 37.472 27.224 46.478 27.451 48.024 20 55.745 29.292 55.529 36.203 43.632 36.206 43.427 42.607 55.853 43.947 56 48.47"/>
      <path fill="#FFF" fill-rule="nonzero" d="M3,38.5092606 L3,49.9832023 C3,50.1727053 3.09966702,50.3478222 3.26149989,50.4425949 L29.7514391,65.9289682 C29.9132657,66.0236773 30.1126123,66.0236773 30.2744389,65.9289682 L56.7235842,50.441534 C56.8854212,50.3467613 57,50.1716444 57,49.9821414 L57,46.2305921 L57,43.866313 L57,38.5081997 L57,36.1443449 L57,19.0145934 C57,18.8250904 56.8854212,18.6499735 56.7235842,18.5552008 L30.2744389,3.07094942 C30.1985056,3.02660049 30.1128006,3.0023031 30.0251981,3.00013531 C29.9292821,2.99794481 29.8345752,3.02238542 29.7514391,3.07094942 L3.26149989,18.5552008 C3.09966284,18.6499735 3,18.8250904 3,19.0145934 L3,28.4229073 L3,30.6291081 L3,36.1448754 L3,38.5092606 Z M30.012939,4.1426039 L55.9537285,19.3202469 L55.9537285,36.1232324 L45.5609905,36.1232324 C43.7218094,36.1232324 42.1465341,37.6809938 42.1465341,39.5465304 L42.1465341,40.0048834 C35.9005568,39.9580253 34.0379454,38.3184314 31.7148849,36.2581083 C29.7839697,34.5453453 27.3652003,32.6713212 22.5004655,31.888356 C23.4074726,30.9656877 23.9530451,29.9176813 24.4390165,29.0236369 C24.9613468,28.0629873 25.433783,27.3020682 26.1893922,26.776166 C26.7778925,26.3664778 27.7825541,26.1195891 29.0832546,26.0411865 L29.0832546,26.4719871 C29.0832546,28.3374177 30.511567,29.8637755 32.3507481,29.8637755 L45.6663226,29.8637755 C47.5055037,29.8637755 49.1549404,28.3375238 49.1549404,26.4719871 L49.1549404,23.1535089 C49.1549404,21.2880783 47.5120935,19.7850609 45.6729124,19.7850609 L32.3573379,19.7848488 C30.5181568,19.7848488 29.0832546,21.2878662 29.0832546,23.1532967 L29.0832546,23.7583549 C27.3631083,23.8443654 25.8990227,24.1860788 24.9045909,24.8783771 C23.6742862,25.7348434 23.0013947,26.8981727 22.4505713,27.9111473 C21.8997793,28.9241642 21.4482108,29.7957806 20.792139,30.4062389 C20.2326233,30.9266455 19.4489709,31.2838177 18.1752572,31.4468612 C18.0105228,29.7320825 16.5404645,28.4946155 14.8100674,28.4846428 L4.07183576,28.4846428 L4.07183576,19.3203424 L30.012939,4.1426039 Z M32.3574425,22.1189763 L45.673017,22.1189763 C46.2939956,22.1189763 46.749246,22.5234447 46.749246,23.1532967 L46.749246,26.471775 C46.749246,27.1016164 46.2874372,27.5296904 45.6664272,27.5296904 L32.3508527,27.5296904 C31.7298741,27.5296904 31.2247295,27.1016058 31.2247295,26.471775 L31.2247295,23.1532967 C31.2247295,22.5234553 31.7363907,22.1189763 32.3573379,22.1189763 L32.3574425,22.1189763 Z M4.07256796,30.6064043 L14.8097536,30.6064043 C15.4307322,30.6064043 15.892154,31.1283705 15.892154,31.7582543 L15.892154,35.0769448 C15.892154,35.7067862 15.4307635,36.1232537 14.8097536,36.1232537 L4.07256796,36.1232537 L4.07256796,30.6064043 Z M18.2395862,33.8149703 C25.7406584,33.9347173 27.8098547,35.8514226 30.2215113,37.9906788 C32.53589,40.0434693 35.3836238,42.1984273 42.1469525,42.2891367 L42.1469525,42.865189 C42.1469525,44.7306196 43.7221232,46.2020213 45.5614089,46.2020213 L55.9541469,46.2020213 L55.9541469,49.6762439 L30.0133574,64.8570697 L4.07256796,49.6762439 L4.07256796,38.456925 L14.8107996,38.456925 C16.6499806,38.456925 18.2392724,36.9422374 18.2392724,35.0768068 L18.2395862,33.8149703 Z M45.5621411,38.4572751 L55.9546699,38.4572751 L55.9546699,43.8680105 L45.5621411,43.8680105 C44.9411625,43.8680105 44.4486745,43.4366263 44.4486745,42.8067637 L44.4486745,39.5465304 C44.4486745,38.916689 44.9411102,38.4572751 45.5621411,38.4572751 L45.5621411,38.4572751 Z" opacity=".98"/>
    </g>
    <path fill="url(#man-holding-phone-f)" fill-rule="nonzero" d="M53.9135367,26.0380166 C53.8165409,25.0465564 53.6548812,23.9088153 53.3315616,22.6410468 C53.0082419,21.3895316 52.5232626,20.007989 51.8119597,18.5776859 C51.1006567,17.1473829 50.1791958,15.6683195 48.9829134,14.2217631 C48.5141001,13.6528926 47.9967888,13.1002755 47.4471456,12.5639118 C48.2716104,9.2644628 46.4448549,6.40385674 46.4448549,6.40385674 C43.2924891,6.20881543 41.2879079,7.39531681 40.5442728,7.93168043 C40.4149452,7.88292011 40.3017833,7.81790634 40.1724554,7.769146 C39.6389782,7.55785124 39.0893348,7.34655646 38.5073597,7.16776859 C37.9415505,6.98898071 37.3595752,6.82644628 36.761434,6.68016529 C36.1632929,6.53388429 35.5651518,6.42011018 34.9508446,6.32258954 C34.8376828,6.30633609 34.7406868,6.29008263 34.6275249,6.27382919 C33.2534169,1.85289256 29.3089183,0 29.3089183,0 C24.8956061,2.81184574 24.0711413,6.74517905 24.0711413,6.74517905 C24.0711413,6.74517905 24.0549754,6.82644628 24.0226433,6.97272727 C23.7801536,7.03774104 23.5376641,7.11900826 23.2951743,7.18402203 C22.9556888,7.2815427 22.6162032,7.41157025 22.2928837,7.5415978 C21.9533982,7.67162535 21.6300786,7.80165288 21.2905931,7.94793387 C20.627788,8.24049586 19.9649829,8.56556473 19.3183438,8.9231405 C18.6878706,9.28071625 18.0735635,9.6707989 17.4754223,10.077135 C17.3945924,10.0446281 17.3137625,10.0121212 17.3137625,10.0121212 C11.2030228,7.67162535 5.78742013,10.4834711 5.78742013,10.4834711 C5.28627482,17.0173554 8.22848283,21.1294766 8.81045803,21.8771351 C8.66496422,22.283471 8.53563642,22.6898071 8.40630859,23.0961433 C7.9536612,24.5752067 7.61417565,26.0867769 7.40401794,27.6633609 C7.37168599,27.8909092 7.33935404,28.1184574 7.32318806,28.3460054 C1.66509574,31.1578511 0,36.8953167 0,36.8953167 C4.70429961,42.3402203 10.2007322,42.6815426 10.2007322,42.6815426 C10.2007322,42.6815426 10.2168981,42.6652893 10.2168981,42.6652893 C10.9120352,43.9168043 11.7203341,45.1033057 12.6256289,46.2247933 C13.0136123,46.6961433 13.4015958,47.1349862 13.8219112,47.5738291 C12.1083176,52.5148759 14.0644009,56.6107437 14.0644009,56.6107437 C19.3021778,56.8057851 22.7455311,54.3027547 23.4730001,53.7338844 C23.9903115,53.9126721 24.5237887,54.0752067 25.0572661,54.2052341 C26.6738638,54.6278237 28.3227935,54.8716252 29.9717234,54.9366391 C30.3758727,54.9528926 30.7961882,54.9691461 31.2003377,54.9528926 L31.3943293,54.9528926 L31.5236572,54.9528926 L31.7823128,54.9528926 L32.0409686,54.9366391 L32.0409686,54.9528926 C34.514363,58.4961433 38.8468453,59 38.8468453,59 C41.9345471,55.7330578 42.1123727,52.4823691 42.1123727,51.783471 C42.1123727,51.783471 42.1123727,51.7672177 42.1123727,51.7347107 C42.1123727,51.6696969 42.1123727,51.6371901 42.1123727,51.6371901 C42.1123727,51.5884298 42.1123727,51.5396695 42.1123727,51.4909092 C42.759012,51.0358127 43.3733191,50.5482093 43.9552942,50.0118457 C45.1839085,48.8903581 46.2670292,47.6063361 47.172324,46.2247933 C47.2531537,46.0947659 47.3339837,45.9647383 47.4148137,45.8347107 C50.9066649,46.0297521 53.3800596,43.6567493 53.3800596,43.6567493 C52.7980843,39.9997245 50.7288391,38.2118457 50.2923577,37.8705234 C50.2923577,37.8705234 50.2761917,37.8542699 50.2438598,37.8380166 C50.2115277,37.8217631 50.2115277,37.8055096 50.2115277,37.8055096 C50.2115277,37.8055096 50.2115277,37.8055096 50.2115277,37.8055096 C50.1953619,37.7892561 50.1630298,37.7730028 50.1306979,37.7567493 C50.146864,37.5292011 50.1630298,37.3179064 50.1791958,37.0903581 C50.2115277,36.7002755 50.2115277,36.2939394 50.2115277,35.9038567 L50.2115277,35.6112947 L50.2115277,35.4650138 L50.2115277,35.3837465 C50.2115277,35.2862259 50.2115277,35.3187327 50.2115277,35.2862259 L50.1953619,35.0424242 L50.1791958,34.7173553 C50.1791958,34.6035812 50.1630298,34.5060606 50.146864,34.40854 C50.1306979,34.3110192 50.1306979,34.1972451 50.1145319,34.0997245 L50.0822,33.7909092 L50.0337021,33.4820936 C49.9690382,33.0757575 49.9043742,32.6856749 49.8073784,32.2793387 C49.4355608,30.7027549 48.8212536,29.207438 48.0291209,27.8584022 C47.2208219,26.5093663 46.2185312,25.3228649 45.0707467,24.3151515 C43.9391284,23.307438 42.6620162,22.4947659 41.3364058,21.8933884 C39.9946296,21.292011 38.6043555,20.9019284 37.2140814,20.7231405 C36.5189443,20.6256198 35.8238074,20.5931129 35.1286702,20.6093664 L34.8700146,20.6093664 L34.8053507,20.6093664 C34.7891847,20.6093664 34.7083549,20.6093664 34.7245209,20.6093664 L34.6113591,20.6093664 L34.3527033,20.6256198 C34.2557075,20.6256198 34.1587117,20.6418733 34.0778817,20.6418733 C33.7222303,20.6743802 33.3665787,20.7231405 33.0270931,20.7881543 C31.6368191,21.0482094 30.3273747,21.552066 29.1795904,22.2509642 C28.0318059,22.9498624 27.0295152,23.8112947 26.2212164,24.7865014 C25.4129174,25.7617079 24.7824444,26.8506887 24.3459629,27.9721763 C23.9094815,29.0936639 23.6669918,30.2639118 23.602328,31.3853994 C23.586162,31.6617079 23.586162,31.9542699 23.586162,32.2305784 C23.586162,32.2955922 23.586162,32.3768595 23.586162,32.4418734 L23.602328,32.6694216 C23.6184938,32.799449 23.6184938,32.9457301 23.6346599,33.0757575 C23.6831578,33.644628 23.7963196,34.1972451 23.9418136,34.7173553 C24.2489671,35.7738291 24.7339463,36.7327823 25.3320877,37.5454546 C25.9302288,38.3581266 26.6576978,39.0245178 27.4174987,39.5608816 C28.1772998,40.0809918 29.0017646,40.4548209 29.8100636,40.6986227 C30.6183624,40.9424242 31.4266614,41.039945 32.1864623,41.039945 C32.2834581,41.039945 32.3804541,41.039945 32.4612839,41.039945 C32.5097818,41.039945 32.5582797,41.039945 32.6067776,41.039945 C32.6552757,41.039945 32.7037736,41.039945 32.7522715,41.0236915 C32.8331013,41.0236915 32.9139313,41.007438 32.9947613,41.007438 C33.0109271,41.007438 33.0432592,41.007438 33.059425,40.9911845 L33.140255,40.9749312 C33.1887529,40.9749312 33.2372508,40.9586777 33.2857487,40.9586777 C33.3827447,40.9424242 33.4635745,40.9261709 33.5605703,40.9099174 C33.6575664,40.8936639 33.7383961,40.8774104 33.8192261,40.8449036 C33.9970519,40.8123968 34.1587117,40.747383 34.3203714,40.6986227 C34.6436909,40.5848485 34.9670105,40.4548209 35.2418321,40.30854 C35.5328197,40.1622589 35.7914755,39.983471 36.0501311,39.8209366 C36.114795,39.7721763 36.1956248,39.723416 36.2602887,39.6584022 C36.5189443,39.4471074 36.5674424,39.0570248 36.3572845,38.7969696 C36.179459,38.5694216 35.8561392,38.5044078 35.5974837,38.6506887 C35.5328197,38.6831955 35.4681558,38.7157025 35.4034918,38.7482093 C35.1771683,38.8619834 34.9508446,38.9595042 34.7083549,39.0407713 C34.4658651,39.1220386 34.2072096,39.1870524 33.9485538,39.2358127 C33.8192261,39.252066 33.6898982,39.2683195 33.5444045,39.284573 C33.4797406,39.284573 33.4150766,39.3008263 33.3342466,39.3008263 C33.2695829,39.3008263 33.1887529,39.3008263 33.140255,39.3008263 C33.0755911,39.3008263 33.0109271,39.3008263 32.9462632,39.3008263 C32.8654334,39.3008263 32.7846034,39.3008263 32.7037736,39.284573 C32.7037736,39.284573 32.6552757,39.284573 32.6876076,39.284573 L32.6552757,39.284573 L32.6067776,39.284573 C32.5744457,39.284573 32.5259478,39.284573 32.493616,39.2683195 C32.412786,39.252066 32.348122,39.252066 32.2672923,39.2358127 C31.6691509,39.1545454 31.0710098,38.9757575 30.5052005,38.7157025 C29.9232255,38.4556475 29.373582,38.0980716 28.8724367,37.6429752 C28.3712914,37.1878787 27.93481,36.6515152 27.5953245,36.0338844 C27.2558389,35.4162535 27.0133494,34.7336088 26.9001875,34.0184574 C26.8516894,33.6608816 26.8193576,33.2870524 26.8355236,32.9294766 C26.8355236,32.831956 26.8516894,32.7344352 26.8516894,32.6369146 C26.8516894,32.6694216 26.8516894,32.6206611 26.8516894,32.6206611 L26.8516894,32.5881543 L26.8516894,32.5068869 C26.8516894,32.4581266 26.8678555,32.4093663 26.8678555,32.360606 C26.8840215,32.1655646 26.9163534,31.9705234 26.9486855,31.775482 C27.2235071,30.2151515 27.999474,28.6873277 29.1957564,27.5333333 C29.5029099,27.2407713 29.8262294,26.9807163 30.165715,26.7369146 C30.5052005,26.4931128 30.877018,26.2818181 31.2650016,26.1030302 C31.6529851,25.9242425 32.0409686,25.7779614 32.4612839,25.6641873 C32.8654334,25.5504132 33.2857487,25.4853994 33.7222303,25.4366391 C33.932388,25.4203858 34.1425456,25.4041323 34.3688693,25.4041323 C34.4335333,25.4041323 34.4658651,25.4041323 34.514363,25.4041323 L34.6921888,25.4041323 L34.8053507,25.4041323 C34.8538486,25.4041323 34.8053507,25.4041323 34.8215167,25.4041323 L34.8700146,25.4041323 L35.0478404,25.4203858 C35.5166537,25.4528926 35.9693011,25.5179064 36.4219485,25.6316805 C37.3272433,25.8267217 38.2163721,26.168044 39.0408369,26.6231405 C40.6897668,27.5495868 42.0962069,28.9798898 42.9530036,30.7027549 C43.3894852,31.5641873 43.6966386,32.4906337 43.8421324,33.4495868 C43.8744644,33.6933884 43.9067963,33.9371901 43.9229623,34.1809918 L43.9391284,34.3597795 L43.9552942,34.5385674 C43.9552942,34.6035812 43.9552942,34.668595 43.9552942,34.7173553 C43.9552942,34.7823691 43.9552942,34.847383 43.9552942,34.8961433 L43.9552942,35.0586777 L43.9552942,35.2374656 C43.9552942,35.3512397 43.9391284,35.5462809 43.9391284,35.660055 C43.9229623,35.9201102 43.8906305,36.1964188 43.8582984,36.4564738 C43.8259665,36.7165288 43.7774686,36.976584 43.7289705,37.2366391 C43.6804726,37.4966943 43.6158087,37.7567493 43.5511449,38.000551 C43.421817,38.5044078 43.2601573,39.0082645 43.0661654,39.5121213 C42.678182,40.4873277 42.1608708,41.4300276 41.5465637,42.29146 C40.3017833,44.0143251 38.6043555,45.4121213 36.6644382,46.3060606 C35.6944795,46.7449036 34.6760228,47.0699724 33.6252343,47.2325068 C33.1079231,47.3300276 32.5744457,47.3787879 32.0409686,47.3950412 L31.9439725,47.3950412 L31.8631428,47.3950412 L31.685317,47.3950412 L31.4266614,47.3950412 L31.2973335,47.3950412 C31.3619975,47.3950412 31.2811675,47.3950412 31.2811675,47.3950412 L31.2326696,47.3950412 C30.9416819,47.3950412 30.6668603,47.3787879 30.3758727,47.3462809 C29.2442544,47.2650138 28.1288019,47.0537191 27.0295152,46.7449036 C25.9463948,46.436088 24.8956061,45.9972451 23.8933155,45.4771351 C21.9049002,44.4044078 20.1104767,42.9415978 18.7202026,41.1699724 C18.0250655,40.2922865 17.4107583,39.3333333 16.909613,38.3418734 C16.4084677,37.3504132 16.0043183,36.2939394 15.7133307,35.2374656 C15.4223431,34.1647383 15.2445173,33.0757575 15.1636874,31.9705234 L15.1475214,31.7592287 L15.1475214,31.7104684 L15.1475214,31.6617079 L15.1475214,31.5641873 L15.1475214,31.3853994 L15.1475214,31.3366391 L15.1475214,31.2716252 L15.1475214,31.1415978 L15.1475214,30.8815426 L15.1475214,30.8327823 C15.1475214,30.8327823 15.1475214,30.8490358 15.1475214,30.816529 L15.1475214,30.7190082 C15.1475214,30.5889808 15.1475214,30.4426997 15.1475214,30.3126721 C15.1636874,29.7763085 15.2121853,29.207438 15.2768492,28.6548209 C15.3415132,28.1022039 15.438509,27.5333333 15.5516709,26.9807163 C15.6648327,26.4280992 15.7941606,25.875482 15.9558203,25.3228649 C16.2629739,24.2338844 16.6509574,23.1774104 17.1036048,22.1859504 C18.0250655,20.2030303 19.2213479,18.4314049 20.6601199,17.0173554 C21.0157715,16.6597796 21.3875889,16.3347107 21.7755724,16.0096419 C22.1635558,15.7008264 22.5677053,15.4082645 22.9880209,15.1319559 C23.3921701,14.8556474 23.8286517,14.6118457 24.2651331,14.3842975 C24.4752908,14.2705234 24.7016145,14.1567493 24.9279382,14.0592287 C25.0411,14.0104683 25.1542619,13.961708 25.2674237,13.9129477 C25.3805856,13.8641873 25.4937474,13.815427 25.6069093,13.7666667 C26.0595567,13.5716253 26.5283699,13.4090909 27.0133494,13.2628099 C27.1265112,13.230303 27.2558389,13.1977961 27.3690008,13.1490358 C27.4821626,13.1165289 27.6114905,13.084022 27.7246524,13.0515151 C27.9671421,12.9865014 28.2096316,12.9214876 28.4521214,12.8727273 C28.5652832,12.8402204 28.6946111,12.8239669 28.8239388,12.79146 C28.9532667,12.7589532 29.0664286,12.7426997 29.1957564,12.7101928 C29.3250841,12.6939394 29.438246,12.6614325 29.5675739,12.6451791 L29.7453997,12.6126722 L29.9393913,12.5801653 C30.0687192,12.5639118 30.181881,12.5476584 30.3112089,12.531405 C30.4567026,12.5151515 30.5860305,12.4988981 30.7315242,12.4826446 C30.8446861,12.4663912 31.0386779,12.4501377 31.1518398,12.4338843 C31.2326696,12.4176309 31.3296654,12.4176309 31.4104954,12.4013774 L31.5883212,12.385124 L31.6691509,12.3688705 L31.766147,12.3688705 C31.9116407,12.3526171 32.0409686,12.3526171 32.1864623,12.3363636 L32.3966199,12.3201102 C32.3966199,12.3201102 32.4774499,12.3201102 32.412786,12.3201102 L32.4612839,12.3201102 L32.5582797,12.3201102 C32.6714416,12.3201102 32.8007694,12.3038567 32.9139313,12.3038567 C33.3827447,12.2876033 33.867724,12.2876033 34.3365375,12.3038567 C35.2741641,12.3363636 36.1956248,12.4501377 37.0847536,12.6126722 C38.8791771,12.9539945 40.5604389,13.522865 42.0962069,14.2867769 C43.6319747,15.0344353 44.9899169,15.9608815 46.1861992,16.968595 C46.2670292,17.0336088 46.3316931,17.0986226 46.4125229,17.1636364 C46.4771868,17.2286501 46.5580168,17.2936639 46.6226807,17.3586777 C46.7681745,17.4887052 46.8975024,17.6187328 47.0429961,17.7487603 C47.18849,17.8787879 47.3178177,18.0088154 47.4471456,18.138843 C47.5764735,18.2688705 47.7058011,18.3988981 47.835129,18.5451791 C48.3362743,19.0815427 48.8050878,19.6179063 49.2254031,20.1705234 C50.066034,21.2595042 50.7450051,22.3647383 51.2784823,23.4049586 C51.3108144,23.4699724 51.3431462,23.5349862 51.3754783,23.6 C51.4078102,23.6650138 51.440142,23.7300276 51.4724741,23.7950412 C51.5371381,23.9250688 51.601802,24.0550964 51.6502999,24.1851241 C51.7149639,24.3151515 51.7634618,24.4289256 51.8281257,24.5589532 C51.8766236,24.6889808 51.9412876,24.8027549 51.9897855,24.9327823 C52.1837771,25.4203858 52.3777689,25.8917355 52.5232626,26.3305784 C52.7657524,27.0457301 52.9435782,27.6796142 53.0890719,28.2322315 C53.1375698,28.4597795 53.3477275,28.6060606 53.5740512,28.5735536 C53.8165409,28.5573003 53.9943667,28.3622589 53.9943667,28.1184574 C54.0105325,27.5333333 53.9943667,26.8344352 53.9135367,26.0380166 Z" transform="translate(112 19)"/>
    <g fill-rule="nonzero" transform="translate(116 88)">
      <path fill="#2489CA" d="M0.620798,22.2213283 C0.620798,22.2213283 -0.96844488,21.087679 0.938646576,19.5739622 L5.38190479,15.6422303 C5.38190479,15.6422303 6.6532991,14.3185472 7.9975337,15.4718552 L49,46.1917872 L49,60.9226761 C49,60.9226761 48.9801345,63.2358451 45.9804385,62.9802825 L0.620798,22.2213283 Z"/>
      <path fill="#1070B3" d="M11.7784115,32 L1.4707482,41.1337008 C1.4707482,41.1337008 0.411564754,41.9016619 1.4707482,43.2739202 L6.25644899,47.5165903 C6.25644899,47.5165903 7.39313366,48.7063004 9.07232693,47.3529264 L20,39.2767458 L11.7784115,32 Z"/>
      <path fill="#0877B9" d="M28.9508528,32 L48,17.4999588 L47.8763465,2.99342979 C47.8763465,2.99342979 47.0628366,-0.172574739 44.3489677,1.47530467 L19,24.4742515 L28.9508528,32 Z"/>
      <path fill="#3C99D4" d="M45.5741044,63.1732332 C46.7089618,64.3155844 48.0841421,63.9413659 48.0841421,63.9413659 L63.3112592,56.5620395 C65.2605438,55.2555573 64.9868429,53.6339437 64.9868429,53.6339437 L64.9868429,9.56807256 C64.9868429,7.63132762 62.970802,6.96167344 62.970802,6.96167344 L49.773077,0.70500252 C46.8892039,-1.04791578 45,1.0201339 45,1.0201339 C45,1.0201339 47.4299301,-0.699958212 48.6181927,2.55639937 L48.6181927,60.8228783 C48.6181927,61.2233578 48.5314094,61.617272 48.357843,61.9717948 C48.0107101,62.6611447 47.2563637,63.3045379 45.4472674,63.0353632 L45.5741044,63.1732332 Z"/>
    </g>
  </g>
</svg>
