<svg xmlns="http://www.w3.org/2000/svg" xmlns:xlink="http://www.w3.org/1999/xlink" width="801" height="800" viewBox="0 0 801 800">
  <defs>
    <polygon id="marketplace-a" points=".196 .134 205.086 .134 205.086 137.312 .196 137.312"/>
    <polygon id="marketplace-c" points=".961 .234 86.432 .234 86.432 140.298 .961 140.298"/>
  </defs>
  <g fill="none" fill-rule="evenodd">
    <path fill="#97D2D5" d="M146.336 146.321L66.336 146.321C51.977 146.321 40.336 134.681 40.336 120.321 40.336 105.962 51.977 94.321 66.336 94.321 68.77 94.321 71.122 94.663 73.356 95.288 75.81 77.421 91.128 63.655 109.67 63.655 129.921 63.655 146.336 80.071 146.336 100.321 146.336 103.815 145.837 107.191 144.924 110.393 145.392 110.356 145.86 110.321 146.336 110.321 156.277 110.321 164.336 118.38 164.336 128.321 164.336 138.263 156.277 146.321 146.336 146.321M726.954 96.988L631.899 96.988C614.838 96.988 601.006 85.348 601.006 70.988 601.006 56.629 614.838 44.988 631.899 44.988 634.791 44.988 637.586 45.33 640.239 45.955 643.157 28.088 661.356 14.322 683.387 14.322 707.448 14.322 726.954 30.738 726.954 50.988 726.954 54.482 726.362 57.858 725.274 61.06 725.831 61.023 726.387 60.988 726.954 60.988 738.764 60.988 748.34 69.047 748.34 78.988 748.34 88.93 738.764 96.988 726.954 96.988M447.504 84.748L403.377 84.748C395.456 84.748 389.036 78.807 389.036 71.479 389.036 64.152 395.456 58.212 403.377 58.212 404.719 58.212 406.018 58.386 407.248 58.705 408.604 49.587 417.053 42.562 427.28 42.562 438.45 42.562 447.504 50.939 447.504 61.273 447.504 63.057 447.231 64.779 446.727 66.413 446.985 66.395 447.243 66.376 447.504 66.376 452.989 66.376 457.434 70.489 457.434 75.563 457.434 80.636 452.989 84.748 447.504 84.748M102.016 317.389L37.456 317.389C25.868 317.389 16.474 308.698 16.474 297.977 16.474 287.256 25.868 278.565 37.456 278.565 39.42 278.565 41.318 278.82 43.12 279.287 45.102 265.947 57.463 255.669 72.426 255.669 88.767 255.669 102.016 267.926 102.016 283.045 102.016 285.653 101.615 288.174 100.876 290.564 101.253 290.537 101.631 290.511 102.016 290.511 110.038 290.511 116.542 296.527 116.542 303.95 116.542 311.372 110.038 317.389 102.016 317.389"/>
    <path fill="#09C1D1" d="M393.635,127.793 L393.542,123.794 C397.54,123.701 401.598,123.694 405.6,123.775 L405.518,127.774 C401.574,127.694 397.573,127.7 393.635,127.793 Z M429.224,129.29 C425.313,128.867 421.332,128.524 417.388,128.272 L417.644,124.28 C421.645,124.536 425.686,124.883 429.656,125.313 L429.224,129.29 Z M369.932,129.383 L369.488,125.407 C373.465,124.964 377.505,124.604 381.497,124.337 L381.764,128.328 C377.831,128.591 373.849,128.946 369.932,129.383 Z M452.705,132.887 C448.844,132.119 444.908,131.426 441.005,130.829 L441.611,126.875 C445.572,127.481 449.567,128.185 453.486,128.964 L452.705,132.887 Z M346.464,133.055 L345.671,129.134 C349.595,128.34 353.587,127.625 357.539,127.007 L358.157,130.959 C354.264,131.568 350.33,132.273 346.464,133.055 Z M475.772,138.555 C471.988,137.444 468.129,136.404 464.301,135.464 L465.256,131.58 C469.141,132.534 473.058,133.589 476.899,134.717 L475.772,138.555 Z M323.415,138.795 L322.276,134.961 C326.111,133.822 330.024,132.754 333.909,131.787 L334.875,135.668 C331.048,136.621 327.193,137.673 323.415,138.795 Z M498.271,146.265 C494.595,144.818 490.834,143.436 487.094,142.154 L488.391,138.37 C492.187,139.67 496.004,141.074 499.736,142.542 L498.271,146.265 Z M300.968,146.565 L299.492,142.848 C303.216,141.37 307.019,139.958 310.796,138.65 L312.105,142.43 C308.383,143.718 304.636,145.109 300.968,146.565 Z M520.011,155.955 C516.478,154.188 512.858,152.476 509.25,150.868 L510.879,147.215 C514.541,148.847 518.215,150.584 521.8,152.378 L520.011,155.955 Z M279.348,156.278 L277.549,152.706 C281.118,150.909 284.772,149.168 288.413,147.532 L290.053,151.181 C286.466,152.792 282.864,154.507 279.348,156.278 Z M540.792,167.533 C537.428,165.458 533.976,163.434 530.531,161.514 L532.478,158.02 C535.974,159.968 539.478,162.023 542.891,164.128 L540.792,167.533 Z M258.659,167.874 L256.55,164.474 C259.947,162.368 263.437,160.31 266.921,158.356 L268.877,161.846 C265.443,163.77 262.005,165.798 258.659,167.874 Z M560.458,180.897 C557.293,178.535 554.035,176.214 550.774,173.999 L553.022,170.69 C556.332,172.939 559.638,175.294 562.851,177.691 L560.458,180.897 Z M239.06,181.258 L236.661,178.057 C239.86,175.659 243.156,173.3 246.457,171.046 L248.713,174.349 C245.46,176.57 242.213,178.895 239.06,181.258 Z M578.864,195.936 C575.921,193.308 572.881,190.71 569.828,188.215 L572.359,185.117 C575.458,187.649 578.542,190.286 581.528,192.953 L578.864,195.936 Z M220.706,196.322 L218.035,193.345 C221.01,190.675 224.087,188.034 227.181,185.495 L229.719,188.587 C226.67,191.089 223.638,193.692 220.706,196.322 Z M595.87,212.528 C593.164,209.646 590.365,206.792 587.55,204.046 L590.343,201.183 C593.2,203.969 596.04,206.865 598.786,209.79 L595.87,212.528 Z M203.737,212.948 L200.815,210.217 C203.548,207.293 206.382,204.391 209.24,201.591 L212.04,204.448 C209.224,207.208 206.43,210.067 203.737,212.948 Z M611.345,230.54 C608.91,227.439 606.374,224.352 603.806,221.364 L606.841,218.758 C609.446,221.79 612.019,224.923 614.491,228.069 L611.345,230.54 Z M188.29,231.008 L185.138,228.544 C187.605,225.389 190.175,222.247 192.776,219.207 L195.816,221.807 C193.253,224.803 190.721,227.898 188.29,231.008 Z M625.17,249.834 C623.016,246.528 620.761,243.232 618.471,240.036 L621.723,237.706 C624.047,240.949 626.334,244.295 628.522,247.649 L625.17,249.834 Z M174.485,250.365 L171.129,248.188 C173.305,244.833 175.589,241.476 177.917,238.21 L181.174,240.533 C178.88,243.751 176.629,247.059 174.485,250.365 Z M637.234,270.259 C635.383,266.784 633.43,263.304 631.429,259.915 L634.873,257.881 C636.904,261.32 638.886,264.852 640.765,268.379 L637.234,270.259 Z M162.44,270.876 L158.905,269.005 C160.777,265.467 162.756,261.919 164.787,258.46 L168.236,260.486 C166.235,263.894 164.285,267.39 162.44,270.876 Z M647.436,291.657 C645.903,288.035 644.267,284.398 642.573,280.847 L646.184,279.125 C647.903,282.729 649.563,286.421 651.12,290.097 L647.436,291.657 Z M152.257,292.385 L148.569,290.836 C150.122,287.139 151.779,283.428 153.495,279.804 L157.11,281.516 C155.419,285.086 153.787,288.743 152.257,292.385 Z M655.707,313.892 C654.495,310.132 653.185,306.356 651.813,302.667 L655.563,301.273 C656.955,305.017 658.285,308.85 659.513,312.665 L655.707,313.892 Z M144.026,314.729 L140.215,313.516 C141.431,309.695 142.751,305.848 144.139,302.081 L147.893,303.463 C146.526,307.175 145.225,310.966 144.026,314.729 Z M661.972,336.804 C661.101,332.949 660.132,329.072 659.095,325.278 L662.953,324.222 C664.006,328.073 664.99,332.009 665.875,335.921 L661.972,336.804 Z M137.835,337.663 L133.931,336.792 C134.8,332.89 135.77,328.951 136.813,325.084 L140.676,326.126 C139.647,329.937 138.692,333.817 137.835,337.663 Z M666.177,360.181 C665.651,356.264 665.032,352.315 664.334,348.445 L668.272,347.737 C668.978,351.665 669.608,355.673 670.142,359.648 L666.177,360.181 Z M133.707,361.054 L129.741,360.535 C130.262,356.562 130.878,352.552 131.572,348.617 L135.512,349.313 C134.828,353.189 134.22,357.14 133.707,361.054 Z M668.302,383.84 C668.123,379.891 667.852,375.903 667.5,371.987 L671.485,371.629 C671.841,375.603 672.116,379.65 672.298,383.658 L668.302,383.84 Z M131.66,384.721 L127.664,384.551 C127.834,380.546 128.095,376.499 128.438,372.52 L132.424,372.865 C132.084,376.786 131.828,380.774 131.66,384.721 Z M672.325,408.356 L668.329,408.183 C668.5,404.256 668.586,400.259 668.586,396.305 L668.585,395.717 L672.585,395.717 L672.586,396.295 C672.586,400.317 672.499,404.372 672.325,408.356 Z M127.69,408.656 C127.512,404.671 127.42,400.616 127.415,396.603 L131.415,396.598 C131.42,400.553 131.511,404.551 131.686,408.479 L127.69,408.656 Z M670.22,432.371 L666.255,431.846 C666.77,427.955 667.207,423.981 667.552,420.037 L671.537,420.387 C671.186,424.39 670.744,428.421 670.22,432.371 Z M129.82,432.669 C129.292,428.707 128.845,424.676 128.491,420.687 L132.475,420.333 C132.824,424.264 133.265,428.236 133.785,432.14 L129.82,432.669 Z M666.004,456.107 L662.101,455.232 C662.961,451.395 663.748,447.476 664.439,443.586 L668.376,444.285 C667.675,448.233 666.877,452.211 666.004,456.107 Z M134.062,456.401 C133.185,452.502 132.382,448.526 131.677,444.582 L135.615,443.879 C136.31,447.764 137.1,451.682 137.964,455.522 L134.062,456.401 Z M659.696,479.378 L655.885,478.159 C657.083,474.411 658.215,470.578 659.249,466.766 L663.11,467.813 C662.06,471.682 660.912,475.573 659.696,479.378 Z M140.397,479.664 C139.173,475.85 138.02,471.96 136.97,468.103 L140.83,467.052 C141.864,470.852 143,474.684 144.206,478.441 L140.397,479.664 Z M651.316,502.048 L647.63,500.495 C649.166,496.85 650.637,493.124 652.006,489.422 L655.758,490.809 C654.369,494.566 652.875,498.348 651.316,502.048 Z M148.766,502.241 C147.216,498.569 145.726,494.808 144.336,491.061 L148.086,489.67 C149.456,493.361 150.924,497.067 152.452,500.685 L148.766,502.241 Z M640.957,523.867 L637.423,521.992 C639.274,518.504 641.072,514.927 642.765,511.359 L646.378,513.074 C644.66,516.695 642.835,520.326 640.957,523.867 Z M159.098,523.969 C157.224,520.44 155.405,516.823 153.69,513.217 L157.303,511.5 C158.992,515.053 160.785,518.617 162.631,522.094 L159.098,523.969 Z M628.71,544.67 L625.357,542.49 C627.5,539.192 629.607,535.79 631.617,532.377 L635.064,534.406 C633.024,537.87 630.886,541.323 628.71,544.67 Z M171.318,544.712 C169.142,541.364 167.008,537.92 164.978,534.475 L168.424,532.443 C170.425,535.839 172.527,539.232 174.672,542.532 L171.318,544.712 Z M614.68,564.299 L611.532,561.832 C613.963,558.729 616.361,555.526 618.657,552.314 L621.911,554.641 C619.581,557.899 617.148,561.149 614.68,564.299 Z M185.328,564.308 C182.864,561.163 180.434,557.919 178.106,554.663 L181.36,552.337 C183.654,555.545 186.048,558.742 188.476,561.841 L185.328,564.308 Z M201.013,582.604 C198.275,579.68 195.568,576.66 192.968,573.627 L196.005,571.023 C198.567,574.013 201.234,576.988 203.933,579.869 L201.013,582.604 Z M598.983,582.61 L596.063,579.876 C598.759,576.998 601.427,574.02 603.995,571.025 L607.032,573.629 C604.426,576.668 601.718,579.689 598.983,582.61 Z M218.252,599.459 C215.277,596.795 212.314,594.023 209.447,591.221 L212.243,588.36 C215.069,591.122 217.988,593.854 220.92,596.479 L218.252,599.459 Z M581.745,599.463 L579.077,596.482 C582.009,593.857 584.928,591.127 587.751,588.367 L590.548,591.227 C587.683,594.028 584.721,596.8 581.745,599.463 Z M563.102,614.729 L560.708,611.526 C563.856,609.172 567.001,606.709 570.056,604.207 L572.591,607.303 C569.491,609.841 566.298,612.34 563.102,614.729 Z M236.913,614.741 C233.704,612.342 230.508,609.84 227.413,607.305 L229.947,604.21 C232.997,606.708 236.147,609.174 239.309,611.538 L236.913,614.741 Z M543.198,628.292 L541.094,624.89 C544.437,622.821 547.786,620.646 551.046,618.426 L553.298,621.731 C549.99,623.985 546.591,626.192 543.198,628.292 Z M256.857,628.325 C253.455,626.221 250.049,624.01 246.734,621.753 L248.985,618.446 C252.252,620.671 255.608,622.85 258.961,624.923 L256.857,628.325 Z M522.187,640.038 L520.392,636.464 C523.906,634.699 527.431,632.829 530.869,630.906 L532.822,634.397 C529.332,636.35 525.753,638.247 522.187,640.038 Z M277.936,640.099 C274.347,638.298 270.756,636.396 267.264,634.444 L269.215,630.952 C272.656,632.875 276.193,634.749 279.729,636.522 L277.936,640.099 Z M500.233,649.87 L498.762,646.151 C502.413,644.707 506.086,643.158 509.682,641.548 L511.317,645.198 C507.667,646.833 503.938,648.405 500.233,649.87 Z M299.989,649.959 C296.26,648.487 292.512,646.911 288.851,645.274 L290.484,641.622 C294.091,643.235 297.783,644.788 301.458,646.238 L299.989,649.959 Z M477.441,657.732 L476.306,653.896 C480.097,652.774 483.904,651.556 487.62,650.274 L488.924,654.056 C485.153,655.356 481.289,656.594 477.441,657.732 Z M322.818,657.809 C318.985,656.68 315.12,655.446 311.33,654.144 L312.631,650.36 C316.364,651.644 320.172,652.859 323.949,653.973 L322.818,657.809 Z M454.04,663.534 L453.25,659.612 C457.119,658.835 461.018,657.96 464.841,657.012 L465.804,660.895 C461.923,661.856 457.965,662.744 454.04,663.534 Z M346.225,663.587 C342.299,662.802 338.34,661.918 334.457,660.959 L335.415,657.076 C339.241,658.02 343.142,658.891 347.009,659.665 L346.225,663.587 Z M430.217,667.234 L429.78,663.258 C433.7,662.826 437.662,662.301 441.556,661.695 L442.169,665.648 C438.218,666.263 434.197,666.796 430.217,667.234 Z M370.051,667.264 C366.07,666.828 362.048,666.299 358.098,665.689 L358.707,661.736 C362.6,662.336 366.563,662.858 370.485,663.287 L370.051,667.264 Z M406.163,668.822 L406.075,664.823 C410.028,664.736 414.021,664.561 417.945,664.301 L418.208,668.293 C414.227,668.556 410.174,668.733 406.163,668.822 Z M394.105,668.828 C390.094,668.742 386.042,668.568 382.062,668.31 L382.321,664.317 C386.243,664.573 390.236,664.745 394.19,664.828 L394.105,668.828 L394.105,668.828 Z"/>
    <polygon fill="#CAC9C4" points="211.862 738.935 588.139 738.935 588.139 411.718 211.862 411.718"/>
    <polyline fill="#FFFFFE" points="211.927 429.495 194.489 531.628 231.855 531.628 247.424 429.495 211.927 429.495"/>
    <polyline fill="#E05B29" points="247.424 429.495 231.855 531.628 269.221 531.628 282.922 429.495 247.424 429.495"/>
    <polyline fill="#FFFFFE" points="282.922 429.495 269.221 531.628 306.587 531.628 318.419 429.495 282.922 429.495"/>
    <polyline fill="#E05B29" points="318.419 429.495 306.587 531.628 343.952 531.628 353.916 429.495 318.419 429.495"/>
    <polyline fill="#FFFFFE" points="353.916 429.495 343.952 531.628 381.317 531.628 386.3 429.495 353.916 429.495"/>
    <polyline fill="#FFFFFE" points="588.075 429.495 552.577 429.495 568.147 531.628 605.512 531.628 588.075 429.495"/>
    <polyline fill="#E05B29" points="517.081 429.495 530.782 531.628 568.147 531.628 552.577 429.495 517.081 429.495"/>
    <polyline fill="#FFFFFE" points="481.583 429.495 493.415 531.628 530.782 531.628 517.081 429.495 481.583 429.495"/>
    <polyline fill="#E05B29" points="446.086 429.495 456.049 531.628 493.415 531.628 481.583 429.495 446.086 429.495"/>
    <polyline fill="#FFFFFE" points="413.702 429.495 418.684 531.628 456.049 531.628 446.086 429.495 413.702 429.495"/>
    <polyline fill="#E05B29" points="410.588 429.495 386.3 429.495 381.317 531.628 418.684 531.628 413.702 429.495 410.588 429.495"/>
    <path fill="#DEDED9" d="M213.172,550.311 C223.491,550.311 231.855,541.946 231.855,531.628 L194.489,531.628 C194.489,541.946 202.854,550.311 213.172,550.311"/>
    <path fill="#D7412B" d="M250.538,550.311 C260.856,550.311 269.221,541.946 269.221,531.628 L231.855,531.628 C231.855,541.946 240.22,550.311 250.538,550.311"/>
    <path fill="#DEDED9" d="M287.904,550.311 C298.222,550.311 306.587,541.946 306.587,531.628 L269.221,531.628 C269.221,541.946 277.585,550.311 287.904,550.311"/>
    <path fill="#D7412B" d="M325.27,550.311 C335.588,550.311 343.952,541.946 343.952,531.628 L306.587,531.628 C306.587,541.946 314.951,550.311 325.27,550.311"/>
    <path fill="#DEDED9" d="M362.635,550.311 C372.954,550.311 381.317,541.946 381.317,531.628 L343.952,531.628 C343.952,541.946 352.316,550.311 362.635,550.311"/>
    <path fill="#D7412B" d="M400.001,550.311 C410.319,550.311 418.684,541.946 418.684,531.628 L381.317,531.628 C381.317,541.946 389.683,550.311 400.001,550.311"/>
    <path fill="#DEDED9" d="M437.368,550.311 C447.686,550.311 456.049,541.946 456.049,531.628 L418.684,531.628 C418.684,541.946 427.049,550.311 437.368,550.311"/>
    <path fill="#D7412B" d="M474.733,550.311 C485.051,550.311 493.415,541.946 493.415,531.628 L456.049,531.628 C456.049,541.946 464.415,550.311 474.733,550.311"/>
    <path fill="#DEDED9" d="M512.098,550.311 C522.417,550.311 530.782,541.946 530.782,531.628 L493.415,531.628 C493.415,541.946 501.78,550.311 512.098,550.311"/>
    <path fill="#D7412B" d="M549.463,550.311 C559.782,550.311 568.147,541.946 568.147,531.628 L530.782,531.628 C530.782,541.946 539.145,550.311 549.463,550.311"/>
    <path fill="#DEDED9" d="M586.829,550.311 C597.147,550.311 605.512,541.946 605.512,531.628 L568.147,531.628 C568.147,541.946 576.51,550.311 586.829,550.311"/>
    <polygon fill="#385B72" points="211.862 416.155 588.139 416.155 588.139 396.305 211.862 396.305"/>
    <polygon fill="#2B4958" points="211.862 420.991 588.139 420.991 588.139 411.318 211.862 411.318"/>
    <polygon fill="#385B72" points="260.502 401.678 269.221 401.678 269.221 353.104 260.502 353.104"/>
    <polygon fill="#385B72" points="526.42 401.678 535.141 401.678 535.141 353.104 526.42 353.104"/>
    <polygon fill="#2B4958" points="264.861 396.305 269.221 396.305 269.221 375.522 264.861 375.522"/>
    <polygon fill="#2B4958" points="530.782 396.305 535.141 396.305 535.141 375.522 530.782 375.522"/>
    <polygon fill="#FFFEFD" points="241.196 379.882 555.692 379.882 555.692 303.905 241.196 303.905"/>
    <path fill="#2B4958" d="M241.196,379.882 L555.692,379.882 L555.692,303.905 L241.196,303.905 L241.196,379.882 Z M248.196,372.882 L548.692,372.882 L548.692,310.905 L248.196,310.905 L248.196,372.882 Z"/>
    <g transform="translate(241 571)">
      <mask id="marketplace-b" fill="#fff">
        <use xlink:href="#marketplace-a"/>
      </mask>
      <polygon fill="#5DBFC4" points=".196 137.312 205.086 137.312 205.086 .134 .196 .134" mask="url(#marketplace-b)"/>
      <polyline fill="#67C2C7" points="26.841 158.415 -3.98 143.218 75.276 -17.528 106.097 -2.332 26.841 158.415" mask="url(#marketplace-b)"/>
      <polyline fill="#67C2C7" points="-17.794 142.083 -28.981 136.566 50.274 -24.18 61.463 -18.664 -17.794 142.083" mask="url(#marketplace-b)"/>
    </g>
    <path fill="#162B40" d="M246.096,703.413 L441.186,703.413 L441.186,576.033 L246.096,576.033 L246.096,703.413 Z M236.297,713.212 L450.985,713.212 L450.985,566.234 L236.297,566.234 L236.297,713.212 Z"/>
    <polygon fill="#5DBFC4" points="476.961 738.935 562.432 738.935 562.432 566.234 476.961 566.234"/>
    <g transform="translate(476 566)">
      <mask id="marketplace-d" fill="#fff">
        <use xlink:href="#marketplace-c"/>
      </mask>
      <polyline fill="#67C2C7" points="-28.197 89.905 -3.83 105.228 62.565 -.367 38.198 -15.689 -28.197 89.905" mask="url(#marketplace-d)"/>
      <polyline fill="#67C2C7" points="-12.07 133.185 -.757 140.298 88.84 -2.2 77.528 -9.313 -12.07 133.185" mask="url(#marketplace-d)"/>
    </g>
    <path fill="#162B40" d="M486.76,729.135 L486.76,657.483 L495.284,657.483 L495.284,663.482 L517.081,663.482 L517.081,657.483 L552.633,657.483 L552.633,729.135 L486.76,729.135 Z M552.633,576.033 L552.633,647.685 L517.081,647.685 L517.081,641.687 L495.284,641.687 L495.284,647.685 L486.76,647.685 L486.76,576.033 L552.633,576.033 Z M476.961,738.935 L562.432,738.935 L562.432,566.234 L476.961,566.234 L476.961,738.935 Z"/>
    <text fill="#EB912D" font-family="Montserrat-Medium, Montserrat" font-size="58" font-weight="400" letter-spacing="0">
      <tspan x="268.261" y="362.072">MARKET</tspan>
    </text>
    <path fill="#FFFFFE" d="M201.508,341.895 C201.508,379.174 171.286,409.394 134.007,409.394 C96.728,409.394 66.508,379.174 66.508,341.895 C66.508,304.615 96.728,274.394 134.007,274.394 C171.286,274.394 201.508,304.615 201.508,341.895"/>
    <path fill="#DEDED9" d="M134.007,274.394 L134.007,409.394 C171.286,409.394 201.508,379.174 201.508,341.895 C201.508,304.615 171.286,274.394 134.007,274.394"/>
    <path fill="#102330" d="M121.604,365.063 C121.806,365.216 122.042,365.371 122.392,365.524 L122.381,365.76 C122.381,366.396 122.589,367.007 122.95,367.505 C122.774,367.885 122.679,368.301 122.679,368.728 C122.68,369.898 123.376,370.927 124.398,371.392 L124.61,372.213 C124.726,376.083 128.904,379.204 134.023,379.204 C139.143,379.203 143.32,376.085 143.438,372.216 L143.654,371.392 C144.675,370.926 145.372,369.896 145.37,368.728 C145.372,368.302 145.276,367.885 145.099,367.504 C145.461,367.002 145.667,366.396 145.667,365.76 L145.657,365.521 C146.004,365.369 146.242,365.213 146.441,365.062 C147.497,364.265 148.113,363.114 148.513,361.801 L119.524,361.801 C119.899,363.062 120.515,364.24 121.604,365.063"/>
    <path fill="#EEA52D" d="M134.279,304.583 C133.071,304.583 131.851,304.649 130.648,304.777 C122.065,305.696 114.832,309.54 110.803,315.323 C107.331,320.305 106.373,326.425 108.035,333.022 C109.121,337.323 111.333,341.135 113.481,344.836 C115.591,348.472 117.771,352.231 118.742,356.337 C118.799,356.574 118.856,357.257 118.902,357.816 C119.001,359.024 119.125,360.459 119.524,361.801 L134.756,361.801 L134.756,304.595 C134.596,304.592 134.438,304.583 134.279,304.583"/>
    <path fill="#EB912D" d="M155.454,313.081 C150.745,307.861 143.032,304.711 134.756,304.595 L134.756,361.801 L148.513,361.801 C148.927,360.43 149.104,358.878 149.274,357.349 C149.35,356.653 149.454,355.702 149.552,355.337 C150.674,351.199 152.741,347.777 154.743,344.459 C157.346,340.149 160.037,335.691 160.642,329.806 C161.301,323.352 159.509,317.567 155.454,313.081"/>
    <path fill="#EEA52D" d="M328.002,161.267 C328.002,198.546 297.781,228.766 260.501,228.766 C223.222,228.766 193.002,198.546 193.002,161.267 C193.002,123.987 223.222,93.766 260.501,93.766 C297.781,93.766 328.002,123.987 328.002,161.267"/>
    <path fill="#EB912D" d="M260.501,93.766 L260.501,228.766 C297.781,228.766 328.002,198.546 328.002,161.267 C328.002,123.987 297.781,93.766 260.501,93.766"/>
    <path fill="#FFFFFE" d="M286.226,173.072 C286.226,168.194 284.736,164.211 281.759,161.118 C278.78,158.025 273.871,155.269 267.031,152.847 C263.66,151.7 261.025,150.694 259.127,149.827 C257.229,148.96 255.895,148.175 255.127,147.471 C254.357,146.768 253.973,145.874 253.973,144.796 C253.973,143.553 254.504,142.611 255.568,141.972 C256.631,141.335 258.472,141.016 261.091,141.016 C266.358,141.016 272.249,142.444 278.749,145.267 C279.034,145.392 279.312,145.5 279.599,145.63 L285.44,131.64 C283.204,130.677 280.974,129.867 278.749,129.188 C274.792,127.98 270.851,127.238 266.929,126.93 L266.929,120.2 L254.075,120.2 L254.075,127.121 C247.899,127.949 243.189,129.757 239.981,132.571 C236.513,135.615 234.778,139.837 234.778,145.237 C234.778,148.771 235.358,151.725 236.521,154.099 C237.682,156.472 239.54,158.615 242.093,160.528 C244.646,162.444 248,164.171 252.156,165.707 C255.854,167.051 258.792,168.194 260.968,169.146 C263.145,170.095 264.699,170.944 265.632,171.698 C266.564,172.451 267.031,173.365 267.031,174.447 C267.031,176.019 266.384,177.139 265.092,177.809 C263.799,178.48 261.761,178.815 258.98,178.815 C255.609,178.815 251.697,178.169 247.247,176.877 C242.796,175.585 238.672,173.974 234.876,172.041 L234.876,188.34 C241.048,191.016 247.451,192.575 254.075,193.048 L254.075,202.331 L266.929,202.331 L266.929,192.678 C273.021,191.762 277.723,189.703 280.997,186.474 C284.483,183.037 286.226,178.571 286.226,173.072"/>
    <path fill="#162B40" d="M600.229,161.266 C600.229,198.545 570.008,228.766 532.729,228.766 C495.45,228.766 465.229,198.545 465.229,161.266 C465.229,123.987 495.45,93.766 532.729,93.766 C570.008,93.766 600.229,123.987 600.229,161.266"/>
    <path fill="#102330" d="M532.729,93.766 L532.729,228.766 C570.008,228.766 600.229,198.545 600.229,161.266 C600.229,123.987 570.008,93.766 532.729,93.766"/>
    <polyline fill="#4ABBC2" points="518.358 143.253 518.35 143.243 518.358 143.253"/>
    <path fill="#FFFFFE" d="M566.479,183.016 C566.479,189.644 561.106,195.016 554.479,195.016 L510.979,195.016 C504.352,195.016 498.979,189.644 498.979,183.016 L498.979,139.516 C498.979,132.889 504.352,127.516 510.979,127.516 L554.479,127.516 C561.106,127.516 566.479,132.889 566.479,139.516 L566.479,183.016"/>
    <polyline fill="#E1602C" points="522.899 177.813 522.899 144.719 551.561 161.266 522.899 177.813"/>
    <path fill="#E1602C" d="M730.506,341.894 C730.506,379.173 700.286,409.394 663.006,409.394 C625.727,409.394 595.506,379.173 595.506,341.894 C595.506,304.614 625.727,274.394 663.006,274.394 C700.286,274.394 730.506,304.614 730.506,341.894"/>
    <path fill="#D7412B" d="M663.006,274.394 L663.006,409.394 C700.286,409.394 730.506,379.173 730.506,341.894 C730.506,304.614 700.286,274.394 663.006,274.394"/>
    <path fill="#FFFFFE" d="M663.006,298.399 C639.024,298.399 619.512,317.911 619.512,341.894 C619.512,365.876 639.024,385.388 663.006,385.388 C686.989,385.388 706.5,365.876 706.5,341.894 C706.5,317.911 686.989,298.399 663.006,298.399 Z M663.006,398.388 C631.855,398.388 606.512,373.044 606.512,341.894 C606.512,310.743 631.855,285.399 663.006,285.399 C694.158,285.399 719.5,310.743 719.5,341.894 C719.5,373.044 694.158,398.388 663.006,398.388 L663.006,398.388 Z"/>
    <path fill="#FFFFFE" d="M663.006,320.391 C651.15,320.391 641.504,330.037 641.504,341.894 C641.504,353.75 651.15,363.396 663.006,363.396 C674.864,363.396 684.51,353.75 684.51,341.894 C684.51,330.037 674.864,320.391 663.006,320.391 Z M663.006,376.396 C643.982,376.396 628.504,360.918 628.504,341.894 C628.504,322.869 643.982,307.391 663.006,307.391 C682.032,307.391 697.51,322.869 697.51,341.894 C697.51,360.918 682.032,376.396 663.006,376.396 L663.006,376.396 Z"/>
    <path fill="#FFFFFE" d="M674.334,341.894 C674.334,348.149 669.262,353.221 663.006,353.221 C656.75,353.221 651.68,348.149 651.68,341.894 C651.68,335.638 656.75,330.566 663.006,330.566 C669.262,330.566 674.334,335.638 674.334,341.894"/>
    <path fill="#162B40" d="M760,344.894 L663.006,344.894 C661.349,344.894 660.006,343.55 660.006,341.894 C660.006,340.237 661.349,338.894 663.006,338.894 L760,338.894 C761.658,338.894 763,340.237 763,341.894 C763,343.55 761.658,344.894 760,344.894"/>
    <polyline fill="#D7412B" points="766 327.834 759.334 327.834 748.5 333.167 752.168 327.834 741 327.834 733.5 338.834 758.5 338.834 766 327.834"/>
    <polyline fill="#D7412B" points="766 355.954 741 355.954 733.5 344.954 758.5 344.954 766 355.954"/>
  </g>
</svg>
