<?xml version="1.0" encoding="utf-8"?>
<svg id="master-artboard" viewBox="0 0 1400 980" version="1.1" xmlns="http://www.w3.org/2000/svg" x="0px" y="0px" enable-background="new 0 0 1400 980" width="1400px" height="980px">

<g>
	<path fill="#FFFFFF" d="M405.2,508l0.7,0.7l-0.7,0.7L513.7,621c-0.4,0.5-0.7,0.9-1,1.5c-0.9,1.7-1.3,3.5-1.2,5.2L367,652.6l0.2,1&#10;&#9;&#9;l-0.8,0.6l117.2,163.3c-0.8,0.7-1.5,1.5-2,2.5c-2.5,4.6-0.9,10.4,3.7,12.9c4.6,2.5,10.4,0.9,12.9-3.7c0.1-0.1,0.1-0.2,0.1-0.3&#10;&#9;&#9;l120.1,45.8c-1.1,4.1,0.7,8.6,4.6,10.7c4.6,2.5,10.4,0.9,12.9-3.7c2.5-4.6,0.9-10.4-3.7-12.9c-0.3-0.2-0.7-0.3-1-0.5L691.9,655&#10;&#9;&#9;c1.6,0.3,3.2,0.1,4.8-0.4l99.6,210.2c-1.4,0.8-2.5,2-3.4,3.5c-2.5,4.6-0.9,10.4,3.7,12.9c4.6,2.5,10.4,0.9,12.9-3.7&#10;&#9;&#9;c0.7-1.2,1-2.5,1.1-3.8l206-3.6c0.4,2.9,2.1,5.6,4.8,7.2c4.6,2.5,10.4,0.9,12.9-3.7c1.5-2.7,1.5-5.8,0.4-8.4l114.8-65.1&#10;&#9;&#9;c0.8,1.1,1.8,2.1,3.1,2.8c4.6,2.5,10.4,0.9,12.9-3.7c2.5-4.6,0.9-10.4-3.7-12.9c-4.5-2.5-10.2-0.9-12.8,3.6l-105.6-47&#10;&#9;&#9;c1.4-4.2-0.4-9-4.4-11.2c-3.1-1.7-6.8-1.5-9.6,0.3L932,606.8c0.7-0.6,1.3-1.4,1.7-2.3c2.5-4.6,0.9-10.4-3.7-12.9&#10;&#9;&#9;c-4.6-2.5-10.4-0.9-12.9,3.7c-0.9,1.7-1.3,3.6-1.1,5.4l-213.4,42.1c-0.6-2.1-2-4-4-5.2l41.8-84.5c4.3,1.6,9.3-0.1,11.6-4.3&#10;&#9;&#9;c2.5-4.6,0.9-10.4-3.7-12.9c-4.6-2.5-10.4-0.9-12.9,3.7c0,0.1-0.1,0.1-0.1,0.2l-127.6-50.8c1.2-4.2-0.6-8.7-4.6-10.9&#10;&#9;&#9;c-2-1.1-4.1-1.4-6.2-1l-31.3-111.8l-1,0.3l-0.7-0.7L405.2,508z M920.8,608.2c0.2,0.1,0.5,0.3,0.8,0.4l-29.9,93.5&#10;&#9;&#9;c-3.8-0.6-7.8,1.2-9.8,4.8c-0.5,0.9-0.8,1.7-1,2.6l-178.1-61.8c0.2-1,0.3-2,0.2-3l213.4-42.1C917,605,918.6,607,920.8,608.2z&#10;&#9;&#9; M1024.9,739.2c-0.3,3.6,1.5,7.2,4.9,9c1,0.5,2,0.9,3,1l-7.1,110.2c-1.8,0.1-3.6,0.7-5.1,1.7l-125-141.9c1.1-0.8,2.1-1.8,2.9-3.1&#10;&#9;&#9;L1024.9,739.2z M684.2,643.6l-153.7-16.6c0-3-1.5-6-4.1-7.8l68.4-124c2.5,1.1,5.3,0.9,7.7-0.1l85.3,142.9c-1,0.8-2,1.8-2.6,3&#10;&#9;&#9;C684.7,641.9,684.4,642.8,684.2,643.6z M589,486.6l-180.2,20.8l155.3-139.9L595,477.7c-2,0.8-3.7,2.2-4.8,4.2&#10;&#9;&#9;C589.4,483.4,589,485,589,486.6z M408,509.5l181.3-20.9c0.5,2.3,1.8,4.3,3.8,5.7l-68.4,124c-3.2-1.4-6.9-0.8-9.6,1.3L408,509.5z&#10;&#9;&#9; M368.9,654.3l143-24.6c0.7,2.4,2.2,4.5,4.6,5.7c0.7,0.4,1.4,0.7,2.1,0.8l-28.3,178.8c-1.8-0.1-3.6,0.3-5.2,1.2L368.9,654.3z&#10;&#9;&#9; M499,827c1.1-4.1-0.7-8.6-4.6-10.7c-0.7-0.4-1.4-0.7-2.1-0.8l28.3-178.8c1.1,0.1,2.2-0.1,3.3-0.4L623,868.8&#10;&#9;&#9;c-1.5,0.8-2.8,2.1-3.7,3.7c-0.1,0.1-0.1,0.2-0.1,0.3L499,827z M629.2,867.7c-1.5-0.3-3-0.2-4.4,0.3l-99.1-232.6&#10;&#9;&#9;c1.5-0.8,2.8-2.1,3.7-3.7c0.5-0.8,0.8-1.7,1-2.6L684,645.6c0,3.4,1.8,6.6,4.9,8.3c0.3,0.2,0.7,0.3,1,0.5L629.2,867.7z M698.4,653.8&#10;&#9;&#9;c1.4-0.8,2.5-2,3.4-3.5c0.1-0.2,0.2-0.4,0.3-0.5l178.6,61.9c0,3,1.5,5.9,4.1,7.7l-79.8,144.8c-2.2-0.9-4.7-1-6.8-0.2L698.4,653.8z&#10;&#9;&#9; M810.6,871.7c-0.3-2.6-1.7-5-4-6.6l79.8-144.8c2.4,1,5,1,7.3,0L1019,862.5c-0.5,0.5-1,1.2-1.3,1.8c-0.7,1.2-1,2.5-1.1,3.8&#10;&#9;&#9;L810.6,871.7z M1033.7,863.4c-0.8-1.1-1.8-2.1-3.1-2.8c-1-0.5-2-0.9-3-1l7.1-110.2c3.1-0.1,6.1-1.8,7.8-4.7l105.6,47&#10;&#9;&#9;c-0.7,2.2-0.6,4.6,0.3,6.7L1033.7,863.4z M1027.7,733.1c-0.7,0.6-1.3,1.4-1.7,2.3c-0.3,0.6-0.6,1.3-0.8,1.9l-126-22.9&#10;&#9;&#9;c1.3-4.2-0.5-8.9-4.5-11.1c-0.4-0.2-0.8-0.4-1.2-0.5l29.9-93.4c2.4,0.5,4.9,0,6.9-1.2L1027.7,733.1z M734.5,541.7&#10;&#9;&#9;c-1.1,4,0.5,8.3,4.1,10.6l-41.8,84.5c-2.4-0.9-5-0.7-7.3,0.3l-85.3-142.9c1-0.8,2-1.8,2.6-3c0-0.1,0.1-0.1,0.1-0.2L734.5,541.7z"/>
</g>
<g>
	<path fill="#FFFFFF" d="M872.3,177.8l-1,0.2l-0.2-1l-152.6,30.8c-0.2-0.6-0.4-1.1-0.7-1.7c-0.9-1.7-2.2-2.9-3.7-3.8l57.5-135&#10;&#9;&#9;l-0.9-0.4l0-1l-200.8,9.9c-0.2-1-0.5-2.1-1-3c-2.5-4.6-8.2-6.3-12.9-3.9s-6.3,8.2-3.9,12.9c0.1,0.1,0.1,0.2,0.2,0.3l-103.6,76.1&#10;&#9;&#9;c-2.9-3.1-7.6-4.1-11.5-2c-4.6,2.5-6.3,8.2-3.9,12.9c2.5,4.6,8.2,6.3,12.9,3.9c0.3-0.2,0.7-0.4,1-0.6L593.4,339&#10;&#9;&#9;c-1.1,1.2-1.9,2.7-2.2,4.2L360.5,313c0-1.6-0.3-3.2-1.1-4.7c-2.5-4.6-8.2-6.3-12.9-3.9c-4.6,2.5-6.3,8.2-3.9,12.9&#10;&#9;&#9;c0.6,1.2,1.5,2.2,2.5,3l-108.6,175c-2.6-1.3-5.8-1.3-8.6,0.2c-4.6,2.5-6.3,8.2-3.9,12.9c1.5,2.7,4,4.4,6.8,4.9l-7.5,131.7&#10;&#9;&#9;c-1.4,0.1-2.8,0.4-4,1.1c-4.6,2.5-6.3,8.2-3.9,12.9c2.5,4.6,8.2,6.3,12.9,3.9c4.6-2.5,6.3-8.1,3.9-12.7l96.7-63.3&#10;&#9;&#9;c2.8,3.5,7.8,4.5,11.9,2.4c3.1-1.7,4.9-4.9,5-8.2l157.9-14c0.2,0.9,0.5,1.8,1,2.7c2.5,4.6,8.2,6.3,12.9,3.9&#10;&#9;&#9;c4.6-2.5,6.3-8.2,3.9-12.9c-0.9-1.7-2.3-3.1-3.9-3.9l80.3-202.1c2.1,0.6,4.4,0.5,6.5-0.5l48.3,80.9c-3.7,2.8-4.9,7.9-2.7,12.1&#10;&#9;&#9;c2.5,4.6,8.2,6.3,12.9,3.9s6.3-8.2,3.9-12.9c0-0.1-0.1-0.1-0.1-0.2l111.8-79.7c2.9,3.2,7.7,4.2,11.6,2.1c2-1.1,3.4-2.7,4.2-4.6&#10;&#9;&#9;l110.9,34.3l0.3-1l1-0.2L872.3,177.8z M508.6,556.7c-0.2,0.1-0.5,0.3-0.7,0.4l-62.4-75.9c2.6-2.9,3.2-7.2,1.3-10.8&#10;&#9;&#9;c-0.5-0.9-1-1.6-1.7-2.3l148.5-116.2c0.7,0.7,1.5,1.3,2.4,1.8L515.6,556C513.3,555.3,510.8,555.5,508.6,556.7z M342.1,573.2&#10;&#9;&#9;c-2.9-2.2-6.9-2.6-10.2-0.8c-1,0.5-1.8,1.2-2.5,1.9l-88.7-65.7c0.9-1.6,1.4-3.4,1.3-5.2l187-28.1c0,1.4,0.4,2.8,1.1,4.1&#10;&#9;&#9;L342.1,573.2z M607.1,338.7l97.2-120.2c2.6,1.6,5.8,2,8.8,0.8l67.1,124.7c-2.3,1.5-3.7,3.9-4,6.5l-166.3-5.8&#10;&#9;&#9;c-0.1-1.3-0.4-2.6-1.1-3.8C608.3,340.1,607.7,339.4,607.1,338.7z M790.6,343.9l80.2-162.7l33.4,206.4l-109.4-33.8&#10;&#9;&#9;c0.4-2.1,0.1-4.3-1-6.3C793.1,345.9,792,344.7,790.6,343.9z M869.5,179.3L788.8,343c-2.2-0.8-4.6-0.8-6.9,0.1l-67.1-124.7&#10;&#9;&#9;c2.9-2,4.4-5.4,4.1-8.7L869.5,179.3z M769.1,68l-56.9,133.5c-2.3-0.7-5-0.5-7.3,0.7c-0.7,0.4-1.3,0.8-1.9,1.3L568.1,82.9&#10;&#9;&#9;c1.1-1.5,1.7-3.2,1.8-5L769.1,68z M553.4,83.7c2.9,3.1,7.6,4.1,11.5,2c0.7-0.4,1.3-0.8,1.9-1.3L701.8,205c-0.6,0.9-1.1,1.9-1.4,3&#10;&#9;&#9;l-249.2-42.8c0.1-1.7-0.2-3.5-1.1-5.1c-0.1-0.1-0.1-0.2-0.2-0.3L553.4,83.7z M448.6,171c1-1.1,1.8-2.4,2.2-3.9L700,210&#10;&#9;&#9;c-0.1,1.7,0.2,3.5,1.1,5.1c0.4,0.8,1,1.6,1.6,2.2l-97.2,120.2c-2.8-1.8-6.5-2.1-9.7-0.4c-0.3,0.2-0.7,0.4-1,0.6L448.6,171z&#10;&#9;&#9; M590.9,345.2c0,1.6,0.3,3.2,1.1,4.7c0.1,0.2,0.2,0.3,0.3,0.5L443.5,466.9c-2.5-1.6-5.8-1.9-8.7-0.8l-78.4-145.6&#10;&#9;&#9;c2-1.4,3.3-3.4,3.9-5.6L590.9,345.2z M346.9,321.3c2.4,1.1,5.2,1.3,7.7,0.2l78.4,145.6c-2.1,1.5-3.5,3.7-4,6.1l-187.4,28.2&#10;&#9;&#9;c-0.2-0.7-0.5-1.4-0.8-2.1c-0.6-1.2-1.5-2.2-2.5-3L346.9,321.3z M232.9,513.3c1.4-0.1,2.8-0.4,4-1.1c1-0.5,1.8-1.2,2.5-1.9&#10;&#9;&#9;l88.7,65.7c-1.6,2.7-1.8,6.2-0.3,9.1l-96.7,63.3c-1.5-1.8-3.6-3-5.8-3.4L232.9,513.3z M345.7,578.9c-0.2-0.9-0.5-1.8-1-2.7&#10;&#9;&#9;c-0.3-0.6-0.7-1.2-1.2-1.7l87.6-93.5c2.8,3.4,7.7,4.4,11.8,2.3c0.4-0.2,0.7-0.4,1.1-0.7l62.3,75.8c-1.7,1.7-2.7,4.1-2.7,6.5&#10;&#9;&#9;L345.7,578.9z M665.4,436.3c-2.7-3.1-7.2-4.1-11.1-2.3L606.1,353c2.1-1.5,3.4-3.8,3.7-6.3l166.3,5.8c0.1,1.3,0.4,2.6,1.1,3.8&#10;&#9;&#9;c0,0.1,0.1,0.1,0.1,0.2L665.4,436.3z"/>
</g>
<g>
	<path fill="#FFFFFF" d="M1077.5,168.9l-1,0.2l-0.2-1L925,204.6c-0.2-0.6-0.4-1.1-0.8-1.6c-1-1.6-2.3-2.9-3.9-3.6l52.4-137.1&#10;&#9;&#9;l-0.9-0.4l-0.1-1L771.4,78.4c-0.2-1-0.6-2-1.1-3c-2.7-4.5-8.5-6-13-3.4c-4.5,2.7-6,8.5-3.4,13c0.1,0.1,0.1,0.2,0.2,0.3l-100.7,80&#10;&#9;&#9;c-3-3-7.7-3.8-11.6-1.5c-4.5,2.7-6,8.5-3.4,13c2.7,4.5,8.5,6,13,3.4c0.3-0.2,0.6-0.4,0.9-0.6l152.5,161c-1.1,1.2-1.8,2.7-2.1,4.3&#10;&#9;&#9;l-231.6-21.5c0-1.6-0.4-3.2-1.3-4.7c-2.7-4.5-8.5-6-13-3.4s-6,8.5-3.4,13c0.7,1.2,1.6,2.1,2.6,2.9l-101.9,179&#10;&#9;&#9;c-2.7-1.2-5.9-1.1-8.6,0.5c-4.5,2.7-6,8.5-3.4,13c1.6,2.6,4.2,4.2,7,4.6l-2.6,131.9c-1.4,0.1-2.7,0.5-4,1.3c-4.5,2.7-6,8.5-3.4,13&#10;&#9;&#9;c2.7,4.5,8.5,6,13,3.4c4.5-2.6,6-8.3,3.5-12.8l94.3-66.9c2.9,3.4,7.9,4.3,11.9,1.9c3.1-1.8,4.7-5.1,4.7-8.4l157.2-19.9&#10;&#9;&#9;c0.2,0.9,0.6,1.8,1.1,2.6c2.7,4.5,8.5,6,13,3.4c4.5-2.7,6-8.5,3.4-13c-1-1.7-2.4-3-4.1-3.8l72.6-205c2.1,0.5,4.4,0.3,6.5-0.8&#10;&#9;&#9;l51.3,79c-3.6,2.9-4.6,8.1-2.2,12.2c2.7,4.5,8.5,6,13,3.4s6-8.5,3.4-13c0-0.1-0.1-0.1-0.1-0.2l108.8-83.9c3,3.1,7.8,3.9,11.7,1.6&#10;&#9;&#9;c1.9-1.1,3.3-2.8,4-4.8l112.1,30.1l0.3-1l1-0.2L1077.5,168.9z M728.3,561.3c-0.2,0.1-0.5,0.3-0.7,0.5l-65.2-73.5&#10;&#9;&#9;c2.5-3,3-7.3,0.9-10.9c-0.5-0.8-1.1-1.6-1.8-2.2l144-121.7c0.7,0.7,1.6,1.3,2.5,1.7l-72.6,205C733.1,559.7,730.6,560,728.3,561.3z&#10;&#9;&#9; M562.6,584c-3-2.1-6.9-2.3-10.3-0.4c-0.9,0.6-1.7,1.2-2.4,2l-91.1-62.3c0.9-1.6,1.3-3.4,1.1-5.3l185.8-35.2&#10;&#9;&#9;c0.1,1.4,0.5,2.8,1.2,4.1L562.6,584z M818.6,339.7l92.6-123.7c2.6,1.6,5.9,1.8,8.8,0.5l71.8,122.1c-2.2,1.6-3.5,4.1-3.8,6.7&#10;&#9;&#9;l-166.4,0.5c-0.1-1.3-0.5-2.6-1.2-3.8C819.8,341,819.2,340.3,818.6,339.7z M1002.2,337.9l74-165.6l41.1,205l-110.5-29.7&#10;&#9;&#9;c0.3-2.1,0-4.3-1.2-6.3C1004.7,339.8,1003.6,338.7,1002.2,337.9z M1074.8,170.5l-74.5,166.6c-2.2-0.7-4.6-0.6-6.9,0.4l-71.8-122.1&#10;&#9;&#9;c2.8-2.1,4.2-5.5,3.8-8.9L1074.8,170.5z M970.3,63l-51.8,135.6c-2.4-0.6-5-0.3-7.3,1c-0.7,0.4-1.3,0.9-1.8,1.4L770,85.5&#10;&#9;&#9;c1-1.5,1.5-3.3,1.6-5.1L970.3,63z M755.3,86.9c3,3,7.7,3.8,11.6,1.5c0.7-0.4,1.3-0.9,1.8-1.4l139.4,115.5c-0.6,0.9-1.1,1.9-1.3,3&#10;&#9;&#9;l-250.7-33.4c0-1.7-0.4-3.5-1.3-5.1c-0.1-0.1-0.1-0.2-0.2-0.3L755.3,86.9z M653.9,178.1c1-1.1,1.7-2.5,2-3.9l250.7,33.4&#10;&#9;&#9;c0,1.7,0.4,3.5,1.3,5.1c0.5,0.8,1.1,1.5,1.7,2.1L817,338.5c-2.9-1.7-6.6-1.8-9.7,0c-0.3,0.2-0.6,0.4-0.9,0.6L653.9,178.1z&#10;&#9;&#9; M802.6,346.8c0,1.6,0.4,3.2,1.3,4.7c0.1,0.2,0.2,0.3,0.3,0.5L659.9,474c-2.6-1.5-5.8-1.7-8.7-0.4L567.4,331&#10;&#9;&#9;c1.9-1.4,3.2-3.5,3.7-5.8L802.6,346.8z M557.9,332.1c2.4,1,5.2,1.1,7.7,0l83.8,142.5c-2.1,1.5-3.4,3.8-3.7,6.2l-186.2,35.3&#10;&#9;&#9;c-0.2-0.7-0.5-1.4-0.9-2.1c-0.7-1.2-1.6-2.1-2.6-2.9L557.9,332.1z M451.3,528.2c1.4-0.1,2.7-0.5,4-1.3c0.9-0.6,1.7-1.2,2.4-2&#10;&#9;&#9;l91.1,62.3c-1.5,2.8-1.6,6.2,0.1,9.1l-94.3,66.9c-1.6-1.8-3.7-2.8-5.9-3.1L451.3,528.2z M566.4,589.6c-0.2-0.9-0.6-1.8-1.1-2.6&#10;&#9;&#9;c-0.4-0.6-0.8-1.2-1.2-1.7l84-96.7c3,3.3,7.9,4.1,11.9,1.8c0.4-0.2,0.7-0.5,1-0.7l65.1,73.4c-1.7,1.8-2.5,4.2-2.5,6.6L566.4,589.6z&#10;&#9;&#9; M880.6,435c-2.8-3-7.4-3.8-11.2-1.9l-51.3-79c2-1.6,3.2-3.9,3.5-6.4l166.4-0.5c0.1,1.3,0.5,2.6,1.2,3.8c0,0.1,0.1,0.1,0.1,0.2&#10;&#9;&#9;L880.6,435z"/>
</g>
<g>
	<path fill="#FFFFFF" d="M1147.7,574.3l-0.8-0.6l0.5-0.9l-132.9-81c0.3-0.5,0.5-1.1,0.6-1.7c0.5-1.8,0.4-3.7-0.2-5.3l133.9-60.1&#10;&#9;&#9;l-0.4-0.9l0.6-0.8L994.9,294c0.6-0.9,1-1.8,1.3-2.9c1.3-5.1-1.7-10.3-6.8-11.6c-5.1-1.3-10.3,1.7-11.6,6.8c0,0.1,0,0.2-0.1,0.3&#10;&#9;&#9;L850,272.2c0-4.3-2.8-8.2-7.1-9.3c-5.1-1.3-10.3,1.7-11.6,6.8c-1.3,5.1,1.7,10.3,6.8,11.6c0.4,0.1,0.8,0.2,1.1,0.2l-5.8,221.7&#10;&#9;&#9;c-1.6,0.1-3.2,0.7-4.5,1.6L680.2,326c1.1-1.1,2-2.6,2.4-4.2c1.3-5.1-1.7-10.3-6.8-11.6c-5.1-1.3-10.3,1.7-11.6,6.8&#10;&#9;&#9;c-0.3,1.3-0.4,2.7-0.2,3.9l-198.6,54.7c-1.1-2.7-3.4-4.9-6.5-5.7c-5.1-1.3-10.3,1.7-11.6,6.8c-0.8,3,0,6,1.7,8.2l-95,91.6&#10;&#9;&#9;c-1.1-0.9-2.3-1.6-3.7-1.9c-5.1-1.3-10.3,1.7-11.6,6.8c-1.3,5.1,1.7,10.3,6.8,11.6c5,1.3,10.1-1.7,11.5-6.6l114,19.2&#10;&#9;&#9;c-0.3,4.5,2.6,8.6,7.1,9.8c3.4,0.9,6.9-0.2,9.2-2.6l125.4,97c-0.5,0.8-0.9,1.7-1.1,2.6c-1.3,5.1,1.7,10.3,6.8,11.6&#10;&#9;&#9;c5.1,1.3,10.3-1.7,11.6-6.8c0.5-1.9,0.4-3.8-0.2-5.5l196.2-93.8c1.1,1.9,2.9,3.3,5.2,4.1l-19.5,92.2c-4.6-0.5-9,2.5-10.2,7.1&#10;&#9;&#9;c-1.3,5.1,1.7,10.3,6.8,11.6c5.1,1.3,10.3-1.7,11.6-6.8c0-0.1,0-0.1,0-0.2L956.3,643c-0.1,4.3,2.8,8.3,7.1,9.4&#10;&#9;&#9;c2.2,0.6,4.3,0.3,6.2-0.5l58.1,100.5l0.9-0.5l0.8,0.6L1147.7,574.3z M623.3,605.4c-0.3-0.1-0.5-0.1-0.8-0.2l5.7-98&#10;&#9;&#9;c3.9-0.4,7.3-3.1,8.3-7.1c0.2-0.9,0.3-1.9,0.3-2.8l187.9,15.6c0,1,0.2,2,0.5,3L629,609.6C627.8,607.6,625.8,606,623.3,605.4z&#10;&#9;&#9; M490,504.4c-0.6-3.5-3.3-6.6-7-7.5c-1.1-0.3-2.1-0.3-3.1-0.3l-20.5-108.5c1.7-0.5,3.3-1.6,4.5-3l156.4,106.3c-0.9,1-1.6,2.3-2,3.7&#10;&#9;&#9;L490,504.4z M843.7,512.3l153-22.2c0.8,2.9,2.9,5.4,5.9,6.6l-35.4,137.1c-2.7-0.4-5.4,0.4-7.4,2L841.6,518.6c0.8-1,1.4-2.2,1.8-3.6&#10;&#9;&#9;C843.6,514.1,843.7,513.2,843.7,512.3z M974.9,640.7l169.4-64.9l-115.6,174.1l-57.3-99.1c1.7-1.3,3-3.1,3.6-5.3&#10;&#9;&#9;C975.4,643.9,975.3,642.2,974.9,640.7z M1144.6,573.5l-170.4,65.3c-1.1-2.1-2.8-3.7-5.1-4.6l35.4-137.1c3.5,0.5,6.9-0.9,8.9-3.6&#10;&#9;&#9;L1144.6,573.5z M1146.5,423.6L1014.1,483c-1.2-2.1-3.3-3.8-5.8-4.4c-0.8-0.2-1.5-0.3-2.3-0.3L988.9,298c1.8-0.4,3.4-1.2,4.7-2.5&#10;&#9;&#9;L1146.5,423.6z M977.5,288.7c0,4.3,2.8,8.2,7.1,9.3c0.8,0.2,1.5,0.3,2.3,0.3l17.1,180.2c-1.1,0.2-2.1,0.6-3.1,1.2L847,279&#10;&#9;&#9;c1.2-1.2,2.2-2.7,2.7-4.5c0-0.1,0-0.2,0.1-0.3L977.5,288.7z M841.2,281.6c1.5-0.1,2.9-0.6,4.2-1.4l153.9,200.7&#10;&#9;&#9;c-1.2,1.2-2.2,2.7-2.7,4.5c-0.2,0.9-0.3,1.8-0.3,2.7l-153,22.2c-0.8-3.2-3.4-6-6.8-6.9c-0.4-0.1-0.8-0.2-1.1-0.2L841.2,281.6z&#10;&#9;&#9; M827.4,506c-1.1,1.1-2,2.6-2.4,4.2c-0.1,0.2-0.1,0.4-0.1,0.6l-188.3-15.6c-0.8-2.9-2.9-5.3-5.8-6.4L672,328.7&#10;&#9;&#9;c2.4,0.4,4.7-0.2,6.7-1.5L827.4,506z M664.6,322.8c1,2.4,2.9,4.5,5.5,5.4l-41.3,160.1c-2.6-0.4-5.1,0.3-7.1,1.8L465,383.5&#10;&#9;&#9;c0.4-0.7,0.6-1.4,0.8-2.1c0.3-1.3,0.4-2.7,0.2-3.9L664.6,322.8z M450.5,386.3c1.1,0.9,2.3,1.6,3.7,1.9c1.1,0.3,2.1,0.3,3.1,0.3&#10;&#9;&#9;L477.9,497c-3,0.9-5.5,3.3-6.4,6.5l-114-19.2c0.1-2.4-0.6-4.6-2-6.4L450.5,386.3z M488.7,511.1c0.5-0.8,0.9-1.7,1.1-2.6&#10;&#9;&#9;c0.2-0.7,0.3-1.4,0.3-2l127.8-9.1c-0.2,4.4,2.7,8.5,7.1,9.7c0.4,0.1,0.8,0.2,1.3,0.2l-5.7,97.9c-2.5,0.1-4.7,1.2-6.4,2.9&#10;&#9;&#9;L488.7,511.1z M820.3,623.5c0.1-4.1-2.5-7.9-6.6-9.2l19.5-92.2c2.6,0.3,5.1-0.5,7-2.1l118.2,117.2c-0.8,1-1.4,2.2-1.8,3.6&#10;&#9;&#9;c0,0.1,0,0.1,0,0.2L820.3,623.5z"/>
</g>
<g>
	<g>
		<path fill="#DDDDDD" d="M919.8,870.9H480.2l-1-1.7L260.4,490.2l219.8-380.7h439.6l1,1.7l218.9,379.1L919.8,870.9z M484,864.2H916&#10;&#9;&#9;&#9;l216-374.1L916,116.1H484l-216,374.1L484,864.2z"/>
	</g>
	<g>
		
			<path d="M 396.100006 327.299988 H 402.800006 V 602.299988 H 396.100006 V 327.299988 Z" transform="matrix(0.1839 0.9829 -0.9829 0.1839 782.8632 -13.2231)" fill="#DDDDDD"/>
	</g>
	<g>
		
			<path d="M 334.799988 391.899994 H 544.399994 V 398.599994 H 334.799988 V 391.899994 Z" transform="matrix(0.9063 0.4226 -0.4226 0.9063 208.2092 -148.7323)" fill="#DDDDDD"/>
	</g>
	<g>
		
			<path d="M 483.700012 426.5 H 490.400012 V 612.600006 H 483.700012 V 426.5 Z" transform="matrix(0.8599 0.5105 -0.5105 0.8599 333.4744 -175.8494)" fill="#DDDDDD"/>
	</g>
	<g>
		
			<path d="M 248.600006 541.5 H 455.300003 V 548.2 H 248.600006 V 541.5 Z" transform="matrix(0.8485 0.5293 -0.5293 0.8485 341.6921 -103.6789)" fill="#DDDDDD"/>
	</g>
	<g>
		<path d="M 436.200012 599.5 H 442.900012 V 793.800003 H 436.200012 V 599.5 Z" fill="#DDDDDD"/>
	</g>
	<g>
		
			<path d="M 557.099976 581 H 563.799975 V 862.5 H 557.099976 V 581 Z" transform="matrix(0.5127 0.8586 -0.8586 0.5127 892.7298 -129.4526)" fill="#DDDDDD"/>
	</g>
	<g>
		
			<path d="M 437 621.200012 H 683.800003 V 627.900012 H 437 V 621.200012 Z" transform="matrix(0.9793 0.2026 -0.2026 0.9793 138.163 -100.5906)" fill="#DDDDDD"/>
	</g>
	<g>
		
			<path d="M 479.799988 541.200012 H 735.899994 V 547.900012 H 479.799988 V 541.200012 Z" transform="matrix(0.5726 0.8198 -0.8198 0.5726 706.2667 -265.6371)" fill="#DDDDDD"/>
	</g>
	<g>
		
			<path d="M 802.900024 421.600006 H 809.600024 V 718.100006 H 802.900024 V 421.600006 Z" transform="matrix(0.5375 0.8433 -0.8433 0.5375 853.4725 -416.304)" fill="#DDDDDD"/>
	</g>
	<g>
		
			<path d="M 533 461.5 H 932.899994 V 468.2 H 533 V 461.5 Z" transform="matrix(0.992 0.1266 -0.1266 0.992 64.733 -89.0265)" fill="#DDDDDD"/>
	</g>
	<g>
		
			<path d="M 577.900024 245 H 584.600024 V 450.699997 H 577.900024 V 245 Z" transform="matrix(0.8912 0.4536 -0.4536 0.8912 221.0246 -225.7925)" fill="#DDDDDD"/>
	</g>
	<g>
		
			<path d="M 482.899994 154.199997 H 489.599994 V 452.900009 H 482.899994 V 154.199997 Z" transform="matrix(0.3171 0.9484 -0.9484 0.3171 620.0073 -253.8183)" fill="#DDDDDD"/>
	</g>
	<g>
		
			<path d="M 580.099976 322.399994 H 728.999969 V 329.099994 H 580.099976 V 322.399994 Z" transform="matrix(0.3581 0.9337 -0.9337 0.3581 724.2755 -402.0677)" fill="#DDDDDD"/>
	</g>
	<g>
		
			<path d="M 604.599976 340.799988 H 611.299975 V 493.999985 H 604.599976 V 340.799988 Z" transform="matrix(0.289 0.9573 -0.9573 0.289 831.775 -285.1979)" fill="#DDDDDD"/>
	</g>
	<g>
		
			<path d="M 672.5 439.399994 H 939.899994 V 446.099994 H 672.5 V 439.399994 Z" transform="matrix(0.9349 0.3549 -0.3549 0.9349 209.6095 -257.32)" fill="#DDDDDD"/>
	</g>
	<g>
		
			<path d="M 889.900024 566.5 H 1085.000031 V 573.2 H 889.900024 V 566.5 Z" transform="matrix(0.5768 0.8169 -0.8169 0.5768 883.4485 -565.5097)" fill="#DDDDDD"/>
	</g>
	<g>
		<path d="M 681.200012 646.200012 H 1043.700012 V 652.900012 H 681.200012 V 646.200012 Z" fill="#DDDDDD"/>
	</g>
	<g>
		
			<path d="M 618.099976 755.200012 H 869.399979 V 761.900012 H 618.099976 V 755.200012 Z" transform="matrix(0.4974 0.8675 -0.8675 0.4974 1031.8668 -263.9529)" fill="#DDDDDD"/>
	</g>
	<g>
		
			<path d="M 857.099976 636.799988 H 863.799975 V 880.199982 H 857.099976 V 636.799988 Z" transform="matrix(0.8955 0.445 -0.445 0.8955 427.4395 -303.6298)" fill="#DDDDDD"/>
	</g>
	<g>
		
			<path d="M 807.200012 755.200012 H 1025.200012 V 761.900012 H 807.200012 V 755.200012 Z" transform="matrix(1.526602e-02 0.9999 -0.9999 1.526602e-02 1660.7025 -169.1455)" fill="#DDDDDD"/>
	</g>
	<g>
		
			<path d="M 641.200012 643.5 H 647.900012 V 873.5 H 641.200012 V 643.5 Z" transform="matrix(0.9478 0.3188 -0.3188 0.9478 275.4727 -165.9137)" fill="#DDDDDD"/>
	</g>
	<g>
		<path d="M 931.200012 486.799988 H 1135.800018 V 493.499988 H 931.200012 V 486.799988 Z" fill="#DDDDDD"/>
	</g>
	<g>
		
			<path d="M 912 421.200012 H 1155.100006 V 427.900012 H 912 V 421.200012 Z" transform="matrix(0.8415 0.5403 -0.5403 0.8415 393.1849 -491.1015)" fill="#DDDDDD"/>
	</g>
	<g>
		<path d="M 927.900024 358.799988 H 934.600024 V 490.099991 H 927.900024 V 358.799988 Z" fill="#DDDDDD"/>
	</g>
	<g>
		
			<path d="M 802.900024 250.699997 H 809.600024 V 503.300003 H 802.900024 V 250.699997 Z" transform="matrix(0.1442 0.9895 -0.9895 0.1442 1063.0735 -475.1304)" fill="#DDDDDD"/>
	</g>
	<g>
		
			<path d="M 952.799988 217.800003 H 959.499988 V 363.300003 H 952.799988 V 217.800003 Z" transform="matrix(0.9395 0.3425 -0.3425 0.9395 157.3069 -309.8858)" fill="#DDDDDD"/>
	</g>
	<g>
		
			<path d="M 894.400024 166.300003 H 901.100024 V 346.400009 H 894.400024 V 166.300003 Z" transform="matrix(0.3792 0.9253 -0.9253 0.3792 794.4424 -671.5288)" fill="#DDDDDD"/>
	</g>
	<g>
		
			<path d="M 805.099976 321.299988 H 940.499969 V 327.999988 H 805.099976 V 321.299988 Z" transform="matrix(0.8633 0.5048 -0.5048 0.8633 283.2322 -396.167)" fill="#DDDDDD"/>
	</g>
	<g>
		
			<path d="M 744.5 258.200012 H 751.2 V 427.600006 H 744.5 V 258.200012 Z" transform="matrix(0.6185 0.7858 -0.7858 0.6185 554.7299 -456.806)" fill="#DDDDDD"/>
	</g>
	<g>
		
			<path d="M 626.299988 270 H 815.899994 V 276.7 H 626.299988 V 270 Z" transform="matrix(0.9835 0.1808 -0.1808 0.9835 61.2948 -125.8552)" fill="#DDDDDD"/>
	</g>
	<g>
		
			<path d="M 452.700012 181.199997 H 657.200012 V 187.899997 H 452.700012 V 181.199997 Z" transform="matrix(0.7128 0.7014 -0.7014 0.7128 288.7996 -336.2775)" fill="#DDDDDD"/>
	</g>
	<g>
		
			<path d="M 689.5 87.800003 H 696.2 V 281.300003 H 689.5 V 87.800003 Z" transform="matrix(0.7415 0.6709 -0.6709 0.7415 302.838 -417.1215)" fill="#DDDDDD"/>
	</g>
	<g>
		
			<path d="M 692.799988 198.300003 H 879.299988 V 205.000003 H 692.799988 V 198.300003 Z" transform="matrix(0.3037 0.9528 -0.9528 0.3037 739.3953 -608.5125)" fill="#DDDDDD"/>
	</g>
	<g>
		
			<path d="M 745 164.100006 H 993.699997 V 170.800006 H 745 V 164.100006 Z" transform="matrix(0.8981 0.4399 -0.4399 0.8981 162.2837 -365.3398)" fill="#DDDDDD"/>
	</g>
	<g>
		
			<path d="M 627.200012 816.799988 H 818.700012 V 823.499988 H 627.200012 V 816.799988 Z" transform="matrix(0.869 0.4948 -0.4948 0.869 500.5579 -250.313)" fill="#DDDDDD"/>
	</g>
	<g>
		<path d="M 629.7999877929688 790.0999755859375 L 619.7999877929688 772.7999877929688 L 629.7999877929688 755.5 L 649.7999877929688 755.5 L 659.7999877929688 772.7999877929688 L 649.7999877929688 790.0999755859375 Z" fill="#DDDDDD"/>
	</g>
	<g>
		<path d="M 597.9000244140625 884.9000244140625 L 587.9000244140625 867.5999755859375 L 597.9000244140625 850.2000122070312 L 617.9000244140625 850.2000122070312 L 627.9000244140625 867.5999755859375 L 617.9000244140625 884.9000244140625 Z" fill="#DDDDDD"/>
	</g>
	<g>
		<path d="M 477.1000061035156 884.9000244140625 L 467.1000061035156 867.5999755859375 L 477.1000061035156 850.2000122070312 L 497.1000061035156 850.2000122070312 L 507.1000061035156 867.5999755859375 L 497.1000061035156 884.9000244140625 Z" fill="#DDDDDD"/>
	</g>
	<g>
		<path d="M 429.6000061035156 807.4000244140625 L 419.6000061035156 790.0999755859375 L 429.6000061035156 772.7999877929688 L 449.6000061035156 772.7999877929688 L 459.6000061035156 790.0999755859375 L 449.6000061035156 807.4000244140625 Z" fill="#DDDDDD"/>
	</g>
	<g>
		<path d="M 429.6000061035156 616.9000244140625 L 419.6000061035156 599.5 L 429.6000061035156 582.2000122070312 L 449.6000061035156 582.2000122070312 L 459.6000061035156 599.5 L 449.6000061035156 616.9000244140625 Z" fill="#DDDDDD"/>
	</g>
	<g>
		<path d="M 671.2000122070312 666.9000244140625 L 661.2000122070312 649.5 L 671.2000122070312 632.2000122070312 L 691.2000122070312 632.2000122070312 L 701.2000122070312 649.5 L 691.2000122070312 666.9000244140625 Z" fill="#DDDDDD"/>
	</g>
	<g>
		<path d="M 796.2000122070312 884.9000244140625 L 786.2000122070312 867.5999755859375 L 796.2000122070312 850.2000122070312 L 816.2000122070312 850.2000122070312 L 826.2000122070312 867.5999755859375 L 816.2000122070312 884.9000244140625 Z" fill="#DDDDDD"/>
	</g>
	<g>
		<path d="M 904.5999755859375 666.9000244140625 L 894.5999755859375 649.5 L 904.5999755859375 632.2000122070312 L 924.5999755859375 632.2000122070312 L 934.5999755859375 649.5 L 924.5999755859375 666.9000244140625 Z" fill="#DDDDDD"/>
	</g>
	<g>
		<path d="M 904.5999755859375 884.9000244140625 L 894.5999755859375 867.5999755859375 L 904.5999755859375 850.2000122070312 L 924.5999755859375 850.2000122070312 L 934.5999755859375 867.5999755859375 L 924.5999755859375 884.9000244140625 Z" fill="#DDDDDD"/>
	</g>
	<g>
		<path d="M 1023.5 666.9000244140625 L 1013.5 649.5 L 1023.5 632.2000122070312 L 1043.5 632.2000122070312 L 1053.5 649.5 L 1043.5 666.9000244140625 Z" fill="#DDDDDD"/>
	</g>
	<g>
		<path d="M 1125.800048828125 507.5 L 1115.800048828125 490.20001220703125 L 1125.800048828125 472.79998779296875 L 1145.800048828125 472.79998779296875 L 1155.800048828125 490.20001220703125 L 1145.800048828125 507.5 Z" fill="#DDDDDD"/>
	</g>
	<g>
		<path d="M 921.2000122070312 512.7999877929688 L 911.2000122070312 495.5 L 921.2000122070312 478.1000061035156 L 941.2000122070312 478.1000061035156 L 951.2000122070312 495.5 L 941.2000122070312 512.7999877929688 Z" fill="#DDDDDD"/>
	</g>
	<g>
		<path d="M 924.5999755859375 376.1000061035156 L 914.5999755859375 358.79998779296875 L 924.5999755859375 341.5 L 944.5999755859375 341.5 L 954.5999755859375 358.79998779296875 L 944.5999755859375 376.1000061035156 Z" fill="#DDDDDD"/>
	</g>
	<g>
		<path d="M 671.2000122070312 412.6000061035156 L 661.2000122070312 395.29998779296875 L 671.2000122070312 377.8999938964844 L 691.2000122070312 377.8999938964844 L 701.2000122070312 395.29998779296875 L 691.2000122070312 412.6000061035156 Z" fill="#DDDDDD"/>
	</g>
	<g>
		<path d="M 524.5999755859375 460 L 514.5999755859375 442.70001220703125 L 524.5999755859375 425.3999938964844 L 544.5999755859375 425.3999938964844 L 554.5999755859375 442.70001220703125 L 544.5999755859375 460 Z" fill="#DDDDDD"/>
	</g>
	<g>
		<path d="M 254.1999969482422 507.5 L 244.1999969482422 490.20001220703125 L 254.1999969482422 472.79998779296875 L 274.20001220703125 472.79998779296875 L 284.20001220703125 490.20001220703125 L 274.20001220703125 507.5 Z" fill="#DDDDDD"/>
	</g>
	<g>
		<path d="M 334.6000061035156 368.29998779296875 L 324.6000061035156 351 L 334.6000061035156 333.6000061035156 L 354.6000061035156 333.6000061035156 L 364.6000061035156 351 L 354.6000061035156 368.29998779296875 Z" fill="#DDDDDD"/>
	</g>
	<g>
		<path d="M 617.9000244140625 273.6000061035156 L 607.9000244140625 256.29998779296875 L 617.9000244140625 239 L 637.9000244140625 239 L 647.9000244140625 256.29998779296875 L 637.9000244140625 273.6000061035156 Z" fill="#DDDDDD"/>
	</g>
	<g>
		<path d="M 804.4000244140625 307.79998779296875 L 794.4000244140625 290.5 L 804.4000244140625 273.20001220703125 L 824.4000244140625 273.20001220703125 L 834.4000244140625 290.5 L 824.4000244140625 307.79998779296875 Z" fill="#DDDDDD"/>
	</g>
	<g>
		<path d="M 971 239.5 L 961 222.1999969482422 L 971 204.8000030517578 L 991 204.8000030517578 L 1001 222.1999969482422 L 991 239.5 Z" fill="#DDDDDD"/>
	</g>
	<g>
		<path d="M 747.7000122070312 130.10000610351562 L 737.7000122070312 112.80000305175781 L 747.7000122070312 95.4000015258789 L 767.7000122070312 95.4000015258789 L 777.7000122070312 112.80000305175781 L 767.7000122070312 130.10000610351562 Z" fill="#DDDDDD"/>
	</g>
	<g>
		<path d="M 904.5999755859375 130.10000610351562 L 894.5999755859375 112.80000305175781 L 904.5999755859375 95.4000015258789 L 924.5999755859375 95.4000015258789 L 934.5999755859375 112.80000305175781 L 924.5999755859375 130.10000610351562 Z" fill="#DDDDDD"/>
	</g>
	<g>
		<path d="M 476.20001220703125 130.10000610351562 L 466.20001220703125 112.80000305175781 L 476.20001220703125 95.4000015258789 L 496.20001220703125 95.4000015258789 L 506.20001220703125 112.80000305175781 L 496.20001220703125 130.10000610351562 Z" fill="#DDDDDD"/>
	</g>
</g>
<linearGradient id="SVGID_2_" gradientUnits="userSpaceOnUse" x1="376.5218" y1="473.4365" x2="1043.2922" y2="473.4365">
	<stop offset="8.340641e-02" style="stop-color:#DA68F2"/>
	<stop offset="0.2061" style="stop-color:#B560F5"/>
	<stop offset="0.4783" style="stop-color:#574BFD"/>
	<stop offset="0.5454" style="stop-color:#3F46FF"/>
	<stop offset="1" style="stop-color:#A4DFBC"/>
</linearGradient>
<path fill="url(#SVGID_2_)" d="M1043.3,299l0-16.9l-14.6-8.5l-11.8,6.8L817.4,164.8l0-13.6l-14.6-8.5l-11.8,6.8l-68.2-39.6l0-10.8&#10;&#9;l-14.6-8.5L693.6,99l0,13.6l-88.3,50.8l-11.8-6.8l-14.6,8.4l0,13.6l-172.1,99l-11.8-6.8l-14.6,8.4l0,16.9l8.8,5.1l-0.4,205.1&#10;&#9;l-11.8,6.8l0,16.9l11.8,6.8l-0.2,105.1l-11.8,6.8l0,16.9l14.6,8.5l11.8-6.8l228,132.2l0,11.8l14.6,8.5l10.2-5.9l42.5,24.7l0,9.4&#10;&#9;l14.6,8.5l14.6-8.4l0-13.6l61.9-35.6l11.8,6.8l14.6-8.4l0-13.6l118.6-68.2l11.8,6.8l14.6-8.4l0-13.6l52.8-30.4l11.8,6.8l14.6-8.4&#10;&#9;l0-16.9l-9.4-5.4l0.3-184.7l4.3-2.5l0-16.9l-4.3-2.5l0.2-133.4L1043.3,299z M888.6,367.8l-7.3-4.2l-4.9,2.8l-42.9-74.6l7.3-4.2&#10;&#9;l0-3.4l173.2,8.5l0,3.1L888.6,367.8z M1006.3,441.7l0,13.6l-60.6,34.8l-11.8-6.8l-14.6,8.4l0,13.6L775,588.2l-2.6-1.5l101.3-193.8&#10;&#9;l7.6,4.4l14.6-8.4l0-1.4l113.3,52.5L1006.3,441.7z M1011,651.1l0,13.6l-52.8,30.4l-10-5.8l-10.6-174.5l1.3-0.8l79.2,133L1011,651.1z&#10;&#9; M801.3,771.7l-0.5,0.3l-10.5-52.5l9-5.2l0-5.7l132.4-0.5l0,2.3l-118.6,68.2L801.3,771.7z M409.5,282.5l172.1-99l6,3.5l-28.1,129.6&#10;&#9;l-0.6-0.4l-14.6,8.4l0,1.7l-134.8-35.2L409.5,282.5z M708.1,124.4l14.2-8.2l65.8,38.2l0,3.4l-180.1,12l0-1.4l88.3-50.8L708.1,124.4z&#10;&#9; M1014.1,287l-173.2-8.5l0-7.8l-14.6-8.5l-2.5,1.5L808,173.4l6.5-3.7l199.5,115.7L1014.1,287z M922.1,510.2l10,5.8l10.6,174.5&#10;&#9;l-8,4.6l-156.8-91.5l0-10.4L922.1,510.2z M405.5,648.5l151.8-129.7l7.2,4.2l-1.8,124.9l-12,6.9l0,5.1l-145-5.2l0-6.1L405.5,648.5z&#10;&#9; M666,401l-1.8-1l42.3-105.2l3,1.8l14.6-8.4l0-5.5l87.4,0.6l0,3.3L666,401z M580,498.1l-0.5-0.3l69-73.2l7.8,4.5l14.6-8.4l0-8&#10;&#9;l185.2-29.7L580,498.1z M573.5,330.8l121.5-43l0,0.3l6.7,3.9l-42.3,105.2l-3-1.8l-9.6,5.5l-73.3-59.6L573.5,330.8z M811.7,270.6l0,7&#10;&#9;l-87.4-0.6l0-5.7l-3.1-1.8l75.1-96.8l6.6,3.8l0.1-0.1l15.7,90.3L811.7,270.6z M791.3,169.8l-75.1,96.8l-6.6-3.8l-8.8,5.1l-93.5-85.5&#10;&#9;l0.7-0.4l0-6.6l180.1-12l0,4.6L791.3,169.8z M593.4,190.3l8.8-5.1l93.5,85.5l-0.7,0.4l0,10.7l-121.5,43l0-0.2l-8.9-5.1l28.1-129.6&#10;&#9;L593.4,190.3z M568.4,344.4l73.3,59.6l0,16.7l1.8,1.1l-69,73.2l-4.8-2.8l-7.3-144.3L568.4,344.4z M568.4,648.2l1.7-123.4l13.4-7.7&#10;&#9;l0-0.2l165.1,77.6l0,5.6L580,655.5l0-0.6L568.4,648.2z M763.2,581.4L750,589l-166.5-78.3l0-8l283.1-118l0,4.1l2.2,1.2L767.5,583.9&#10;&#9;L763.2,581.4z M866.7,372l0,3.7l-195.8,31.4l0-2.7l145.2-114.2l10.1,5.9l2.4-1.4l42.9,74.6L866.7,372z M556.8,348.8l7.4,145.8&#10;&#9;l-9.9,5.7l0,4.5L406,517.3l0-4.3l-2.2-1.3l147.6-166.1L556.8,348.8z M406,529.9l0-6.9l148.3-12.7l0,3.7l-154,131.5l-6.4-3.7&#10;&#9;l0.2-105.1L406,529.9z M405.8,660.4l145,5.2l0,6.1l14.6,8.5l4.9-2.8l65.6,114l-3.7,2.1L405.8,662.3L405.8,660.4z M645.6,785.8&#10;&#9;l-4.9,2.8l-65.6-114l4.9-2.8l0-10.3L748.6,606l0,0.6l5.1,2.9l-101,180.3L645.6,785.8z M774.9,608.4l156.8,91.5l0,2.5L799.3,703&#10;&#9;l0-5.5l-14.6-8.5l-0.5,0.3l-15.5-77.3L774.9,608.4z M394.8,304.5l13.7-7.9l135.7,35.5l0,9.4l2.2,1.3L398.8,508.8l-4.6-2.7l0.4-201.8&#10;&#9;L394.8,304.5z M660.1,809.7l0-15.5l-2.7-1.6l101-180.3l4.7,2.7l0.5-0.3l15.5,77.3l-9,5.2l0,16.9l14.6,8.5l0.5-0.3l10.5,52.5l-9,5.2&#10;&#9;l0,13.6l-61.9,35.6l-11.8-6.8l-14.6,8.4l0,0.9L660.1,809.7z M1025.2,642.9l-2.3,1.3l-79.2-133l4.7-2.7l0-13.6l60.6-34.8l11.8,6.8&#10;&#9;l4.7-2.7L1025.2,642.9z M1020.9,433.2l-5.8,3.3l-119.2-55.3l0-9.2l-1.7-1l122.6-70.5l9,5.2l-0.2,130.2L1020.9,433.2z"/>
</svg>