<svg xmlns="http://www.w3.org/2000/svg" width="425" height="363" viewBox="0 0 425 363">
  <g fill="none" fill-rule="evenodd">
    <path fill="#F8F7F5" d="M210.395,340.36 C317.477,340.36 404.285,345.428 404.285,351.68 C404.285,357.932 317.477,362.999 210.395,362.999 C103.312,362.999 16.505,357.932 16.505,351.68 C16.505,345.428 103.312,340.36 210.395,340.36"/>
    <polygon fill="#DFDFDA" points="14.185 334.07 55.395 334.07 55.395 333.82 14.185 333.82"/>
    <polygon fill="#DFDFDA" points="98.065 332.07 139.395 332.07 139.395 331.82 98.065 331.82"/>
    <polygon fill="#DFDFDA" points="183.175 332.07 193.175 332.07 193.175 331.82 183.175 331.82"/>
    <polygon fill="#DFDFDA" points="46.975 340.61 93.225 340.61 93.225 340.36 46.975 340.36"/>
    <polygon fill="#DFDFDA" points="231.595 333.94 253.195 333.94 253.195 333.69 231.595 333.69"/>
    <polygon fill="#DFDFDA" points="262.095 333.94 290.025 333.94 290.025 333.69 262.095 333.69"/>
    <polygon fill="#DFDFDA" points="362.285 338.169 424.725 338.169 424.725 337.919 362.285 337.919"/>
    <polygon fill="#E6E6E1" points="325.225 89.105 372.835 89.105 372.835 55.835 325.225 55.835"/>
    <polygon fill="#F3F2EF" points="325.225 89.105 346.695 89.105 346.695 55.835 325.225 55.835"/>
    <path fill="#EBEAE6" d="M335.943,74.525 C332.027,74.525 328.853,71.351 328.853,67.435 C328.853,63.519 332.027,60.345 335.943,60.345 C339.859,60.345 343.033,63.519 343.033,67.435 C343.033,71.351 339.859,74.525 335.943,74.525"/>
    <path fill="#DFDFDA" d="M339.403,81.265 C339.403,83.176 337.854,84.725 335.943,84.725 C334.032,84.725 332.483,83.176 332.483,81.265 C332.483,79.354 334.032,77.805 335.943,77.805 C337.854,77.805 339.403,79.354 339.403,81.265"/>
    <path fill="#FDFCFB" d="M337.91,67.916 C337.91,69.03 337.006,69.934 335.892,69.934 C334.778,69.934 333.874,69.03 333.874,67.916 C333.874,66.802 334.778,65.899 335.892,65.899 C337.006,65.899 337.91,66.802 337.91,67.916"/>
    <polygon fill="#F3F2EF" points="250.603 89.118 271.191 89.118 271.191 43.922 250.603 43.922"/>
    <polygon fill="#E6E6E1" points="270.629 89.118 297.947 89.118 297.947 43.922 270.629 43.922"/>
    <path fill="#FFFFFE" d="M260.823 58.273C262.397 58.273 263.674 59.549 263.674 61.124 263.674 62.699 262.397 63.976 260.823 63.976 259.248 63.976 257.971 62.699 257.971 61.124 257.971 59.549 259.248 58.273 260.823 58.273M260.823 53.822C261.61 53.822 262.249 54.46 262.249 55.247 262.249 56.035 261.61 56.673 260.823 56.673 260.035 56.673 259.397 56.035 259.397 55.247 259.397 54.46 260.035 53.822 260.823 53.822M260.823 49.499C261.61 49.499 262.249 50.137 262.249 50.925 262.249 51.712 261.61 52.351 260.823 52.351 260.035 52.351 259.397 51.712 259.397 50.925 259.397 50.137 260.035 49.499 260.823 49.499"/>
    <polygon fill="#DFDFDA" points="251.064 69.985 297.468 69.985 297.468 69.272 251.064 69.272"/>
    <polygon fill="#DFDFDA" points="251.064 73.995 297.468 73.995 297.468 73.282 251.064 73.282"/>
    <polygon fill="#DFDFDA" points="251.064 78.005 297.468 78.005 297.468 77.292 251.064 77.292"/>
    <polygon fill="#DFDFDA" points="251.064 82.015 297.468 82.015 297.468 81.302 251.064 81.302"/>
    <polygon fill="#DFDFDA" points="251.064 86.025 297.468 86.025 297.468 85.312 251.064 85.312"/>
    <polygon fill="#DFDFDA" points="259.352 72.45 261.313 72.45 261.313 70.49 259.352 70.49"/>
    <polygon fill="#DFDFDA" points="259.352 76.669 261.313 76.669 261.313 74.708 259.352 74.708"/>
    <polygon fill="#DFDFDA" points="259.352 80.47 261.313 80.47 261.313 78.509 259.352 78.509"/>
    <polygon fill="#DFDFDA" points="259.352 84.569 261.313 84.569 261.313 82.609 259.352 82.609"/>
    <polygon fill="#DFDFDA" points="259.352 88.552 261.313 88.552 261.313 86.591 259.352 86.591"/>
    <path fill="#DFDFDA" d="M211.264,133.625 L210.264,133.625 L210.264,95.321 C210.264,91.022 213.761,87.525 218.06,87.525 L251.064,87.525 L251.064,88.525 L218.06,88.525 C214.313,88.525 211.264,91.573 211.264,95.321 L211.264,133.625"/>
    <path fill="#DFDFDA" d="M209.264,133.682 L208.264,133.682 L208.264,95.041 C208.264,89.825 212.507,85.581 217.723,85.581 L251.064,85.581 L251.064,86.581 L217.723,86.581 C213.059,86.581 209.264,90.376 209.264,95.041 L209.264,133.682"/>
    <polygon fill="#E6E6E1" points="68.455 70.941 99.765 70.941 99.765 37.611 68.455 37.611"/>
    <polygon fill="#F8F7F5" points="99.765 70.941 107.786 70.941 107.786 37.611 99.765 37.611"/>
    <polygon fill="#E6E6E1" points="60.246 70.941 83.766 70.941 83.766 32.471 60.246 32.471"/>
    <polygon fill="#F8F7F5" points="83.755 70.941 90.555 70.941 90.555 32.471 83.755 32.471"/>
    <polygon fill="#ECECE8" points="57.005 70.941 76.835 70.941 76.835 37.611 57.005 37.611"/>
    <polygon fill="#F8F7F5" points="76.835 70.941 81.365 70.941 81.365 37.611 76.835 37.611"/>
    <polygon fill="#E6E6E1" points="34.595 70.941 60.606 70.941 60.606 43.251 34.595 43.251"/>
    <polygon fill="#F8F7F5" points="60.606 70.941 67.265 70.941 67.265 43.251 60.606 43.251"/>
    <polygon fill="#E6E6E1" points="27.776 70.941 47.316 70.941 47.316 38.981 27.776 38.981"/>
    <polygon fill="#F8F7F5" points="47.305 70.941 52.955 70.941 52.955 38.981 47.305 38.981"/>
    <polygon fill="#E6E6E1" points="22.576 70.941 41.555 70.941 41.555 43.251 22.576 43.251"/>
    <polygon fill="#F3F2EF" points="41.566 70.941 45.326 70.941 45.326 43.251 41.566 43.251"/>
    <polygon fill="#E6E6E1" points=".393 80.57 204.393 80.57 204.393 70.924 .393 70.924"/>
    <polyline fill="#DFDFDA" points="37.001 80.798 48.287 80.798 40.066 93.209 37.001 93.209 37.001 80.798"/>
    <polygon fill="#DFDFDA" points="35.375 93.21 37 93.21 37 80.798 35.375 80.798"/>
    <polyline fill="#DFDFDA" points="163.709 80.798 174.995 80.798 166.774 93.209 163.709 93.209 163.709 80.798"/>
    <polygon fill="#DFDFDA" points="162.083 93.21 163.709 93.21 163.709 80.798 162.083 80.798"/>
    <polygon fill="#E6E6E1" points="216.629 98.765 420.629 98.765 420.629 89.118 216.629 89.118"/>
    <polyline fill="#DFDFDA" points="384.022 111.404 380.957 111.404 372.736 98.991 384.022 98.991 384.022 111.404"/>
    <polygon fill="#DFDFDA" points="384.022 111.404 385.647 111.404 385.647 98.991 384.022 98.991"/>
    <polyline fill="#DFDFDA" points="257.314 111.404 254.249 111.404 246.028 98.991 257.314 98.991 257.314 111.404"/>
    <polygon fill="#DFDFDA" points="257.314 111.404 258.939 111.404 258.939 98.991 257.314 98.991"/>
    <path fill="#F3F2EF" d="M143.282 59.362C139.102 59.362 135.715 55.972 135.715 51.792 135.715 47.612 139.102 44.221 143.282 44.221 147.461 44.221 150.852 47.612 150.852 51.792 150.852 55.972 147.461 59.362 143.282 59.362zM157.845 51.5C157.845 50.029 157.628 48.608 157.22 47.272L160.929 44.008 158.594 39.963 153.913 41.546C151.975 39.478 149.444 37.977 146.589 37.314L145.618 32.471 140.946 32.471 139.977 37.314C137.124 37.977 134.588 39.478 132.651 41.546L127.969 39.963 125.634 44.008 129.343 47.272C128.938 48.608 128.718 50.029 128.718 51.5 128.718 52.973 128.938 54.392 129.343 55.731L125.634 58.991 127.969 63.037 132.651 61.454C134.588 63.521 137.124 65.022 139.977 65.689L140.946 70.531 145.618 70.531 146.589 65.689C149.444 65.022 151.975 63.521 153.913 61.454L158.594 63.037 160.929 58.991 157.22 55.731C157.628 54.392 157.845 52.973 157.845 51.5L157.845 51.5zM177.633 63.367C175.286 64.804 172.219 64.065 170.782 61.718 169.345 59.371 170.082 56.303 172.428 54.866 174.776 53.429 177.844 54.167 179.282 56.514 180.718 58.862 179.981 61.93 177.633 63.367zM183.108 53.946C182.603 53.121 181.993 52.397 181.303 51.787L182.265 48.679 179.562 47.21 177.478 49.709C175.679 49.214 173.742 49.241 171.911 49.85L169.701 47.465 167.078 49.07 168.199 52.123C166.824 53.476 165.916 55.191 165.54 57.018L162.366 57.738 162.446 60.813 165.65 61.37C165.882 62.259 166.248 63.134 166.752 63.959 167.259 64.787 167.871 65.508 168.558 66.12L167.596 69.226 170.298 70.695 172.383 68.197C174.182 68.692 176.122 68.663 177.953 68.056L180.162 70.443 182.785 68.837 181.666 65.783C183.04 64.427 183.945 62.715 184.322 60.887L187.495 60.167 187.416 57.092 184.211 56.537C183.981 55.644 183.615 54.774 183.108 53.946L183.108 53.946z"/>
    <polygon fill="#426AA5" points="6.955 219.86 414.573 219.86 414.573 214.73 6.955 214.73"/>
    <polyline fill="#426AA5" points="31.234 218.41 31.234 340.75 34.415 340.75 38.415 218.41 31.234 218.41"/>
    <polyline fill="#426AA5" points="68.774 222.41 68.774 335.75 71.955 335.75 75.955 222.41 68.774 222.41"/>
    <polyline fill="#263868" points="71.955 335.75 68.774 335.75 68.774 225.348 75.851 225.348 71.955 335.75"/>
    <polyline fill="#426AA5" points="391.74 218.41 391.74 340.75 388.57 340.75 384.56 218.41 391.74 218.41"/>
    <polyline fill="#426AA5" points="354.21 222.41 354.21 335.75 351.03 335.75 347.03 222.41 354.21 222.41"/>
    <path fill="#263868" d="M354.21,335.75 L351.03,335.75 L348.725,270.459 L352.885,270.459 L352.885,270.348 C353.337,270.283 353.779,270.188 354.21,270.067 L354.21,335.75"/>
    <polyline fill="#426AA5" points="398.991 225.348 23.734 225.348 15.434 219.86 407.29 219.86 398.991 225.348"/>
    <path fill="#263868" d="M398.991,225.348 L361.768,225.348 L361.768,219.86 L407.29,219.86 L398.991,225.348 M284.686,225.348 L273.229,225.348 C269.281,224.636 265.284,224.28 261.288,224.28 C257.292,224.28 253.295,224.636 249.347,225.348 L130.354,225.348 C130.371,223.471 130.402,221.642 130.444,219.86 L287.746,219.86 C287.762,221.7 287.787,223.421 287.839,224.989 L287.792,224.989 C287.745,224.989 286.608,225.102 284.686,225.348 M88.931,225.348 L23.734,225.348 L15.434,219.86 L89.516,219.86 C89.307,221.968 89.09,223.788 88.931,225.348"/>
    <path fill="#426AA5" d="M35.745,199.003 C35.745,198.729 35.967,198.506 36.242,198.506 L37.913,198.506 L37.913,205.08 L37.925,205.347 L35.89,203.312 C35.798,203.219 35.745,203.091 35.745,202.96 L35.745,199.003 M33.745,199.003 L33.745,202.96 C33.745,203.626 34.004,204.253 34.475,204.726 L37.649,207.899 C37.94,208.19 38.293,208.389 38.676,208.507 C39.97,211.29 42.784,213.224 46.056,213.224 L47.244,213.224 C51.742,213.224 55.388,209.578 55.388,205.08 L55.388,195.749 L37.913,195.749 L37.913,196.506 L36.242,196.506 C34.865,196.506 33.745,197.626 33.745,199.003"/>
    <path fill="#98B3D3" d="M48.774,213.08 L44.528,213.08 C41.924,212.584 39.764,210.846 38.676,208.507 C38.293,208.389 37.94,208.19 37.649,207.899 L34.475,204.726 C34.004,204.253 33.745,203.626 33.745,202.96 L33.745,199.003 C33.745,197.626 34.865,196.506 36.242,196.506 L37.913,196.506 L37.913,195.749 L55.388,195.749 L55.388,205.08 C55.388,209.055 52.541,212.364 48.774,213.08 M37.925,205.347 L37.925,205.347 L37.913,205.08 L37.913,198.506 L36.242,198.506 C35.967,198.506 35.745,198.729 35.745,199.003 L35.745,202.96 C35.745,203.091 35.798,203.219 35.89,203.312 L37.925,205.347"/>
    <path fill="#426AA5" d="M59.536,214.561 L34.397,214.561 C32.762,214.561 31.437,213.08 31.437,213.08 L62.497,213.08 C62.497,213.08 61.171,214.561 59.536,214.561"/>
    <path fill="#98B3D3" d="M59.536,214.561 L34.397,214.561 C32.762,214.561 31.437,213.08 31.437,213.08 L62.497,213.08 C62.497,213.08 61.171,214.561 59.536,214.561"/>
    <path fill="#426AA5" d="M390.661,209.928 L390.661,199.426 C393.561,199.853 395.565,200.25 395.138,203.15 C394.796,205.466 392.977,209.586 390.661,209.928 M397.759,202.369 C397.627,198.401 394.607,197.428 390.661,196.98 L390.661,195.531 C390.655,195.182 390.367,194.906 390.019,194.912 L376.39,194.912 C376.035,194.898 375.736,195.174 375.721,195.53 L375.721,214.441 L390.661,214.441 L390.661,212.373 C394.614,211.93 397.639,206.346 397.759,202.369"/>
    <path fill="#98B3D3" d="M390.661,214.441 L375.721,214.441 L375.721,195.53 C375.735,195.183 376.02,194.912 376.363,194.912 C376.372,194.912 376.381,194.912 376.39,194.912 L390.019,194.912 C390.023,194.912 390.027,194.912 390.032,194.912 C390.374,194.912 390.655,195.186 390.661,195.531 L390.661,196.98 C394.607,197.428 397.627,198.401 397.759,202.369 C397.639,206.346 394.614,211.93 390.661,212.373 L390.661,214.441 M390.661,209.928 L390.661,209.928 C392.977,209.586 394.796,205.466 395.138,203.15 C395.176,202.889 395.195004,202.649 395.195004,202.427 C395.198,200.179 393.3,199.814 390.661,199.426 L390.661,209.928"/>
    <polygon fill="#426AA5" points="204.5 214.292 216.29 214.292 216.29 190.341 204.5 190.341"/>
    <polyline fill="#98B3D3" points="204.5 210.123 204.5 199.835 216.29 199.835 216.29 206.967 214.884 206.967 216.29 208.051 214.884 206.967 215.375 209.926 204.724 209.926 204.5 210.123"/>
    <polyline fill="#426AA5" points="221.613 214.722 199.276 214.722 204.724 209.926 216.164 209.926 221.613 214.722"/>
    <polyline fill="#98B3D3" points="216.169 214.722 199.276 214.722 204.724 209.926 215.375 209.926 216.169 214.722"/>
    <polyline fill="#426AA5" points="270.724 206.967 214.884 206.967 224.974 214.751 280.804 214.751 270.724 206.967"/>
    <polyline fill="#83A5CB" points="280.804 214.751 224.974 214.751 216.29 208.051 214.884 206.967 270.724 206.967 280.804 214.751"/>
    <polyline fill="#426AA5" points="216.174 214.751 214.884 206.967 224.974 214.751 216.174 214.751"/>
    <polyline fill="#263868" points="224.974 214.751 216.174 214.751 214.884 206.967 224.974 214.751"/>
    <path fill="#426AA5" d="M159.29,133.654 L260.926,133.654 C261.991,133.654 262.854,134.517 262.854,135.582 L262.854,197.906 C262.854,198.972 261.991,199.835 260.926,199.835 L159.29,199.835 C158.226,199.835 157.363,198.972 157.363,197.906 L157.363,135.582 C157.363,134.517 158.226,133.654 159.29,133.654"/>
    <path fill="#263868" d="M258.915,195.463 L161.195,195.463 L161.195,180.261 L163.331,180.036 L163.583,173.612 C163.596,173.27 163.528,172.928 163.369,172.625 C162.645,171.25 161.703,169.944 161.195,169.274 L161.195,161.716 C161.782,159.557 162.744,157.526 164.398,156.061 C163.46,156.186 162.366,156.22 161.195,156.233 L161.195,137.788 L258.915,137.788 L258.915,195.463 L258.915,195.463 Z M206.5,183.599 L255.811,183.599 L255.811,149.652 L206.5,149.652 L206.5,183.599 Z"/>
    <polygon fill="#131B33" points="206.5 183.599 255.811 183.599 255.811 149.652 206.5 149.652"/>
    <polygon fill="#426AA5" points="206.5 152.761 255.811 152.761 255.811 149.652 206.5 149.652"/>
    <path fill="#FFFFFE" d="M215.535 168.427L223.597 172.894C224.001 173.121 224.271 173.324 224.404 173.502 224.538 173.68 224.604 173.906 224.604 174.181 224.604 174.53 224.479 174.831 224.228 175.086 223.977 175.341 223.686 175.468 223.354 175.468 223.135 175.468 222.807 175.347 222.371 175.105L211.97 169.321C211.269 168.931 211.269 167.923 211.97 167.533L222.371 161.749C222.807 161.514 223.131 161.397 223.341 161.397 223.682 161.397 223.977 161.523 224.228 161.773 224.479 162.025 224.604 162.324 224.604 162.672 224.604 162.947 224.538 163.174 224.404 163.352 224.271 163.53 224.001 163.732 223.597 163.959L215.535 168.427M236.278 160.098L228.302 177.29C228.099 177.719 227.917 177.998 227.755 178.128 227.544 178.298 227.29 178.383 226.991 178.383 226.651 178.383 226.357 178.261 226.11 178.018 225.863 177.776 225.74 177.5 225.74 177.193 225.74 176.974 225.836 176.655 226.031 176.234L234.033 159.054C234.235 158.625 234.413 158.346 234.566 158.216 234.786 158.046 235.04 157.961 235.332 157.961 235.671 157.961 235.962 158.08 236.206 158.319 236.449 158.558 236.57 158.831 236.57 159.139 236.57 159.357 236.473 159.677 236.278 160.098M246.309 168.427L238.247 163.959C237.842 163.732 237.574 163.53 237.44 163.352 237.306 163.174 237.24 162.947 237.24 162.672 237.24 162.324 237.365 162.025 237.616 161.773 237.867 161.523 238.162 161.397 238.501 161.397 238.712 161.397 239.037 161.514 239.473 161.749L249.874 167.533C250.575 167.923 250.575 168.931 249.874 169.321L239.473 175.105C239.037 175.347 238.712 175.468 238.501 175.468 238.158 175.468 237.859 175.34 237.607 175.083 237.369 174.841 237.24 174.521 237.24 174.181 237.24 173.906 237.306 173.679 237.44 173.502 237.574 173.324 237.842 173.121 238.247 172.894L246.309 168.427"/>
    <polygon fill="#FFFFFE" points="165.201 146.451 168.54 146.451 168.54 143.113 165.201 143.113"/>
    <polygon fill="#FFFFFE" points="165.201 155.093 168.54 155.093 168.54 151.755 165.201 151.755"/>
    <polygon fill="#FFFFFE" points="165.201 163.735 168.54 163.735 168.54 160.397 165.201 160.397"/>
    <polygon fill="#FFFFFE" points="165.201 172.377 168.54 172.377 168.54 169.039 165.201 169.039"/>
    <polygon fill="#FFFFFE" points="165.201 181.019 168.54 181.019 168.54 177.681 165.201 177.681"/>
    <polygon fill="#FFFFFE" points="165.201 189.661 168.54 189.661 168.54 186.323 165.201 186.323"/>
    <polygon fill="#FFFFFE" points="171.711 144.865 185.019 144.865 185.019 143.865 171.711 143.865"/>
    <polygon fill="#FFFFFE" points="174.813 153.53 179.553 153.53 179.553 152.53 174.813 152.53"/>
    <polygon fill="#FFFFFE" points="195.444 163.249 200.184 163.249 200.184 162.249 195.444 162.249"/>
    <polygon fill="#FFFFFE" points="174.813 170.964 179.553 170.964 179.553 169.964 174.813 169.964"/>
    <polygon fill="#FFFFFE" points="181.649 170.964 186.389 170.964 186.389 169.964 181.649 169.964"/>
    <polygon fill="#FFFFFE" points="181.649 163.249 193.761 163.249 193.761 162.249 181.649 162.249"/>
    <polygon fill="#FFFFFE" points="188.705 170.964 196.679 170.964 196.679 169.964 188.705 169.964"/>
    <polygon fill="#FFFFFE" points="188.677 189.492 193.417 189.492 193.417 188.492 188.677 188.492"/>
    <polygon fill="#FFFFFE" points="195.512 189.492 200.252 189.492 200.252 188.492 195.512 188.492"/>
    <polygon fill="#FFFFFE" points="202.569 189.492 205.217 189.492 205.217 188.492 202.569 188.492"/>
    <polygon fill="#FFFFFE" points="181.929 153.53 196.679 153.53 196.679 152.53 181.929 152.53"/>
    <polygon fill="#FFFFFE" points="181.649 179.989 186.389 179.989 186.389 178.989 181.649 178.989"/>
    <polygon fill="#FFFFFE" points="187.973 179.989 190.713 179.989 190.713 178.989 187.973 178.989"/>
    <polygon fill="#FFFFFE" points="192.809 179.989 200.549 179.989 200.549 178.989 192.809 178.989"/>
    <path fill="#426AA5" d="M201.831,106.113 C201.587,118.213 189.011,128.357 173.743,128.76 C169.059,128.918 164.427,128.06 160.062,126.226 C158.529,130.028 155.285,133.287 145.993,134.747 C155.689,127.259 150.385,120.924 148.174,115.349 C147.05,113.019 146.474,110.332 146.507,107.571 C146.752,95.463 159.328,85.326 174.595,84.923 C189.874,84.486 202.075,94.012 201.831,106.113"/>
    <polygon fill="#FFFFFE" points="161.186 94.444 174.494 94.444 174.494 93.444 161.186 93.444"/>
    <polygon fill="#FFFFFE" points="164.288 103.108 169.028 103.108 169.028 102.108 164.288 102.108"/>
    <polygon fill="#FFFFFE" points="184.918 112.828 189.659 112.828 189.659 111.828 184.918 111.828"/>
    <polygon fill="#FFFFFE" points="164.288 120.542 169.028 120.542 169.028 119.542 164.288 119.542"/>
    <polygon fill="#FFFFFE" points="171.124 120.542 175.864 120.542 175.864 119.542 171.124 119.542"/>
    <polygon fill="#FFFFFE" points="171.124 112.828 183.236 112.828 183.236 111.828 171.124 111.828"/>
    <polygon fill="#FFFFFE" points="178.179 120.542 186.154 120.542 186.154 119.542 178.179 119.542"/>
    <polygon fill="#FFFFFE" points="171.404 103.108 186.154 103.108 186.154 102.108 171.404 102.108"/>
    <polyline fill="#803836" points="259.562 335.358 252.272 333.178 253.972 315.308 261.262 317.488 259.562 335.358"/>
    <polyline fill="#C9C8C3" points="260.993 322.662 260.774 322.622 261.262 317.488 261.107 317.442 261.484 317.463 260.993 322.662"/>
    <polyline fill="#622B2A" points="260.774 322.622 253.623 321.292 254.025 317.051 261.107 317.442 261.262 317.488 260.774 322.622"/>
    <path fill="#426AA5" d="M302.712,224.989 C302.712,224.989 252.581,229.218 253.812,250.988 C254.821,268.811 257.461,263.966 252.272,316.954 L264.883,317.651 C264.883,317.651 277.712,274.308 275.982,257.088 C290.112,257.088 322.462,258.328 327.162,245.578 C329.496,239.104 330.631,232.259 330.512,225.378 L302.712,224.989"/>
    <polyline fill="#1A282B" points="266.889 320.09 250.409 317.271 250.679 309.981 267.739 313.771 266.889 320.09"/>
    <path fill="#1A282B" d="M251.522,330.18 L259.942,331.845 C260.239,331.889 260.452,332.203 260.422,332.554 L259.722,340.515 C259.594,341.372 258.912,341.953 258.182,341.825 C255.262,341.188 253.882,340.715 250.182,339.983 C247.902,339.534 242.692,338.436 239.522,338.081 C236.352,337.727 236.732,334.019 238.102,333.829 C244.262,333.015 247.762,332.023 250.152,330.475 C250.568,330.2 251.05,330.096 251.522,330.18"/>
    <path fill="#426AA5" d="M249.355,331.353 C247.964,331.353 246.985,331.193 246.695,330.782 C246.578,330.585 246.578,330.34 246.695,330.143 C246.727,330.033 246.814,329.95 246.924,329.923 C247.434,329.813 248.575,330.653 249.355,331.353 Z M247.745,331.622 C248.407,331.712 249.078,331.733 249.745,331.683 L249.894,331.572 L249.894,331.383 C249.684,331.173 247.794,329.383 246.825,329.583 C246.596,329.622 246.408,329.783 246.334,330.003 C246.174,330.322 246.197,330.704 246.394,331.003 C246.753,331.367 247.234,331.588 247.745,331.622 L247.745,331.622 Z"/>
    <path fill="#426AA5" d="M249.235,328.473 C249.376,328.495 249.502,328.575 249.584,328.693 C249.877,329.482 249.91,330.344 249.674,331.153 C249.068,330.468 248.747,329.577 248.775,328.662 C248.775,328.563 248.884,328.452 249.144,328.463 L249.235,328.473 Z M249.754,331.683 L249.834,331.683 L249.955,331.553 C249.955,331.463 250.504,329.332 249.865,328.483 C249.707,328.251 249.445,328.113 249.165,328.113 C248.856,328.069 248.557,328.242 248.445,328.532 C248.134,329.322 248.995,331.072 249.665,331.643 L249.754,331.683 L249.754,331.683 Z"/>
    <polyline fill="#803836" points="227.062 338.138 220.122 335.018 224.922 317.899 231.862 321.018 227.062 338.138"/>
    <polyline fill="#C9C8C3" points="223.675 322.345 223.624 322.322 224.801 318.118 224.853 318.144 223.675 322.345"/>
    <polyline fill="#622B2A" points="230.564 325.443 223.675 322.345 224.853 318.144 231.662 321.517 230.564 325.443"/>
    <path fill="#426AA5" d="M287.792,224.989 C287.462,224.989 231.592,230.738 231.522,249.688 C231.402,281.029 222.452,316.954 222.452,316.954 L233.494,322.424 C233.494,322.424 252.722,283.478 252.432,259.048 C267.802,254.638 307.562,262.048 312.262,249.308 C316.112,238.888 314.032,224.989 314.032,224.989 L287.792,224.989"/>
    <polyline fill="#1A282B" points="235.259 324.01 220.458 317.351 221.649 311.29 237.259 316.681 235.259 324.01"/>
    <path fill="#1A282B" d="M220.812,329.265 L229.252,331.018 C229.544,331.072 229.751,331.415 229.722,331.797 L229.062,340.549 C228.949,341.499 228.265,342.15 227.534,342.004 L227.532,342.003 C224.612,341.328 223.232,340.809 219.532,340.042 C217.252,339.575 211.042,338.069 207.912,337.251 C204.782,336.433 205.482,332.447 206.912,332.42 C213.102,332.329 217.112,331.317 219.492,329.589 C219.892,329.295 220.356,329.181 220.812,329.265"/>
    <path fill="#426AA5" d="M218.475,329.988 C217.388,330.839 216.478,331.254 216,331.107 C215.787,331.015 215.64,330.813 215.619,330.581 C215.581,330.476 215.604,330.359 215.68,330.277 C216.038,329.917 217.438,329.888 218.475,329.988 Z M217.346,331.155 C217.933,330.835 218.486,330.454 218.993,330.019 L219.051,329.827 L218.905,329.711 C218.612,329.665 216.031,329.329 215.362,330.075 C215.211,330.248 215.161,330.487 215.226,330.705 C215.285,331.059 215.528,331.354 215.863,331.479 C216.38,331.561 216.91,331.445 217.346,331.155 L217.346,331.155 Z"/>
    <path fill="#426AA5" d="M216.667,327.74 C216.794,327.669 216.945,327.655 217.083,327.698 C217.788,328.164 218.328,328.84 218.624,329.631 C217.726,329.443 216.935,328.915 216.416,328.158 C216.357,328.078 216.381,327.924 216.597,327.78 L216.667,327.74 Z M218.993,330.019 L219.066,329.966 L219.083,329.804 C219.031,329.732 218.208,327.683 217.191,327.372 C216.927,327.286 216.638,327.331 216.414,327.492 C216.139,327.644 216.003,327.962 216.084,328.264 C216.298,329.085 218.025,329.981 218.911,330.041 L218.993,330.019 L218.993,330.019 Z"/>
    <path fill="#803836" d="M306.772,164.526 C308.242,167.686 309.452,170.726 310.662,173.886 C311.872,177.046 312.942,180.206 313.932,183.446 C314.922,186.686 315.782,190.006 316.472,193.446 C317.225,197.02 317.6,200.663 317.592125,204.316 C317.58,206.46 317.26,208.592 316.642,210.646 C316.252,211.904 315.691,213.102 314.972,214.205 C314.554,214.831 314.075,215.414 313.542,215.946 L313.112,216.365 C312.872,216.566 312.612,216.785 312.362,216.955 C311.94,217.245 311.492,217.492 311.022,217.696 C310.329,218.002 309.605,218.234 308.862,218.386 C308.278,218.51 307.687,218.597 307.092,218.646 C306.077,218.709 305.058,218.709 304.041,218.646 C302.238,218.56 300.441,218.359 298.662,218.045 C292.024,216.839 285.522,214.977 279.251,212.486 L280.702,206.976 C287.052,207.736 293.532,208.545 299.642,208.825 C301.162,208.825 302.642,208.896 304.022,208.825 C304.637,208.793 305.249,208.716 305.852,208.596 C306.352,208.506 306.782,208.325 306.632,208.335 C306.533,208.369 306.438,208.416 306.352,208.476 C306.251,208.535 306.158,208.606 306.072,208.686 L306.162,208.516 C306.291,208.23 306.392,207.932 306.462,207.625 C306.685,206.527 306.776,205.405 306.732,204.285 C306.584,201.421 306.16,198.577 305.462,195.795 C304.782,192.795 303.902,189.876 302.942,186.905 C301.982,183.936 300.942,180.966 299.802,178.006 C298.662,175.046 297.462,172.075 296.282,169.285 L306.772,164.526"/>
    <path fill="#803836" d="M283.461,208.476 L276.832,204.745 L273.501,211.926 C273.501,211.926 281.251,215.155 282.882,213.136 L283.461,208.476"/>
    <polyline fill="#803836" points="271.461 206.106 268.432 210.905 273.501 211.875 276.832 204.696 271.461 206.106"/>
    <path fill="#803836" d="M291.312,170.228 C290.042,173.418 288.712,176.468 287.312,179.558 C285.912,182.648 284.512,185.688 283.032,188.728 C280.053,194.918 276.713,200.929 273.032,206.728 C272.032,208.208 271.032,209.678 269.912,211.149 C269.352,211.888 268.732,212.618 268.072,213.368 C267.712,213.748 267.422,214.098 267.002,214.488 L266.402,215.069 L266.062,215.388 C265.111,216.203 263.991,216.797 262.782,217.128 C262.145,217.309 261.498,217.447 260.842,217.538 C259.774,217.667 258.697,217.711 257.622,217.668 C255.765,217.609 253.915,217.425 252.082,217.118 C245.302,215.921 238.662,214.037 232.262,211.498 L233.722,205.978 C240.192,206.758 246.802,207.588 253.022,207.848 C254.489,207.905 255.958,207.885 257.422,207.788 C258.012,207.741 258.597,207.649 259.172,207.508 C259.36,207.464 259.541,207.398 259.712,207.308 C259.772,207.308 259.712,207.238 259.442,207.408 C259.344,207.463 259.253,207.53 259.172,207.609 L259.272,207.488 L259.552,207.178 C259.732,206.998 259.952,206.698 260.162,206.458 C260.572,205.938 260.992,205.378 261.412,204.768 C262.242,203.578 263.052,202.258 263.852,200.918 C265.452,198.238 266.942,195.388 268.402,192.508 C269.862,189.628 271.262,186.688 272.642,183.728 C275.392,177.828 278.082,171.778 280.642,165.828 L291.312,170.228"/>
    <path fill="#803836" d="M236.562,207.418 L229.922,203.638 L226.592,210.819 C226.592,210.819 234.342,214.058 235.982,212.038 L236.562,207.418"/>
    <polyline fill="#803836" points="224.562 205.058 221.522 209.848 226.592 210.819 229.922 203.638 224.562 205.058"/>
    <path fill="#803836" d="M308.482,134.748 L304.242,139.658 L297.771,146.352 C297.904,146.681 298.083,147.11 298.266,147.565 C298.764,148.798 299.059,150.108 299.129,151.437 C299.27,154.12 299.013,156.389 294.782,158.208 C294.782,158.208 290.342,164.008 300.902,162.398 C311.462,160.788 313.052,155.308 313.052,155.308 C308.372,151.978 308.112,140.908 308.482,134.748"/>
    <path fill="#1A282B" d="M286.952 129.208C286.952 129.868 286.622 130.428 286.182 130.448 285.742 130.468 285.392 129.948 285.382 129.288 285.372 128.628 285.722 128.068 286.152 128.048 286.582 128.028 286.942 128.548 286.952 129.208M289.162 126.748C289.032 126.747 288.911 126.679 288.842 126.568 288.318 125.707 287.423 125.138 286.422 125.028 286.208 125.017 286.041 124.842 286.041 124.628 286.047 124.413 286.226 124.243 286.442 124.248 287.705 124.361 288.841 125.066 289.501 126.148 289.613 126.331 289.56 126.569 289.382 126.688L289.162 126.748"/>
    <path fill="#5C181A" d="M286.712,129.578 C286.175,131.379 285.402,133.101 284.412,134.698 C285.244,135.167 286.241,135.24 287.132,134.898 L286.712,129.578"/>
    <path fill="#803836" d="M309.081,125.878 C308.692,134.038 308.872,138.878 304.822,143.198 C300.876,147.546 294.154,147.872 289.806,143.927 C288.212,142.481 287.094,140.584 286.602,138.488 C284.762,131.258 285.722,119.128 293.602,115.488 C298.917,112.855 305.36,115.029 307.994,120.344 C308.842,122.059 309.218,123.969 309.081,125.878"/>
    <path fill="#1A282B" d="M312.785,128.6 C311.605,132.06 309.815,135.279 307.485,138.1 L296.865,140.1 C296.865,140.1 288.475,136.59 290.715,130.81 C289.295,129.61 289.825,125.9 290.825,123.86 C292.425,125.139 295.055,125.25 296.495,123.71 C297.655,125.84 301.135,126.139 302.645,124.22 C304.375,126.139 308.065,125.55 309.105,123.179 C310.385,124.02 312.225,123.9 313.385,122.9 L313.535,122.76 C313.704,124.22 313.535,126.13 312.785,128.6"/>
    <path fill="#313E40" d="M296.865,140.1 C296.865,140.1 290.341,137.37 290.335,132.762 C290.334,132.144 290.451,131.493 290.715,130.81 C290.097,130.287 289.848,129.288 289.846998,128.159 C289.846,126.695 290.26,125.011 290.825,123.86 C291.619,124.495 292.668,124.842 293.698,124.842 C294.743,124.842 295.77,124.485 296.495,123.71 C297.132,124.88 298.472,125.498 299.799,125.498 C300.886,125.498 301.965,125.084 302.645,124.22 C303.348,125 304.376,125.366 305.417,125.366 C306.937,125.366 308.488,124.586 309.105,123.179 C309.676,123.554 310.358,123.738 311.041,123.738 C311.891,123.738 312.742,123.454 313.385,122.9 L313.535,122.76 C313.574,123.096 313.595,123.456 313.595,123.842 C313.595,125.13 313.362,126.699 312.785,128.6 C311.605,132.06 309.815,135.279 307.485,138.1 L296.865,140.1"/>
    <path fill="#1A282B" d="M314.315,118.71 C314.915,120.05 314.584,121.739 313.535,122.76 L313.385,122.9 C312.225,123.9 310.385,124.02 309.105,123.179 C308.065,125.55 304.375,126.139 302.645,124.219 C301.135,126.139 297.655,125.84 296.495,123.71 C295.055,125.25 292.425,125.139 290.825,123.86 C290.405,123.53 290.055,123.11 289.825,122.619 C289.765,122.51 289.725,122.4 289.685,122.29 C289.595,122.389 289.505,122.48 289.405,122.56 C288.435,123.36 286.905,123.48 285.845,122.77 C284.975,122.19 284.495,121.11 284.565,120.08 C284.575,119.86 284.615,119.65 284.675,119.44 C284.595,119.59 284.495,119.73 284.375,119.85 C283.505,120.78 281.665,120.82 280.815,119.76 C279.755,118.449 280.355,116.27 281.805,115.4 C282.385,115.06 283.025,114.9 283.685,114.9 C284.705,114.9 285.745,115.27 286.555,115.889 C285.685,114.639 285.995,112.73 287.215,111.82 C288.435,110.92 290.355,111.17 291.295,112.36 C291.165,110.94 291.635,110.09 292.365,109.65 C293.745,108.85 296.045,109.54 297.165,110.88 C297.165,110.88 298.705,107.159 301.365,107.58 C301.945,107.659 304.675,108.869 304.605,109.85 L304.555,110.04 L304.685,109.82 C305.205,109 306.255,108.59 307.245,108.61 C308.315,108.619 309.335,109.03 310.325,109.429 C312.395,110.28 314.595,111.23 315.795,113.119 C316.985,115.02 316.465,118.11 314.315,118.71"/>
    <path fill="#803836" d="M295.402,131.568 C295.112,133.584 294.187,135.454 292.762,136.908 C290.952,138.638 289.412,136.908 289.392,134.278 C289.392,131.898 290.282,128.128 292.392,127.428 C294.501,126.728 295.791,128.978 295.402,131.568"/>
    <path fill="#1A282B" d="M327.382,158.148 C326.632,156.148 323.132,154.148 320.982,154.148 L319.562,154.148 C317.082,154.148 313.992,154.348 310.992,154.698 C305.276,155.331 299.6,156.285 293.992,157.558 C291.412,158.238 288.922,159.098 286.942,159.838 C284.422,160.838 282.942,161.508 282.942,161.508 C282.942,161.508 285.704,179.893 287.132,198.155 C287.926,208.317 287.598,218.408 287.852,225.348 L330.512,225.348 C331.982,217.008 331.75,209.735 331.871,194.675 C331.94,185.635 330.472,166.378 327.382,158.148"/>
    <path fill="#C9C8C3" d="M287.21,199.818 C286.921,196.499 286.646,193.181 286.379,189.969 C286.388,189.956 286.398,189.945 286.407,189.932 C286.67,192.633 286.916,195.395 287.132,198.155 C287.174,198.69 287.213,199.226 287.249,199.761 C287.236,199.78 287.223,199.799 287.21,199.818"/>
    <path fill="#141D1F" d="M287.249,199.761 C287.213,199.226 287.174,198.69 287.132,198.155 C286.916,195.395 286.67,192.633 286.407,189.932 C288.4,187.362 290.426,184.346 292.133,181.441 L292.133,186.955 C290.886,191.845 289.246,196.812 287.249,199.761"/>
    <path fill="#1A282B" d="M280.531 162.853C274.421 166.293 268.432 183.897 268.432 183.897L282.421 194.452C287.761 189.403 295.571 176.873 296.421 171.863 297.792 164.173 290.321 157.373 280.531 162.853M268.458 342.045C268.458 344.447 266.51 346.395 264.108 346.395 261.706 346.395 259.758 344.447 259.758 342.045 259.758 339.643 261.706 337.696 264.108 337.696 266.51 337.696 268.458 339.643 268.458 342.045M333.348 342.045C333.348 344.447 335.295 346.395 337.698 346.395 340.1 346.395 342.048 344.447 342.048 342.045 342.048 339.643 340.1 337.696 337.698 337.696 335.295 337.696 333.348 339.643 333.348 342.045M296.669 340.655C296.669 343.057 298.617 345.004 301.019 345.004 303.421 345.004 305.369 343.057 305.369 340.655 305.369 338.252 303.421 336.304 301.019 336.304 298.617 336.304 296.669 338.252 296.669 340.655M299.668 335.285L299.668 326.875 287.208 326.875C284.762 326.877 282.322 327.105 279.918 327.555L256.717 332.064C255.573 332.287 254.827 333.395 255.049 334.538 255.248 335.554 256.153 336.277 257.187 336.244L299.668 335.285M299.668 335.285L299.668 326.875 312.138 326.875C314.583 326.876 317.024 327.104 319.428 327.555L345.503 331.724C346.647 331.947 347.394 333.055 347.17 334.198 346.973 335.214 346.068 335.937 345.034 335.905L299.668 335.285"/>
    <polygon fill="#1A282B" points="291.948 326.885 307.378 326.885 307.378 288.375 291.948 288.375"/>
    <polygon fill="#1A282B" points="294.168 288.365 305.168 288.365 305.168 270.455 294.168 270.455"/>
    <polyline fill="#0F1313" points="305.168 278.486 294.168 275.715 294.168 270.459 305.168 270.459 305.168 278.486"/>
    <polygon fill="#1A282B" points="258.518 253.785 264.108 253.785 264.108 229.935 258.518 229.935"/>
    <path fill="#426AA5" d="M292.133,270.455 L292.133,166.772 C292.133,162.846 293.828,159.112 296.782,156.526 L304.171,150.057 C306.654,147.883 309.841,146.685 313.141,146.685 L339.837,146.685 L352.882,160.565 L352.882,270.455 L292.133,270.455"/>
    <path fill="#426AA5" d="M252.388,250.394999 L313.289,250.394999 L313.289,270.455002 L242.468,270.455002 C238.492,270.458 235.265,267.237 235.261998,263.261 C235.261,261.967 235.609,260.697 236.268,259.585 C239.638,253.887 245.768,250.393 252.388,250.394999"/>
    <polygon fill="#FFFFFE" points="305.168 270.459 348.725 270.459 348.725 270.455 305.168 270.455"/>
    <path fill="#B5BFCD" d="M352.885,270.459 L348.725,270.459 L348.725,270.455 L352.882,270.455 L352.882,270.348 C352.883,270.348 352.884,270.348 352.885,270.348 L352.885,270.459"/>
    <path fill="#FFFFFE" d="M275.436,270.459 L294.168,270.459 L294.168,270.455 L275.436,270.455 L275.436,270.459 Z M255.36,270.459 L251.44,270.459 C251.44,270.458 251.44,270.457 251.441,270.455 L255.36,270.455 C255.36,270.457 255.36,270.457 255.36,270.459 L255.36,270.459 Z"/>
    <path fill="#C0D2E3" d="M275.436 270.459L255.36 270.459C255.36 270.457 255.36 270.457 255.36 270.455L275.436 270.455 275.436 270.459M251.44 270.459L242.465 270.459C240.324 270.459 238.399 269.523 237.079 268.037 238.398 269.521 240.322 270.455 242.463 270.455 242.465 270.455 242.467 270.455 242.468 270.455L251.441 270.455C251.44 270.457 251.44 270.458 251.44 270.459"/>
    <polygon fill="#B3B5B1" points="294.168 270.459 305.168 270.459 305.168 270.455 294.168 270.455"/>
    <path fill="#C0D2E3" d="M235.605 261.06C235.768 260.549 235.988 260.055 236.265 259.59 236.279 259.567 236.293 259.544 236.307 259.52 236.294 259.542 236.281 259.564 236.268 259.585 235.991 260.052 235.769 260.547 235.605 261.06M243.905 252.424C244.818 251.96 245.768 251.571 246.749 251.262 245.769 251.572 244.817 251.961 243.905 252.424M292.133 250.395L283.33 250.395C288.157 250.238 292.035 246.323 292.133 241.481L292.133 250.395M352.882 270.455L351.387 270.455C351.895 270.455 352.394 270.419 352.882 270.348L352.882 270.455M301.019 250.395L292.133 250.395 292.133 241.481C292.135 241.419 292.135 241.356 292.135 241.293L292.135 166.77C292.135 162.85 293.825 159.11 296.785 156.529L304.175 150.06C306.655 147.88 309.845 146.69 313.145 146.69L321.678 146.69C318.503 146.771 315.452 147.96 313.057 150.057L305.667 156.526C302.713 159.112 301.019 162.846 301.019 166.772L301.019 250.395"/>
    <path fill="#C0D2E3" d="M242.463,270.455 C240.322,270.455 238.398,269.521 237.079,268.037 C235.951,266.766 235.265,265.094 235.265,263.26 C235.265,262.511 235.38,261.769 235.605,261.06 C235.769,260.547 235.991,260.052 236.268,259.585 C236.281,259.564 236.294,259.542 236.307,259.52 C238.141,256.453 240.774,254.027 243.852,252.451 C243.852,252.451 243.853,252.451 243.853,252.45 C243.862,252.446 243.87,252.442 243.879,252.437 C243.883,252.435 243.889,252.432 243.893,252.43 C243.897,252.428 243.901,252.426 243.905,252.424 C244.817,251.961 245.769,251.572 246.749,251.262 L246.75,251.262 C246.759,251.259 246.768,251.256 246.777,251.253 C246.784,251.251 246.791,251.249 246.798,251.247 C246.801,251.246 246.803,251.245 246.805,251.245 C248.577,250.692 250.445,250.4 252.355,250.4 L283.029,250.4 C283.129,250.4 283.23,250.398 283.33,250.395 L301.019,250.395 L301.019,270.455 L242.468,270.455 C242.467,270.455 242.465,270.455 242.463,270.455"/>
    <path fill="#426AA5" d="M301.019,270.455 L301.019,166.772 C301.019,162.846 302.713,159.112 305.667,156.526 L313.057,150.057 C315.539,147.883 318.727,146.685 322.027,146.685 L342.833,146.685 C346.591,146.685 350.183,148.238 352.756,150.977 L358.074,156.634 C360.447,159.159 361.768,162.494 361.768,165.96 L361.768,260.073 C361.768,265.807 357.121,270.455 351.387,270.455 L301.019,270.455"/>
    <path fill="#98B3D3" d="M351.387,270.455 L301.019,270.455 L301.019,166.772 C301.019,162.846 302.713,159.112 305.667,156.526 L313.057,150.057 C315.539,147.883 318.727,146.685 322.027,146.685 L342.833,146.685 C346.591,146.685 350.183,148.238 352.756,150.977 L358.074,156.634 C360.447,159.159 361.768,162.494 361.768,165.96 L361.768,260.073 C361.768,265.299 357.907,269.623 352.882,270.348 C352.394,270.419 351.895,270.455 351.387,270.455"/>
    <path fill="#426AA5" d="M280.298,237.215 C267.996,232.92 254.601,232.92 242.298,237.215 C239.744,238.178 236.874,237.083 235.608,234.665 C234.468,232.255 235.999,229.135 239.098,228.045 C253.465,223.025 269.111,223.025 283.478,228.045 C286.578,229.125 288.108,232.255 286.968,234.665 C285.701,237.07 282.846,238.161 280.298,237.215"/>
    <path fill="#C0D2E3" d="M240.395,237.563 C238.435,237.563 236.564,236.492 235.608,234.665 C235.352,234.124 235.231,233.547 235.231994,232.965 C235.235,230.956 236.695,228.89 239.098,228.045 C246.282,225.535 253.785,224.28 261.288,224.28 C268.791,224.28 276.294,225.535 283.478,228.045 C285.881,228.883 287.341,230.953 287.345,232.964 C287.345,233.546 287.224,234.124 286.968,234.665 C286.008,236.487 284.138,237.554 282.181,237.554 C281.553,237.554 280.917,237.445 280.298,237.215 C275.044,235.381 269.59,234.33 264.108,234.062 C263.172,234.017 262.235,233.994 261.298,233.994 C260.371,233.994 259.444,234.016 258.518,234.061 C253.026,234.326 247.562,235.377 242.298,237.215 C241.797,237.404 241.283,237.514 240.771,237.55 C240.646,237.559 240.52,237.563 240.395,237.563"/>
    <path fill="#1A282B" d="M124.887,138.004 C124.677,138.594 124.827,139.184 125.217,139.314 C125.607,139.444 126.086,139.084 126.287,138.494 C126.487,137.905 126.347,137.304 125.967,137.175 C125.586,137.044 125.097,137.405 124.887,138.004"/>
    <path fill="#A8282A" d="M124.777,138.614 C124.855,140.674 125.214,142.713 125.847,144.675 C124.828,144.967 123.732,144.799 122.847,144.215 L124.777,138.614"/>
    <path fill="#1A282B" d="M123.927,133.984 L124.157,133.984 C125.046,133.687 126.025,133.836 126.787,134.384 C126.953,134.504 127.184,134.468 127.303,134.302 C127.41,134.155 127.394,133.953 127.267,133.824 C126.314,133.114 125.078,132.909 123.947,133.274 C123.753,133.341 123.651,133.551 123.717,133.744 C123.753,133.852 123.838,133.937 123.947,133.974 L123.927,133.984"/>
    <path fill="#BF564D" d="M102.957,140.184 C104.077,145.874 105.187,156.304 101.207,160.104 C101.207,160.104 102.767,165.874 113.347,165.874 C124.977,165.874 118.907,160.104 118.907,160.104 C112.557,158.584 113.579,153.874 114.689,149.454 L102.957,140.184"/>
    <path fill="#BF564D" d="M105.546,129.864 C103.467,137.304 101.867,141.554 104.247,146.564 C107.817,154.114 120.291,155.093 123.697,146.451 C126.287,138.494 128.847,130.084 122.727,124.714 C118.374,120.848 111.713,121.242 107.847,125.594 C106.759,126.82 105.971,128.281 105.546,129.864"/>
    <path fill="#1A282B" d="M97.483,132.338 C96.942,129.596 96.803,126.598 98.17,124.162 C99.539,121.725 102.855,120.233 105.26,121.654 C107.337,117.273 112.36,114.487 117.175,115.043 C121.991,115.6 126.246,119.458 127.268,124.197 C128.291,128.935 126.008,134.204 121.851,136.698 C122.407,134.654 122.961,132.609 123.516,130.565 C123.04,133.39 121.493,136.021 119.255,137.812 C119.577,135.768 119.898,133.724 120.219,131.68 C119.926,134.567 118.185,137.271 115.678,138.732 C116.067,137.301 116.456,135.869 116.844,134.437 C116.673,135.066 115.118,139.568 114.588,140.184 C113.607,141.328 112.95,148.847 109.502,149.085 C97.722,151.444 98.747,138.739 97.483,132.338"/>
    <path fill="#BF564D" d="M113.394 135.903C113.194 137.81 113.623 139.731 114.615 141.373 115.944 143.513 117.894 142.693 118.615 140.503 119.254 138.503 119.325 135.052 117.474 133.663 115.624 132.273 113.674 133.603 113.394 135.903M85.207 207.98C83.934 207.558 77.986 204.499 77.04 205.045 79.786 198.037 81.498 196.962 82.747 192.502 83.445 190.009 82.965 188.069 81.418 185.995 79.66 183.64 79.043 182.447 76.12 182.738 72.1 189.46 67.038 197.754 65.057 205.331 64.39 207.883 63.907 209.819 65.424 211.976 66.762 213.876 69.237 214.642 71.551 214.85 77.125 215.35 85.393 214.325 85.289 211.016 85.222 208.929 85.207 207.98 85.207 207.98"/>
    <path fill="#BF564D" d="M84.262,207.731 L88.988,206.197 L88.567,214.729 C88.567,214.729 84.785,214.863 82.769,212.333 L84.262,207.731"/>
    <polyline fill="#BF564D" points="94.887 206.064 94.21 213.099 88.567 214.729 88.988 206.197 94.887 206.064"/>
    <path fill="#BF564D" d="M149.008 213.786C149.008 213.786 142.424 208.626 133.78 191.571 132.498 189.187 131.272 186.783 130.1 184.36 128.923 181.913 127.792 179.519 126.715 176.95L136.931 172.547C139.038 177.131 142.313 181.859 144.632 186.409 146.953 190.959 152.428 201.735 153.114 202.74 153.456 203.258 153.824 203.687 154.178 204.165L154.705 204.867 148.115 212.487 149.008 213.786M157.654 180.634L155.607 178.194 154.661 174.541 160.832 168.808C160.832 168.808 162.327 170.645 163.369 172.625 163.528 172.928 163.596 173.27 163.583 173.612L163.331 180.036 157.654 180.634"/>
    <polyline fill="#BF564D" points="154.751 170.584 159.369 166.387 160.83 168.838 154.661 174.541 154.751 170.584"/>
    <path fill="#BF564D" d="M157.745,178.848 C157.907,178.161 158.049,179.508 158.501,178.966 C159.867,177.333 161.848,177.155 163.027,178.927 C164.206,180.7 163.198,198.545 161.313,204.135 C160.061,207.849 159.394,210.813 156.192,213.072 C154.869,214.006 153.314,214.711 151.694,214.686 C150.075,214.661 148.404,213.775 147.79,212.274 C146.84,209.942 150.37,201.543 151.632,198.833 C155.588,190.341 155.85,186.907 157.745,178.848"/>
    <path fill="#426AA5" d="M144.51,178.079001 C147.235,178.053 149.96,178.027 152.685,178 C153.849,177.989 155.058,177.967 156.105,177.458 C157.477,176.791 158.344,175.39 158.898,173.969 C160.054,171.005 160.151,167.754 160.61,164.605 C161.069,161.456 162.016,158.171 164.398,156.061 C160.056,156.638 152.381,155.277 149.048,158.834 C147.281,160.719 144.176,178.083 144.51,178.079001"/>
    <path fill="#98B3D3" d="M144.51,178.079 C144.494,178.079 144.484999,178.036 144.484999,177.954 C144.483,176.388 147.369,160.625 149.048,158.834 C152.381,155.277 160.056,156.638 164.398,156.061 C162.744,157.526 161.782,159.557 161.195,161.716 C160.936,162.667 160.75,163.643 160.61,164.605 C160.367,166.27 160.226,167.963 159.976,169.627 C159.752,171.111 159.443,172.572 158.898,173.969 C158.344,175.39 157.477,176.791 156.105,177.458 C155.902,177.557 155.693,177.637 155.48,177.703 C154.591,177.975 153.624,177.991 152.685,178 C149.96,178.027 147.235,178.053 144.51,178.079"/>
    <path fill="#BF564D" d="M158.491,165.942 L158.491,165.942 C158.022,166.066 157.711,167.744 157.814,168.218 L158.273,169.037 L159.207,173.091 L162.326,171.365 L159.513,166.374 C159.31,166.015 158.89,165.837 158.491,165.942"/>
    <path fill="#426AA5" d="M88.022,161.533 C80.721,163.203 69.927,185.947 69.927,185.947 L84.577,195.946 C88.22,190.721 93.182,182.822 95.975,177.097 C100.305,168.037 95.482,159.823 88.022,161.533"/>
    <path fill="#1A282B" d="M98.687,162.084 C97.847,160.254 96.937,158.164 98.827,157.514 C100.916,156.794 112.357,156.054 116.296,157.405 C118.46,157.993 119.737,160.224 119.149,162.388 L119.126,162.464 L98.687,162.084"/>
    <polyline fill="#C9C8C3" points="84.577 195.946 82.158 194.296 82.158 194.295 84.577 195.946"/>
    <polyline fill="#96443E" points="82.158 194.296 82.121 194.271 82.158 194.295 82.158 194.296"/>
    <path fill="#C9C8C3" d="M84.577,195.946 C85.93,194.006 87.465,191.697 89.003,189.267 C89.009,189.316 89.016,189.364 89.022,189.413 C86.673,193.027 84.585,195.934 84.577,195.946"/>
    <path fill="#2F5B99" d="M84.577,195.946 L82.158,194.295 L82.122,194.271 L88.082,183.05 C88.442,185.206 88.747,187.277 89.003,189.267 C87.465,191.697 85.93,194.006 84.577,195.946"/>
    <path fill="#426AA5" d="M132.407,171.54 C133.985,179.524 130.298,198.506 130.336,229.514 L88.706,229.514 C88.432,223.247 92.991,208.408 87.328,178.848 C87.145,177.89 87.061,161.702 88.022,161.533 C92.052,160.825 96.121,160.344 100.207,160.094 C106.102,159.749 112.012,159.749 117.907,160.094 C120.312,160.337 124.109,161.831 126.5,162.692 C130.236,164.037 131.637,167.646 132.407,171.54"/>
    <path fill="#2F5B99" d="M131.079,199.835 C126.785,194.742 122.476,186.061 121.39,179.49 L131.612,189.219 C131.622,192.21 131.248,196.105 131.079,199.835"/>
    <path fill="#426AA5" d="M118.429,169.614 C117.429,176.985 131.929,195.805 131.929,195.805 L146.519,185.804 C146.519,185.804 142.469,175.435 135.659,168.634 C127.899,160.835 119.569,161.594 118.429,169.614"/>
    <polyline fill="#BF564D" points="166.117 332.735 173.897 332.735 175.666 314.704 167.887 314.704 166.117 332.735"/>
    <path fill="#C9C8C3" d="M174.648,325.093 L174.647,325.093 L174.726,324.285 L174.648,325.093 M166.867,325.093 L166.858,325.093 L167.352,320.054 L167.362,320.054 L166.867,325.093"/>
    <polyline fill="#96443E" points="174.647 325.093 166.867 325.093 167.362 320.054 175.136 320.054 174.726 324.285 174.647 325.093"/>
    <polyline fill="#BF564D" points="135.427 332.735 143.206 332.735 147.117 314.704 139.336 314.704 135.427 332.735"/>
    <polyline fill="#C9C8C3" points="144.928 324.955 144.894 324.955 145.442 322.424 145.479 322.424 144.928 324.955"/>
    <polyline fill="#96443E" points="144.894 324.955 137.149 324.955 137.699 322.424 145.442 322.424 144.894 324.955"/>
    <path fill="#1A282B" d="M174.336,329.238 L165.847,329.238 C165.525,329.24 165.247,329.53 165.177,329.938 L163.637,338.842 C163.493,339.628 163.869,340.416 164.476,340.602 C164.568,340.63 164.663,340.644 164.756,340.642 C167.817,340.576 172.247,340.344 176.097,340.344 C180.607,340.344 184.497,340.655 189.777,340.655 C192.977,340.655 193.867,336.474 192.527,336.099 C186.437,334.377 181.467,334.196 176.207,329.989 C175.649,329.521 175.001,329.261 174.336,329.238"/>
    <path fill="#426AA5" d="M181.756,330.624 C181.873,330.608 181.991,330.608 182.107,330.624 C182.259,330.653 182.392,330.748 182.467,330.884 C182.597,331.114 182.557,331.224 182.467,331.284 C182.107,331.794 180.137,331.804 178.687,331.594 C179.637,331.074 180.68,330.745 181.756,330.624 Z M180.517,332.134 C181.517,332.134 182.517,331.994 182.807,331.544 C182.976,331.301 182.976,330.978 182.807,330.735 C182.673,330.524 182.467,330.37 182.227,330.304 C180.927,329.954 178.227,331.504 178.097,331.574 L178.007,331.764 L178.147,331.914 C178.929,332.057 179.722,332.13 180.517,332.134 L180.517,332.134 Z"/>
    <path fill="#426AA5" d="M180.067,328.764 L180.177,328.764 C180.506,328.764 180.527,328.934 180.537,328.974 C180.626,329.504 179.357,330.824 178.397,331.395 C178.476,330.514 178.826,329.679 179.397,329.004 C179.583,328.845 179.822,328.759 180.067,328.764 Z M178.166,331.914 L178.247,331.914 C179.187,331.494 181.046,329.815 180.897,328.914 C180.897,328.704 180.717,328.454 180.217,328.395 C179.854,328.363 179.494,328.478 179.217,328.714 C178.217,329.525 178.017,331.624 178.006,331.714 L178.077,331.884 L178.166,331.914 L178.166,331.914 Z"/>
    <path fill="#1A282B" d="M143.756,329.239 L135.017,329.239 C134.698,329.242 134.422,329.532 134.357,329.938 L132.817,338.842 C132.684,339.646 133.08,340.437 133.702,340.609 L133.956,340.642 C137.006,340.576 138.497,340.344 142.336,340.344 C144.707,340.344 147.737,340.654 151.006,340.654 C154.277,340.654 154.697,336.474 153.357,336.099 C147.357,334.403 146.947,332.06 145.027,329.822 C144.672,329.433 144.221,329.226 143.756,329.239"/>
    <path fill="#426AA5" d="M149.327,331.645 L149.546,331.645 C149.692,331.665 149.818,331.755 149.887,331.884 C150.057,332.195 149.957,332.315 149.887,332.364 C149.557,332.794 147.967,332.804 146.796,332.614 C147.549,332.105 148.408,331.774 149.307,331.645 L149.327,331.645 Z M148.327,333.124 C148.994,333.211 149.667,333.028 150.197,332.614 C150.385,332.355 150.385,332.004 150.197,331.744 C150.077,331.522 149.865,331.364 149.617,331.315 C148.477,331.044 146.327,332.514 146.237,332.574 L146.157,332.764 L146.296,332.905 C146.963,333.05 147.644,333.123 148.327,333.124 L148.327,333.124 Z"/>
    <path fill="#426AA5" d="M147.916,329.764 L147.997,329.764 C148.237,329.764 148.257,329.905 148.267,329.954 C148.367,330.464 147.367,331.754 146.567,332.364 C146.621,331.477 146.941,330.626 147.487,329.924 C147.606,329.822 147.759,329.765 147.916,329.764 Z M146.347,332.914 L146.427,332.914 C147.237,332.474 148.796,330.775 148.626,329.914 C148.574,329.63 148.326,329.424 148.037,329.424 C147.754,329.39 147.471,329.477 147.257,329.664 C146.357,330.405 146.166,332.664 146.157,332.744 L146.247,332.914 L146.347,332.914 L146.347,332.914 Z"/>
    <path fill="#1A282B" d="M117.857,229.525 C117.857,229.525 154.705,244.737 162.326,256.434 C157.794,286.173 149.664,320.054 149.664,320.054 L135.807,320.054 C135.807,320.054 135.427,301.214 139.395,276.293 C141.395,239.944 75.977,277.554 88.687,229.525 L117.857,229.525"/>
    <path fill="#ADAEAA" d="M161.128,263.914 C161.131,263.894 161.134,263.876 161.138,263.856 C161.145,263.86 161.152,263.865 161.16,263.869 C161.149,263.884 161.138,263.899 161.128,263.914"/>
    <path fill="#111819" d="M149.859,269.822 C149.852,269.822 149.846,269.822 149.839,269.822 C148.664,269.817 147.521,269.597 146.412,269.237 L145.328,260.145 L148.336,260.145 C148.336,259.98 148.331,259.817 148.32,259.655 C153.484,260.64 157.973,261.992 161.138,263.856 C161.134,263.876 161.131,263.894 161.128,263.914 C158.746,267.24 152.593,269.823 149.859,269.822 M141.631,266.909 C141.324,266.722 141.02,266.532 140.719,266.342 C137.666,264.409 134.699,262.341 131.83,260.145 L140.609,260.145 L141.631,266.909"/>
    <path fill="#1A282B" d="M130.336,229.525 C130.336,229.525 164.398,233.916 183.175,244.61 C188.955,247.902 188.147,258.474 187.997,265.434 C187.583,284.112 183.993,302.582 177.376,320.054 L165.817,320.054 C165.817,320.054 166.407,301.184 166.017,270.735 C165.897,261.605 147.467,258.594 129.456,257.534 C113.9,256.556 100.243,246.84 94.217,232.464 L92.987,229.525 L130.336,229.525"/>
    <polyline fill="#426AA5" points="180.207 316.954 179.457 322.424 163.457 322.424 163.017 317.544 180.207 316.954"/>
    <polyline fill="#426AA5" points="151.006 316.954 149.537 322.424 133.537 322.424 133.827 317.544 151.006 316.954"/>
    <polyline fill="#426AA5" points="108.01 257.118 96.546 341.625 94.475 341.343 103.324 256.479 108.01 257.118"/>
    <path fill="#92938F" d="M96.546,341.625 L94.475,341.343 L96.546,341.625 L104.48,283.14 L104.481,283.14 L96.546,341.625 M104.514,282.89 L104.514,282.89 L107.6,260.145 L104.514,282.89"/>
    <polyline fill="#848581" points="104.481 283.14 104.48 283.14 104.514 282.89 104.481 283.14"/>
    <polyline fill="#1D4282" points="96.546 341.625 94.475 341.343 102.942 260.145 107.6 260.145 96.546 341.625"/>
    <path fill="#426AA5" d="M148.336,260.145 L83.336,260.145 C83.336,256.046 86.659,252.724 90.756,252.724 L140.916,252.724 C145.015,252.724 148.336,256.046 148.336,260.145"/>
    <path fill="#C0D2E3" d="M148.336,260.145 L145.328,260.145 L145.327,260.134 L140.607,260.134 L140.609,260.145 L83.336,260.145 C83.336,256.046 86.659,252.724 90.756,252.724 L140.916,252.724 C145.015,252.724 148.336,256.046 148.336,260.145"/>
    <polyline fill="#426AA5" points="86.347 260.134 76.546 342.294 78.647 342.294 91.077 260.134 86.347 260.134"/>
    <polyline fill="#426AA5" points="145.327 260.134 155.126 342.294 153.027 342.294 140.607 260.134 145.327 260.134"/>
    <polyline fill="#1D4282" points="155.126 342.294 153.027 342.294 140.607 260.134 145.327 260.134 155.126 342.294"/>
    <polyline fill="#426AA5" points="132.217 260.134 132.407 342.294 130.317 342.294 127.487 260.134 132.217 260.134"/>
  </g>
</svg>
