<svg width="284" height="280" viewBox="0 0 284 280" fill="none" xmlns="http://www.w3.org/2000/svg">
<path d="M13.4366 118.815C13.7711 116.867 14.1497 114.935 14.5714 113.019M65.9284 36.1116C67.6559 34.8989 69.415 33.7281 71.204 32.6004M80.0097 27.529C81.3397 26.8322 82.6835 26.1582 84.0406 25.5075M92.01 22.0172C93.2087 21.5406 94.4162 21.0816 95.6325 20.6406M104.326 17.839C105.807 17.4203 107.298 17.0277 108.8 16.6617M118.092 14.7619C119.294 14.5627 120.501 14.3802 121.714 14.2148M160.112 14.7619C161.814 15.0441 163.505 15.36 165.183 15.7089M174.602 18.0462C176.307 18.5396 177.998 19.0676 179.673 19.6294M188.367 22.9049C189.83 23.5183 191.279 24.1582 192.714 24.8239M200.683 28.8688C202.019 29.6066 203.339 30.3677 204.645 31.1515M213 36.6239C214.224 37.4956 215.431 38.3884 216.622 39.3017M245.991 70.9984C246.769 72.1922 247.528 73.3998 248.267 74.6208M253.571 84.3097C254.326 85.8428 255.051 87.3932 255.745 88.9603M259.776 99.2535C260.431 101.165 261.04 103.098 261.605 105.049C262.102 106.767 262.564 108.5 262.99 110.247M265.007 120.264C265.276 121.943 265.512 123.634 265.714 125.335M263.305 169.529C262.737 171.972 262.099 174.387 261.393 176.774M257.918 186.92C257.231 188.679 256.506 190.419 255.745 192.139M250.782 202.131C249.697 204.095 248.561 206.028 247.377 207.927M211.394 245.6C209.782 246.712 208.144 247.787 206.479 248.825M196.337 254.524C194.667 255.364 192.976 256.168 191.265 256.936M180.398 261.224C178.486 261.878 176.553 262.488 174.602 263.053M164.459 265.538C162.542 265.925 160.61 266.269 158.663 266.568M121.714 266.884C120.013 266.652 118.322 266.386 116.643 266.088M104.326 263.26C102.375 262.708 100.443 262.111 98.5304 261.469M87.6631 257.259C85.2064 256.174 82.7905 255.015 80.4182 253.783M69.5508 247.439C67.6132 246.175 65.7121 244.861 63.8494 243.497M34.0508 212.841C32.9396 211.23 31.8645 209.591 30.8267 207.927M25.8684 199.233C24.8794 197.329 23.9371 195.396 23.0429 193.437M18.4273 181.845C17.6923 179.697 17.0131 177.523 16.3914 175.325M13.7228 163.889C13.4027 162.158 13.1176 160.416 12.8682 158.662M17.9413 100.702C18.5023 98.9958 19.0983 97.3051 19.7285 95.631M23.7153 86.2127C24.4062 84.7482 25.1241 83.299 25.8684 81.8657M31.2818 72.4474C32.4043 70.674 33.5692 68.9303 34.7753 67.2176" stroke="#09C1D1"/>
<rect width="28.9796" height="28.9796" rx="5" transform="matrix(1 0 0 -1 126.062 279.66)" fill="url(#paint0_linear)" fill-opacity="0.6"/>
<rect width="28.9796" height="28.9796" rx="5" transform="matrix(1 0 0 -1 221.694 241.98)" fill="url(#paint1_linear)" fill-opacity="0.6"/>
<rect width="28.9796" height="28.9796" rx="5" transform="matrix(1 0 0 -1 34.7754 65.207)" fill="url(#paint2_linear)" fill-opacity="0.6"/>
<rect width="28.9796" height="28.9796" rx="5" transform="matrix(1 0 0 -1 217.347 62.3086)" fill="url(#paint3_linear)" fill-opacity="0.6"/>
<rect width="28.9796" height="28.9796" rx="5" transform="matrix(1 0 0 -1 30.4287 241.98)" fill="url(#paint4_linear)" fill-opacity="0.6"/>
<rect width="28.9796" height="28.9796" rx="5" transform="matrix(1 0 0 -1 126.062 28.9805)" fill="url(#paint5_linear)" fill-opacity="0.6"/>
<rect width="28.9796" height="30.4286" rx="5" transform="matrix(1 0 0 -1 255.021 156.484)" fill="url(#paint6_linear)" fill-opacity="0.6"/>
<rect width="28.9796" height="30.4286" rx="5" transform="matrix(1 0 0 -1 0 156.484)" fill="url(#paint7_linear)" fill-opacity="0.6"/>
<path d="M140.551 14.4844L140.024 141.27" stroke="url(#paint8_linear)" stroke-width="2" stroke-linecap="round"/>
<path d="M49.2656 50.7109L138.988 141.27" stroke="url(#paint9_linear)" stroke-width="2" stroke-linecap="round"/>
<path d="M269.51 142H140.551" stroke="url(#paint10_linear)" stroke-width="2" stroke-linecap="round"/>
<path d="M231.837 47.8164L140.025 141.274" stroke="url(#paint11_linear)" stroke-width="2" stroke-linecap="round"/>
<path d="M14.4902 142L140.551 142" stroke="url(#paint12_linear)" stroke-width="2" stroke-linecap="round"/>
<path d="M139.102 265.891L140.436 142.002" stroke="url(#paint13_linear)" stroke-width="2" stroke-linecap="round"/>
<path d="M236.184 227.484L141.062 141.271" stroke="url(#paint14_linear)" stroke-width="2" stroke-linecap="round"/>
<path d="M44.918 227.484L140.024 141.271" stroke="url(#paint15_linear)" stroke-width="2" stroke-linecap="round"/>
<path d="M13.4366 118.815C13.7711 116.867 14.1497 114.935 14.5714 113.019M65.9284 36.1116C67.6559 34.8989 69.415 33.7281 71.204 32.6004M80.0097 27.529C81.3397 26.8322 82.6835 26.1582 84.0406 25.5075M92.01 22.0172C93.2087 21.5406 94.4162 21.0816 95.6325 20.6406M104.326 17.839C105.807 17.4203 107.298 17.0277 108.8 16.6617M118.092 14.7619C119.294 14.5627 120.501 14.3802 121.714 14.2148M160.112 14.7619C161.814 15.0441 163.505 15.36 165.183 15.7089M174.602 18.0462C176.307 18.5396 177.998 19.0676 179.673 19.6294M188.367 22.9049C189.83 23.5183 191.279 24.1582 192.714 24.8239M200.683 28.8688C202.019 29.6066 203.339 30.3677 204.645 31.1515M213 36.6239C214.224 37.4956 215.431 38.3884 216.622 39.3017M245.991 70.9984C246.769 72.1922 247.528 73.3998 248.267 74.6208M253.571 84.3097C254.326 85.8428 255.051 87.3932 255.745 88.9603M259.776 99.2535C260.431 101.165 261.04 103.098 261.605 105.049C262.102 106.767 262.564 108.5 262.99 110.247M265.007 120.264C265.276 121.943 265.512 123.634 265.714 125.335M263.305 169.529C262.737 171.972 262.099 174.387 261.393 176.774M257.918 186.92C257.231 188.679 256.506 190.419 255.745 192.139M250.782 202.131C249.697 204.095 248.561 206.028 247.377 207.927M211.394 245.6C209.782 246.712 208.144 247.787 206.479 248.825M196.337 254.524C194.667 255.364 192.976 256.168 191.265 256.936M180.398 261.224C178.486 261.878 176.553 262.488 174.602 263.053M164.459 265.538C162.542 265.925 160.61 266.269 158.663 266.568M121.714 266.884C120.013 266.652 118.322 266.386 116.643 266.088M104.326 263.26C102.375 262.708 100.443 262.111 98.5304 261.469M87.6631 257.259C85.2064 256.174 82.7905 255.015 80.4182 253.783M69.5508 247.439C67.6132 246.175 65.7121 244.861 63.8494 243.497M34.0508 212.841C32.9396 211.23 31.8645 209.591 30.8267 207.927M25.8684 199.233C24.8794 197.329 23.9371 195.396 23.0429 193.437M18.4273 181.845C17.6923 179.697 17.0131 177.523 16.3914 175.325M13.7228 163.889C13.4027 162.158 13.1176 160.416 12.8682 158.662M17.9413 100.702C18.5023 98.9958 19.0983 97.3051 19.7285 95.631M23.7153 86.2127C24.4062 84.7482 25.1241 83.299 25.8684 81.8657M31.2818 72.4474C32.4043 70.674 33.5692 68.9303 34.7753 67.2176" stroke="#09C1D1"/>
<path fill-rule="evenodd" clip-rule="evenodd" d="M185.47 118.09H97.082V183.332H185.47V118.09ZM148.254 141.718C148.254 144.859 146.352 147.57 143.602 148.834V162.091C143.602 162.643 143.154 163.091 142.602 163.091H137.624C137.072 163.091 136.624 162.643 136.624 162.091V148.834C133.874 147.57 131.972 144.859 131.972 141.718C131.972 137.369 135.617 133.844 140.113 133.844C144.609 133.844 148.254 137.369 148.254 141.718Z" fill="url(#paint16_linear)" fill-opacity="0.8"/>
<path d="M166.862 115.843V80.3477C166.862 77.5862 164.624 75.3477 161.862 75.3477H118.364C115.603 75.3477 113.364 77.5862 113.364 80.3477V115.843" stroke="url(#paint17_linear)" stroke-opacity="0.8" stroke-width="2" stroke-linecap="round"/>
<defs>
<linearGradient id="paint0_linear" x1="21.9205" y1="26.0073" x2="7.05913" y2="2.97226" gradientUnits="userSpaceOnUse">
<stop stop-color="white" stop-opacity="0.57"/>
<stop offset="1" stop-color="white" stop-opacity="0"/>
</linearGradient>
<linearGradient id="paint1_linear" x1="21.9205" y1="26.0073" x2="7.05913" y2="2.97226" gradientUnits="userSpaceOnUse">
<stop stop-color="white" stop-opacity="0.57"/>
<stop offset="1" stop-color="white" stop-opacity="0"/>
</linearGradient>
<linearGradient id="paint2_linear" x1="21.9205" y1="26.0073" x2="7.05913" y2="2.97226" gradientUnits="userSpaceOnUse">
<stop stop-color="white" stop-opacity="0.57"/>
<stop offset="1" stop-color="white" stop-opacity="0"/>
</linearGradient>
<linearGradient id="paint3_linear" x1="21.9205" y1="26.0073" x2="7.05913" y2="2.97226" gradientUnits="userSpaceOnUse">
<stop stop-color="white" stop-opacity="0.57"/>
<stop offset="1" stop-color="white" stop-opacity="0"/>
</linearGradient>
<linearGradient id="paint4_linear" x1="21.9205" y1="26.0073" x2="7.05913" y2="2.97226" gradientUnits="userSpaceOnUse">
<stop stop-color="white" stop-opacity="0.57"/>
<stop offset="1" stop-color="white" stop-opacity="0"/>
</linearGradient>
<linearGradient id="paint5_linear" x1="21.9205" y1="26.0073" x2="7.05913" y2="2.97226" gradientUnits="userSpaceOnUse">
<stop stop-color="white" stop-opacity="0.57"/>
<stop offset="1" stop-color="white" stop-opacity="0"/>
</linearGradient>
<linearGradient id="paint6_linear" x1="21.9205" y1="27.3077" x2="6.015" y2="3.82819" gradientUnits="userSpaceOnUse">
<stop stop-color="white" stop-opacity="0.57"/>
<stop offset="1" stop-color="white" stop-opacity="0"/>
</linearGradient>
<linearGradient id="paint7_linear" x1="21.9205" y1="27.3077" x2="6.015" y2="3.82819" gradientUnits="userSpaceOnUse">
<stop stop-color="white" stop-opacity="0.57"/>
<stop offset="1" stop-color="white" stop-opacity="0"/>
</linearGradient>
<linearGradient id="paint8_linear" x1="141.051" y1="14.4865" x2="140.524" y2="141.272" gradientUnits="userSpaceOnUse">
<stop stop-color="white" stop-opacity="0.63"/>
<stop offset="1" stop-color="white" stop-opacity="0"/>
</linearGradient>
<linearGradient id="paint9_linear" x1="49.6208" y1="50.359" x2="139.343" y2="140.918" gradientUnits="userSpaceOnUse">
<stop stop-color="white" stop-opacity="0.63"/>
<stop offset="1" stop-color="white" stop-opacity="0"/>
</linearGradient>
<linearGradient id="paint10_linear" x1="269.51" y1="142.5" x2="140.551" y2="142.5" gradientUnits="userSpaceOnUse">
<stop stop-color="white" stop-opacity="0.63"/>
<stop offset="1" stop-color="white" stop-opacity="0"/>
</linearGradient>
<linearGradient id="paint11_linear" x1="232.194" y1="48.1668" x2="140.381" y2="141.624" gradientUnits="userSpaceOnUse">
<stop stop-color="white" stop-opacity="0.63"/>
<stop offset="1" stop-color="white" stop-opacity="0"/>
</linearGradient>
<linearGradient id="paint12_linear" x1="14.4902" y1="141.5" x2="140.551" y2="141.5" gradientUnits="userSpaceOnUse">
<stop stop-color="white" stop-opacity="0.63"/>
<stop offset="1" stop-color="white" stop-opacity="0"/>
</linearGradient>
<linearGradient id="paint13_linear" x1="138.602" y1="265.885" x2="139.936" y2="141.996" gradientUnits="userSpaceOnUse">
<stop stop-color="white" stop-opacity="0.63"/>
<stop offset="1" stop-color="white" stop-opacity="0"/>
</linearGradient>
<linearGradient id="paint14_linear" x1="235.848" y1="227.855" x2="140.726" y2="141.641" gradientUnits="userSpaceOnUse">
<stop stop-color="white" stop-opacity="0.63"/>
<stop offset="1" stop-color="white" stop-opacity="0"/>
</linearGradient>
<linearGradient id="paint15_linear" x1="44.5822" y1="227.114" x2="139.688" y2="140.9" gradientUnits="userSpaceOnUse">
<stop stop-color="white" stop-opacity="0.63"/>
<stop offset="1" stop-color="white" stop-opacity="0"/>
</linearGradient>
<linearGradient id="paint16_linear" x1="185.47" y1="151.836" x2="97.082" y2="151.836" gradientUnits="userSpaceOnUse">
<stop stop-color="white"/>
<stop offset="1" stop-color="white" stop-opacity="0"/>
</linearGradient>
<linearGradient id="paint17_linear" x1="140.113" y1="75.3477" x2="140.113" y2="115.843" gradientUnits="userSpaceOnUse">
<stop stop-color="white"/>
<stop offset="1" stop-color="white" stop-opacity="0"/>
</linearGradient>
</defs>
</svg>
