<svg xmlns="http://www.w3.org/2000/svg" xmlns:xlink="http://www.w3.org/1999/xlink" width="665" height="500" viewBox="0 0 665 500">
  <defs>
    <path id="programming-a" d="M270.6,200.733 L0.172,200.733 L0.172,9.896 C0.172,4.665 4.414,0.423 9.646,0.423 L261.126,0.423 C266.359,0.423 270.6,4.665 270.6,9.896 L270.6,59.205 L260.562,59.205 L260.562,10.235 L9.732,10.235 L9.732,164.323 L260.562,164.323 L260.562,148.26 L270.6,148.26 L270.6,200.733"/>
    <linearGradient id="programming-b" x1="-3.016%" x2="108.078%" y1="50%" y2="50%">
      <stop offset="0%" stop-color="#40D4E6"/>
      <stop offset="100%" stop-color="#5477FF"/>
    </linearGradient>
    <path id="programming-d" d="M251.562,154.323 L0.732,154.323 L0.732,0.235 L251.562,0.235 L251.562,49.205 L171.594,49.205 C169.377,49.205 167.58,51.002 167.58,53.219 L167.58,134.245 C167.58,136.462 169.377,138.26 171.594,138.26 L251.562,138.26 L251.562,154.323"/>
    <linearGradient id="programming-e" x1="0%" x2="100%" y1="50%" y2="50%">
      <stop offset="0%" stop-color="#404A60"/>
      <stop offset="100%" stop-color="#2E3D5C"/>
    </linearGradient>
    <path id="programming-g" d="M1.593,100.943 C-1.815,85.369 5.549,81.482 12.67,77.725 C18.49,74.652 23.987,71.752 23.694,62.573 C23.306,50.405 31.595,45.979 38.908,42.073 C44.349,39.167 49.487,36.423 50.253,30.886 C52.098,17.564 64.386,1.006 64.509,0.841 L65.273,1.412 C65.15,1.574 53.008,17.939 51.198,31.018 C50.365,37.034 45.017,39.89 39.357,42.914 C31.943,46.873 24.277,50.967 24.646,62.543 C24.958,72.316 18.937,75.494 13.115,78.567 C5.996,82.324 -0.729,85.873 2.524,100.739 L1.593,100.943"/>
    <linearGradient id="programming-h" x1=".001%" x2="100%" y1="50.001%" y2="50.001%">
      <stop offset="0%" stop-color="#2F76A0"/>
      <stop offset="100%" stop-color="#629C38"/>
    </linearGradient>
    <path id="programming-j" d="M1.325,104.33 C4.423,108.622 7.235,110.807 9.913,111.006 C13.656,111.283 17.067,107.729 21.017,103.615 C26.107,98.314 31.875,92.307 40.595,91.553 C51.068,90.646 52,81.239 52.902,72.143 C53.708,64.012 54.468,56.332 61.917,55.252 C68.937,54.235 73.454,51.879 75.344,48.247 C76.92,45.22 76.591,41.311 74.389,36.943 C72.304,32.807 75.312,26.981 78.496,20.816 C81.951,14.127 85.522,7.209 81.943,2.945 C81.404,2.303 80.75,1.977 79.945,1.947 C75.902,1.813 69.042,8.872 61.782,16.356 C53.367,25.032 44.668,33.998 38.302,33.999 L38.059,33.995 C32.306,33.781 30.314,40.489 28.009,48.254 C25.477,56.79 22.606,66.465 13.731,68.578 C6.65,70.265 3.552,71.205 2.695,72.662 C2.089,73.689 2.506,75.174 3.197,77.635 C3.705,79.447 4.336,81.702 4.813,84.669 C6.673,96.265 2.402,102.88 1.325,104.33 Z M10.333,111.974 C10.17,111.974 10.007,111.968 9.842,111.956 C6.762,111.728 3.744,109.387 0.341,104.593 L0.128,104.292 L0.367,104.01 C0.421,103.943 5.875,97.298 3.873,84.82 C3.405,81.908 2.781,79.681 2.279,77.892 C1.546,75.28 1.063,73.556 1.873,72.179 C2.902,70.432 5.681,69.516 13.511,67.651 C21.849,65.665 24.636,56.271 27.096,47.983 C29.413,40.177 31.607,32.814 38.094,33.042 C44.056,33.27 53.11,23.928 61.097,15.693 C68.51,8.052 75.505,0.853 79.979,0.995 C81.053,1.034 81.959,1.484 82.672,2.333 C86.66,7.082 82.94,14.287 79.343,21.254 C76.274,27.197 73.375,32.811 75.24,36.514 C77.585,41.166 77.914,45.377 76.189,48.687 C74.15,52.605 69.394,55.132 62.054,56.195 C55.343,57.169 54.619,64.487 53.85,72.236 C52.955,81.279 51.938,91.527 40.677,92.502 C32.315,93.226 26.678,99.096 21.705,104.275 C17.75,108.394 14.312,111.974 10.333,111.974 L10.333,111.974 Z"/>
    <linearGradient id="programming-k" x1="0%" x2="99.999%" y1="50%" y2="50%">
      <stop offset="0%" stop-color="#2F76A0"/>
      <stop offset="100%" stop-color="#629C38"/>
    </linearGradient>
    <path id="programming-m" d="M10.829,1.712 C10.084,1.712 9.525,1.887 9.108,2.24 C7.355,3.732 7.491,8.819 7.739,18.055 C7.821,21.119 7.914,24.592 7.96,28.611 C8.066,37.739 10.82,43.563 12.83,47.816 C15.597,53.673 17.268,57.207 8.229,62.416 C4.686,64.459 2.636,66.809 1.964,69.601 C0.661,75.02 4.85,81.475 8.902,87.718 C10.475,90.143 12.102,92.648 13.392,95.072 C15.066,98.215 16.76,103.042 18.554,108.153 C22.041,118.085 25.993,129.343 30.433,129.747 C32.128,129.898 33.911,128.363 35.732,125.177 C40,117.708 39.757,111.255 39.477,103.781 C39.103,93.79 38.678,82.465 49.255,65.748 C53.503,59.031 54.976,53.74 53.754,49.573 C52.259,44.472 46.997,42.016 42.354,39.85 C38.916,38.246 35.945,36.86 35.343,34.641 C35.046,33.544 35.346,32.368 36.26,31.043 C39.139,26.874 40.093,23.734 39.177,21.443 C37.858,18.14 32.496,16.609 27.424,15.548 C21.036,14.21 18.861,10.148 17.113,6.886 C15.804,4.443 14.674,2.334 12.142,1.853 C11.651,1.759 11.214,1.712 10.829,1.712 Z M30.681,130.711 C30.57,130.711 30.458,130.706 30.347,130.695 C25.296,130.235 21.412,119.17 17.656,108.469 C15.874,103.393 14.191,98.598 12.551,95.521 C11.281,93.133 9.665,90.644 8.102,88.236 C3.941,81.825 -0.362,75.195 1.039,69.378 C1.775,66.317 3.971,63.771 7.753,61.591 C16.031,56.82 14.758,54.127 11.968,48.224 C9.92,43.892 7.116,37.959 7.007,28.623 C6.961,24.61 6.869,21.141 6.786,18.08 C6.522,8.24 6.39,3.302 8.491,1.515 C9.361,0.775 10.578,0.585 12.32,0.916 C15.3,1.483 16.588,3.89 17.953,6.436 C19.693,9.686 21.666,13.368 27.619,14.614 C33.206,15.783 38.58,17.377 40.062,21.09 C41.105,23.7 40.119,27.133 37.044,31.585 C36.299,32.664 36.043,33.582 36.263,34.391 C36.75,36.184 39.533,37.482 42.757,38.986 C47.343,41.127 53.052,43.791 54.669,49.306 C55.972,53.752 54.464,59.297 50.06,66.257 C39.641,82.725 40.06,93.894 40.429,103.746 C40.704,111.048 40.962,117.944 36.559,125.649 C34.616,129.051 32.689,130.711 30.681,130.711 L30.681,130.711 Z"/>
    <linearGradient id="programming-n" x1="0%" x2="100.001%" y1="49.999%" y2="49.999%">
      <stop offset="0%" stop-color="#2F76A0"/>
      <stop offset="100%" stop-color="#629C38"/>
    </linearGradient>
    <path id="programming-p" d="M15.781,118.616 L14.873,118.329 C19.964,102.234 10.753,66.123 8.009,57.335 C6.659,53.014 7.906,46.508 9.113,40.217 C10.671,32.092 12.283,23.689 8.173,20.54 C0.458,14.625 0.865,0.94 0.885,0.36 L1.837,0.396 C1.833,0.532 1.43,14.169 8.753,19.784 C13.33,23.291 11.662,31.987 10.048,40.396 C8.865,46.572 7.64,52.957 8.917,57.051 C12.314,67.919 20.861,102.56 15.781,118.616"/>
    <linearGradient id="programming-q" x1="-.004%" x2="99.996%" y1="50%" y2="50%">
      <stop offset="0%" stop-color="#2F76A0"/>
      <stop offset="100%" stop-color="#629C38"/>
    </linearGradient>
    <path id="programming-s" d="M45.957,104.892 C42.234,104.892 38.78,91.765 34.05,85.746 C28.47,78.644 26.187,67.483 19.592,59.367 C12.998,51.251 -5.518,48.715 2.599,35.779 C4.391,32.924 5.527,30.304 6.202,27.871 C7.557,27.226 8.493,25.845 8.493,24.245 L8.493,0.7 C8.786,0.645 9.086,0.617 9.386,0.617 C11.347,0.617 13.364,1.785 14.266,4.074 C20.861,20.814 33.74,17.985 32.26,25.305 C28.906,41.894 39.123,44.148 49.283,51.505 C59.442,58.86 49.283,66.086 48.776,77.5 C48.269,88.914 52.566,97.16 48,103.501 C47.304,104.467 46.626,104.892 45.957,104.892"/>
    <linearGradient id="programming-t" x1="0%" x2="100.001%" y1="50%" y2="50%">
      <stop offset="0%" stop-color="#2F76A0"/>
      <stop offset="100%" stop-color="#629C38"/>
    </linearGradient>
    <path id="programming-v" d="M9.998,139.771 C9.998,139.771 13.75,130.491 6.921,117.301 C0.091,104.109 -5.436,106.139 11.027,95.991 C27.489,85.844 11.13,53.881 25.144,49.823 C39.158,45.764 51.334,-5.97 61.989,0.618 C72.644,7.205 58.437,32.573 66.047,40.183 C73.658,47.794 74.673,57.478 58.945,65.318 C43.216,73.16 70.107,103.095 48.798,112.227 C27.489,121.359 33.601,157.168 9.998,139.771"/>
    <linearGradient id="programming-w" x1="38.532%" x2="53.802%" y1="144.879%" y2="24.36%">
      <stop offset="0%" stop-color="#2F76A0"/>
      <stop offset="100%" stop-color="#629C38"/>
    </linearGradient>
    <path id="programming-y" d="M0.501,61.529 C0.474,60.354 -0.095,32.679 5.082,28.021 C10.368,23.263 11.383,14.855 11.518,10.268 C11.695,4.289 19.417,0.74 19.747,0.593 L20.138,1.461 C20.063,1.495 12.629,4.914 12.4700005,10.295 C12.3,16.085 10.991,23.984 5.718,28.729 C0.865,33.098 1.447,61.224 1.454,61.508 L0.501,61.529"/>
    <linearGradient id="programming-z" x1="0%" x2="100%" y1="50%" y2="50%">
      <stop offset="0%" stop-color="#2F76A0"/>
      <stop offset="100%" stop-color="#629C38"/>
    </linearGradient>
    <polyline id="programming-B" points="36.943 .234 28.356 32.81 9.167 32.81 .582 .234 36.943 .234"/>
    <linearGradient id="programming-C" x1="0%" x2="100.001%" y1="49.997%" y2="49.997%">
      <stop offset="0%" stop-color="#FF9240"/>
      <stop offset="100%" stop-color="#FFCE45"/>
    </linearGradient>
    <path id="programming-E" d="M36.943,0.234 C36.943,0.234 18.041,3.783 18.041,32.81 L9.167,32.81 L0.582,0.234 L36.943,0.234"/>
    <linearGradient id="programming-F" x1="0%" x2="100.001%" y1="49.997%" y2="49.997%">
      <stop offset="0%" stop-color="#C87331"/>
      <stop offset="100%" stop-color="#FFCE45"/>
    </linearGradient>
    <polyline id="programming-H" points="300.589 .812 30.267 .812 .685 111.379 330.17 111.379 300.589 .812"/>
    <linearGradient id="programming-I" x1="50%" x2="50%" y1="-9.667%" y2="140.989%">
      <stop offset="0%" stop-color="#40D4E6"/>
      <stop offset="100%" stop-color="#5477FF"/>
    </linearGradient>
    <path id="programming-K" d="M321.562,8.987 L9.292,8.987 C4.539,8.987 0.685,5.133 0.685,0.379 L330.17,0.379 C330.17,5.133 326.316,8.987 321.562,8.987"/>
    <linearGradient id="programming-L" x1="-46.348%" x2="53.652%" y1="50.012%" y2="50.012%">
      <stop offset="0%" stop-color="#40D4E6"/>
      <stop offset="100%" stop-color="#5477FF"/>
    </linearGradient>
    <path id="programming-N" d="M27.478,89.26 L0.6,89.26 L0.6,0.205 L27.478,0.205 C29.695,0.205 31.493,2.002 31.493,4.219 L31.493,23.463 L9.263,23.463 L9.263,24.417 L31.493,24.417 L31.493,61.7 C29.198,62.129 27.24,64.242 27.628,68.118 C28.22,74.048 31.586,80.286 29.202,88.871 C28.68,89.12 28.095,89.26 27.478,89.26 L27.478,89.26 Z"/>
    <linearGradient id="programming-P" x1="-2675.304%" x2="317.613%" y1="46.458%" y2="46.458%">
      <stop offset="0%" stop-color="#D1F5F8"/>
      <stop offset="100%" stop-color="#D5DEFF"/>
    </linearGradient>
    <path id="programming-Q" d="M84.562,89.26 L4.594,89.26 C2.377,89.26 0.58,87.462 0.58,85.245 L0.58,4.219 C0.58,2.002 2.377,0.205 4.594,0.205 L84.562,0.205 L84.562,89.26"/>
    <linearGradient id="programming-R" x1="-198.671%" x2="100%" y1="31.524%" y2="31.524%">
      <stop offset="0%" stop-color="#D1D3D9"/>
      <stop offset="100%" stop-color="#CDD1D7"/>
    </linearGradient>
    <path id="programming-T" d="M2.202,27.871 C4.586,19.286 1.22,13.048 0.628,7.118 C0.24,3.242 2.198,1.129 4.493,0.7 L4.493,24.245 C4.493,25.845 3.557,27.226 2.202,27.871"/>
    <linearGradient id="programming-U" x1="-102.206%" x2="1256.957%" y1="191.579%" y2="191.579%">
      <stop offset="0%" stop-color="#CDDEE9"/>
      <stop offset="100%" stop-color="#DAE7CF"/>
    </linearGradient>
  </defs>
  <g fill="none" fill-rule="evenodd">
    <g transform="translate(184 164)">
      <mask id="programming-c" fill="#fff">
        <use xlink:href="#programming-a"/>
      </mask>
      <path fill="url(#programming-b)" d="M270.6,200.733 L0.172,200.733 L0.172,9.896 C0.172,4.665 4.414,0.423 9.646,0.423 L261.126,0.423 C266.359,0.423 270.6,4.665 270.6,9.896 L270.6,59.205 L260.562,59.205 L260.562,10.235 L9.732,10.235 L9.732,164.323 L260.562,164.323 L260.562,148.26 L270.6,148.26 L270.6,200.733" mask="url(#programming-c)"/>
    </g>
    <g transform="translate(193 174)">
      <mask id="programming-f" fill="#fff">
        <use xlink:href="#programming-d"/>
      </mask>
      <path fill="url(#programming-e)" d="M251.562,154.323 L0.732,154.323 L0.732,0.235 L251.562,0.235 L251.562,49.205 L171.594,49.205 C169.377,49.205 167.58,51.002 167.58,53.219 L167.58,134.245 C167.58,136.462 169.377,138.26 171.594,138.26 L251.562,138.26 L251.562,154.323" mask="url(#programming-f)"/>
    </g>
    <path fill="#6AAFE8" d="M104.757 173.993L166.259 173.993C165.06 167.988 159.667 163.527 153.491 163.527 152.088 163.527 150.708 163.749 149.389 164.188L149.052 164.299 148.849 164.009C145.437 159.167 139.873 156.277 133.962 156.277 127.04 156.277 120.808 160.121 117.7 166.31L117.529 166.649 117.16 166.559C116.365 166.362 115.544 166.263 114.719 166.263 110.005 166.263 105.906 169.48 104.757 173.993zM167.384 174.947L103.582 174.947 103.693 174.379C104.717 169.124 109.355 165.309 114.719 165.309 115.494 165.309 116.265 165.389 117.019 165.548 120.343 159.231 126.801 155.323 133.962 155.323 140.065 155.323 145.818 158.251 149.424 163.175 150.738 162.775 152.105 162.573 153.491 162.573 160.433 162.573 166.241 167.546 167.299 174.397L167.384 174.947 167.384 174.947zM382.816 62.674C382.529 65.706 381.576 84.924 401.701 95.34 421.828 84.924 420.874 65.706 420.587 62.674 408.088 62.596 403.001 59.115 401.701 58.01 400.402 59.115 395.314 62.596 382.816 62.674zM401.701 96.412L401.485 96.301C378.843 84.741 381.884 62.354 381.917 62.129L381.977 61.722 382.388 61.722C396.784 61.722 401.308 57.082 401.352 57.036L401.703 56.663 402.052 57.038C402.095 57.082 406.619 61.722 421.014 61.722L421.425 61.722 421.486 62.129C421.519 62.354 424.56 84.741 401.917 96.301L401.701 96.412 401.701 96.412z"/>
    <g transform="translate(524 293)">
      <mask id="programming-i" fill="#fff">
        <use xlink:href="#programming-g"/>
      </mask>
      <path fill="url(#programming-h)" d="M1.593,100.943 C-1.815,85.369 5.549,81.482 12.67,77.725 C18.49,74.652 23.987,71.752 23.694,62.573 C23.306,50.405 31.595,45.979 38.908,42.073 C44.349,39.167 49.487,36.423 50.253,30.886 C52.098,17.564 64.386,1.006 64.509,0.841 L65.273,1.412 C65.15,1.574 53.008,17.939 51.198,31.018 C50.365,37.034 45.017,39.89 39.357,42.914 C31.943,46.873 24.277,50.967 24.646,62.543 C24.958,72.316 18.937,75.494 13.115,78.567 C5.996,82.324 -0.729,85.873 2.524,100.739 L1.593,100.943" mask="url(#programming-i)"/>
    </g>
    <g transform="translate(519 278)">
      <mask id="programming-l" fill="#fff">
        <use xlink:href="#programming-j"/>
      </mask>
      <path fill="url(#programming-k)" d="M1.325,104.33 C4.423,108.622 7.235,110.807 9.913,111.006 C13.656,111.283 17.067,107.729 21.017,103.615 C26.107,98.314 31.875,92.307 40.595,91.553 C51.068,90.646 52,81.239 52.902,72.143 C53.708,64.012 54.468,56.332 61.917,55.252 C68.937,54.235 73.454,51.879 75.344,48.247 C76.92,45.22 76.591,41.311 74.389,36.943 C72.304,32.807 75.312,26.981 78.496,20.816 C81.951,14.127 85.522,7.209 81.943,2.945 C81.404,2.303 80.75,1.977 79.945,1.947 C75.902,1.813 69.042,8.872 61.782,16.356 C53.367,25.032 44.668,33.998 38.302,33.999 L38.059,33.995 C32.306,33.781 30.314,40.489 28.009,48.254 C25.477,56.79 22.606,66.465 13.731,68.578 C6.65,70.265 3.552,71.205 2.695,72.662 C2.089,73.689 2.506,75.174 3.197,77.635 C3.705,79.447 4.336,81.702 4.813,84.669 C6.673,96.265 2.402,102.88 1.325,104.33 Z M10.333,111.974 C10.17,111.974 10.007,111.968 9.842,111.956 C6.762,111.728 3.744,109.387 0.341,104.593 L0.128,104.292 L0.367,104.01 C0.421,103.943 5.875,97.298 3.873,84.82 C3.405,81.908 2.781,79.681 2.279,77.892 C1.546,75.28 1.063,73.556 1.873,72.179 C2.902,70.432 5.681,69.516 13.511,67.651 C21.849,65.665 24.636,56.271 27.096,47.983 C29.413,40.177 31.607,32.814 38.094,33.042 C44.056,33.27 53.11,23.928 61.097,15.693 C68.51,8.052 75.505,0.853 79.979,0.995 C81.053,1.034 81.959,1.484 82.672,2.333 C86.66,7.082 82.94,14.287 79.343,21.254 C76.274,27.197 73.375,32.811 75.24,36.514 C77.585,41.166 77.914,45.377 76.189,48.687 C74.15,52.605 69.394,55.132 62.054,56.195 C55.343,57.169 54.619,64.487 53.85,72.236 C52.955,81.279 51.938,91.527 40.677,92.502 C32.315,93.226 26.678,99.096 21.705,104.275 C17.75,108.394 14.312,111.974 10.333,111.974 L10.333,111.974 Z" mask="url(#programming-l)"/>
    </g>
    <g transform="translate(499 256)">
      <mask id="programming-o" fill="#fff">
        <use xlink:href="#programming-m"/>
      </mask>
      <path fill="url(#programming-n)" d="M10.829,1.712 C10.084,1.712 9.525,1.887 9.108,2.24 C7.355,3.732 7.491,8.819 7.739,18.055 C7.821,21.119 7.914,24.592 7.96,28.611 C8.066,37.739 10.82,43.563 12.83,47.816 C15.597,53.673 17.268,57.207 8.229,62.416 C4.686,64.459 2.636,66.809 1.964,69.601 C0.661,75.02 4.85,81.475 8.902,87.718 C10.475,90.143 12.102,92.648 13.392,95.072 C15.066,98.215 16.76,103.042 18.554,108.153 C22.041,118.085 25.993,129.343 30.433,129.747 C32.128,129.898 33.911,128.363 35.732,125.177 C40,117.708 39.757,111.255 39.477,103.781 C39.103,93.79 38.678,82.465 49.255,65.748 C53.503,59.031 54.976,53.74 53.754,49.573 C52.259,44.472 46.997,42.016 42.354,39.85 C38.916,38.246 35.945,36.86 35.343,34.641 C35.046,33.544 35.346,32.368 36.26,31.043 C39.139,26.874 40.093,23.734 39.177,21.443 C37.858,18.14 32.496,16.609 27.424,15.548 C21.036,14.21 18.861,10.148 17.113,6.886 C15.804,4.443 14.674,2.334 12.142,1.853 C11.651,1.759 11.214,1.712 10.829,1.712 Z M30.681,130.711 C30.57,130.711 30.458,130.706 30.347,130.695 C25.296,130.235 21.412,119.17 17.656,108.469 C15.874,103.393 14.191,98.598 12.551,95.521 C11.281,93.133 9.665,90.644 8.102,88.236 C3.941,81.825 -0.362,75.195 1.039,69.378 C1.775,66.317 3.971,63.771 7.753,61.591 C16.031,56.82 14.758,54.127 11.968,48.224 C9.92,43.892 7.116,37.959 7.007,28.623 C6.961,24.61 6.869,21.141 6.786,18.08 C6.522,8.24 6.39,3.302 8.491,1.515 C9.361,0.775 10.578,0.585 12.32,0.916 C15.3,1.483 16.588,3.89 17.953,6.436 C19.693,9.686 21.666,13.368 27.619,14.614 C33.206,15.783 38.58,17.377 40.062,21.09 C41.105,23.7 40.119,27.133 37.044,31.585 C36.299,32.664 36.043,33.582 36.263,34.391 C36.75,36.184 39.533,37.482 42.757,38.986 C47.343,41.127 53.052,43.791 54.669,49.306 C55.972,53.752 54.464,59.297 50.06,66.257 C39.641,82.725 40.06,93.894 40.429,103.746 C40.704,111.048 40.962,117.944 36.559,125.649 C34.616,129.051 32.689,130.711 30.681,130.711 L30.681,130.711 Z" mask="url(#programming-o)"/>
    </g>
    <g transform="translate(514 274)">
      <mask id="programming-r" fill="#fff">
        <use xlink:href="#programming-p"/>
      </mask>
      <path fill="url(#programming-q)" d="M15.781,118.616 L14.873,118.329 C19.964,102.234 10.753,66.123 8.009,57.335 C6.659,53.014 7.906,46.508 9.113,40.217 C10.671,32.092 12.283,23.689 8.173,20.54 C0.458,14.625 0.865,0.94 0.885,0.36 L1.837,0.396 C1.833,0.532 1.43,14.169 8.753,19.784 C13.33,23.291 11.662,31.987 10.048,40.396 C8.865,46.572 7.64,52.957 8.917,57.051 C12.314,67.919 20.861,102.56 15.781,118.616" mask="url(#programming-r)"/>
    </g>
    <g transform="translate(477 284)">
      <mask id="programming-u" fill="#fff">
        <use xlink:href="#programming-s"/>
      </mask>
      <path fill="url(#programming-t)" d="M45.957,104.892 C42.234,104.892 38.78,91.765 34.05,85.746 C28.47,78.644 26.187,67.483 19.592,59.367 C12.998,51.251 -5.518,48.715 2.599,35.779 C4.391,32.924 5.527,30.304 6.202,27.871 C7.557,27.226 8.493,25.845 8.493,24.245 L8.493,0.7 C8.786,0.645 9.086,0.617 9.386,0.617 C11.347,0.617 13.364,1.785 14.266,4.074 C20.861,20.814 33.74,17.985 32.26,25.305 C28.906,41.894 39.123,44.148 49.283,51.505 C59.442,58.86 49.283,66.086 48.776,77.5 C48.269,88.914 52.566,97.16 48,103.501 C47.304,104.467 46.626,104.892 45.957,104.892" mask="url(#programming-u)"/>
    </g>
    <path fill="#FFF" d="M532.392,388.969 C532.336,388.632 526.696,355.198 514.067,346.035 C501.189,336.692 498.849,328.061 494.351,307.707 L495.282,307.502 C499.725,327.604 502.03,336.126 514.626,345.265 C527.572,354.656 533.103,387.423 533.333,388.813 L532.392,388.969"/>
    <g transform="translate(511 248)">
      <mask id="programming-x" fill="#fff">
        <use xlink:href="#programming-v"/>
      </mask>
      <path fill="url(#programming-w)" d="M9.998,139.771 C9.998,139.771 13.75,130.491 6.921,117.301 C0.091,104.109 -5.436,106.139 11.027,95.991 C27.489,85.844 11.13,53.881 25.144,49.823 C39.158,45.764 51.334,-5.97 61.989,0.618 C72.644,7.205 58.437,32.573 66.047,40.183 C73.658,47.794 74.673,57.478 58.945,65.318 C43.216,73.16 70.107,103.095 48.798,112.227 C27.489,121.359 33.601,157.168 9.998,139.771" mask="url(#programming-x)"/>
    </g>
    <path fill="#FFF" d="M527.507,397.613 C527.483,397.494 525.192,385.612 532.431,370.26 C539.806,354.619 543.336,337.521 541.875,324.521 C541.082,317.481 545.591,314.728 549.954,312.064 C554.248,309.442 558.688,306.731 558.443,299.795 C558.222,293.529 560.874,278.84 560.987,278.218 L561.925,278.389 C561.897,278.54 559.177,293.598 559.396,299.762 C559.66,307.255 554.978,310.113 550.45,312.877 C546.154,315.501 542.097,317.978 542.822,324.414 C544.302,337.582 540.741,354.872 533.293,370.665 C526.197,385.715 528.417,397.309 528.441,397.424 L527.507,397.613"/>
    <path fill="#FFF" d="M544.726,332.048 C549.511,327.604 555.839,326.963 554.521,333.556 C553.203,340.148 548.681,342.033 550.943,346.177 C553.203,350.321 556.97,354.465 550.566,359.552 C544.161,364.638 540.582,365.202 538.698,374.811 C536.814,384.417 537.191,390.978 528.902,391.388 C520.613,391.797 523.816,379.707 526.453,374.244 C526.453,374.244 530.409,368.011 527.771,359.825 C525.134,351.64 520.048,347.219 530.786,344.438 C541.523,341.656 541.5,335.045 544.726,332.048"/>
    <g transform="translate(529 336)">
      <mask id="programming-A" fill="#fff">
        <use xlink:href="#programming-y"/>
      </mask>
      <path fill="url(#programming-z)" d="M0.501,61.529 C0.474,60.354 -0.095,32.679 5.082,28.021 C10.368,23.263 11.383,14.855 11.518,10.268 C11.695,4.289 19.417,0.74 19.747,0.593 L20.138,1.461 C20.063,1.495 12.629,4.914 12.4700005,10.295 C12.3,16.085 10.991,23.984 5.718,28.729 C0.865,33.098 1.447,61.224 1.454,61.508 L0.501,61.529" mask="url(#programming-A)"/>
    </g>
    <g transform="translate(512 386)">
      <mask id="programming-D" fill="#fff">
        <use xlink:href="#programming-B"/>
      </mask>
      <polyline fill="url(#programming-C)" points="36.943 .234 28.356 32.81 9.167 32.81 .582 .234 36.943 .234" mask="url(#programming-D)"/>
    </g>
    <g transform="translate(512 386)">
      <mask id="programming-G" fill="#fff">
        <use xlink:href="#programming-E"/>
      </mask>
      <path fill="url(#programming-F)" d="M36.943,0.234 C36.943,0.234 18.041,3.783 18.041,32.81 L9.167,32.81 L0.582,0.234 L36.943,0.234" mask="url(#programming-G)"/>
    </g>
    <polygon fill="#1487E3" points="185.395 303.968 210.667 303.968 210.667 301.106 185.395 301.106"/>
    <polyline fill="#78C2FF" points="180.12 222.155 139.785 222.155 139.785 170.573 140.738 170.573 140.738 221.202 180.12 221.202 180.12 222.155"/>
    <polyline fill="#78C2FF" points="350.847 188.167 349.894 188.167 349.894 134.978 401.224 134.978 401.224 90.246 402.178 90.246 402.178 135.931 350.847 135.931 350.847 188.167"/>
    <polyline fill="#78C2FF" points="516.67 247.417 463.263 247.417 463.263 246.463 515.716 246.463 515.716 215.452 516.67 215.452 516.67 247.417"/>
    <path fill="#FF7E55" d="M117.385,290.515 C117.385,290.515 116.242,306.561 119.376,308.481 C121.34,309.685 129.171,313.742 128.939,314.504 C128.707,315.265 124.517,321.273 124.517,321.273 C124.517,321.273 109.475,311.368 108.99,308.247 C108.516,305.197 109.73,284.752 111.798,283.81 C113.347,283.104 114.164,283.688 116.117,285.137 C118.855,287.17 117.385,290.515 117.385,290.515"/>
    <path fill="#424773" d="M115.636,407.289 C115.636,407.289 115.168,410.536 115.111,411.023 C115.052,411.511 109.907,410.736 109.907,410.736 L109.49,406.871 C109.49,406.871 114.994,406.831 115.636,407.289"/>
    <path fill="#292C47" d="M115.166,410.61 C115.166,410.61 116.794,412.567 118.372,413.42 C119.949,414.272 122.425,414.61 123.359,415.494 C124.031,416.131 125.81,418.873 119.261,418.818 C112.712,418.763 109.556,419.206 108.855,418.154 C108.153,417.103 109.87,410.391 109.87,410.391 C109.87,410.391 111.42,410.948 115.166,410.61"/>
    <path fill="#424773" d="M141.386,407.289 C141.386,407.289 140.917,410.536 140.859,411.023 C140.8,411.511 135.656,410.736 135.656,410.736 L135.24,406.871 C135.24,406.871 140.744,406.831 141.386,407.289"/>
    <path fill="#292C47" d="M140.915 410.61C140.915 410.61 142.544 412.567 144.121 413.42 145.698 414.272 151.5 414.973 152.432 415.856 153.105 416.493 154.224 419.059 145.011 418.818 138.464 418.647 135.306 419.206 134.603 418.154 133.902 417.103 135.619 410.391 135.619 410.391 135.619 410.391 137.08 410.986 140.915 410.61M117.482 323.861C117.482 323.861 112.648 331.543 113.008 338.485 113.369 345.429 112.578 352.846 111.851 360.098 111.042 368.184 108.836 385.011 108.716 389.335 108.595 393.661 108.874 409.936 108.874 409.936L117.259 409.873C117.259 409.873 120.236 376.995 121.679 373.58 123.121 370.165 129.042 345.465 129.283 342.733 129.523 340.002 117.482 323.861 117.482 323.861"/>
    <path fill="#292C47" d="M142.931,324.902 C142.931,324.902 144.841,343.777 145.322,348.027 C145.802,352.276 145.474,370.689 145.713,373.346 C145.955,376.001 144.107,404.092 143.652,409.441 L134.435,409.383 C134.435,409.383 133.799,386.659 133.799,375.619 C133.799,364.578 130.966,351.726 127.72,344.441 C124.474,337.156 117.044,336.984 115.049,323.469 C115.049,323.469 140.23,320.616 142.931,324.902"/>
    <path fill="#EEA886" d="M122.589,259.102 C122.589,259.102 128.349,255.254 132.394,259.376 C136.439,263.497 138.427,273.188 135.523,275.123 C132.618,277.057 127.69,277.564 125.351,274.939 C123.012,272.316 120.515,268.313 119.902,265.391 C119.287,262.467 121.128,260.332 122.589,259.102"/>
    <path fill="#EEA886" d="M133.564,275.775 C133.564,275.775 133.489,279.824 133.935,280.687 C134.382,281.55 125.529,281.572 125.529,281.572 C125.529,281.572 124.81,276.878 123.447,272.912 C122.084,268.945 133.564,275.775 133.564,275.775"/>
    <path fill="#754836" d="M123.669,272.847 C123.669,272.847 124.495,273.688 126.833,272.735 C129.171,271.782 131.371,267.854 132.3,267.262 C133.232,266.668 133.1,266.07 133.1,266.07 L133.954,266.848 L135.046,266.661 C135.046,266.661 133.383,264.004 134.587,262.477 C135.791,260.949 130.846,253.486 123.701,258.043 C123.701,258.043 118.11,261.101 119.128,264.45 C120.148,267.8 121.931,271.469 123.669,272.847"/>
    <path fill="#E2D2CA" d="M134.46,280.583 C134.46,280.583 134.433,278.935 133.685,278.776 C132.938,278.618 125.435,277.896 124.517,278.258 L124.517,280.178 C124.517,280.178 126.286,281.266 134.46,280.583"/>
    <path fill="#EEA886" d="M132.648,264.871 C132.378,264.332 130.542,263.044 130.398,264.92 C130.254,266.797 132.203,268.815 132.933,268.432 C133.664,268.048 133.334,266.235 132.648,264.871"/>
    <path fill="#754836" d="M120.924,260.093 C120.924,260.093 112.686,262.302 123.335,272.528 L120.924,260.093"/>
    <path fill="#EEA886" d="M194.525,303.892 L186.13,303.814 C186.855,303.393 188.026,302.635 187.767,302.289 C187.397,301.797 185.02,302.878 184.054,302.977 C183.168,303.067 181.683,302.953 180.556,303.364 L177.905,304.494 L180.335,306.743 C180.335,306.743 184.726,307.373 186.011,307.463 C188.101,307.61 194.496,305.121 194.601,304.743 C194.792,304.063 194.525,303.892 194.525,303.892"/>
    <path fill="#FF7E55" d="M145.419,282.868 C140.08,281.93 134.46,280.583 134.46,280.583 L124.517,280.177 C124.517,280.177 115.392,282.186 111.798,283.81 C111.457,283.964 111.457,291.951 110.52,294.045 L113.5,300.331 C113.5,300.331 115.221,312.783 115.578,318.32 C115.742,320.863 112.029,342.16 112.029,342.16 C112.029,342.16 116.007,343.331 122.794,344.079 C129.58,344.827 146.536,343.809 146.642,343.008 C146.75,342.206 143.359,313.163 143.208,311.659 C142.978,309.351 143.875,298.685 143.875,298.685 C145.154,300.401 152.546,306.844 156.155,308.891 C158.722,310.347 165.019,309.457 166.874,309.269 C170.888,308.857 181.978,308.064 182.195,307.67 C182.368,307.434 181.557,303.39 181.093,303.235 C180.687,303.1 166.371,302.393 162.78,302.578 C161.323,302.655 156.57,297.347 156.57,297.347 C156.57,297.347 148.365,284.191 145.419,282.868"/>
    <polyline fill="#FFCB55" points="84.271 242.676 110.553 242.676 110.553 265.736 106.541 261.725 84.271 261.725 84.271 242.676"/>
    <path fill="#6AAFE8" d="M482.82 181.2L506.652 181.2 506.652 157.368 482.82 157.368 482.82 181.2zM481.968 182.052L507.503 182.052 507.503 156.517 481.968 156.517 481.968 182.052zM513.46 165.028L570.205 165.028 570.205 160.489 513.46 160.489 513.46 165.028zM512.611 165.879L571.056 165.879 571.056 159.637 512.611 159.637 512.611 165.879zM482.82 194.056L570.205 194.056 570.205 189.517 482.82 189.517 482.82 194.056zM481.968 194.907L571.056 194.907 571.056 188.666 481.968 188.666 481.968 194.907zM482.82 206.043L537.861 206.043 537.861 201.504 482.82 201.504 482.82 206.043zM481.968 206.895L538.712 206.895 538.712 200.652 481.968 200.652 481.968 206.895zM513.46 176.935L551.337 176.935 551.337 172.396 513.46 172.396 513.46 176.935zM512.611 177.787L552.189 177.787 552.189 171.544 512.611 171.544 512.611 177.787z"/>
    <path fill="#6AAFE8" d="M472.677,219.618 L580.348,219.618 L580.348,143.793 L472.677,143.793 L472.677,219.618 Z M471.826,220.469 L581.2,220.469 L581.2,142.942 L471.826,142.942 L471.826,220.469 Z"/>
    <polyline fill="#6AAFE8" points="433.261 108.221 425.078 108.221 425.078 107.267 432.308 107.267 432.308 100.044 433.261 100.044 433.261 108.221"/>
    <polyline fill="#6AAFE8" points="378.233 108.221 370.048 108.221 370.048 100.044 371.003 100.044 371.003 107.267 378.233 107.267 378.233 108.221"/>
    <polyline fill="#6AAFE8" points="371.006 53.196 370.052 53.196 370.052 45.013 378.23 45.013 378.23 45.966 371.006 45.966 371.006 53.196"/>
    <polyline fill="#6AAFE8" points="433.261 53.193 432.308 53.193 432.308 45.97 425.078 45.97 425.078 45.016 433.261 45.016 433.261 53.193"/>
    <polygon fill="#6AAFE8" points="432.308 87.825 433.261 87.825 433.261 65.413 432.308 65.413"/>
    <polygon fill="#6AAFE8" points="370.048 87.825 371.003 87.825 371.003 65.413 370.048 65.413"/>
    <path fill="#78C2FF" d="M140.262 164.999C138.856 164.999 137.712 166.142 137.712 167.547 137.712 168.953 138.856 170.096 140.262 170.096 141.667 170.096 142.81 168.953 142.81 167.547 142.81 166.142 141.667 164.999 140.262 164.999zM140.262 171.05C138.33 171.05 136.759 169.479 136.759 167.547 136.759 165.616 138.33 164.045 140.262 164.045 142.193 164.045 143.764 165.616 143.764 167.547 143.764 169.479 142.193 171.05 140.262 171.05L140.262 171.05zM401.701 84.671C400.296 84.671 399.152 85.815 399.152 87.22 399.152 88.625 400.296 89.769 401.701 89.769 403.107 89.769 404.25 88.625 404.25 87.22 404.25 85.815 403.107 84.671 401.701 84.671zM401.701 90.723C399.77 90.723 398.199 89.151 398.199 87.22 398.199 85.289 399.77 83.718 401.701 83.718 403.632 83.718 405.204 85.289 405.204 87.22 405.204 89.151 403.632 90.723 401.701 90.723L401.701 90.723zM516.194 210.042C514.789 210.042 513.644 211.186 513.644 212.591 513.644 213.996 514.789 215.14 516.194 215.14 517.599 215.14 518.743 213.996 518.743 212.591 518.743 211.186 517.599 210.042 516.194 210.042zM516.194 216.094C514.263 216.094 512.691 214.522 512.691 212.591 512.691 210.66 514.263 209.088 516.194 209.088 518.125 209.088 519.696 210.66 519.696 212.591 519.696 214.522 518.125 216.094 516.194 216.094L516.194 216.094z"/>
    <path fill="#A1D4FF" d="M140.404,72.836 L162.539,72.836 L162.539,50.701 L140.404,50.701 L140.404,72.836 Z M139.451,73.79 L163.493,73.79 L163.493,49.747 L139.451,49.747 L139.451,73.79 Z"/>
    <polygon fill="#A1D4FF" points="150.995 67.506 151.948 67.506 151.948 56.3 150.995 56.3"/>
    <polygon fill="#A1D4FF" points="145.869 62.38 157.074 62.38 157.074 61.426 145.869 61.426"/>
    <path fill="#A1D4FF" d="M496.464,101.838 L528.922,101.838 L528.922,79.212 L496.464,79.212 L496.464,101.838 Z M495.509,102.792 L529.876,102.792 L529.876,78.259 L495.509,78.259 L495.509,102.792 Z"/>
    <polyline fill="#A1D4FF" points="512.693 93.118 495.684 79.103 496.291 78.368 512.693 91.883 529.097 78.368 529.703 79.103 512.693 93.118"/>
    <polyline fill="#A1D4FF" points="529.054 102.643 516.719 89.639 517.412 88.982 529.746 101.987 529.054 102.643"/>
    <polyline fill="#A1D4FF" points="496.333 102.643 495.641 101.987 507.975 88.982 508.667 89.639 496.333 102.643"/>
    <path fill="#A1D4FF" d="M223.798 119.337C223.138 119.337 222.487 119.646 222.076 120.223 221.749 120.682 221.621 121.241 221.714 121.797 221.808 122.353 222.113 122.84 222.572 123.166 223.031 123.493 223.589 123.621 224.146 123.528 224.701 123.434 225.188 123.129 225.514 122.67 225.841 122.211 225.97 121.652 225.876 121.096 225.783 120.541 225.478 120.054 225.019 119.728 224.648 119.464 224.221 119.337 223.798 119.337zM223.789 124.273C223.207 124.273 222.64 124.093 222.157 123.749 220.887 122.846 220.589 121.078 221.493 119.809 222.396 118.539 224.165 118.241 225.433 119.145 226.048 119.582 226.457 120.233 226.582 120.978 226.707 121.722 226.535 122.47 226.097 123.085 225.66 123.7 225.009 124.108 224.264 124.233 224.106 124.26 223.947 124.273 223.789 124.273zM222.021 125.462L222.23 125.542C222.609 125.688 223.007 125.779 223.416 125.814L223.638 125.833 223.945 126.634 225.353 126.397 225.38 125.54 225.585 125.448C225.958 125.282 226.304 125.065 226.615 124.804L226.787 124.659 227.57 125.009 228.397 123.846 227.81 123.221 227.89 123.011C228.037 122.633 228.126 122.234 228.163 121.826L228.182 121.603 228.982 121.297 228.746 119.889 227.888 119.861 227.796 119.657C227.63 119.285 227.414 118.938 227.152 118.626L227.007 118.455 227.357 117.673 226.195 116.845 225.569 117.431 225.36 117.351C224.98 117.206 224.582 117.115 224.175 117.08L223.953 117.06 223.645 116.259 222.238 116.496 222.21 117.354 222.005 117.445C221.632 117.612 221.286 117.828 220.974 118.09L220.804 118.234 220.021 117.885 219.193 119.048 219.78 119.673 219.699 119.882C219.554 120.26 219.462 120.659 219.427 121.067L219.408 121.29 218.607 121.597 218.845 123.004 219.703 123.032 219.793 123.236C219.959 123.609 220.177 123.956 220.439 124.267L220.583 124.438 220.234 125.221 221.396 126.049 222.021 125.462zM223.486 127.437L223.128 126.502C222.808 126.46 222.494 126.388 222.188 126.287L221.458 126.971 219.341 125.464 219.75 124.551C219.552 124.295 219.381 124.021 219.237 123.733L218.236 123.701 217.805 121.138 218.74 120.78C218.781 120.459 218.854 120.145 218.956 119.84L218.271 119.11 219.778 116.993 220.691 117.401C220.947 117.205 221.22 117.033 221.509 116.889L221.541 115.888 224.103 115.457 224.461 116.391C224.781 116.433 225.097 116.505 225.402 116.607L226.132 115.922 228.25 117.429 227.841 118.343C228.038 118.598 228.208 118.872 228.353 119.161L229.354 119.192 229.785 121.755 228.851 122.113C228.808 122.434 228.736 122.749 228.634 123.054L229.32 123.783 227.812 125.901 226.899 125.493C226.644 125.689 226.371 125.86 226.082 126.005L226.049 127.005 223.486 127.437 223.486 127.437zM204.127 111.784C202.496 111.784 200.886 112.546 199.871 113.974 199.062 115.11 198.745 116.492 198.976 117.866 199.208 119.239 199.96 120.441 201.095 121.249 203.439 122.917 206.703 122.367 208.371 120.023 209.178 118.889 209.496 117.506 209.265 116.132 209.033 114.758 208.281 113.557 207.145 112.749 206.229 112.097 205.173 111.784 204.127 111.784zM204.112 123.167C202.875 123.167 201.625 122.796 200.542 122.026 197.771 120.053 197.121 116.193 199.093 113.421 201.066 110.649 204.925 109.999 207.698 111.972 210.47 113.944 211.121 117.805 209.148 120.576 207.946 122.266 206.042 123.167 204.112 123.167zM200.107 126.665L200.386 126.771C201.292 127.119 202.244 127.336 203.214 127.42L203.512 127.446 204.244 129.356 208.053 128.714 208.118 126.67 208.39 126.548C209.281 126.151 210.109 125.633 210.85 125.009L211.079 124.817 212.946 125.65 215.185 122.502 213.787 121.012 213.893 120.733C214.24 119.828 214.458 118.876 214.542 117.905L214.567 117.607 216.478 116.875 215.835 113.066 213.791 113.001 213.669 112.729C213.272 111.838 212.753 111.01 212.13 110.27L211.938 110.041 212.771 108.174 209.625 105.934 208.133 107.333 207.855 107.226C206.949 106.879 205.998 106.661 205.027 106.578L204.728 106.552 203.998 104.642 200.188 105.283 200.123 107.328 199.85 107.45C198.96 107.847 198.132 108.365 197.39 108.989L197.162 109.181 195.295 108.348 193.056 111.495 194.455 112.986 194.347 113.265C194 114.17 193.783 115.122 193.699 116.093L193.673 116.391 191.763 117.122 192.405 120.932 194.45 120.996 194.571 121.269C194.968 122.159 195.486 122.987 196.111 123.729L196.302 123.958 195.469 125.824 198.617 128.064 200.107 126.665zM203.632 130.426L202.833 128.34C201.977 128.244 201.136 128.052 200.328 127.767L198.701 129.294 194.28 126.148 195.19 124.11C194.656 123.439 194.198 122.708 193.827 121.931L191.594 121.86 190.693 116.51 192.779 115.712C192.875 114.856 193.068 114.015 193.353 113.206L191.826 111.579 194.97 107.159 197.009 108.069C197.68 107.534 198.412 107.077 199.189 106.705L199.259 104.473 204.609 103.571 205.408 105.657C206.263 105.754 207.103 105.946 207.914 106.232L209.541 104.704 213.96 107.85 213.05 109.887C213.585 110.559 214.042 111.289 214.415 112.067L216.646 112.138 217.548 117.488 215.462 118.286C215.366 119.142 215.173 119.982 214.887 120.792L216.416 122.419 213.269 126.839 211.232 125.929C210.561 126.464 209.83 126.921 209.052 127.293L208.982 129.525 203.632 130.426 203.632 130.426z"/>
    <path fill="#78C2FF" d="M78.835,132.97 C70.388,132.97 63.517,126.097 63.517,117.65 C63.517,109.203 70.388,102.331 78.835,102.331 C87.283,102.331 94.155,109.203 94.155,117.65 L93.201,117.65 C93.201,109.729 86.756,103.285 78.835,103.285 C70.914,103.285 64.47,109.729 64.47,117.65 C64.47,125.571 70.914,132.016 78.835,132.016 L78.835,132.97 Z M78.835,135.443 C69.025,135.443 61.043,127.461 61.043,117.65 L61.996,117.65 C61.996,126.936 69.55,134.489 78.835,134.489 C88.121,134.489 95.675,126.936 95.675,117.65 C95.675,108.365 88.121,100.811 78.835,100.811 L78.835,99.857 C88.646,99.857 96.628,107.839 96.628,117.65 C96.628,127.461 88.646,135.443 78.835,135.443 L78.835,135.443 Z"/>
    <polyline fill="#78C2FF" points="76.656 123.545 70.238 117.127 70.913 116.453 76.656 122.196 86.759 112.093 87.433 112.767 76.656 123.545"/>
    <g transform="translate(154 335)">
      <mask id="programming-J" fill="#fff">
        <use xlink:href="#programming-H"/>
      </mask>
      <polyline fill="url(#programming-I)" points="300.589 .812 30.267 .812 .685 111.379 330.17 111.379 300.589 .812" mask="url(#programming-J)"/>
    </g>
    <path fill="#FFF" d="M194.494,355.21 L211.102,355.21 C211.796,355.21 212.32,355.75 212.19,356.332 L210.582,363.557 C210.482,364.002 210.025,364.324 209.494,364.324 L192.601,364.324 C191.892,364.324 191.365,363.764 191.52,363.173 L193.413,355.949 C193.525,355.518 193.974,355.21 194.494,355.21"/>
    <polyline fill="#FFF" points="218.718 355.21 231.273 355.21 229.603 364.324 216.808 364.324 218.718 355.21"/>
    <polyline fill="#FFF" points="237.552 355.21 250.107 355.21 248.794 364.324 235.998 364.337 237.552 355.21"/>
    <polyline fill="#FFF" points="256.385 355.21 268.941 355.21 267.986 364.324 255.191 364.324 256.385 355.21"/>
    <polyline fill="#FFF" points="275.219 355.21 287.775 355.21 287.177 364.324 274.383 364.324 275.219 355.21"/>
    <polyline fill="#FFF" points="294.052 355.21 306.609 355.21 306.371 364.324 293.575 364.337 294.052 355.21"/>
    <polyline fill="#FFF" points="444.765 355.21 425.931 355.21 427.96 364.324 447.152 364.324 444.765 355.21"/>
    <polyline fill="#FFF" points="419.653 355.21 407.097 355.21 408.769 364.324 421.563 364.324 419.653 355.21"/>
    <polyline fill="#FFF" points="400.82 355.21 388.263 355.21 389.576 364.324 402.373 364.337 400.82 355.21"/>
    <polyline fill="#FFF" points="381.986 355.21 369.429 355.21 370.384 364.324 383.179 364.324 381.986 355.21"/>
    <polyline fill="#FFF" points="363.152 355.21 350.595 355.21 351.193 364.324 363.987 364.324 363.152 355.21"/>
    <polyline fill="#FFF" points="344.318 355.21 331.761 355.21 332.001 364.324 344.796 364.337 344.318 355.21"/>
    <polyline fill="#FFF" points="312.886 355.21 325.443 355.21 325.65 364.324 312.886 364.324 312.886 355.21"/>
    <polyline fill="#FFF" points="188.969 371.115 215.207 371.115 213.711 380.518 186.977 380.518 188.969 371.115"/>
    <polyline fill="#FFF" points="448.861 371.115 416.429 371.115 418.277 380.518 451.324 380.518 448.861 371.115"/>
    <polyline fill="#FFF" points="409.943 371.115 396.971 371.115 398.449 380.518 411.667 380.518 409.943 371.115"/>
    <polyline fill="#FFF" points="390.485 371.115 377.512 371.115 378.621 380.518 391.839 380.518 390.485 371.115"/>
    <polyline fill="#FFF" points="371.027 371.115 358.054 371.115 358.792 380.518 372.011 380.518 371.027 371.115"/>
    <polyline fill="#FFF" points="351.568 371.115 338.595 371.115 338.964 380.518 352.183 380.518 351.568 371.115"/>
    <polyline fill="#FFF" points="185.05 387.875 211.873 387.875 209.916 397.214 182.603 397.214 185.05 387.875"/>
    <polyline fill="#FFF" points="218.579 387.875 231.99 387.875 230.4 397.214 216.744 397.214 218.579 387.875"/>
    <polyline fill="#FFF" points="238.696 387.875 339.274 387.875 339.648 397.214 237.228 397.214 238.696 387.875"/>
    <polyline fill="#FFF" points="345.988 387.875 359.398 387.875 360.132 397.214 346.476 397.214 345.988 387.875"/>
    <polyline fill="#FFF" points="366.105 387.875 379.516 387.875 380.617 397.214 366.96 397.214 366.105 387.875"/>
    <polyline fill="#FFF" points="386.222 387.875 399.632 387.875 401.101 397.214 387.445 397.214 386.222 387.875"/>
    <polyline fill="#FFF" points="406.339 387.875 419.75 387.875 421.585 397.214 407.929 397.214 406.339 387.875"/>
    <polyline fill="#FFF" points="426.457 387.875 453.279 387.875 455.725 397.214 428.414 397.214 426.457 387.875"/>
    <polyline fill="#FFF" points="332.136 371.115 319.269 371.115 319.269 380.518 332.383 380.518 332.136 371.115"/>
    <polyline fill="#FFF" points="312.678 371.115 299.706 371.115 299.335 380.518 312.554 380.518 312.678 371.115"/>
    <polyline fill="#FFF" points="293.219 371.115 280.248 371.115 279.508 380.518 292.727 380.518 293.219 371.115"/>
    <polyline fill="#FFF" points="273.761 371.115 260.789 371.115 259.679 380.518 272.899 380.518 273.761 371.115"/>
    <polyline fill="#FFF" points="254.302 371.115 241.33 371.115 239.851 380.518 253.07 380.518 254.302 371.115"/>
    <polyline fill="#FFF" points="234.843 371.115 221.871 371.115 220.024 380.518 233.243 380.518 234.843 371.115"/>
    <polyline fill="#FFF" points="195.107 349.482 197.238 341.345 203.334 341.345 201.345 349.482 195.107 349.482"/>
    <polyline fill="#FFF" points="209.431 341.345 221.623 341.345 219.917 349.482 207.512 349.482 209.431 341.345"/>
    <polyline fill="#FFF" points="227.72 341.345 239.912 341.345 238.527 349.482 226.121 349.482 227.72 341.345"/>
    <polyline fill="#FFF" points="246.009 341.345 258.201 341.345 257.135 349.482 244.73 349.482 246.009 341.345"/>
    <polyline fill="#FFF" points="264.297 341.345 276.49 341.345 275.744 349.482 263.338 349.482 264.297 341.345"/>
    <polyline fill="#FFF" points="282.586 341.345 294.779 341.345 294.353 349.482 281.947 349.482 282.586 341.345"/>
    <polyline fill="#FFF" points="300.875 341.345 313.068 341.345 312.961 349.482 300.556 349.482 300.875 341.345"/>
    <polyline fill="#FFF" points="319.164 341.345 331.357 341.345 331.57 349.482 319.164 349.482 319.164 341.345"/>
    <polyline fill="#FFF" points="337.453 341.345 349.646 341.345 350.179 349.482 337.773 349.482 337.453 341.345"/>
    <polyline fill="#FFF" points="355.742 341.345 367.935 341.345 368.788 349.482 356.382 349.482 355.742 341.345"/>
    <polyline fill="#FFF" points="374.031 341.345 386.224 341.345 387.396 349.482 374.99 349.482 374.031 341.345"/>
    <polyline fill="#FFF" points="392.32 341.345 404.513 341.345 406.005 349.482 393.599 349.482 392.32 341.345"/>
    <polyline fill="#FFF" points="410.609 341.345 422.801 341.345 424.614 349.482 412.208 349.482 410.609 341.345"/>
    <polyline fill="#FFF" points="428.898 341.345 441.09 341.345 443.222 349.482 430.816 349.482 428.898 341.345"/>
    <g transform="translate(154 446)">
      <mask id="programming-M" fill="#fff">
        <use xlink:href="#programming-K"/>
      </mask>
      <path fill="url(#programming-L)" d="M321.562,8.987 L9.292,8.987 C4.539,8.987 0.685,5.133 0.685,0.379 L330.17,0.379 C330.17,5.133 326.316,8.987 321.562,8.987" mask="url(#programming-M)"/>
    </g>
    <path fill="#4D78EB" d="M357.73,410.65 C357.408,408.703 355.725,407.276 353.751,407.276 L285.103,407.276 C283.13,407.276 281.448,408.703 281.126,410.65 L276.837,436.603 C276.431,439.059 278.326,441.291 280.814,441.291 L358.041,441.291 C360.53,441.291 362.424,439.059 362.019,436.603 L357.73,410.65"/>
    <polygon fill="#E0E0E0" points="210.667 190.17 238.611 190.17 238.611 187.309 210.667 187.309"/>
    <polygon fill="#E0E0E0" points="246.431 211.713 266.606 211.713 266.606 208.853 246.431 208.853"/>
    <polygon fill="#1487E3" points="269.749 211.713 283.136 211.713 283.136 208.853 269.749 208.853"/>
    <polygon fill="#1487E3" points="210.985 265.892 224.373 265.892 224.373 263.03 210.985 263.03"/>
    <polygon fill="#E0E0E0" points="285.783 211.713 318.107 211.713 318.107 208.853 285.783 208.853"/>
    <polygon fill="#E0E0E0" points="210.985 255.04 231.755 255.04 231.755 252.179 210.985 252.179"/>
    <polygon fill="#E0E0E0" points="239.939 276.663 252.619 276.663 252.619 273.803 239.939 273.803"/>
    <polygon fill="#1487E3" points="210.985 276.663 236.107 276.663 236.107 273.803 210.985 273.803"/>
    <polygon fill="#E0E0E0" points="210.985 287.436 224.841 287.436 224.841 284.574 210.985 284.574"/>
    <polygon fill="#78C2FF" points="244.046 190.17 263.883 190.17 263.883 187.309 244.046 187.309"/>
    <polygon fill="#1487E3" points="244.046 222.486 263.883 222.486 263.883 219.625 244.046 219.625"/>
    <polygon fill="#E0E0E0" points="234.128 233.258 242.604 233.258 242.604 230.396 234.128 230.396"/>
    <polygon fill="#78C2FF" points="225.653 244.188 244.691 244.188 244.691 241.328 225.653 241.328"/>
    <polygon fill="#1487E3" points="247.568 244.188 273.849 244.188 273.849 241.328 247.568 241.328"/>
    <polygon fill="#1487E3" points="210.985 233.337 230.822 233.337 230.822 230.476 210.985 230.476"/>
    <polygon fill="#1487E3" points="210.985 244.188 222.755 244.188 222.755 241.328 210.985 241.328"/>
    <polygon fill="#FF8761" points="246.6 233.337 257.705 233.337 257.705 230.476 246.6 230.476"/>
    <polygon fill="#FF8761" points="211.318 298.207 222.421 298.207 222.421 295.347 211.318 295.347"/>
    <polygon fill="#78C2FF" points="210.906 211.713 230.742 211.713 230.742 208.853 210.906 208.853"/>
    <polygon fill="#78C2FF" points="228.448 265.892 248.285 265.892 248.285 263.03 228.448 263.03"/>
    <polygon fill="#78C2FF" points="228.693 287.436 248.529 287.436 248.529 284.574 228.693 284.574"/>
    <polygon fill="#78C2FF" points="263.931 287.436 283.767 287.436 283.767 284.574 263.931 284.574"/>
    <polygon fill="#78C2FF" points="210.906 222.486 239.183 222.486 239.183 219.625 210.906 219.625"/>
    <polygon fill="#78C2FF" points="343.414 190.17 363.25 190.17 363.25 187.309 343.414 187.309"/>
    <polygon fill="#78C2FF" points="272.748 298.207 292.584 298.207 292.584 295.347 272.748 295.347"/>
    <polygon fill="#78C2FF" points="369.421 190.17 382.701 190.17 382.701 187.309 369.421 187.309"/>
    <polygon fill="#78C2FF" points="414.347 200.941 427.625 200.941 427.625 198.081 414.347 198.081"/>
    <polygon fill="#1487E3" points="269.224 190.17 294.498 190.17 294.498 187.309 269.224 187.309"/>
    <polygon fill="#1487E3" points="367.695 200.941 392.967 200.941 392.967 198.081 367.695 198.081"/>
    <polygon fill="#1487E3" points="336.699 211.713 361.972 211.713 361.972 208.853 336.699 208.853"/>
    <polygon fill="#1487E3" points="303.795 222.486 329.068 222.486 329.068 219.625 303.795 219.625"/>
    <polygon fill="#78C2FF" points="365.152 211.713 383.118 211.713 383.118 208.853 365.152 208.853"/>
    <polygon fill="#FF8761" points="313.189 190.17 338.461 190.17 338.461 187.309 313.189 187.309"/>
    <polygon fill="#FF8761" points="284.351 222.486 299.169 222.486 299.169 219.625 284.351 219.625"/>
    <polygon fill="#FF8761" points="272.748 266.051 287.566 266.051 287.566 263.189 272.748 263.189"/>
    <polygon fill="#E0E0E0" points="299.169 190.17 308.421 190.17 308.421 187.309 299.169 187.309"/>
    <polygon fill="#E0E0E0" points="269.224 222.486 278.474 222.486 278.474 219.625 269.224 219.625"/>
    <polygon fill="#E0E0E0" points="399.062 200.941 408.314 200.941 408.314 198.081 399.062 198.081"/>
    <polygon fill="#1487E3" points="210.667 200.941 225.14 200.941 225.14 198.081 210.667 198.081"/>
    <polygon fill="#1487E3" points="249.283 255.119 260.708 255.119 260.708 252.258 249.283 252.258"/>
    <polygon fill="#1487E3" points="228.693 200.941 233.365 200.941 233.365 198.081 228.693 198.081"/>
    <polygon fill="#E0E0E0" points="324.625 200.941 363.25 200.941 363.25 198.081 324.625 198.081"/>
    <polygon fill="#E0E0E0" points="287.566 287.436 326.191 287.436 326.191 284.574 287.566 284.574"/>
    <polygon fill="#FF8761" points="236.799 200.941 241.567 200.941 241.567 198.081 236.799 198.081"/>
    <polygon fill="#1487E3" points="308.421 200.941 321.057 200.941 321.057 198.081 308.421 198.081"/>
    <polygon fill="#FF8761" points="321.057 211.713 333.694 211.713 333.694 208.853 321.057 208.853"/>
    <polygon fill="#FF8761" points="256.08 298.207 268.716 298.207 268.716 295.347 256.08 295.347"/>
    <polygon fill="#1487E3" points="278.189 200.941 305.076 200.941 305.076 198.081 278.189 198.081"/>
    <polygon fill="#1487E3" points="253.163 266.051 268.871 266.051 268.871 263.189 253.163 263.189"/>
    <polygon fill="#1487E3" points="252.152 287.436 260.007 287.436 260.007 284.574 252.152 284.574"/>
    <polygon fill="#78C2FF" points="265.123 200.941 274.375 200.941 274.375 198.081 265.123 198.081"/>
    <polygon fill="#FF8761" points="233.986 211.713 243.236 211.713 243.236 208.853 233.986 208.853"/>
    <polygon fill="#FF8761" points="235.83 255.119 245.08 255.119 245.08 252.258 235.83 252.258"/>
    <polygon fill="#1487E3" points="245.477 200.941 261.595 200.941 261.595 198.081 245.477 198.081"/>
    <g transform="translate(454 223)">
      <mask id="programming-O" fill="#fff">
        <use xlink:href="#programming-N"/>
      </mask>
      <polygon fill="#FDFDFD" points=".6 89.26 31.586 89.26 31.586 .205 .6 .205" mask="url(#programming-O)"/>
    </g>
    <polygon fill="url(#programming-P)" points="444.562 312.26 454.6 312.26 454.6 223.205 444.562 223.205"/>
    <g transform="translate(360 223)">
      <mask id="programming-S" fill="#fff">
        <use xlink:href="#programming-Q"/>
      </mask>
      <path fill="url(#programming-R)" d="M84.562,89.26 L4.594,89.26 C2.377,89.26 0.58,87.462 0.58,85.245 L0.58,4.219 C0.58,2.002 2.377,0.205 4.594,0.205 L84.562,0.205 L84.562,89.26" mask="url(#programming-S)"/>
    </g>
    <g transform="translate(481 284)">
      <mask id="programming-V" fill="#fff">
        <use xlink:href="#programming-T"/>
      </mask>
      <path fill="url(#programming-U)" d="M2.202,27.871 C4.586,19.286 1.22,13.048 0.628,7.118 C0.24,3.242 2.198,1.129 4.493,0.7 L4.493,24.245 C4.493,25.845 3.557,27.226 2.202,27.871" mask="url(#programming-V)"/>
    </g>
    <polygon fill="#DFF0FF" points="463.263 247.417 485.493 247.417 485.493 246.463 463.263 246.463"/>
    <path fill="#4AAFFF" d="M472.003 275.225L451.878 275.225C451.027 275.225 450.337 274.535 450.337 273.686L450.337 270.577C450.337 269.727 451.027 269.037 451.878 269.037L472.003 269.037C472.855 269.037 473.544 269.727 473.544 270.577L473.544 273.686C473.544 274.535 472.855 275.225 472.003 275.225M472.003 286.811L451.878 286.811C451.027 286.811 450.337 286.122 450.337 285.271L450.337 282.163C450.337 281.313 451.027 280.623 451.878 280.623L472.003 280.623C472.855 280.623 473.544 281.313 473.544 282.163L473.544 285.271C473.544 286.122 472.855 286.811 472.003 286.811M472.003 298.397L451.878 298.397C451.027 298.397 450.337 297.708 450.337 296.857L450.337 293.75C450.337 292.898 451.027 292.209 451.878 292.209L472.003 292.209C472.855 292.209 473.544 292.898 473.544 293.75L473.544 296.857C473.544 297.708 472.855 298.397 472.003 298.397M415.359 291.185C404.946 294.909 393.722 291.548 386.958 283.596 385.345 281.701 383.986 279.545 382.952 277.16 382.723 276.635 382.51 276.096 382.314 275.549 380.346 270.046 380.357 264.316 381.978 259.141 384.317 251.668 390.009 245.343 397.949 242.505 400.57 241.567 403.242 241.08 405.88 240.999 416.78 240.67 427.123 247.317 430.994 258.139 435.802 271.582 428.801 286.377 415.359 291.185zM439.118 255.234C433.956 240.8 420.162 231.936 405.623 232.373 402.103 232.479 398.541 233.129 395.044 234.379 384.455 238.168 376.861 246.603 373.741 256.568 371.579 263.475 371.565 271.115 374.19 278.455 374.451 279.186 374.734 279.902 375.039 280.604 376.419 283.783 378.232 286.659 380.383 289.187 389.406 299.794 404.376 304.276 418.265 299.311 436.195 292.896 445.531 273.164 439.118 255.234L439.118 255.234z"/>
    <path fill="#1A598C" d="M381.978,259.141 L373.741,256.568 C376.861,246.603 384.455,238.168 395.044,234.379 C398.541,233.129 402.103,232.479 405.623,232.373 L405.88,240.999 C403.242,241.08 400.57,241.567 397.949,242.505 C390.009,245.343 384.317,251.668 381.978,259.141"/>
    <path fill="#2273B5" d="M382.952,277.16 L375.039,280.604 C374.734,279.902 374.451,279.186 374.19,278.455 C371.565,271.115 371.579,263.475 373.741,256.568 L381.978,259.141 C380.357,264.316 380.346,270.046 382.314,275.549 C382.51,276.096 382.723,276.635 382.952,277.16"/>
    <path fill="#3788CC" d="M380.383,289.187 C378.232,286.659 376.419,283.783 375.039,280.604 L382.952,277.16 C383.986,279.545 385.345,281.701 386.958,283.596 L380.383,289.187"/>
    <path fill="#EEA886" d="M418.164 287.294C418.164 287.294 416.494 284.371 419.142 276.538 421.703 268.963 430.571 269.649 433.388 274.503 436.207 279.355 435.255 282.371 431.106 287.85 426.957 293.33 419.885 289.799 418.164 287.294M438.759 422.057C438.759 422.057 439.198 425.273 439.253 425.758 439.307 426.24 444.134 425.473 444.134 425.473L444.525 421.643C444.525 421.643 439.363 421.604 438.759 422.057"/>
    <path fill="#414773" d="M439.201,425.349 C439.201,425.349 437.671,427.287 436.193,428.131 C434.714,428.977 432.39,429.311 431.515,430.186 C430.884,430.816 429.216,433.535 435.359,433.479 C441.501,433.426 444.462,433.864 445.121,432.822 C445.779,431.779 444.169,425.131 444.169,425.131 C444.169,425.131 442.666,425.555 439.201,425.349"/>
    <path fill="#EEA886" d="M405.341,422.057 C405.341,422.057 405.781,425.273 405.835,425.758 C405.89,426.24 410.716,425.473 410.716,425.473 L411.107,421.643 C411.107,421.643 405.945,421.604 405.341,422.057"/>
    <path fill="#414773" d="M405.785,425.349 C405.785,425.349 404.255,427.287 402.776,428.131 C401.297,428.977 395.854,429.67 394.98,430.545 C394.348,431.177 393.298,433.718 401.941,433.479 C408.082,433.311 411.045,433.864 411.704,432.822 C412.362,431.779 410.751,425.131 410.751,425.131 C410.751,425.131 408.843,425.47 405.785,425.349"/>
    <path fill="#2D314F" d="M437.134,341.959 C437.134,341.959 439.609,349.648 439.283,356.275 C438.957,362.902 440.562,370.154 441.218,377.077 C441.951,384.794 444.945,403.064 445.052,407.193 C445.162,411.32 444.588,424.504 444.588,424.504 L438.594,424.647 C438.594,424.647 433.561,392.707 432.257,389.448 C430.954,386.189 424.488,362.954 424.271,360.347 C424.054,357.739 437.134,341.959 437.134,341.959"/>
    <path fill="#2D314F" d="M412.285,341.158 C412.285,341.158 408.646,361.49 408.21,365.547 C407.777,369.603 407.486,385.175 407.269,387.71 C407.052,390.244 405.821,420.882 404.662,424.647 L411.345,424.647 C411.345,424.647 418.207,402.376 418.207,391.838 C418.207,381.3 422.75,368.929 425.683,361.977 C428.617,355.023 435.331,354.859 437.134,341.959 C437.134,341.959 414.725,337.067 412.285,341.158"/>
    <path fill="#EEA886" d="M420.587,289.361 C420.587,289.361 421.341,291.556 420.587,293.122 C419.833,294.687 430.218,293.748 430.218,293.748 C430.218,293.748 429.749,290.512 431.106,287.85 C432.462,285.188 420.587,289.361 420.587,289.361"/>
    <path fill="#2B3B57" d="M437.616,343.635 C437.616,343.635 433.88,347.472 411.95,343.037 L412.285,341.158 L437.215,342.098 L437.616,343.635"/>
    <path fill="#EEA886" d="M419.015,293.63 C419.015,293.63 415.179,294.021 414.083,294.23 C412.988,294.438 405.611,292.91 404.097,292.754 C402.583,292.598 396.13,288.177 395.921,287.654 C395.713,287.133 391.996,277.721 391.787,275.686 C391.578,273.648 388.166,274.7 388.458,276.103 C389.005,278.727 389.708,285.095 390.094,286.941 C390.51,288.935 391.625,293.448 392.251,294.004 C392.877,294.56 398.688,298.979 404.376,300.857 C410.066,302.736 414.347,305.503 414.347,305.503 L442.382,305.503 C442.382,305.503 453.287,289.916 453.521,287.567 C453.755,285.219 445.905,269.61 444.339,267.652 C442.773,265.695 440.509,268.291 440.509,268.291 C440.509,268.291 445.201,282.057 445.826,284.014 C446.453,285.971 440.37,294.569 438.699,294.596 C437.029,294.622 432.742,294.073 430.836,293.995 C428.931,293.916 426.921,293.081 426.921,293.081 L419.015,293.63"/>
    <path fill="#FFC655" d="M406.933,304.041 C406.933,304.041 410.366,306.323 410.679,310.236 C410.992,314.151 412.245,320.335 412.871,322.448 C413.498,324.563 412.323,339.905 412.166,341.001 C412.009,342.098 433.86,344.701 437.215,342.098 C437.215,342.098 438.155,327.771 438.546,323.701 C438.938,319.631 440.816,309.768 441.443,308.437 C442.069,307.105 449.662,296.455 449.975,295.051 C449.975,295.051 446.046,288.788 443.229,288.71 C443.229,288.71 438.753,293.955 437.294,294.189 C435.834,294.424 426.89,292.785 426.888,292.771 C426.888,292.771 425.912,294.102 420.722,292.535 C420.722,292.535 414.541,293.232 413.536,293.36 C412.318,293.517 403.855,292.299 403.855,292.299 C403.855,292.299 400.459,298.033 401.054,300.927 L406.933,304.041"/>
    <path fill="#EEA886" d="M391.983 276.908C391.983 276.908 391.216 273.28 392.14 272.238 392.666 271.646 393.927 270.075 394.042 269.845 394.158 269.614 395.513 268.835 395.513 268.46 395.513 268.085 394.187 267.624 393.034 268.691 391.88 269.758 391.16 269.989 390.699 269.873 390.236 269.758 389.574 265.923 389.516 264.972 389.458 264.02 389.091 261.511 388.496 261.685 387.901 261.857 387.93 262.953 387.93 262.953 387.93 262.953 387.238 261.049 386.777 261.425 386.315 261.799 386.373 262.723 386.373 262.723 386.373 262.723 385.507 261.655 385.277 262.434 385.046 263.213 385.277 263.904 385.277 263.904 385.277 263.904 384.382 263.414 384.326 264.625 384.267 265.836 384.585 269.383 385.219 270.652 385.853 271.921 388.228 275.239 388.511 276.535 388.794 277.832 391.983 276.908 391.983 276.908M441.273 270.537C441.273 270.537 438.665 266.152 437.777 265.761 436.89 265.369 435.638 265.147 434.542 264.364 433.446 263.582 431.998 262.93 432.076 262.669 432.154 262.408 433.446 262.512 434.829 263.112 436.212 263.712 436.818 263.422 436.949 263.109 437.08 262.796 436.212 260.585 435.794 260.063 435.376 259.541 432.402 256.549 432.898 256.105 433.394 255.662 435.325 257.307 435.638 257.645 435.638 257.645 434.098 254.41 434.699 254.253 435.298 254.096 436.42 255.244 436.42 255.244 436.42 255.244 436.291 252.479 439.265 256.967 439.265 256.967 438.638 255.479 439.552 255.976 440.465 256.471 441.353 259.264 441.64 260.673 441.926 262.081 443.229 266.57 444.339 267.652 445.449 268.735 441.273 270.537 441.273 270.537"/>
    <path fill="#353A3D" d="M431.106,287.85 C431.106,287.85 429.732,287.972 426.809,286.963 C423.886,285.953 423.668,280.844 423.037,281.448 C421.747,282.684 420.529,281.831 420.042,281.1 C420.042,281.1 421.468,279.222 420.807,278.316 C420.146,277.412 419.07,276.752 419.07,276.752 C419.07,276.752 421.125,266.845 430.48,271.358 C441.439,276.647 431.106,287.85 431.106,287.85"/>
    <path fill="#D4D8E8" d="M420.587,293.122 L420.917,291.689 C420.917,291.689 426.887,291.568 430.144,292.04 L430.488,293.752 C430.488,293.752 426.316,295.644 420.587,293.122"/>
    <path fill="#EEA886" d="M422.06,280.195 C422.602,279.295 424.607,278.687 424.843,281.239 C425.026,283.219 421.259,285.38 421.224,283.536 C421.19,281.691 421.699,280.795 422.06,280.195"/>
    <path fill="#E55353" d="M391.841,276.085 C391.841,276.085 389.687,276.137 388.642,277.081 C388.642,277.081 388.574,277.681 388.816,278.152 C388.816,278.152 390.683,277.281 392.116,277.118 C392.116,277.118 392.091,276.335 391.841,276.085"/>
    <path fill="#353A3D" d="M389.301,276.621 C389.103,277.092 389.324,277.636 389.794,277.835 C390.265,278.033 390.809,277.813 391.008,277.342 C391.207,276.87 390.987,276.327 390.515,276.128 C390.044,275.929 389.5,276.15 389.301,276.621"/>
    <path fill="#6069A8" d="M336.388,200.063 C336.388,200.063 339.467,205.283 340.767,206.136 C342.533,207.293 341.426,208.463 340.588,208.464 C339.75,208.465 335.47,208.771 334.527,207.701 C333.583,206.631 333.117,203.423 332.239,202.584 C331.362,201.746 330.457,198.411 332.666,197.601 C334.621,196.883 336.388,200.063 336.388,200.063"/>
    <path fill="#202338" d="M335.055,197.768 C335.055,197.768 338.582,203.88 339.189,204.784 C339.796,205.687 338.044,205.685 336.958,205.256 C335.873,204.827 333.142,200.443 332.75,199.645 C332.282,198.692 332.666,197.601 332.666,197.601 L335.055,197.768"/>
    <polyline fill="#6069A8" points="331.482 201.057 332.296 207.323 332.728 207.342 332.593 202.834 331.482 201.057"/>
    <path fill="#6069A8" d="M305.853,200.063 C305.853,200.063 308.933,205.283 310.232,206.136 C311.998,207.293 310.892,208.463 310.054,208.464 C309.216,208.465 304.935,208.771 303.993,207.701 C303.049,206.631 302.582,203.423 301.705,202.584 C300.828,201.746 299.892,198.325 302.131,197.601 C304.096,196.965 305.853,200.063 305.853,200.063"/>
    <path fill="#202338" d="M304.705,197.78 C304.705,197.78 308.046,203.88 308.655,204.784 C309.262,205.687 307.509,205.685 306.424,205.256 C305.338,204.827 302.607,200.443 302.215,199.645 C301.748,198.692 302.131,197.601 302.131,197.601 L304.705,197.78"/>
    <polyline fill="#6069A8" points="300.947 201.057 301.761 207.323 302.193 207.342 302.059 202.834 300.947 201.057"/>
    <path fill="#202338" d="M292.192,152.559 L320.056,165.255 C320.056,165.255 323.166,166.267 323.515,169.72 C324.603,180.5 332.666,197.601 332.666,197.601 C335.253,198.865 335.055,197.768 335.055,197.768 C333.425,192.534 331.44,170.964 330.732,162.292 C330.582,160.455 330.489,159.197 330.468,158.795 C330.455,158.521 330.156,158.164 329.64,157.746 C325.816,154.645 310.083,148.226 310.083,148.226 C298.271,147.926 292.192,152.559 292.192,152.559"/>
    <path fill="#202338" d="M286.94,158.011 C287.802,165.542 298.554,164.68 298.554,164.68 L311.584,164.68 C311.584,164.68 308.162,172.296 306.839,178.72 C305.437,185.538 302.131,197.601 302.131,197.601 C302.131,197.601 302.347,198.01 304.705,197.78 C304.705,197.78 314.933,177.395 318.849,172.27 C319.691,171.167 322.105,165.18 322.521,161.609 C322.662,160.408 322.575,159.48 322.126,159.104 C321.673,158.725 320.635,158.011 319.25,157.137 C315.167,154.563 308.08,150.601 304.13,149.714 C298.841,148.525 290.476,146.297 290.476,146.297 C290.476,146.297 286.078,150.48 286.94,158.011"/>
    <path fill="#464240" d="M295.808,99.998 C295.808,99.998 293.858,96.295 294.808,92.352 C295.759,88.409 299.417,84.48 304.775,86.285 C310.132,88.089 314.462,92.25 311.251,97.063 C308.04,101.874 314.158,104.047 312.598,106.337 C311.04,108.627 311.63,111.018 312.291,111.551 C312.951,112.083 315.08,113.982 314.845,116.231 C314.611,118.479 304.452,109.678 304.452,109.678 C304.452,109.678 298.918,98.56 295.808,99.998"/>
    <path fill="#EB4747" d="M312.136,147.323 C312.136,147.323 311.33,151.243 290.519,146.293 C290.519,146.293 297.495,143.976 312.136,147.323"/>
    <path fill="#325BB3" d="M290.283,147.393 C289.959,148.009 289.637,148.625 289.315,149.241 C296.922,149.462 304.53,149.684 312.136,149.906 C310.934,145.876 311.324,140.42 311.535,136.278 C311.792,131.219 314.585,127.702 314.289,122.585 C315.793,122.829 316.053,122.875 317.561,123.105 C315.255,116.538 314.466,113.284 307.306,110.756 C304.974,109.933 303.443,109.77 300.919,109.978 C292.626,110.661 290.125,110.759 286.052,118.274 C292.428,119.29 291.378,121.579 293.312,127.922 C294.255,131.015 295.24,134.467 294.734,137.729 C294.236,140.941 290.283,144.464 290.283,147.393"/>
    <path fill="#EEA886" d="M303.517,112.348 C300.123,111.707 300.845,109.819 300.845,109.819 C300.845,109.819 301.002,108.754 301.064,107.407 C301.08,107.063 301.088,106.699 301.086,106.33 C301.085,105.771 301.058,105.199 300.994,104.661 C300.715,102.383 307.154,103.742 307.154,103.742 C307.154,103.742 306.783,108.352 307.671,109.733 C308.558,111.115 306.912,112.989 303.517,112.348"/>
    <path fill="#EEA886" d="M297.042 109.807C297.042 109.807 303.888 117.712 306.419 119.544 306.419 119.544 309.327 116.917 307.535 109.979 307.535 109.979 304.229 108.323 297.042 109.807M297.229 90.781C297.229 90.781 293.673 97.632 297.199 104.121 300.726 110.609 307.654 101.295 308.101 100.202 308.55 99.109 310.925 92.928 306.201 91.049 301.475 89.171 298.236 88.922 297.229 90.781"/>
    <path fill="#464240" d="M298.411,93.212 C298.411,93.212 295.963,96.427 295.673,98.802 C295.673,98.802 294.699,94.311 297.454,89.997 C300.208,85.682 307.213,89.792 308.152,91.515 C309.089,93.239 311.839,94.758 307.22,102.166 C307.22,102.166 298.914,96.395 298.411,93.212"/>
    <path fill="#A77860" d="M304.092,104.804 C304.092,104.804 303.475,106.153 301.064,107.407 C301.08,107.063 301.088,106.699 301.086,106.33 C301.086,106.33 302.719,106.133 304.092,104.804"/>
    <path fill="#EEA886" d="M268.16,141.229 C268.16,141.229 266.47,141.981 265.667,141.64 C264.867,141.299 263.627,141.233 263.237,141.232 C262.714,141.231 261.078,140.647 261.105,141.287 C261.134,141.926 263.762,142.372 264.3,142.572 C264.838,142.771 262.691,143.953 262.492,144.478 C262.292,145.003 264.716,148.449 266.083,147.467 C267.45,146.485 268.19,144.525 268.468,144.401 C268.747,144.276 269.495,143.726 269.495,143.726 L268.16,141.229"/>
    <path fill="#EEA886" d="M262.75,144.173 C262.75,144.173 258.787,147.459 258.725,147.903 C258.663,148.347 258.872,148.555 259.256,148.263 C259.64,147.971 263.187,145.2 263.187,145.2 C263.187,145.2 259.215,149.89 259.082,150.238 C259.003,150.442 259.384,150.866 259.606,150.729 C259.828,150.592 264.051,146.176 264.051,146.176 C264.051,146.176 260.351,150.563 260.332,150.891 C260.314,151.178 260.759,151.488 261.058,151.182 C261.357,150.876 265.039,147.006 265.039,147.006 C265.039,147.006 262.564,150.374 262.716,150.67 C262.81,150.852 263.123,151.232 263.732,150.342 C264.341,149.452 266.015,147.512 266.015,147.512 L262.75,144.173"/>
    <path fill="#FF7E55" d="M310.224,164.681 L298.554,164.681 C298.554,164.681 287.802,165.542 286.941,158.012 C286.078,150.48 290.476,146.297 290.476,146.297 C290.476,146.297 296.156,147.81 301.115,149.007 C303.597,148.48 306.589,148.137 310.083,148.226 C310.083,148.226 331.103,155.171 330.47,158.828 C330.47,158.828 321.677,154.127 310.224,164.681"/>
    <polyline fill="#5E5853" points="302.628 151.639 324.878 151.311 313.644 157.016 302.628 151.639"/>
    <path fill="#325BB3" d="M309.541,148.796 C309.541,148.796 304.535,150.734 298.399,148.981 L298.112,146.69 L310.746,147.393 L309.541,148.796"/>
    <polyline fill="#91887F" points="313.644 157.016 302.628 152.748 302.628 151.639 314.515 155.927 313.644 157.016"/>
    <path fill="#EDDAD3" d="M309.462 149.856C309.404 150.678 310.235 151.271 310.994 150.947L312.285 150.396C312.673 150.23 312.899 149.821 312.832 149.403 312.294 146.038 311.14 132.937 312.828 130.688 313.451 129.858 313.839 129.129 314.058 128.493 315.172 131.364 316.558 135.063 317.109 137.052L327.621 151.037 331.146 151.931C326.747 141.333 323.214 135.718 323.214 135.718 322.526 133.871 320.553 128.278 318.806 123.298 317.703 120.153 316.69 117.253 316.146 115.695 315.87 114.905 315.326 114.238 314.607 113.81 312.979 112.836 310.266 111.302 307.805 110.108L307.776 110.094 307.541 109.98 307.536 109.979 307.535 109.978C312.212 117.056 310.388 137.045 309.465 149.828L309.462 149.856M292.097 110.582C290.598 110.813 286.882 114.421 284.91 118.062 282.658 122.218 280.365 126.949 278.647 128.505 275.488 131.368 266.644 141.485 266.224 141.24 266.062 141.146 268.649 144.261 268.978 144.406 269.142 144.479 283.513 132.026 284.893 130.129 286.203 128.33 289.702 120.781 290.749 120.947L290.751 120.953 290.753 120.956C290.833 121.127 292.105 123.887 293.312 127.922L293.372 128.123C294.203 130.937 294.126 133.992 293.676 137.425 293.336 140.016 291.402 144.252 290.236 146.314 290.095 146.562 290.131 147.034 290.283 147.393 290.374 147.607 290.505 147.781 290.666 147.84L294.884 149.403 295.876 149.771C296.59 150.035 297.339 149.897 297.898 149.491 298.357 149.158 298.688 148.645 298.769 148.024 299.707 140.808 300.894 133.435 301.84 130.658 305.991 118.471 300.218 109.314 300.218 109.314 300.218 109.314 293.412 110.091 292.097 110.582"/>
    <polyline fill="#6E6760" points="313.644 157.016 320.263 138.945 341.599 139.293 335.291 155.946 313.644 157.016"/>
    <path fill="#807066" d="M327.089,146.939 C326.439,148.241 326.635,149.658 327.529,150.105 C328.423,150.552 329.675,149.859 330.326,148.558 C330.977,147.257 330.781,145.839 329.886,145.392 C328.994,144.945 327.741,145.638 327.089,146.939"/>
    <path fill="#464240" d="M304.598,97.603 C304.598,97.603 305.964,99.729 304.703,101.565 C303.439,103.4 305.021,105.203 305.294,107.143 C305.569,109.083 300.024,114.246 306.191,116.843 C312.357,119.44 314.32,115.147 312.746,112.784 C311.173,110.421 310.056,108.504 309.923,105.136 C309.791,101.767 308.682,96.516 304.598,97.603"/>
    <polyline fill="#78C2FF" points="259.932 72.086 286.213 72.086 286.213 95.148 282.202 91.136 259.932 91.136 259.932 72.086"/>
  </g>
</svg>
