<svg xmlns="http://www.w3.org/2000/svg" xmlns:xlink="http://www.w3.org/1999/xlink" width="500" height="386" viewBox="0 0 500 386">
  <defs>
    <path id="woman-with-headphones-a" d="M1.424,7.107 C1.382,7.107 1.34,7.107 1.298,7.106 C0.927,7.102 0.632,6.814 0.63,6.448 C0.63,6.436 0.631,6.424 0.631,6.412 C0.638,6.255 0.642,6.091 0.642,5.923 C0.642,4.961 0.536,3.876 0.459,3.213 C0.457,3.188 0.454987168,3.164 0.454987168,3.139 C0.453,2.818 0.685,2.541 1.009,2.487 L10.005,0.974 C10.043,0.968 10.08,0.965 10.116,0.965 C10.475,0.965 10.778,1.255 10.779,1.626 C10.779,1.629 10.779,1.632 10.779,1.635 L10.751,4.656 C10.749,4.938 10.573,5.187 10.305,5.277 C8.927,5.742 4.611,7.107 1.424,7.107 L1.424,7.107 Z"/>
  </defs>
  <g fill="none" fill-rule="evenodd">
    <polygon fill="#E4E4DE" points="416.779 357.183 449.901 357.183 449.901 356.933 416.779 356.933"/>
    <polygon fill="#E4E4DE" points="322.527 359.896 331.22 359.896 331.22 359.646 322.527 359.646"/>
    <polygon fill="#E4E4DE" points="396.586 347.897 415.778 347.897 415.778 347.647 396.586 347.647"/>
    <polygon fill="#E4E4DE" points="52.459 349.577 95.652 349.577 95.652 349.327 52.459 349.327"/>
    <polygon fill="#E4E4DE" points="104.556 349.577 110.889 349.577 110.889 349.327 104.556 349.327"/>
    <polygon fill="#E4E4DE" points="131.471 353.799 225.147 353.799 225.147 353.549 131.471 353.549"/>
    <path fill="#E4E4DE" d="M43.915 13.641C40.905 13.641 38.457 16.089 38.457 19.099L38.457 290.53C38.457 293.54 40.905 295.988 43.915 295.988L237.014 295.988C240.022 295.988 242.471 293.54 242.471 290.53L242.471 19.099C242.471 16.089 240.022 13.641 237.014 13.641L43.915 13.641M237.014 296.238L43.915 296.238C40.767 296.238 38.207 293.678 38.207 290.53L38.207 19.099C38.207 15.951 40.767 13.391 43.915 13.391L237.014 13.391C240.16 13.391 242.721 15.951 242.721 19.099L242.721 290.53C242.721 293.678 240.16 296.238 237.014 296.238M260.212 13.641C257.203 13.641 254.755 16.089 254.755 19.099L254.755 290.53C254.755 293.54 257.203 295.988 260.212 295.988L453.311 295.988C456.32 295.988 458.769 293.54 458.769 290.53L458.769 19.099C458.769 16.089 456.32 13.641 453.311 13.641L260.212 13.641M453.311 296.238L260.212 296.238C257.065 296.238 254.505 293.678 254.505 290.53L254.505 19.099C254.505 15.951 257.065 13.391 260.212 13.391L453.311 13.391C456.458 13.391 459.019 15.951 459.019 19.099L459.019 290.53C459.019 293.678 456.458 296.238 453.311 296.238"/>
    <path fill="#E4E4DE" d="M366.525,161.702 C395.303,160.716 417.838,136.582 416.852,107.803 C415.865,78.99 391.731,56.456 362.953,57.442 C334.174,58.429 311.639,82.56 312.627,111.373 C313.613,140.153 337.747,162.687 366.525,161.702 M277.729,119.131 L277.278,105.99 L285.346,103.354 C285.678,98.864 286.428,94.43 287.497,90.158 L280.659,85.116 L285.304,72.773 L293.762,73.454 C295.778,69.463 298.147,65.666 300.803,62.104 L296.421,54.791 L305.43,45.181 L312.991,49.052 C316.397,46.158 319.987,43.536 323.831,41.218 L322.606,32.824 L334.604,27.379 L340.101,33.821 C344.29,32.462 348.628,31.446 353.117,30.772 L355.162,22.544 L368.337,22.092 L370.939,30.161 C375.465,30.526 379.863,31.243 384.135,32.312 L389.213,25.508 L401.555,30.119 L400.873,38.578 C404.865,40.628 408.661,42.996 412.223,45.652 L419.501,41.272 L429.147,50.244 L425.276,57.839 C428.169,61.212 430.792,64.837 433.077,68.681 L441.469,67.422 L446.947,79.418 L440.471,84.916 C441.829,89.105 442.882,93.478 443.521,97.934 L451.784,100.011 L452.235,113.152 L444.133,115.79 C443.802,120.314 443.049,124.714 441.981,128.985 L448.818,134.027 L444.173,146.371 L435.715,145.688 C433.699,149.679 431.33,153.476 428.675,157.038 L433.057,164.351 L424.048,173.963 L416.487,170.09 C413.115,172.984 409.49,175.608 405.647,177.926 L406.907,186.317 L394.909,191.763 L389.377,185.321 C385.189,186.68 380.85,187.697 376.36,188.37 L374.316,196.598 L361.141,197.05 L358.538,188.981 C354.013,188.616 349.615,187.899 345.344,186.83 L340.3,193.633 L327.958,189.022 L328.605,180.566 C324.612,178.516 320.851,176.145 317.255,173.49 L309.976,177.872 L300.331,168.898 L304.201,161.303 C301.309,157.931 298.685,154.305 296.401,150.461 L288.009,151.721 L282.53,139.724 L289.007,134.226 C287.648,130.038 286.597,125.7 285.958,121.21 L277.729,119.131"/>
    <path fill="#F1F0EC" d="M159.814,294.069 C172.79,293.624 182.951,282.742 182.506,269.765 C182.061,256.773 171.179,246.613 158.203,247.057 C145.226,247.502 135.065,258.383 135.51,271.375 C135.955,284.352 146.837,294.513 159.814,294.069 M119.774,274.873 L119.571,268.948 L123.209,267.759 C123.359,265.735 123.697,263.735 124.179,261.809 L121.096,259.535 L123.19,253.97 L127.004,254.277 C127.913,252.477 128.981,250.765 130.179,249.159 L128.203,245.862 L132.265,241.528 L135.675,243.274 C137.211,241.969 138.829,240.787 140.563,239.741 L140.01,235.956 L145.42,233.501 L147.899,236.406 C149.787,235.794 151.744,235.335 153.768,235.031 L154.69,231.321 L160.631,231.118 L161.804,234.756 C163.844,234.921 165.828,235.244 167.754,235.726 L170.044,232.658 L175.609,234.737 L175.301,238.551 C177.101,239.475 178.813,240.543 180.419,241.741 L183.701,239.766 L188.05,243.811 L186.305,247.236 C187.609,248.757 188.792,250.391 189.822,252.125 L193.606,251.557 L196.077,256.966 L193.156,259.446 C193.769,261.334 194.244,263.306 194.531,265.315 L198.258,266.252 L198.461,272.177 L194.807,273.366 C194.658,275.407 194.319,277.39 193.837,279.316 L196.92,281.59 L194.826,287.156 L191.012,286.848 C190.103,288.648 189.034,290.36 187.837,291.966 L189.813,295.263 L185.751,299.597 L182.342,297.851 C180.821,299.156 179.187,300.339 177.454,301.384 L178.022,305.168 L172.612,307.623 L170.118,304.719 C168.229,305.331 166.273,305.79 164.248,306.094 L163.327,309.804 L157.386,310.008 L156.212,306.369 C154.172,306.204 152.189,305.881 150.262,305.399 L147.988,308.467 L142.423,306.388 L142.715,302.575 C140.914,301.65 139.219,300.581 137.597,299.384 L134.315,301.36 L129.966,297.314 L131.711,293.889 C130.407,292.368 129.224,290.733 128.194,289 L124.41,289.569 L121.94,284.159 L124.86,281.68 C124.247,279.791 123.773,277.835 123.485,275.81 L119.774,274.873"/>
    <path fill="#E4E4DE" d="M141.309 35.348C143.747 32.737 143.607 28.642 140.996 26.204 138.381 23.763 134.287 23.904 131.849 26.515 129.41 29.126 129.551 33.22 132.165 35.661 134.776 38.1 138.871 37.959 141.309 35.348M117.693 54.479L114.378 51.385 115.703 48.775C114.689 47.599 113.791 46.335 113.01 45.032L110.113 45.47 108.236 41.328 110.465 39.432C109.983 37.967 109.635 36.463 109.414 34.947L106.562 34.232 106.415 29.692 109.203 28.792C109.328 27.256 109.564 25.742 109.936 24.239L107.591 22.491 109.188 18.237 112.1 18.468C112.79 17.115 113.6 15.809 114.53 14.55L113.022 12.045 116.125 8.723 118.727 10.055C119.919 9.041 121.167 8.143 122.469 7.363L122.048 4.465 126.182 2.58 128.079 4.809C129.552 4.335 131.055 3.987 132.571 3.766L133.278.924 137.818.759 138.726 3.555C140.253 3.672 141.777 3.916 143.271 4.297L145.011 1.943 149.272 3.533 149.034 6.452C150.386 7.143 151.709 7.952 152.952 8.883L155.473 7.374 158.787 10.469 157.455 13.088C158.477 14.272 159.367 15.528 160.148 16.83L163.044 16.393 164.922 20.535 162.693 22.431C163.174 23.896 163.522 25.399 163.744 26.915L166.595 27.63 166.742 32.171 163.954 33.07C163.838 34.598 163.594 36.122 163.222 37.624L165.575 39.363 163.977 43.616 161.058 43.394C160.368 44.747 159.558 46.053 158.627 47.312L160.135 49.817 157.032 53.14 154.43 51.807C153.238 52.821 151.991 53.719 150.688 54.5L151.117 57.389 146.983 59.274 145.079 57.054C143.606 57.528 142.111 57.867 140.586 58.096L139.88 60.94 135.34 61.103 134.431 58.307C132.904 58.191 131.38 57.946 129.886 57.566L128.147 59.92 123.885 58.33 124.124 55.41C122.772 54.72 121.457 53.918 120.206 52.979L117.693 54.479M259.437 293.879C269.422 293.536 277.221 285.154 276.88 275.198 276.538 265.212 268.184 257.412 258.199 257.754 248.214 258.096 240.414 266.45 240.756 276.435 241.097 286.391 249.452 294.221 259.437 293.879M209.379 269.462L216.942 264.239 216.946 264.221C217.694 261.474 218.726 258.829 219.987 256.344L218.05 248.741 229.019 236.993 236.74 238.407C239.131 236.979 241.697 235.77 244.385 234.836L244.404 234.83 249.098 226.925 265.161 226.375 270.383 233.937 270.413 233.944C273.157 234.692 275.799 235.722 278.281 236.982L285.882 235.045 297.629 246.014 296.218 253.72 296.222 253.727C297.679 256.145 298.861 258.712 299.794 261.401L307.698 266.093 308.248 282.156 300.679 287.383C299.932 290.149 298.932 292.787 297.646 295.294L297.645 295.297 299.577 302.877 288.608 314.623 280.935 313.219C278.513 314.651 275.943 315.862 273.223 316.797L273.216 316.799 268.529 324.693 252.467 325.243 247.248 317.686C244.471 316.939 241.825 315.908 239.313 314.645L239.311 314.644 231.745 316.572 219.998 305.603 221.409 297.896C219.952 295.478 218.771 292.909 217.837 290.221L217.836 290.22 209.93 285.525 209.379 269.462M77.794 34.88C77.621 34.88 77.448 34.883 77.274 34.889 73.335 35.024 69.686 36.682 67.001 39.558 64.316 42.434 62.911 46.188 63.046 50.127 63.181 54.057 64.839 57.703 67.716 60.391 70.594 63.082 74.346 64.495 78.284 64.355 82.22 64.221 85.868 62.559 88.556 59.677 91.242 56.798 92.647 53.048 92.512 49.117 92.377 45.178 90.719 41.53 87.843 38.844 85.094 36.277 81.542 34.88 77.794 34.88M77.765 66.633C73.441 66.633 69.342 65.018 66.166 62.049 62.847 58.947 60.934 54.74 60.778 50.205 60.622 45.66 62.243 41.328 65.342 38.01 68.442 34.69 72.652 32.777 77.197 32.621 81.744 32.464 86.073 34.086 89.392 37.185 92.711 40.284 94.624 44.494 94.78 49.039 94.936 53.575 93.315 57.903 90.216 61.225 87.114 64.551 82.904 66.468 78.361 66.623 78.162 66.63 77.963 66.633 77.765 66.633M66.479 70.981C66.654 70.981 66.829 71.022 66.988 71.102 68.413 71.818 69.888 72.384 71.371 72.782 71.631 72.852 71.857 73.012 72.01 73.233L74.681 77.1 82.746 76.824 85.145 72.785C85.289 72.542 85.516 72.365 85.778 72.282 87.222 71.785 88.647 71.122 90.015 70.314 90.25 70.175 90.527 70.126 90.796 70.174L94.631 70.876 100.139 64.978 99.173 61.188C99.105 60.92 99.137 60.636 99.263 60.39 99.955 59.04 100.517 57.573 100.935 56.027 101.005 55.768 101.165 55.542 101.386 55.39L105.26 52.714 104.984 44.648 100.939 42.246C100.708 42.11 100.534 41.896 100.446 41.643 99.925 40.144 99.268 38.728 98.492 37.436 98.336 37.194 98.278 36.901 98.33 36.617L99.035 32.763 93.137 27.255 89.335 28.224C89.068 28.292 88.787 28.261 88.541 28.137 87.149 27.43 85.687 26.866 84.198 26.46 83.94 26.39 83.698 26.226 83.546 26.006L80.873 22.135 72.807 22.411 70.404 26.457C70.299 26.636 70.146 26.781 69.963 26.879L69.726 26.973C68.334 27.46 66.914 28.123 65.571 28.924 65.334 29.066 65.055 29.117 64.785 29.066L60.922 28.359 55.414 34.258 56.384 38.061C56.451 38.328 56.42 38.61 56.296 38.855 55.587 40.251 55.022 41.714 54.617 43.203 54.546 43.461 54.384 43.697 54.164 43.849L50.294 46.522 50.57 54.588 54.617 56.991C54.847 57.127 55.021 57.341 55.109 57.594 55.634 59.104 56.297 60.529 57.079 61.828 57.222 62.065 57.273 62.346 57.224 62.617L56.518 66.473 62.416 71.98 66.198 71.016C66.29 70.992 66.385 70.981 66.479 70.981M74.1 79.39C73.728 79.39 73.379 79.208 73.166 78.901L70.376 74.861C69.016 74.47 67.666 73.953 66.354 73.319L62.376 74.332C62 74.427 61.604 74.326 61.321 74.062L54.516 67.708C54.233 67.444 54.104 67.055 54.174 66.675L54.915 62.625C54.214 61.411 53.607 60.105 53.107 58.734L48.878 56.222C48.546 56.025 48.337 55.672 48.323 55.286L48.005 45.98C47.992 45.593 48.176 45.227 48.494 45.007L52.538 42.214C52.923 40.876 53.444 39.521 54.081 38.214L53.062 34.217C52.967 33.843 53.069 33.445 53.332 33.162L59.687 26.357C59.951 26.074 60.339 25.948 60.72 26.015L64.779 26.758C66.025 26.043 67.328 25.435 68.662 24.947L71.173 20.719C71.37 20.387 71.724 20.178 72.11 20.165L81.415 19.845801C81.8 19.839 82.168 20.017 82.387 20.335L85.181 24.38C86.56 24.781 87.898 25.296 89.183 25.921L93.177 24.903C93.551 24.809 93.949 24.909 94.232 25.173L101.038 31.528C101.32 31.792 101.449 32.182 101.379 32.561L100.638 36.612C101.35 37.848 101.953 39.145 102.449 40.504L106.676 43.014C107.008 43.211 107.217 43.564 107.23 43.95L107.549 53.256C107.563 53.643 107.378 54.009 107.06 54.228L103.013 57.023C102.609 58.429 102.094 59.775 101.477 61.036L102.492 65.019C102.587 65.394 102.485 65.791 102.221 66.074L95.867 72.878C95.603 73.161 95.213 73.289 94.833 73.22L90.799 72.482C89.531 73.204 88.218 73.814 86.886 74.297L84.381 78.516C84.184 78.848 83.831 79.057 83.444 79.071L74.139 79.389 74.1 79.39"/>
    <path fill="#F1F0EC" d="M443.889,374.676 C443.889,380.93 357.082,386 250,386 C142.918,386 56.111,380.93 56.111,374.676 C56.111,368.423 142.918,363.353 250,363.353 C357.082,363.353 443.889,368.423 443.889,374.676"/>
    <path fill="#FFFFFE" d="M416.413,283.306 L83.587,283.306 C75.408,283.306 68.778,276.676 68.778,268.497 L68.778,55.707 C68.778,47.528 75.408,40.897 83.587,40.897 L416.413,40.897 C424.592,40.897 431.222,47.528 431.222,55.707 L431.222,268.497 C431.222,276.676 424.592,283.306 416.413,283.306"/>
    <path fill="#3769A4" d="M434.263 189.989L435.263 189.989 435.263 171.327 434.263 171.327 434.263 189.989zM434.263 206.088L435.263 206.088 435.263 197.05 434.263 197.05 434.263 206.088zM83.587 41.438C75.719 41.438 69.318 47.839 69.318 55.707L69.318 268.497C69.318 276.365 75.719 282.766 83.587 282.766L416.413 282.766C424.281 282.766 430.682 276.365 430.682 268.497L430.682 55.707C430.682 47.839 424.281 41.438 416.413 41.438L83.587 41.438zM416.413 283.847L83.587 283.847C75.123 283.847 68.237 276.961 68.237 268.497L68.237 55.707C68.237 47.243 75.123 40.357 83.587 40.357L416.413 40.357C424.876 40.357 431.763 47.243 431.763 55.707L431.763 268.497C431.763 276.961 424.876 283.847 416.413 283.847L416.413 283.847z"/>
    <path fill="#84ABCF" d="M189.802,233.185 L184.76,233.185 L184.76,232.104 L189.802,232.104 L189.893,233.185 L189.802,233.185 L189.802,233.185 Z M174.674,233.185 L179.717,233.185 L179.717,232.104 L174.674,232.104 L174.674,233.185 Z M164.589,233.185 L169.631,233.185 L169.631,232.104 L164.589,232.104 L164.589,233.185 Z M154.503,233.185 L159.546,233.185 L159.546,232.104 L154.503,232.104 L154.503,233.185 Z M144.417,233.185 L149.46,233.185 L149.46,232.104 L144.417,232.104 L144.417,233.185 Z M134.332,233.185 L139.375,233.185 L139.375,232.104 L134.332,232.104 L134.332,233.185 Z M124.246,233.185 L129.289,233.185 L129.289,232.104 L124.246,232.104 L124.246,233.185 Z M114.161,233.185 L119.204,233.185 L119.204,232.104 L114.161,232.104 L114.161,233.185 Z M104.075,233.185 L109.118,233.185 L109.118,232.104 L104.075,232.104 L104.075,233.185 Z M99.032,233.185 L97.152,233.185 C95.995,233.185 94.888,232.924 93.86,232.409 L94.344,231.443 C95.22,231.882 96.165,232.104 97.152,232.104 L99.032,232.104 L99.032,233.185 L99.032,233.185 Z M194.824,231.205 L194.086,230.415 C195.236,229.343 195.937,227.892 196.061,226.331 L197.139,226.417 C196.993,228.247 196.171,229.948 194.824,231.205 L194.824,231.205 Z M90.284,228.473 C89.958,227.629 89.793,226.738 89.793,225.825 L89.793,223.293 L90.874,223.293 L90.874,225.825 C90.874,226.605 91.014,227.365 91.292,228.085 L90.284,228.473 L90.284,228.473 Z M197.162,221.333 L196.081,221.333 L196.081,219.089 L197.162,218.883 L197.162,221.333 L197.162,221.333 Z M89.793,218.25 L90.874,218.25 L90.874,213.208 L89.793,213.208 L89.793,218.25 Z M89.793,208.165 L90.874,208.165 L90.874,203.122 L89.793,203.122 L89.793,208.165 Z M89.793,198.079 L90.874,198.079 L90.874,193.036 L89.793,193.036 L89.793,198.079 Z M89.793,187.994 L90.874,187.994 L90.874,182.951 L89.793,182.951 L89.793,187.994 Z M89.793,177.908 L90.874,177.908 L90.874,172.866 L89.793,172.866 L89.793,177.908 Z M89.793,167.823 L90.874,167.823 L90.874,162.78 L89.793,162.78 L89.793,167.823 Z M89.793,157.737 L90.874,157.737 L90.874,152.694 L89.793,152.694 L89.793,157.737 Z M89.793,147.652 L90.874,147.652 L90.874,142.609 L89.793,142.609 L89.793,147.652 Z M89.793,137.566 L90.874,137.566 L90.874,132.523 L89.793,132.523 L89.793,137.566 Z M89.793,127.48 L90.874,127.48 L90.874,122.438 L89.793,122.438 L89.793,127.48 Z M89.793,117.395 L90.874,117.395 L90.874,112.352 L89.793,112.352 L89.793,117.395 Z M90.897,107.356 L89.82,107.264 C89.976,105.435 90.808,103.74 92.162,102.491 L92.895,103.285 C91.74,104.351 91.03,105.797 90.897,107.356 L90.897,107.356 Z M109.624,101.621 L107.198,101.621 L107.198,100.54 L112.24,100.54 L112.24,101.123 L109.624,101.621 L109.624,101.621 Z M102.155,101.621 L97.152,101.621 L97.112,100.54 L102.155,100.54 L102.155,101.621 L102.155,101.621 Z"/>
    <path fill="#3769A4" d="M97.42,56.495 C97.42,59.132 95.283,61.269 92.646,61.269 C90.01,61.269 87.873,59.132 87.873,56.495 C87.873,53.859 90.01,51.721 92.646,51.721 C95.283,51.721 97.42,53.859 97.42,56.495"/>
    <path fill="#C8DAE8" d="M128.765 59.287L105.346 59.287C103.811 59.287 102.554 58.031 102.554 56.495 102.554 54.96 103.811 53.703 105.346 53.703L128.765 53.703C130.3 53.703 131.557 54.96 131.557 56.495 131.557 58.031 130.3 59.287 128.765 59.287M241.662 58.027L225.23 58.027C224.385 58.027 223.699 57.341 223.699 56.495 223.699 55.65 224.385 54.964 225.23 54.964L241.662 54.964C242.508 54.964 243.193 55.65 243.193 56.495 243.193 57.341 242.508 58.027 241.662 58.027M278.533 58.027L262.102 58.027C261.256 58.027 260.571 57.341 260.571 56.495 260.571 55.65 261.256 54.964 262.102 54.964L278.533 54.964C279.379 54.964 280.064 55.65 280.064 56.495 280.064 57.341 279.379 58.027 278.533 58.027M315.404 58.027L298.973 58.027C298.127 58.027 297.441 57.341 297.441 56.495 297.441 55.65 298.127 54.964 298.973 54.964L315.404 54.964C316.25 54.964 316.935 55.65 316.935 56.495 316.935 57.341 316.25 58.027 315.404 58.027M352.275 58.027L335.844 58.027C334.998 58.027 334.313 57.341 334.313 56.495 334.313 55.65 334.998 54.964 335.844 54.964L352.275 54.964C353.121 54.964 353.806 55.65 353.806 56.495 353.806 57.341 353.121 58.027 352.275 58.027"/>
    <path fill="#648FBD" d="M399.456 59.198L374.599 59.198C373.106 59.198 371.896 57.988 371.896 56.495 371.896 55.002 373.106 53.792 374.599 53.792L399.456 53.792C400.949 53.792 402.159 55.002 402.159 56.495 402.159 57.988 400.949 59.198 399.456 59.198M276.027 241.951L241.234 241.951C239.849 236.319 238.251 232.165 236.798 229.178L276.027 229.178C279.207 229.178 281.783 231.755 281.783 234.934L281.783 236.195C281.783 239.374 279.207 241.951 276.027 241.951"/>
    <path fill="#C8DAE8" d="M400.628 173.662C399.782 173.662 399.097 172.977 399.097 172.131L399.097 123.508C399.097 122.662 399.782 121.977 400.628 121.977 401.474 121.977 402.159 122.662 402.159 123.508L402.159 172.131C402.159 172.977 401.474 173.662 400.628 173.662M400.628 187.533C399.782 187.533 399.097 186.848 399.097 186.002 399.097 185.156 399.782 184.471 400.628 184.471 401.474 184.471 402.159 185.156 402.159 186.002 402.159 186.848 401.474 187.533 400.628 187.533M400.628 209.15C399.782 209.15 399.097 208.465 399.097 207.619 399.097 206.773 399.782 206.088 400.628 206.088 401.474 206.088 402.159 206.773 402.159 207.619 402.159 208.465 401.474 209.15 400.628 209.15M400.628 230.767C399.782 230.767 399.097 230.081 399.097 229.236 399.097 228.39 399.782 227.704 400.628 227.704 401.474 227.704 402.159 228.39 402.159 229.236 402.159 230.081 401.474 230.767 400.628 230.767M354.438 125.634L235.976 125.634C229.224 125.634 223.699 120.109 223.699 113.357 223.699 106.605 229.224 101.08 235.976 101.08L354.438 101.08C361.19 101.08 366.715 106.605 366.715 113.357 366.715 120.109 361.19 125.634 354.438 125.634M310.957 161.277L235.976 161.277C229.224 161.277 223.699 155.752 223.699 149 223.699 142.247 229.224 136.723 235.976 136.723L310.957 136.723C317.71 136.723 323.234 142.247 323.234 149 323.234 155.752 317.71 161.277 310.957 161.277"/>
    <path fill="#E4E4DE" d="M333.036 189.989L226.571 189.989C224.991 189.989 223.699 188.697 223.699 187.118 223.699 185.538 224.991 184.246 226.571 184.246L333.036 184.246C334.615 184.246 335.907 185.538 335.907 187.118 335.907 188.697 334.615 189.989 333.036 189.989M358.052 189.989L347.161 189.989C345.582 189.989 344.29 188.697 344.29 187.118 344.29 185.538 345.582 184.246 347.161 184.246L358.052 184.246C359.631 184.246 360.923 185.538 360.923 187.118 360.923 188.697 359.631 189.989 358.052 189.989M273.467 196.127L319.241 196.127C320.82 196.127 322.112 197.419 322.112 198.998 322.112 200.577 320.82 201.869 319.241 201.869L273.467 201.869C271.888 201.869 270.596 200.577 270.596 198.998 270.596 197.419 271.888 196.127 273.467 196.127M226.571 196.127L259.342 196.127C260.921 196.127 262.213 197.419 262.213 198.998 262.213 200.578 260.921 201.87 259.342 201.87L226.571 201.87C224.991 201.87 223.699 200.578 223.699 198.998 223.699 197.419 224.991 196.127 226.571 196.127M291.057 213.75L226.571 213.75C224.991 213.75 223.699 212.458 223.699 210.879 223.699 209.3 224.991 208.008 226.571 208.008L291.057 208.008C292.636 208.008 293.928 209.3 293.928 210.879 293.928 212.458 292.636 213.75 291.057 213.75M337.954 213.75L305.182 213.75C303.603 213.75 302.311 212.458 302.311 210.879 302.311 209.3 303.603 208.008 305.182 208.008L337.954 208.008C339.533 208.008 340.825 209.3 340.825 210.879 340.825 212.458 339.533 213.75 337.954 213.75"/>
    <path fill="#3769A4" d="M219.857,214.562 L128.609,231.934 C124.973,232.626 121.466,230.241 120.773,226.605 L98.673,110.527 C97.981,106.891 100.367,103.384 104.002,102.691 L195.251,85.319 C198.886,84.627 202.394,87.013 203.086,90.648 L225.186,206.726 C225.878,210.362 223.492,213.869 219.857,214.562"/>
    <path fill="#5580B3" d="M125.116,227.914 L124.88,227.855 C124.637,227.725 124.545,227.422 124.675,227.179 L161.298,158.747 L162.079,159.408 L125.557,227.65 C125.467,227.819 125.294,227.914 125.116,227.914 M162.561,158.506 L161.781,157.845 L198.302,89.603 C198.393,89.434 198.565,89.339 198.744,89.339 C198.823,89.339 198.904,89.358 198.979,89.398 C199.223,89.528 199.314,89.831 199.184,90.074 L162.561,158.506"/>
    <path fill="#5580B3" d="M194.504,186.894 L162.079,159.408 L161.298,158.747 L102.092,108.56 C101.881,108.381 101.855,108.066 102.034,107.855 C102.132,107.738 102.273,107.678 102.415,107.678 C102.529,107.678 102.644,107.717 102.738,107.797 L194.914,185.931 C194.774,186.241 194.637,186.562 194.504,186.894"/>
    <path fill="#3769A4" d="M209.766,222.505 C209.766,222.505 222.815,267.839 228.108,290.1 C233.667,313.479 250.204,348.82 251.579,364.317 C253.009,364.886 257.641,364.246 260.113,363.051 C260.113,363.051 257.846,313.64 244.41,291.134 C247.444,235.753 232.413,222.505 232.413,222.505 L209.766,222.505"/>
    <path fill="#DBDCD6" d="M225.982,281.531 C225.097,278.061 224.121,274.336 223.102,270.504 C223.103,270.502 223.103,270.502 223.103,270.5 C224.123,274.33 225.098,278.052 225.984,281.521 C225.983,281.524 225.983,281.527 225.982,281.531"/>
    <path fill="#3063A0" d="M225.984,281.521 C225.098,278.052 224.123,274.33 223.103,270.5 C224.857,263.415 226.083,256.999 226.931,251.334 C227.189,259.082 227.366,272.569 225.984,281.521"/>
    <path fill="#E77E75" d="M236.691,183.446 C236.904,184.067 237.046,184.511 237.202,185.023 C237.355,185.52 237.485,186.015 237.619,186.507 C237.887,187.491 238.099,188.482 238.312,189.471 C238.712,191.455 239.025,193.456 239.213,195.483 C239.427,197.504 239.507,199.553 239.472,201.616 C239.476,203.674 239.252,205.764 238.972,207.84 L238.927,208.179 C238.896,208.409 238.834,208.645 238.758,208.855 C238.271,210.168 237.554,211.279 236.77,212.144 C235.986,213.016 235.16,213.687 234.345,214.247 C232.715,215.345 231.09,215.995 229.521,216.514 C227.939,217.01 226.389,217.337 224.844,217.549 C223.279,217.753 221.81,217.863 220.16,217.819 C218.656,217.78 217.468,216.528 217.507,215.023 C217.535,213.95 218.18,213.038 219.093,212.617 L219.321,212.513 C220.464,211.99 221.755,211.439 222.913,210.864 C224.088,210.286 225.224,209.69 226.236,209.044 C227.258,208.424 228.144,207.715 228.762,207.084 C229.379,206.445 229.546,205.871 229.446,205.829 L229.232,206.844 C229.262,205.192 229.256,203.538 229.127,201.853 C228.999,200.175 228.816,198.486 228.552,196.795 C228.282,195.106 227.986,193.412 227.61,191.734 C227.428,190.894 227.224,190.06 227.024,189.232 L226.708,188.006 L226.41,186.896 L226.332,186.608 C225.555,183.718 227.268,180.745 230.158,179.969 C232.924,179.224 235.771,180.779 236.691,183.446"/>
    <path fill="#E77E75" d="M223.577,212.682 L217.045,210.82 C216.11,210.553 215.111,210.629 214.226,211.034 L211.786,212.15 C210.588,212.698 210.075,214.123 210.648,215.309 L211.791,217.672 C212.263,218.649 213.344,219.176 214.405,218.946 L218.784,217.995 C218.784,217.995 223.703,218.317 225.44,215.395 L223.577,212.682"/>
    <path fill="#3769A4" d="M229.494,174.274 C225.991,177.912 224.121,183.378 226.956,193.828 C230.696,195.682 239.758074,193.276 239.758074,193.276 C239.758074,193.276 239.886,177.574 229.494,174.274"/>
    <path fill="#B0C9DF" d="M232.824,194.455 C233.229,190.796 233.764,186.786 234.448,182.364 C234.513,181.944 234.545,181.53 234.545,181.124 C234.546,178.571 233.307,176.339 231.359,175.051 C239.656,179.404 239.758,192.593 239.758,193.25 C239.758,193.267 239.758,193.276 239.758,193.276 C239.758,193.276 236.332,194.185 232.824,194.455"/>
    <path fill="#132529" d="M235.836 181.565C235.654 181.572 235.513 181.724 235.519 181.905 235.525 182.082 235.671 182.222 235.847 182.222L235.859 182.222 237.495 182.163C237.4 181.946 237.303 181.731 237.201 181.516L235.836 181.565M235.458 188.032C235.32 187.915 235.113 187.933 234.996 188.072 234.879 188.21 234.897 188.418 235.036 188.535L239.739 192.492C239.729 192.243 239.711 191.938 239.686 191.589L235.458 188.032"/>
    <path fill="#3769A4" d="M225.956,189.192 L231.246,185.868 C231.399,185.771 231.446,185.568 231.349,185.414 C231.252,185.26 231.049,185.215 230.896,185.311 L225.843,188.487 C225.873,188.715 225.919,188.958 225.956,189.192"/>
    <path fill="#E77E75" d="M220.527,158.627 C219.871,163.221 219.397,171.548 222.652,174.16 C222.652,174.16 218.363,174.045 210.103,180.675 C207.057,177.281 208.834,175.861 208.834,175.861 C213.734,174.056 213.428,170.359 212.396,166.979 L220.527,158.627"/>
    <path fill="#132529" d="M207.558,153.022 C207.408,153.621 206.972,154.051 206.585,153.982 C206.198,153.912 206.007,153.37 206.158,152.771 C206.309,152.171 206.744,151.741 207.131,151.81 C207.518,151.88 207.709,152.422 207.558,153.022"/>
    <path fill="#132529" d="M207.293,151.874 L205.977,151.204 C205.977,151.204 206.423,152.46 207.293,151.874"/>
    <path fill="#E15B5A" d="M207.303,154.157 C207.303,154.157 205.651,156.558 204.232,157.605 C204.828,158.484 206.24,158.385 206.24,158.385 L207.303,154.157"/>
    <path fill="#132529" d="M207.048,148.068 L207.034,147.809 C207.1,147.63 207.309,147.544 207.501,147.617 C209.421,148.341 209.854,149.918 209.871,149.985 C209.92,150.175 209.801,150.357 209.604,150.394 C209.408,150.431 209.209,150.308 209.158,150.119 C209.143,150.057 208.789,148.839 207.262,148.263 C207.163,148.225 207.088,148.154 207.048,148.068"/>
    <path fill="#E77E75" d="M227.635,154.34 C225.533,161.393 224.794,164.414 220.33,167.437 C213.614,171.984 205.417,168.355 205.37,160.936 C205.328,154.259 208.771,143.846 216.432,142.243 C223.979,140.663 229.736,147.286 227.635,154.34"/>
    <path fill="#132529" d="M211.309,154.78 C207.131,151.81 209.167,146.355 213,146.188 C208,142.688 210.608,136.355 216.721,136.605 C222.833,136.855 223.699,140.605 223.699,140.605 C223.699,140.605 233.556,141.105 234.94,148.272 C236.568,156.704 231.417,162.105 225.083,164.605 C229.389,168.138 219.229,170.617 214.175,167.772 C208.994175,164.855 207.202,158.537 211.309,154.78"/>
    <path fill="#FFFFFE" d="M234.502,145.306 C229.126,144.313 226.431,151.744 229.93,156.086 C230.54,156.843 231.146,157.393 231.73,157.786 C233.922,159.262 236.901,157.75 237.116,155.118 C237.406,151.548 237.403,145.843 234.502,145.306"/>
    <path fill="#132529" d="M249.094,149.107 C249.49,148.809 249.752,148.436 249.804,147.965 C250.033,145.865 248.442,144.502 246.527,144.202 C245.378,140.545 240.527,140.478 237.797,143.097 C235.564,141.957 233.078,144.467 233.382,147.086 C231.026,148.143 230.418,152.048 232.559,154.307 C233.009,154.783 233.445,155.12 233.858,155.352 C233.963,155.411 234.073,155.438 234.181,155.479 C234.37,156.986 235.592,158.526 237.342,158.871 C237.86,158.973 238.305,158.99 238.686,158.95 C239.4,158.874 239.935,158.417 240.187,157.834 C241.752,159.118 243.42,159.954 244.61,159.125 C245.86,158.255 246.359,157.008 246.314,155.72 C247.139,156.045 247.916,156.081 248.555,155.636 C250.848,154.038 250.654,151.178 249.094,149.107"/>
    <path fill="#E77E75" d="M213.604,155.836 C212.731,157.246 211.438,158.046 210.296,158.24 C208.58,158.533 208.027,156.544 208.76,154.676 C209.42,152.994 211.109,150.815 212.708,151.382 C214.284,151.94 214.601,154.224 213.604,155.836"/>
    <path fill="#3769A4" d="M211.309,150.605 C212.778,147.8 220.833,140.126 226.194,140.41 C227.583,140.785 228.715,141.327 229.358,141.673 C229.535,141.768 229.483,142.029 229.284,142.053 C227.182,142.298 220.355,143.874 213.958,153.938 C212.5,152.98 211.309,150.605 211.309,150.605"/>
    <path fill="#FFFFFE" d="M214.522,156.315 C213.231,159.189 210.637,160.824 208.729,159.966 C206.821,159.108 206.322,156.083 207.614,153.209 C208.906,150.336 211.499,148.701 213.407,149.559 C215.315,150.416 215.814,153.441 214.522,156.315"/>
    <path fill="#3769A4" d="M212.942,155.604 C211.775,158.2 209.54,159.724 207.949,159.009 C206.358,158.294 206.014,155.61 207.18,153.014 C208.347,150.419 210.582,148.895 212.173,149.61 C213.764,150.326 214.108,153.009 212.942,155.604"/>
    <path fill="#132529" d="M247.265 374.646C252.884 373.812 252.991 372.879 256.005 371.823 258.583 370.913 259.309 371.044 261.39 370.341 263.129 369.755 262.539 368.099 261.395 366.34 260.822 365.456 260.74 364.615 260.113 363.051L251.579 364.317C250.748 366.699 250.455 369.748 245.584 371.492 242.682 372.53 245.026 374.978 247.265 374.646M195.228 374.667C200.81 374.657 201.884 374.3 205.021 374.193 207.71 374.095 208.152 374.667 210.878 374.667 212.685 374.667 212.933 372.633 212.272 371.108 211.758 369.92 211.679 368.499 211.305 366.957L203.607 366.957C202.218 369.397 198.433 371.202 194.201 371.505 191.177 371.729 192.993 374.667 195.228 374.667"/>
    <path fill="#3769A4" d="M201.754 222.505C201.754 222.505 200.641 262.67 203.019 288.176 202.87 312.12 203.607 366.957 203.607 366.957 203.793 368.18 210.216 367.692 211.305 366.957 211.305 366.957 223.332 327.016 217.992 288.176 231.359 247.668 228.476 222.505 228.476 222.505L201.754 222.505M250.459 361.213C250.55 361.991 250.679 363.352 250.631 364.412 250.614 364.795 250.915 365.102 251.298 365.106 254.496 365.143 258.909 363.748 260.305 363.277 260.573 363.187 260.749 362.938 260.751 362.656L260.779032 359.635C260.783 359.222 260.412 358.906 260.005 358.974L251.009 360.487C250.66 360.545 250.419 360.862 250.459 361.213"/>
    <g transform="translate(250 358)">
      <mask id="woman-with-headphones-b" fill="#fff">
        <use xlink:href="#woman-with-headphones-a"/>
      </mask>
      <polygon fill="#86ABCF" points=".453 7.107 10.779 7.107 10.779 .965 .453 .965" mask="url(#woman-with-headphones-b)"/>
    </g>
    <path fill="#3769A4" d="M202.726,363.582 C202.703,364.414 202.654,365.896 202.577,366.991 C202.552,367.353 202.822,367.673 203.186,367.723 C205.91,368.098 210.253,367.758 211.679,367.629 C211.961,367.603 212.184,367.399 212.237,367.122 L212.81,364.14 C212.888,363.733 212.571,363.339 212.153,363.323 L203.385,362.974 C203.027,362.959 202.736,363.225 202.726,363.582"/>
    <path fill="#86ABCF" d="M206.297,367.894 C205.192,367.894 204.098,367.849 203.186,367.723 C202.839,367.675 202.577,367.383 202.576,367.042 C202.576,367.025 202.576,367.008 202.577,366.991 C202.654,365.896 202.703,364.414 202.726,363.582 C202.735,363.234 203.013,362.973 203.358,362.973 C203.367,362.973 203.376,362.973 203.385,362.974 L212.153,363.323 C212.529,363.337 212.823,363.657 212.822003,364.017 C212.822003,364.057 212.818,364.099 212.81,364.14 L212.237,367.122 C212.184,367.399 211.961,367.603 211.679,367.629 C210.731,367.715 208.492,367.894 206.297,367.894"/>
    <path fill="#3769A4" d="M196.666,188.846 C196.942,191.849 197.286,195.65 198.579,202.741 C199.559,208.757 200.28,214.625 201.705,224.547 C215.485,225.994 231.702,224.827 232.413,222.505 C231.326,213.914 231.358,202.323 234.448,182.364 C235.165,177.736 231.811,173.789 227.244,173.886 C226.023,173.912 224.732,173.968 223.412,174.066 C218.279,174.447 214.076,174.798 209.594,175.767 C208.109,176.088 206.576,176.469 205.113,176.858 C199.834,178.265 196.172,183.463 196.666,188.846"/>
    <path fill="#C8DAE8" d="M214.373,225.183 C210.258,225.183 205.87,224.984 201.705,224.547 C201.371,222.224 201.076,220.122 200.807,218.189 C200.289,214.462 199.868,211.362 199.456,208.5 C199.798,207.887 200.121,207.267 200.42,206.638 C201.34,204.792 202.151,202.908 202.83,200.992 C203.063,200.356 203.284,199.716 203.493,199.073 C203.983,199.181 204.272,199.235 204.272,199.235 C204.272,199.235 205.459,196.801 206.277,193.419 L207,192.301 C207.098,192.148 207.055,191.945 206.902,191.847 C206.847,191.811 206.786,191.794 206.725,191.794 C206.689,191.794 206.654,191.8 206.62,191.811 C206.87,190.454 207.036,188.996 207.035,187.515 C207.035,186.556 206.965,185.587 206.804,184.63 L216.07,188.256 L216.19,188.279 C216.321,188.279 216.445,188.2 216.496,188.07 C216.562,187.901 216.478,187.711 216.31,187.645 L206.925,183.972 C206.885,183.956 206.844,183.949 206.804,183.949 C206.761,183.949 206.718,183.957 206.679,183.974 C206.185,181.676 205.129,179.475 203.197,177.665 C202.917,177.771 202.639,177.884 202.364,178.006 C203.214,177.509 204.136,177.119 205.113,176.858 C206.576,176.469 208.109,176.088 209.594,175.767 C214.076,174.798 218.279,174.447 223.412,174.066 C224.732,173.968 226.023,173.912 227.244,173.886 C227.299,173.885 227.354,173.884 227.408,173.884 C231.48,173.884 234.547,177.107 234.545001,181.124 C234.545001,181.53 234.513,181.944 234.448,182.364 C232.496,194.975 231.764,204.245 231.764,211.529 C231.764,215.773 232.013,219.342 232.413,222.505 C231.917,224.125 223.872,225.183 214.373,225.183"/>
    <path fill="#132529" d="M199.135,180.827 L200.737,182.839 C200.802,182.92 200.897,182.963 200.994,182.963 L201.198,182.891 C201.34,182.778 201.364,182.572 201.251,182.43 L199.567,180.315 C199.418,180.482 199.274,180.652 199.135,180.827"/>
    <path fill="#3769A4" d="M206.468 179.646L206.489 179.647C206.661 179.647 206.806 179.513 206.816 179.339L207.003 176.374C206.778 176.431 206.558 176.489 206.334 176.546L206.161 179.298C206.149 179.479 206.287 179.635 206.468 179.646M220.845 182.296L221.026 182.351C221.132 182.351 221.237 182.299 221.3 182.203 221.4 182.052 221.358 181.848 221.207 181.748L212.798 176.194C212.646 176.094 212.443 176.135 212.343 176.287 212.243 176.438 212.284 176.642 212.436 176.742L220.845 182.296"/>
    <path fill="#132529" d="M206.499,184.158 C206.433,184.327 206.517,184.517 206.686,184.583 L216.07,188.256 L216.19,188.279 C216.321,188.279 216.445,188.2 216.496,188.07 C216.562,187.901 216.478,187.711 216.31,187.645 L206.925,183.972 C206.756,183.904 206.565,183.989 206.499,184.158"/>
    <path fill="#3769A4" d="M201.078 200.864L201.256 200.916C201.363 200.916 201.469 200.863 201.532 200.766L207 192.301C207.098 192.148 207.055 191.945 206.902 191.847 206.75 191.748 206.547 191.792 206.448 191.944L200.98 200.41C200.882 200.562 200.925 200.766 201.078 200.864M198.402 193.471L198.627 193.559 198.867 193.455C198.991 193.323 198.984 193.115 198.852 192.991L196.886 191.151C196.918 191.472 196.954 191.804 196.992 192.15L198.402 193.471M228.065 199.073C227.895 199.135 227.808 199.324 227.87 199.494 227.918 199.627 228.044 199.71 228.178 199.71L228.291 199.69 232.448 198.17C232.47 197.932 232.495 197.686 232.519 197.445L228.065 199.073M226.287 192.297L226.461 192.246 233.67 187.716C233.709 187.432 233.747 187.153 233.787 186.866L226.111 191.69C225.958 191.786 225.912 191.989 226.008 192.143 226.07 192.242 226.177 192.297 226.287 192.297M221.366 193.561C221.269 193.408 221.065 193.362 220.913 193.457L212.38 198.82C212.227 198.917 212.18 199.119 212.277 199.273 212.339 199.372 212.446 199.427 212.555 199.427L212.73 199.377 221.262 194.014C221.416076 193.917 221.462 193.715 221.366 193.561"/>
    <path fill="#132529" d="M228.56,182.205 L228.675,182.183 C228.845,182.119 228.931,181.93 228.867,181.761 L225.914,173.931 C225.683,173.939 225.457,173.946 225.222,173.957 L228.252,181.992 C228.302,182.124 228.427,182.205 228.56,182.205"/>
    <path fill="#3769A4" d="M220.092 223.179C219.941 223.078 219.738 223.12 219.637 223.271 219.537 223.423 219.579 223.627 219.73 223.726L221.601 224.962C221.966 224.938 222.325 224.913 222.677 224.886L220.092 223.179M232.149 220.068L224.867 217.218C224.698 217.151 224.507 217.235 224.441 217.404 224.375 217.573 224.458 217.764 224.627 217.829L232.217 220.8C232.192 220.561 232.172 220.311 232.149 220.068"/>
    <path fill="#132529" d="M201.376,222.24 C201.404,222.442 201.432,222.639 201.461,222.844 C201.581,222.792 201.675,222.692 201.67,222.554 C201.664,222.389 201.531,222.24 201.376,222.24"/>
    <path fill="#3769A4" d="M201.286,212.177 C201.379,212.177 201.472,212.137 201.537,212.059 C201.654,211.921 201.636,211.713 201.497,211.597 L199.679,210.067 C199.725,210.389 199.77,210.712 199.816,211.041 L201.074,212.099 L201.286,212.177"/>
    <path fill="#132529" d="M216.65,208.889 C216.781,208.889 216.905,208.809 216.956,208.68 C217.022,208.511 216.939,208.32 216.77,208.254 L207.387,204.578 C207.219,204.512 207.027,204.595 206.961,204.764 C206.895,204.933 206.978,205.123 207.147,205.189 L216.53,208.866 L216.65,208.889"/>
    <path fill="#3769A4" d="M214.476,213.228 L205.943,218.591 C205.79,218.688 205.744,218.89 205.84,219.044 C205.902,219.143 206.009,219.198 206.119,219.198 L206.293,219.148 L214.826,213.785 C214.979,213.688 215.025,213.486 214.929,213.332 C214.832,213.178 214.628,213.133 214.476,213.228"/>
    <path fill="#132529" d="M222.354 210.68C222.416 210.779 222.522 210.833 222.632 210.833L222.806 210.783 231.339 205.42C231.492 205.324 231.539 205.121 231.442 204.967 231.346 204.813 231.142 204.767 230.989 204.864L222.457 210.226C222.303 210.323 222.257 210.526 222.354 210.68M212.685 223.482C212.622 223.312 212.432 223.227 212.262 223.291 212.092 223.355 212.006 223.544 212.07 223.714L212.62 225.17C212.855 225.173 213.09 225.176 213.325 225.178L212.685 223.482"/>
    <path fill="#E77E75" d="M205.74,189.043 C205.665,189.696 205.602,190.157 205.522,190.687 C205.445,191.202 205.344,191.702 205.25,192.204 C205.056,193.205 204.835,194.193 204.604,195.179 C204.116,197.142 203.531,199.082 202.83,200.992 C202.151,202.908 201.34,204.792 200.42,206.638 C199.537,208.497 198.434,210.286 197.287,212.039 L197.08,212.356 C196.959,212.541 196.809,212.717 196.656,212.863 C194.823,214.598 193.164,215.754 191.452,216.958 C189.756,218.141 188.03,219.224 186.309,220.288 C184.574,221.333 182.832,222.349 181.064,223.316 C179.277,224.262 177.517,225.214 175.667,226.079 C174.307,226.715 172.689,226.128 172.053,224.768 C171.544,223.68 171.818,222.428 172.643,221.644 L172.667,221.623 C174.101,220.265 175.602,218.959 177.06,217.625 L181.477,213.712 C182.954,212.43 184.389,211.118 185.806,209.845 C186.513,209.203 187.192,208.562 187.844,207.923 L188.772,206.986 C189.07,206.68 189.291,206.405 189.558,206.12 L188.927,206.943 C189.666,205.466 190.373,203.97 190.982,202.394 C191.59,200.825 192.153,199.223 192.644,197.582 C193.129,195.943 193.587,194.285 193.978,192.61 C194.177,191.774 194.367,190.936 194.532,190.1 L195.033,187.422 C195.583,184.481 198.414,182.542 201.355,183.093 C204.166,183.619 206.058,186.245 205.74,189.043"/>
    <path fill="#E77E75" d="M175.277,221.41 L169.668,219.75 C168.735,219.474 167.735,219.54 166.846,219.935 L164.395,221.028 C163.192,221.564 162.665,222.984 163.226,224.175 L164.345,226.55 C164.808,227.532 165.883,228.069 166.946,227.849 L171.335,226.942 C171.335,226.942 173.513,227.106 175.49,226.359 C177.056,225.768 177.64,223.848 176.706,222.459 C176.366,221.953 175.861,221.582 175.277,221.41"/>
    <path fill="#3769A4" d="M203.197,177.665 C198.469,179.439 194.426,183.565 192.482,194.217 C195.058,197.502 204.272,199.235 204.272,199.235 C204.272,199.235 211.154,185.121 203.197,177.665"/>
    <path fill="#C8DAE8" d="M204.272,199.235 C204.272,199.235 203.983,199.181 203.493,199.073 C201.471,198.628 196.03,197.276 193.352,195.087 C193.014,194.81 192.72,194.52 192.482,194.217 C194.426,183.565 198.469,179.439 203.197,177.665 C206.111,180.396 207.035,184.019 207.035,187.515 C207.036,193.566 204.272,199.235 204.272,199.235"/>
    <path fill="#132529" d="M200.737 182.839C200.802 182.92 200.897 182.963 200.994 182.963L201.198 182.891C201.34 182.778 201.364 182.572 201.251 182.43L199.266 179.936C199.099 180.075 198.934 180.22 198.771 180.37L200.737 182.839M206.5 184.158C206.433 184.327 206.517 184.517 206.686 184.583L206.797 184.627C206.76 184.409 206.721 184.192 206.674 183.976L206.5 184.158"/>
    <path fill="#3769A4" d="M202.737 198.9L206.274 193.424C206.398 192.912 206.513 192.38 206.614 191.829L206.448 191.944 202.062 198.734C202.304 198.795 202.527 198.849 202.737 198.9M198.402 193.471L198.627 193.559 198.867 193.455C198.991 193.323 198.984 193.115 198.852 192.991L193.955 188.407C193.878 188.633 193.801 188.857 193.727 189.093L198.402 193.471"/>
    <path fill="#132529" d="M334.012 286.262C332.617 280.843 334.299 278.779 336.273 276.618 338.248 274.455 338.016 270.844 338.016 270.844 338.016 270.844 341.084 276.945 340.185 284.16 339.285 291.374 335.031 290.217 334.012 286.262M342.586 329.962C340.516 326.492 331.704 319.172 325.013 322.047 330.363 324.269 336.264 337.794 344.181 337.227 342.819 331.022 342.586 329.962 342.586 329.962"/>
    <path fill="#3769A4" d="M348.814,360.001 C348.391,360.001 348.006,359.713 347.901,359.283 C346.613,353.989 335.18,306.585 330.703,272.934 C330.634,272.419 330.996,271.946 331.511,271.878 C332.029,271.803 332.499,272.171 332.567,272.686 C337.032,306.24 348.443,353.553 349.729,358.838 C349.852,359.343 349.542,359.851 349.038,359.974 L348.814,360.001"/>
    <path fill="#3769A4" d="M333.023 274.979C333.145 271.009 331.291 268.565 326.638 268.138 321.986 267.71 320.516 265.771 319.647 263.961 321.216 273.1 332.175 275.387 333.242 279.899 333.022 276.519 333.023 274.979 333.023 274.979M335.109 290.059C334.726 285.897 331.367 285.326 327.541 284.824 323.715 284.322 322.445 281.868 322.445 281.868 322.445 281.868 320.705 287.24 325.217 291.519 329.729 295.799 335.389 293.098 335.109 290.059M341.475 326.787C340.815 322.139 344.002 320.215 343.508 313.392 352.641 329.002 342.51 334.08 341.475 326.787M337.2 307.824C334.623 303.901 330.959 304.564 326.82 299.117 330.285 316.868 341.244 313.982 337.2 307.824"/>
    <path fill="#132529" d="M356.451,308.754 C356.677,302.479 350.858,299.167 346.405,292.896 C349.113,305.379 356.095,318.602 356.451,308.754"/>
    <path fill="#3769A4" d="M353.588,354.35 L353.5,354.347 C352.892,354.298 352.438,353.766 352.485,353.158 C353.527,339.973 357.205,283.142 356.176,245.983 C356.159,245.373 356.64,244.865 357.25,244.847923 C357.897,244.841 358.368,245.312 358.385,245.922 C359.416,283.179 355.731,340.122 354.688,353.332 C354.643,353.91 354.159,354.35 353.588,354.35"/>
    <path fill="#3769A4" d="M356.439 248.964C355.043 241.361 357.895 236.116 366.722 233.932 375.549 231.749 377.812 227.589 378.954 223.851 378.609 241.896 358.189 249.501 357.456 258.496 356.89 251.927 356.439 248.964 356.439 248.964M357.117 264.334C358.53 255.222 351.649 252.197 343.731 249.07 335.813 245.944 334.412 240.01 334.412 240.01 334.412 240.01 327.806 250.573 335.166 262.152 342.525 273.73 356.085 270.987 357.117 264.334M357.076 287.618C358.595 280.388 364.609 280.067 371.429 279.964 378.249 279.861 380.978 275.809 380.978 275.809 380.978 275.809 382.941 285.596 374.148 292.193 365.355 298.79 355.967 292.897 357.076 287.618M355.805 322.745C357.459 318.296 366.086 307.968 374.427 309.869 368.718 313.573 364.772 330.451 355.504 331.477 355.761 324.019 355.805 322.745 355.805 322.745M363.78 344.59L335.951 344.59C334.408 344.59 333.299 346.075 333.737 347.554L341.268 373.013C341.559 373.994 342.46 374.667 343.483 374.667L356.248 374.667C357.27 374.667 358.172 373.994 358.462 373.013L365.994 347.554C366.432 346.075 365.323 344.59 363.78 344.59"/>
    <path fill="#B0C9DF" d="M356.248,374.667 L343.483,374.667 C342.46,374.667 341.559,373.994 341.268,373.013 L333.737,347.554 C333.671,347.332 333.64,347.109 333.64,346.892 C333.642,345.662 334.64,344.59 335.951,344.59 L363.78,344.59 C365.091,344.59 366.088,345.662 366.09,346.892 C366.09,347.109 366.06,347.332 365.994,347.554 L358.462,373.013 C358.172,373.994 357.27,374.667 356.248,374.667"/>
  </g>
</svg>
