<svg xmlns="http://www.w3.org/2000/svg" viewBox="0 0 481.9 484.2"><defs><style>.a{isolation:isolate;}.b{fill:#b6bac1;}.c{fill:#fcfcfc;}.d{fill:#c4c8cd;}.e{fill:#edeef0;}.f{fill:#f8f8f8;}.g{fill:#e5e6e8;}.h{opacity:0.3;mix-blend-mode:multiply;}.i{fill:#8fa0ac;}.j{fill:#416edd;}</style></defs><g class="a"><path class="b" d="M47.64,239.72s-24.36,108,17.45,226.2h0c38.42-69.36,69.28-133.21,93.81-189C89.16,251.12,48,240.68,47.64,239.72Z"/><path class="c" d="M433.48,244.73c-.36-.95-41.52-11.39-111.27-37.17-19.49,44.34-35,83.62-47.1,116.54,55.67,24.59,119.35,55.53,188.53,94,45.61-249.06-44.51-394.63-47.55-399.46C457.82,136.85,433.5,244.78,433.48,244.73Z"/><path class="d" d="M47.64,239.72c.36,1,41.52,11.4,111.26,37.17,19.49-44.34,35-83.62,47.1-116.54-55.68-24.6-119.36-55.53-188.53-94C-28.94,319.63,65.09,465.92,65.09,465.92h0C23.28,347.71,47.62,239.68,47.64,239.72Z"/><path class="e" d="M463.62,418.22C345.72,460.13,238,435.73,238,435.71c.95-.36,11.37-41.65,37.09-111.61C230.9,304.56,191.73,289,158.9,276.89c-24.53,55.82-55.39,119.67-93.81,189,252.69,46.54,398.6-47.74,398.6-47.74l-.05,0A.64.64,0,0,0,463.62,418.22Z"/><path class="f" d="M238,435.71c-.05,0,107.7,24.42,225.6-17.49a.64.64,0,0,1,0-.07c-69.18-38.52-132.86-69.46-188.53-94C249.39,394.06,239,435.35,238,435.71Z"/><path class="e" d="M243.08,48.78c-1,.36-11.37,41.63-37.08,111.57,44.21,19.54,83.38,35.08,116.21,47.21,24.53-55.82,55.38-119.65,93.8-189l.08.13c0-.05,0-.1,0-.15C163.35-28,17.43,66.28,17.43,66.28l0,0v0C135.38,24.35,243.12,48.76,243.08,48.78Z"/><path class="f" d="M322.21,207.56c69.75,25.78,110.91,36.22,111.27,37.17,0,.05,24.34-107.88-17.39-226l-.08-.13C377.59,87.91,346.74,151.74,322.21,207.56Z"/><path class="g" d="M243.08,48.78S135.38,24.35,17.47,66.27v0C86.64,104.82,150.32,135.75,206,160.35,231.71,90.41,242.13,49.14,243.08,48.78Z"/><g class="h"><path class="i" d="M367.29,219.36c-.37-42.13-33.46-76.17-74.33-76.17-39.39,0-71.72,31.71-74.14,71.92A54.24,54.24,0,0,0,181.47,200c-30.85,0-55.75,25.9-55.75,58-20.45,0-37.17,17.4-37.17,38.67s16.72,38.67,37.17,38.67H367.27c30.85,0,55.75-25.9,55.75-58S398.12,219.36,367.29,219.36Z"/></g><path class="j" d="M352.29,204.36c-.37-42.13-33.46-76.17-74.33-76.17-39.39,0-71.72,31.71-74.14,71.92A54.24,54.24,0,0,0,166.47,185c-30.85,0-55.75,25.9-55.75,58-20.45,0-37.17,17.4-37.17,38.67s16.72,38.67,37.17,38.67H352.27c30.85,0,55.75-25.9,55.75-58S383.12,204.36,352.29,204.36Z"/></g></svg>