<svg xmlns="http://www.w3.org/2000/svg" viewBox="0 0 481.9 484.2"><defs><style>.a{isolation:isolate;}.b{fill:#b6bac1;}.c{fill:#fcfcfc;}.d{fill:#c4c8cd;}.e{fill:#edeef0;}.f{fill:#f8f8f8;}.g{fill:#e5e6e8;}.h{opacity:0.3;mix-blend-mode:multiply;}.i{fill:#8fa0ac;}.i,.j{fill-rule:evenodd;}.j{fill:#416edd;}</style></defs><g class="a"><path class="b" d="M47.54,239.33c0-.05-24.36,108,17.45,226.2h0c38.42-69.36,69.28-133.21,93.81-189C89.06,250.72,47.9,240.28,47.54,239.33Z"/><path class="c" d="M433.38,244.34c-.36-1-41.52-11.4-111.27-37.17-19.49,44.34-35,83.62-47.1,116.53,55.67,24.6,119.35,55.54,188.53,94.05C509.15,168.7,419,23.12,416,18.3,457.72,136.45,433.4,244.39,433.38,244.34Z"/><path class="d" d="M47.54,239.33c.36.95,41.52,11.39,111.26,37.17,19.49-44.34,35-83.63,47.1-116.54C150.22,135.36,86.54,104.42,17.37,65.9-29,319.24,65,465.53,65,465.53h0C23.18,347.31,47.52,239.28,47.54,239.33Z"/><path class="e" d="M463.52,417.82c-117.9,41.92-225.65,17.51-225.6,17.5,1-.37,11.37-41.65,37.09-111.62-44.21-19.53-83.38-35.07-116.21-47.2-24.53,55.82-55.39,119.67-93.81,189,252.69,46.54,398.6-47.74,398.6-47.74l0,0A.64.64,0,0,1,463.52,417.82Z"/><path class="f" d="M237.92,435.32s107.7,24.42,225.6-17.5a.64.64,0,0,0,0-.07C394.36,379.24,330.68,348.3,275,323.7,249.29,393.67,238.87,435,237.92,435.32Z"/><path class="e" d="M243,48.38C242,48.75,231.61,90,205.9,160c44.21,19.53,83.38,35.07,116.21,47.21,24.53-55.82,55.39-119.66,93.8-189l.08.13c0-.05,0-.11-.05-.16C163.25-28.4,17.33,65.88,17.33,65.88l0,0v0C135.28,24,243,48.37,243,48.38Z"/><path class="f" d="M322.11,207.17c69.75,25.77,110.91,36.22,111.27,37.17,0,0,24.34-107.89-17.39-226l-.08-.13C377.5,87.51,346.64,151.35,322.11,207.17Z"/><path class="g" d="M243,48.38S135.28,24,17.37,65.88v0C86.54,104.42,150.22,135.36,205.9,160,231.61,90,242,48.75,243,48.38Z"/><g class="h"><path class="i" d="M255.26,107.68c-81.88,0-148.5,66.62-148.5,148.5s66.62,148.5,148.5,148.5,148.5-66.62,148.5-148.5-66.61-148.5-148.5-148.5ZM333,179.18,247.42,351.85A5,5,0,0,1,243,354.6l-.83-.08a4.93,4.93,0,0,1-4.08-4.28l-8.95-74L150.74,263.1a4.95,4.95,0,0,1-1.24-9.38l177-81.24a5,5,0,0,1,6.5,6.7Z"/></g><path class="j" d="M240.26,92.68c-81.88,0-148.5,66.62-148.5,148.5s66.62,148.5,148.5,148.5,148.5-66.62,148.5-148.5-66.61-148.5-148.5-148.5ZM318,164.18,232.42,336.85A5,5,0,0,1,228,339.6l-.83-.08a4.93,4.93,0,0,1-4.08-4.28l-8.95-74L135.74,248.1a4.95,4.95,0,0,1-1.24-9.38l177-81.24a5,5,0,0,1,6.5,6.7Z"/></g></svg>