<svg xmlns="http://www.w3.org/2000/svg" viewBox="0 0 481.9 484.2"><defs><style>.a{isolation:isolate;}.b{fill:#b6bac1;}.c{fill:#fcfcfc;}.d{fill:#c4c8cd;}.e{fill:#edeef0;}.f{fill:#f8f8f8;}.g{fill:#e5e6e8;}.h{opacity:0.3;mix-blend-mode:multiply;}.i{fill:#8fa0ac;}</style></defs><g class="a"><path class="b" d="M48.74,239.33c0-.05-24.36,108,17.45,226.2h0c38.42-69.36,69.28-133.21,93.81-189C90.26,250.72,49.1,240.28,48.74,239.33Z"/><path class="c" d="M434.58,244.34c-.36-1-41.52-11.4-111.27-37.17-19.49,44.34-35,83.62-47.1,116.53,55.67,24.6,119.35,55.54,188.53,94.05,45.61-249-44.51-394.63-47.55-399.45C458.92,136.45,434.6,244.39,434.58,244.34Z"/><path class="d" d="M48.74,239.33c.36.95,41.52,11.39,111.26,37.17,19.49-44.34,35-83.63,47.1-116.54C151.42,135.36,87.74,104.42,18.57,65.9-27.84,319.24,66.19,465.53,66.19,465.53h0C24.38,347.31,48.72,239.28,48.74,239.33Z"/><path class="e" d="M464.72,417.82c-117.9,41.92-225.65,17.51-225.6,17.5.95-.37,11.37-41.65,37.09-111.62C232,304.17,192.83,288.63,160,276.5c-24.53,55.82-55.39,119.67-93.81,189,252.69,46.54,398.6-47.74,398.6-47.74l-.05,0A.64.64,0,0,1,464.72,417.82Z"/><path class="f" d="M239.12,435.32c-.05,0,107.7,24.42,225.6-17.5a.64.64,0,0,0,0-.07c-69.18-38.51-132.86-69.45-188.53-94.05C250.49,393.67,240.07,435,239.12,435.32Z"/><path class="e" d="M244.18,48.38c-1,.37-11.37,41.64-37.08,111.58,44.21,19.53,83.38,35.07,116.21,47.21,24.53-55.82,55.38-119.66,93.8-189l.08.13c0-.05,0-.11-.05-.16C164.45-28.4,18.53,65.88,18.53,65.88a.05.05,0,0,0,0,0v0C136.48,24,244.22,48.37,244.18,48.38Z"/><path class="f" d="M323.31,207.17c69.75,25.77,110.91,36.22,111.27,37.17,0,0,24.34-107.89-17.39-226l-.08-.13C378.69,87.51,347.84,151.35,323.31,207.17Z"/><path class="g" d="M244.18,48.38S136.48,24,18.57,65.88v0C87.74,104.42,151.42,135.36,207.1,160,232.81,90,243.23,48.75,244.18,48.38Z"/><g class="h"><path class="b" d="M412.71,170.17a44.5,44.5,0,1,0,0,62.93A44.51,44.51,0,0,0,412.71,170.17ZM398.29,212c0,6.23-4.47,11.83-11.44,14.34v6.1H376.64v-4.87a21.38,21.38,0,0,1-11.19-4.41l-.29-.22,3.26-12.2.66.51c2.14,1.68,10.54,5.78,14.75,4.35a2.94,2.94,0,0,0,2.05-2.19c.6-2.5-2.9-4.21-7.34-6.37-6.39-3.11-14.34-7-14.34-15.69,0-6.24,4.48-11.83,11.45-14.35v-6.11h10.21v4.88A21.5,21.5,0,0,1,397,180.15l.29.23-.09.35q-1.47,5.52-2.95,11.05l-.21.8-.66-.51c-2.14-1.68-10.54-5.78-14.75-4.36a3,3,0,0,0-2.06,2.19c-.59,2.5,2.92,4.21,7.35,6.38C390.35,199.39,398.29,203.26,398.29,212Z"/><path class="b" d="M205.16,244.79A68.79,68.79,0,0,0,221.66,260a48.87,48.87,0,0,0,24.81,8.29c.59,0,1.11.08,1.7.08a17.9,17.9,0,0,0,2.07-.07c33.27-1.43,59.13-40,59.24-72.44a61.13,61.13,0,1,0-122.25-.44c-.06,16.41,6.38,34.47,17.12,48.4C204.65,244.19,204.87,244.49,205.16,244.79Z"/><path class="b" d="M295,262.64c-12,11.67-27.06,19.6-43.82,20.41-1.06.09-2,.11-3.09.1-.63,0-1.22,0-1.81-.07a63.86,63.86,0,0,1-32.68-10.68,80.73,80.73,0,0,1-12.48-10.09c-48.4,18.75-83.06,65.69-83.26,120.46a7.36,7.36,0,0,0,7.37,7.41l244.8.88h.15a7.37,7.37,0,0,0,7.41-7.37,8.55,8.55,0,0,0-.14-1.48C377,328.15,342.85,281.58,295,262.64Z"/></g><path class="i" d="M397.71,155.17a44.5,44.5,0,1,0,0,62.93A44.51,44.51,0,0,0,397.71,155.17ZM383.29,197c0,6.23-4.47,11.83-11.44,14.34v6.1H361.64v-4.87a21.38,21.38,0,0,1-11.19-4.41l-.29-.22,3.26-12.2.66.51c2.14,1.68,10.54,5.78,14.75,4.35a2.94,2.94,0,0,0,2.05-2.19c.6-2.5-2.9-4.21-7.34-6.37-6.39-3.11-14.34-7-14.34-15.69,0-6.24,4.48-11.83,11.45-14.35v-6.11h10.21v4.88A21.5,21.5,0,0,1,382,165.15l.29.23-.09.35q-1.47,5.52-2.95,11.05l-.21.8-.66-.51c-2.14-1.68-10.54-5.78-14.75-4.36a3,3,0,0,0-2.06,2.19c-.59,2.5,2.92,4.21,7.35,6.38C375.35,184.39,383.29,188.26,383.29,197Z"/><path class="i" d="M190.16,229.79A68.79,68.79,0,0,0,206.66,245a48.87,48.87,0,0,0,24.81,8.29c.59,0,1.11.08,1.7.08a17.9,17.9,0,0,0,2.07-.07c33.27-1.43,59.13-40,59.24-72.44a61.13,61.13,0,1,0-122.25-.44c-.06,16.41,6.38,34.47,17.12,48.4C189.65,229.19,189.87,229.49,190.16,229.79Z"/><path class="i" d="M280,247.64c-12,11.67-27.06,19.6-43.82,20.41-1.06.09-2,.11-3.09.1-.63,0-1.22,0-1.81-.07a63.86,63.86,0,0,1-32.68-10.68,80.73,80.73,0,0,1-12.48-10.09c-48.4,18.75-83.06,65.69-83.26,120.46a7.36,7.36,0,0,0,7.37,7.41l244.8.88h.15a7.37,7.37,0,0,0,7.41-7.37,8.55,8.55,0,0,0-.14-1.48C362,313.15,327.85,266.58,280,247.64Z"/></g></svg>