<svg xmlns="http://www.w3.org/2000/svg" viewBox="0 0 481.9 484.2"><defs><style>.a{isolation:isolate;}.b{fill:#b6bac1;}.c{fill:#fcfcfc;}.d{fill:#c4c8cd;}.e{fill:#edeef0;}.f{fill:#f8f8f8;}.g{fill:#e5e6e8;}.h{opacity:0.3;mix-blend-mode:multiply;}.i{fill:#8fa0ac;}</style></defs><g class="a"><path class="b" d="M47.14,237.93c0-.05-24.36,108,17.45,226.19h0c38.42-69.36,69.28-133.2,93.81-189C88.66,249.32,47.51,238.88,47.14,237.93Z"/><path class="c" d="M433,242.94c-.36-1-41.52-11.4-111.27-37.18-19.49,44.34-35,83.62-47.1,116.54,55.68,24.6,119.35,55.53,188.53,94.05,45.61-249-44.51-394.63-47.55-399.45C457.32,135.05,433,243,433,242.94Z"/><path class="d" d="M47.14,237.93c.37.95,41.52,11.39,111.26,37.16,19.49-44.34,35-83.62,47.1-116.54C149.82,134,86.14,103,17,64.5-29.44,317.84,64.59,464.13,64.59,464.13h0C22.78,345.91,47.12,237.88,47.14,237.93Z"/><path class="e" d="M463.13,416.42c-117.91,41.91-225.66,17.51-225.61,17.49.95-.36,11.37-41.65,37.09-111.61-44.21-19.53-83.38-35.08-116.21-47.21-24.53,55.83-55.39,119.67-93.81,189,252.69,46.55,398.6-47.74,398.6-47.74l-.05,0A.17.17,0,0,0,463.13,416.42Z"/><path class="f" d="M237.52,433.91c-.05,0,107.7,24.42,225.61-17.49a.17.17,0,0,1,0-.07C394,377.83,330.29,346.9,274.61,322.3,248.89,392.26,238.47,433.55,237.52,433.91Z"/><path class="e" d="M242.58,47c-1,.36-11.37,41.63-37.08,111.57,44.21,19.54,83.39,35.08,116.21,47.21,24.53-55.81,55.39-119.65,93.8-189l.08.14c0-.06,0-.11,0-.16C162.85-29.8,16.93,64.48,16.93,64.48l0,0v0C134.88,22.55,242.62,47,242.58,47Z"/><path class="f" d="M321.71,205.76C391.46,231.54,432.62,242,433,242.94c0,0,24.34-107.89-17.39-226l-.08-.14C377.1,86.11,346.24,150,321.71,205.76Z"/><path class="g" d="M242.58,47S134.88,22.55,17,64.47v0C86.14,103,149.82,134,205.5,158.55,231.21,88.61,241.63,47.34,242.58,47Z"/><g class="h"><path class="b" d="M361.4,152.1a148.51,148.51,0,1,0,0,210A148.55,148.55,0,0,0,361.4,152.1ZM313.29,291.6c0,20.81-14.94,39.47-38.19,47.86v20.37H241V343.54a71.26,71.26,0,0,1-37.33-14.68l-1-.75,10.89-40.72,2.18,1.71c7.16,5.59,35.21,19.28,49.24,14.53a9.92,9.92,0,0,0,6.86-7.33c2-8.34-9.71-14-24.51-21.24-21.32-10.38-47.84-23.31-47.84-52.37,0-20.81,14.94-39.48,38.18-47.87v-20.4h34.08v16.29a71.21,71.21,0,0,1,37.3,14.72l1,.74-.32,1.19c-3.25,12.27-6.53,24.58-9.82,36.85l-.71,2.68L297,225.18c-7.16-5.59-35.2-19.29-49.24-14.55a9.87,9.87,0,0,0-6.85,7.32c-2,8.36,9.72,14.06,24.53,21.28C286.77,249.61,313.29,262.54,313.29,291.6Z"/></g><path class="i" d="M346.4,137.1a148.51,148.51,0,1,0,0,210A148.55,148.55,0,0,0,346.4,137.1ZM298.29,276.6c0,20.81-14.94,39.47-38.19,47.86v20.37H226V328.54a71.26,71.26,0,0,1-37.33-14.68l-1-.75,10.89-40.72,2.18,1.71c7.16,5.59,35.21,19.28,49.24,14.53a9.92,9.92,0,0,0,6.86-7.33c2-8.34-9.71-14-24.51-21.24-21.32-10.38-47.84-23.31-47.84-52.37,0-20.81,14.94-39.48,38.18-47.87v-20.4h34.08v16.29a71.21,71.21,0,0,1,37.3,14.72l1,.74-.32,1.19c-3.25,12.27-6.53,24.58-9.82,36.85l-.71,2.68L282,210.18c-7.16-5.59-35.2-19.29-49.24-14.55a9.87,9.87,0,0,0-6.85,7.32c-2,8.36,9.72,14.06,24.53,21.28C271.77,234.61,298.29,247.54,298.29,276.6Z"/></g></svg>