<svg xmlns="http://www.w3.org/2000/svg" viewBox="0 0 481.9 484.2"><defs><style>.a{isolation:isolate;}.b{fill:#b6bac1;}.c{fill:#fcfcfc;}.d{fill:#c4c8cd;}.e{fill:#edeef0;}.f{fill:#f8f8f8;}.g{fill:#e5e6e8;}.h{opacity:0.3;mix-blend-mode:multiply;}.i{fill:#8fa0ac;}.j{fill:#416edd;}</style></defs><g class="a"><path class="b" d="M48.34,237.93c0-.05-24.36,108,17.45,226.19h0c38.42-69.36,69.28-133.2,93.81-189C89.86,249.32,48.71,238.88,48.34,237.93Z"/><path class="c" d="M434.18,242.94c-.36-1-41.52-11.4-111.27-37.18-19.49,44.34-35,83.62-47.1,116.54,55.67,24.6,119.35,55.53,188.53,94.05C510,167.3,419.83,21.72,416.79,16.9,458.52,135.05,434.2,243,434.18,242.94Z"/><path class="d" d="M48.34,237.93c.37.95,41.52,11.39,111.26,37.16,19.49-44.34,35-83.62,47.1-116.54C151,134,87.34,103,18.17,64.5-28.24,317.84,65.79,464.13,65.79,464.13h0C24,345.91,48.32,237.88,48.34,237.93Z"/><path class="e" d="M464.32,416.42c-117.9,41.91-225.65,17.51-225.6,17.49.95-.36,11.37-41.65,37.09-111.61-44.21-19.53-83.38-35.08-116.21-47.21-24.53,55.83-55.39,119.67-93.81,189,252.69,46.55,398.6-47.74,398.6-47.74l-.05,0S464.33,416.4,464.32,416.42Z"/><path class="f" d="M238.72,433.91c-.05,0,107.7,24.42,225.6-17.49,0,0,0-.05,0-.07-69.18-38.52-132.86-69.45-188.53-94.05C250.09,392.26,239.67,433.55,238.72,433.91Z"/><path class="e" d="M243.78,47c-.95.36-11.37,41.63-37.08,111.57,44.21,19.54,83.38,35.08,116.21,47.21,24.53-55.81,55.39-119.65,93.8-189l.08.14c0-.06,0-.11-.05-.16C164.05-29.8,18.13,64.48,18.13,64.48l0,0v0C136.08,22.55,243.82,47,243.78,47Z"/><path class="f" d="M322.91,205.76c69.75,25.78,110.91,36.22,111.27,37.18,0,0,24.34-107.89-17.39-226l-.08-.14C378.3,86.11,347.44,150,322.91,205.76Z"/><path class="g" d="M243.78,47S136.08,22.55,18.17,64.47v0C87.34,103,151,134,206.7,158.55,232.41,88.61,242.83,47.34,243.78,47Z"/><g class="h"><path class="i" d="M355.32,147H159.93a53,53,0,0,0-52.87,52.87v15.06H408.19V199.88A53,53,0,0,0,355.32,147Z"/><path class="i" d="M303.15,297.93a8.52,8.52,0,0,1-8.41,8.4H220.16a8.52,8.52,0,0,1-8.4-8.4V231.4H107.06v119a13.3,13.3,0,0,0,13.31,13.31H394.89a13.3,13.3,0,0,0,13.3-13.31v-119h-105Z"/><path class="i" d="M228.56,231.4v58.12h58.13V231.4Zm29.07,42a12.61,12.61,0,1,1,12.6-12.6A12.55,12.55,0,0,1,257.63,273.41Z"/></g><path class="j" d="M340.32,132H144.93a53,53,0,0,0-52.87,52.87v15.06H393.19V184.88A53,53,0,0,0,340.32,132Z"/><path class="j" d="M288.15,282.93a8.52,8.52,0,0,1-8.41,8.4H205.16a8.52,8.52,0,0,1-8.4-8.4V216.4H92.06v119a13.3,13.3,0,0,0,13.31,13.31H379.89a13.3,13.3,0,0,0,13.3-13.31v-119h-105Z"/><path class="j" d="M213.56,216.4v58.12h58.13V216.4Zm29.07,42a12.61,12.61,0,1,1,12.6-12.6A12.55,12.55,0,0,1,242.63,258.41Z"/></g></svg>