<svg xmlns="http://www.w3.org/2000/svg" viewBox="0 0 129 129.01"><defs><style>.a{fill:#cac9c9;}.b{fill:#868686;}.c{fill:#416edd;}.d{fill:#a8a7a7;}.e{fill:#b6b5b5;}.f{fill:#706f6f;}.g{fill:#666;}</style></defs><path class="a" d="M3.55,16.53l0,0C22.47,27,39.85,35.46,55.05,42.16,67.15,47.48,77.86,51.73,86.84,55,93.54,39.82,102,22.42,112.47,3.52,43.43-9.17,3.55,16.53,3.55,16.53Z"/><path class="b" d="M125.45,112.48A599.85,599.85,0,0,0,42.16,74C35.46,89.19,27,106.59,16.53,125.49,85.58,138.18,125.45,112.48,125.45,112.48Z"/><path class="c" d="M3.59,16.55l-.07,0c-12.69,69.05,13,108.92,13,108.92h0C27,106.59,35.46,89.19,42.16,74c5.34-12.11,9.58-22.84,12.89-31.82C39.85,35.46,22.47,27,3.59,16.55Z"/><path class="d" d="M3.59,16.54l-.07,0c-12.69,69.05,13,108.92,13,108.92h0C27,106.58,35.46,89.18,42.16,74c5.34-12.11,9.58-22.83,12.89-31.82C39.85,35.44,22.47,27,3.59,16.54Z"/><path class="e" d="M3.64,16.55C22.52,27,39.9,35.46,55.1,42.16c7-19,9.85-30.25,10.11-30.35C65.22,11.8,35.83,5.16,3.64,16.55Z"/><path class="f" d="M11.74,63.75s-6.65,29.42,4.77,61.64h0c10.5-18.9,18.93-36.3,25.63-51.51C23.09,66.85,11.84,64,11.74,63.75Z"/><path class="f" d="M112.47,3.52h0C102,22.42,93.54,39.82,86.84,55c-16.64,37.76-22.62,62-23,62.17,0,0,29.43,6.66,61.64-4.76C138.17,43.39,112.47,3.52,112.47,3.52Z"/><path class="g" d="M63.84,117.2s29.38,6.65,61.57-4.74C106.53,102,89.15,93.55,74,86.86,66.94,105.87,64.1,117.1,63.84,117.2Z"/><path class="g" d="M112.44,3.52h0C101.94,22.42,93.51,39.82,86.81,55c19,7,30.3,9.87,30.4,10.13C117.21,65.18,123.87,35.74,112.44,3.52Z"/></svg>